<svg width="18" height="14" viewBox="0 0 18 14" fill="none" xmlns="http://www.w3.org/2000/svg">
<path d="M9.71224 12.2948L7.21001 9.78986C6.93119 9.51074 6.48794 9.51074 6.20912 9.78986C5.93029 10.069 5.93029 10.5127 6.20912 10.7918L9.20465 13.7907C9.48347 14.0698 9.93387 14.0698 10.2127 13.7907L17.7909 6.21133C18.0697 5.93221 18.0697 5.48847 17.7909 5.20934C17.5121 4.93022 17.0688 4.93022 16.79 5.20934L9.71224 12.2948Z" fill="black"/>
<path d="M4.61426 5.4541H1.86035L1.28418 7.10938H0L2.68555 0H3.79395L6.48438 7.10938H5.19531L4.61426 5.4541ZM2.20703 4.45801H4.26758L3.2373 1.50879L2.20703 4.45801Z" fill="black"/>
<path d="M11.7871 0.996094H8.51074V2.71973H9.96582C10.4867 2.71973 10.9408 2.80924 11.3281 2.98828C11.7155 3.16732 12.0101 3.42122 12.2119 3.75C12.4137 4.07878 12.5146 4.45964 12.5146 4.89258C12.5146 5.55664 12.2884 6.09049 11.8359 6.49414C11.3867 6.89779 10.7731 7.10286 9.99512 7.10938H7.27539V0H11.7871V0.996094ZM8.51074 3.71094V6.12305H9.96094C10.3776 6.12305 10.7015 6.01074 10.9326 5.78613C11.167 5.55827 11.2842 5.25716 11.2842 4.88281C11.2842 4.52474 11.1702 4.24154 10.9424 4.0332C10.7145 3.82487 10.3988 3.71745 9.99512 3.71094H8.51074Z" fill="black"/>
</svg>
