<svg width="22" height="14" viewBox="0 0 22 14" fill="none" xmlns="http://www.w3.org/2000/svg">
<path fill-rule="evenodd" clip-rule="evenodd" d="M14.3266 12.7182C13.3965 13.2255 12.3282 13.5139 11.1948 13.5139C10.0614 13.5139 8.99308 13.2254 8.06304 12.7182C7.30131 13.2209 6.38676 13.5139 5.40548 13.5139C2.76479 13.5139 0.600006 11.3909 0.600006 8.74245C0.600006 6.09403 2.76479 3.97103 5.40548 3.97103C5.42917 3.97103 5.45283 3.9712 5.47645 3.97154C6.5813 1.95935 8.73075 0.599609 11.1948 0.599609C13.6588 0.599609 15.8083 1.95935 16.9132 3.97154C16.9368 3.9712 16.9604 3.97103 16.9841 3.97103C19.6248 3.97103 21.7896 6.09403 21.7896 8.74245C21.7896 11.3909 19.6248 13.5139 16.9841 13.5139C16.0028 13.5139 15.0883 13.2209 14.3266 12.7182ZM14.429 10.9714C13.5482 11.6854 12.422 12.1139 11.1948 12.1139C9.96755 12.1139 8.84139 11.6854 7.9606 10.9714C7.33657 11.6719 6.42316 12.1139 5.40548 12.1139C3.52469 12.1139 2.00001 10.6044 2.00001 8.74245C2.00001 6.88046 3.52469 5.37103 5.40548 5.37103C5.72733 5.37103 6.03876 5.41523 6.33389 5.49784C6.9977 3.4677 8.92307 1.99961 11.1948 1.99961C13.4665 1.99961 15.3919 3.4677 16.0557 5.49784C16.3508 5.41523 16.6623 5.37103 16.9841 5.37103C18.8649 5.37103 20.3896 6.88046 20.3896 8.74245C20.3896 10.6044 18.8649 12.1139 16.9841 12.1139C15.9664 12.1139 15.053 11.672 14.429 10.9714Z" fill="black"/>
</svg>
