<svg width="26" height="26" viewBox="0 0 26 26" fill="none" xmlns="http://www.w3.org/2000/svg">
<path d="M12.9985 24.6683C19.4418 24.6683 24.6651 19.445 24.6651 13.0016C24.6651 6.55831 19.4418 1.33496 12.9985 1.33496C6.55516 1.33496 1.33181 6.55831 1.33181 13.0016C1.33181 19.445 6.55516 24.6683 12.9985 24.6683Z" stroke="#979797" stroke-width="1.55556" stroke-linecap="round" stroke-linejoin="round"/>
<path d="M13.0037 6.5C13.3637 6.5 13.6637 6.62 13.9037 6.86C14.157 7.08667 14.2837 7.4 14.2837 7.8C14.2837 8.2 14.157 8.52 13.9037 8.76C13.6637 9 13.3637 9.12 13.0037 9.12C12.6437 9.12 12.337 9 12.0837 8.76C11.8303 8.52 11.7037 8.2 11.7037 7.8C11.7037 7.4 11.8303 7.08667 12.0837 6.86C12.337 6.62 12.6437 6.5 13.0037 6.5ZM11.9837 10.2H14.0237V20H11.9837V10.2Z" fill="#979797"/>
</svg>
