<svg width="28" height="28" viewBox="0 0 28 28" fill="none" xmlns="http://www.w3.org/2000/svg">
<path d="M13.8586 27.2696C21.1779 27.2696 27.1114 21.3278 27.1114 13.9981C27.1114 6.66843 21.1779 0.726562 13.8586 0.726562C6.53932 0.726562 0.605835 6.66843 0.605835 13.9981C0.605835 21.3278 6.53932 27.2696 13.8586 27.2696Z" fill="#FFC800"/>
<path d="M19.5623 23.8871C15.0616 26.4878 10.1804 26.9539 7.06259 25.396C11.0544 27.7779 16.1797 27.9839 20.4876 25.4939C24.7955 23.0013 27.1808 18.4538 27.1166 13.8008C26.9058 17.2822 24.0604 21.2837 19.5623 23.8871Z" fill="black"/>
<path d="M15.5396 1.69916C16.4521 3.28021 14.2467 6.26721 10.6123 8.36583C6.97776 10.467 3.29443 10.8868 2.38195 9.30313C2.3434 9.22846 2.30741 9.14606 2.28171 9.06108C2.04524 8.32463 2.32798 7.37188 3.00912 6.36763C3.11965 6.21056 3.23274 6.05606 3.34841 5.90413C4.37656 4.56256 5.67973 3.39866 7.23223 2.50256C8.78472 1.60388 10.4426 1.05798 12.1159 0.836534C12.3113 0.808209 12.5015 0.787612 12.6865 0.774737C13.8946 0.684612 14.8585 0.916359 15.3777 1.48801C15.4394 1.55496 15.4934 1.62706 15.5396 1.69916Z" fill="black"/>
<path d="M21.1739 3.41043C22.7675 6.17341 19.552 11.017 13.9949 14.2306C8.43774 17.4442 2.63899 17.8098 1.04794 15.0469C0.783189 14.5859 0.641819 14.0735 0.613545 13.5225C0.544145 15.379 0.86287 17.2665 1.60571 19.0587C1.71623 19.3265 1.83704 19.5917 1.96556 19.8544C1.9707 19.8647 1.97841 19.8775 1.98355 19.8878C2.46421 20.7196 3.17363 21.3736 4.05783 21.8474C7.17569 23.5186 12.4475 22.9444 17.3775 20.0939C22.3048 17.2433 25.4381 12.9611 25.5538 9.42305C25.5872 8.42395 25.379 7.48408 24.9035 6.65236C24.7236 6.38198 24.5359 6.11676 24.338 5.86441C23.1685 4.35031 21.7137 3.14521 20.0969 2.28516C20.5467 2.58128 20.9117 2.95723 21.1739 3.41043C21.1739 3.41043 21.1765 3.41301 21.1765 3.41558L21.1739 3.41043Z" fill="black"/>
<path d="M13.8586 27.2696C21.1779 27.2696 27.1114 21.3278 27.1114 13.9981C27.1114 6.66843 21.1779 0.726562 13.8586 0.726562C6.53932 0.726562 0.605835 6.66843 0.605835 13.9981C0.605835 21.3278 6.53932 27.2696 13.8586 27.2696Z" fill="url(#paint0_radial_29222_50442)"/>
<defs>
<radialGradient id="paint0_radial_29222_50442" cx="0" cy="0" r="1" gradientUnits="userSpaceOnUse" gradientTransform="translate(13.8593 13.9983) scale(13.2525 13.2764)">
<stop offset="0.5" stop-color="white" stop-opacity="0"/>
<stop offset="1" stop-color="white" stop-opacity="0.35"/>
</radialGradient>
</defs>
</svg>
