<svg width="212" height="25" viewBox="0 0 212 25" fill="none" xmlns="http://www.w3.org/2000/svg">
<path d="M77.8306 6.76406C80.5115 6.76406 82.4187 5.35296 82.7837 2.25781H80.1491C79.8766 3.34961 79.2392 3.89551 77.8306 3.89551C76.422 3.89551 75.6946 3.34961 75.4684 2.25781H72.8338C73.1962 5.35296 75.1497 6.76406 77.8306 6.76406Z" fill="black"/>
<path d="M23.7399 19.3564V8.17578H20.4215V24.473H23.8761L30.5539 13.1043V24.473H33.8697V8.17578H30.4177L23.7399 19.3564Z" fill="black"/>
<path d="M9.98329 8.31206C7.35638 8.31206 5.11502 9.53776 3.95579 11.8141C4.12029 8.12151 4.85285 5.92503 9.11965 5.35338L15.7538 4.44183L15.4813 0.800781L8.57473 1.75611C2.62177 2.57496 0.94075 7.17391 0.94075 14.4097C0.94075 20.7364 3.80414 24.7869 9.11965 24.7869C14.2989 24.7869 17.1161 20.7802 17.1161 16.0937C17.1161 11.4072 13.9828 8.31206 9.98329 8.31206ZM9.11965 21.1948C6.12004 21.1948 4.34906 19.0112 4.34906 15.7332V14.0492C4.98394 12.7745 6.66752 11.7729 9.11965 11.7729C11.7106 11.7729 13.7078 13.0011 13.7078 16.0963C13.7078 19.1914 12.1193 21.1948 9.11965 21.1948Z" fill="black"/>
<path d="M98.5375 8.17578V14.276H92.0833V8.17578H88.7675V24.473H92.0833V17.6441H98.5375V24.473H101.853V8.17578H98.5375Z" fill="black"/>
<path d="M74.4686 19.3564V8.17578H71.1502V24.473H74.6048L81.2826 13.1043V24.473H84.601V8.17578H81.1464L74.4686 19.3564Z" fill="black"/>
<path d="M39.8381 18.1469C39.4756 19.9674 38.9744 20.7425 37.9746 20.7425C37.4296 20.7425 37.0209 20.6962 36.7485 20.606V24.3836C37.1572 24.5664 37.5222 24.7029 38.3832 24.7029C40.1105 24.7029 41.3366 23.7012 41.9278 22.1536C42.2902 21.1983 42.519 19.8773 42.7015 18.1932C42.8839 16.5092 43.0202 14.2792 43.0202 11.6399H47.4284V24.4763H50.7441V8.18164H40.2493C40.2468 13.0922 40.1105 16.3238 39.8381 18.1469Z" fill="black"/>
<path d="M66.3925 20.0566L66.4388 13.5934C66.485 9.49655 63.9841 7.8125 60.3496 7.8125C57.35 7.8125 54.6254 9.4502 54.2167 13.2741H57.3962C57.5787 11.7729 58.7585 11.2707 60.3496 11.2707C61.9792 11.2707 63.0716 11.7729 63.2361 13.4492L59.1698 15.0946C56.3989 16.2328 54.3092 17.5074 54.3092 20.1931C54.3092 22.969 55.854 24.7457 58.9436 24.7457C61.077 24.7457 62.4264 23.7415 63.506 21.7793C63.6679 23.7415 64.9659 24.6092 67.2124 24.6092H68.1223V21.4677H67.8499C66.8012 21.4677 66.3925 21.0583 66.3925 20.0566ZM60.1671 21.3313C58.6223 21.3313 57.4862 20.9218 57.4862 19.5107C57.4862 18.2825 58.4398 17.7366 60.0771 17.0516L63.2438 15.7332L63.2104 20.1468C62.6655 20.8291 61.5756 21.3313 60.1671 21.3313Z" fill="black"/>
<path d="M125.701 16.2435C125.701 21.1309 122.727 24.6792 117.615 24.6792C112.502 24.6792 109.461 21.1643 109.461 14.2041C109.461 6.8396 111.266 2.59085 117.113 1.75398L124.197 0.783203V4.33155L117.648 5.3358C114.206 5.8714 113.171 7.71253 112.87 11.3278C114.106 9.31933 116.144 8.34855 118.584 8.34855C122.894 8.34598 125.701 11.3587 125.701 16.2435ZM113.006 13.599V15.4736C113.006 19.0554 114.71 21.0639 117.617 21.0639C120.491 21.0639 122.295 19.3232 122.295 16.2435C122.295 13.1638 120.558 11.7244 117.818 11.7244C115.777 11.7244 114.039 12.3269 113.006 13.599Z" fill="black"/>
<path d="M132.248 18.7867L139.332 7.94336H142.573V24.3435H139.198V13.3663L132.081 24.3435H128.839V7.94336H132.248V18.7867V18.7867Z" fill="black"/>
<path d="M155.502 19.0559C155.502 17.6164 154.466 17.0139 152.528 17.0139H150.055V14.8715H152.394C154.199 14.8715 155.067 14.135 155.067 12.9299C155.067 11.6244 154.098 10.9884 152.194 10.9884C150.222 10.9884 149.019 11.7583 148.719 13.2312H145.812C146.213 9.71635 148.652 7.60742 152.327 7.60742C155.936 7.60742 158.275 9.34812 158.275 12.3609C158.275 14.0011 157.306 15.3067 155.869 15.7418C157.607 16.1435 158.743 17.4491 158.743 19.4241C158.743 22.8385 155.936 24.6797 152.261 24.6797C148.451 24.6797 146.012 22.7046 145.711 19.0224H148.652C148.886 20.5622 150.089 21.2652 152.127 21.2652C154.165 21.2652 155.502 20.5622 155.502 19.0559Z" fill="black"/>
<path d="M171.973 17.6485H165.256V24.3435H161.848V7.94336H165.256V14.1362H171.973V7.94336H175.381V24.3435H171.973V17.6485Z" fill="black"/>
<path d="M186.272 24.6797C181.694 24.6797 178.52 21.0644 178.52 16.1435C178.52 11.2227 181.727 7.60742 186.339 7.60742C190.95 7.60742 194.057 11.0888 194.057 16.2774C194.057 16.4113 194.024 16.8465 194.024 16.9804H181.897C182.164 19.6919 183.835 21.2987 186.341 21.2987C188.613 21.2987 189.983 20.4283 190.618 19.1228H193.692C192.988 22.1356 190.716 24.6797 186.272 24.6797ZM181.961 14.7376H190.649C190.315 12.5282 188.878 10.9884 186.339 10.9884C183.966 10.991 182.396 12.3609 181.961 14.7376Z" fill="black"/>
<path d="M211.364 13.6212H208.323C207.888 12.2153 206.552 11.278 204.079 11.278C201.272 11.278 199.568 13.253 199.568 16.0983C199.568 18.9772 201.272 20.9857 204.079 20.9857C206.552 20.9857 207.888 20.0149 208.323 18.6759H211.364C210.695 22.3582 208.022 24.6679 204.046 24.6679C199.201 24.6679 196.16 20.9187 196.16 16.0983C196.16 11.3114 199.201 7.5957 204.046 7.5957C208.022 7.5957 210.695 9.93895 211.364 13.6212Z" fill="black"/>
</svg>
