<svg width="18" height="18" viewBox="0 0 18 18" fill="none" xmlns="http://www.w3.org/2000/svg">
<path fill-rule="evenodd" clip-rule="evenodd" d="M15.0952 1C15.6212 1 16.0974 1.2229 16.4421 1.58328C16.7868 1.94365 17 2.44151 17 2.99143V10.2303C17 10.7802 16.7868 11.2781 16.4421 11.6385C16.0974 11.9988 15.6212 12.2217 15.0952 12.2217H9.40358L5.05294 16L4.42857 12.0465C3.24976 12.3948 2.22062 12.208 1.5957 11.6272C1.21546 11.2738 1 10.7781 1 10.2303V2.99143C1 2.44151 1.2132 1.94365 1.55789 1.58328C1.90259 1.2229 2.37878 1 2.90476 1H15.0952Z" stroke="black" stroke-width="1.4"/>
</svg>
