<svg width="12" height="12" viewBox="0 0 12 12" fill="none" xmlns="http://www.w3.org/2000/svg">
<path d="M11.854 0.145996C11.9006 0.192442 11.9375 0.247618 11.9627 0.308363C11.9879 0.369108 12.0009 0.434229 12.0009 0.499997C12.0009 0.565764 11.9879 0.630885 11.9627 0.69163C11.9375 0.752375 11.9006 0.807551 11.854 0.853997L8.70701 4H10.503C10.6356 4 10.7628 4.05268 10.8566 4.14644C10.9503 4.24021 11.003 4.36739 11.003 4.5C11.003 4.63261 10.9503 4.75978 10.8566 4.85355C10.7628 4.94732 10.6356 5 10.503 5H7.50001C7.3674 5 7.24023 4.94732 7.14646 4.85355C7.05269 4.75978 7.00001 4.63261 7.00001 4.5V1.5C7.00001 1.36739 7.05269 1.24021 7.14646 1.14644C7.24023 1.05268 7.3674 0.999997 7.50001 0.999997C7.63262 0.999997 7.7598 1.05268 7.85357 1.14644C7.94733 1.24021 8.00001 1.36739 8.00001 1.5V3.293L11.147 0.145996C11.2408 0.0522609 11.3679 -0.000396729 11.5005 -0.000396729C11.6331 -0.000396729 11.7602 0.0522609 11.854 0.145996ZM2.37401 0.119996C2.78449 -0.0343257 3.23795 -0.0289116 3.64462 0.135167C4.0513 0.299245 4.38156 0.610028 4.57001 1.006L5.15501 2.234C5.27692 2.49033 5.32359 2.776 5.2896 3.05781C5.25561 3.33961 5.14237 3.60599 4.96301 3.826L4.01801 4.986C4.10424 5.43606 4.26476 5.86864 4.49301 6.266C4.72607 6.65801 5.02241 7.00875 5.37001 7.304L6.87601 7.028C7.12024 6.98307 7.3718 6.99948 7.60812 7.07575C7.84444 7.15202 8.05813 7.28577 8.23001 7.465L9.03901 8.309C9.19874 8.4757 9.3239 8.67236 9.40729 8.88765C9.49068 9.10294 9.53064 9.3326 9.52488 9.5634C9.51912 9.7942 9.46774 10.0216 9.37371 10.2324C9.27969 10.4433 9.14486 10.6335 8.97701 10.792L8.68101 11.072C7.55501 12.135 5.80101 12.362 4.54601 11.319C3.60601 10.537 2.47801 9.439 1.62801 8.106C0.688012 6.629 0.248012 4.876 0.0400121 3.556C-0.196988 2.05 0.760012 0.725997 2.11101 0.218997L2.37401 0.118997V0.119996ZM5.23601 7.837L4.94701 8.245L4.94601 8.244L4.94301 8.242L4.93301 8.235C4.88917 8.20362 4.84679 8.17026 4.80601 8.135C4.33659 7.75291 3.93845 7.29079 3.63001 6.77C3.30044 6.19771 3.08448 5.56717 2.99401 4.913L2.99301 4.9V4.895L3.48901 4.843L2.99201 4.893C2.97877 4.76124 3.01833 4.62962 3.10201 4.527L4.18801 3.193C4.24767 3.11973 4.28534 3.03105 4.29667 2.93725C4.30799 2.84345 4.29251 2.74836 4.25201 2.663L3.66701 1.434C3.58631 1.26451 3.44499 1.13145 3.27095 1.0611C3.09692 0.990742 2.90282 0.988209 2.72701 1.054L2.46301 1.154C1.47801 1.524 0.877012 2.44 1.02801 3.398C1.22701 4.659 1.63801 6.258 2.47201 7.568C3.24501 8.781 4.28901 9.804 5.18501 10.548C5.98901 11.216 7.17401 11.118 7.99501 10.344L8.29001 10.064C8.36196 9.99609 8.41975 9.91462 8.46008 9.82428C8.5004 9.73394 8.52245 9.63651 8.52496 9.53762C8.52747 9.43872 8.51039 9.3403 8.4747 9.24803C8.43901 9.15576 8.38542 9.07147 8.31701 9L7.50801 8.156C7.45079 8.09625 7.37963 8.05163 7.30091 8.02615C7.2222 8.00067 7.1384 7.99512 7.05701 8.01L5.32701 8.328C5.26127 8.34011 5.19377 8.33891 5.1285 8.32448C5.06323 8.31006 5.00152 8.28269 4.94701 8.244L5.23701 7.836L5.23601 7.837Z" fill="black"/>
</svg>
