<svg width="12" height="12" viewBox="0 0 12 12" fill="none" xmlns="http://www.w3.org/2000/svg">
<path d="M8.00001 0.5C8.00001 0.367392 8.05269 0.240215 8.14646 0.146447C8.24023 0.0526785 8.3674 0 8.50001 0H11.5C11.6326 0 11.7598 0.0526785 11.8536 0.146447C11.9473 0.240215 12 0.367392 12 0.5V3.5C12 3.63261 11.9473 3.75979 11.8536 3.85355C11.7598 3.94732 11.6326 4 11.5 4C11.3674 4 11.2402 3.94732 11.1465 3.85355C11.0527 3.75979 11 3.63261 11 3.5V1.707L7.85401 4.854C7.75971 4.94508 7.63341 4.99548 7.50231 4.99434C7.37121 4.9932 7.24581 4.94061 7.1531 4.84791C7.0604 4.75521 7.00781 4.6298 7.00668 4.4987C7.00554 4.3676 7.05593 4.2413 7.14701 4.147L10.293 1H8.50001C8.3674 1 8.24023 0.947321 8.14646 0.853553C8.05269 0.759785 8.00001 0.632608 8.00001 0.5ZM2.37401 0.12C2.78449 -0.0343222 3.23795 -0.0289082 3.64462 0.13517C4.0513 0.299248 4.38156 0.610031 4.57001 1.006L5.15501 2.234C5.27692 2.49034 5.32359 2.776 5.2896 3.05781C5.25561 3.33962 5.14237 3.60599 4.96301 3.826L4.01801 4.986C4.10424 5.43606 4.26476 5.86864 4.49301 6.266C4.72607 6.65802 5.02241 7.00876 5.37001 7.304L6.87601 7.028C7.12024 6.98307 7.3718 6.99948 7.60812 7.07575C7.84444 7.15202 8.05813 7.28577 8.23001 7.465L9.03901 8.309C9.19874 8.4757 9.3239 8.67236 9.40729 8.88765C9.49068 9.10294 9.53064 9.3326 9.52488 9.56341C9.51912 9.79421 9.46774 10.0216 9.37371 10.2324C9.27969 10.4433 9.14486 10.6335 8.97701 10.792L8.68101 11.072C7.55501 12.135 5.80101 12.362 4.54601 11.319C3.60601 10.537 2.47801 9.439 1.62801 8.106C0.688012 6.629 0.248012 4.876 0.0400121 3.556C-0.196988 2.05 0.760012 0.726 2.11101 0.219L2.37401 0.119V0.12ZM5.23601 7.837L4.94701 8.245L4.94601 8.244L4.94301 8.242L4.93301 8.235C4.88917 8.20363 4.84679 8.17026 4.80601 8.135C4.33659 7.75291 3.93845 7.29079 3.63001 6.77C3.30041 6.19773 3.08446 5.56718 2.99401 4.913L2.99301 4.9V4.895L3.48901 4.843L2.99201 4.893C2.97877 4.76125 3.01833 4.62962 3.10201 4.527L4.18801 3.193C4.24767 3.11973 4.28534 3.03106 4.29667 2.93726C4.30799 2.84345 4.29251 2.74836 4.25201 2.663L3.66701 1.434C3.58631 1.26451 3.44499 1.13145 3.27095 1.0611C3.09692 0.990746 2.90282 0.988212 2.72701 1.054L2.46301 1.154C1.47801 1.524 0.877012 2.44 1.02801 3.398C1.22701 4.659 1.63801 6.258 2.47201 7.568C3.24501 8.781 4.28901 9.804 5.18501 10.548C5.98901 11.216 7.17401 11.118 7.99501 10.344L8.29001 10.064C8.36196 9.99609 8.41975 9.91462 8.46008 9.82428C8.5004 9.73394 8.52245 9.63652 8.52496 9.53762C8.52747 9.43872 8.51039 9.3403 8.4747 9.24803C8.43901 9.15577 8.38542 9.07147 8.31701 9L7.50801 8.156C7.45079 8.09625 7.37963 8.05164 7.30091 8.02616C7.2222 8.00067 7.1384 7.99512 7.05701 8.01L5.32701 8.328C5.26127 8.34011 5.19377 8.33892 5.1285 8.32449C5.06323 8.31006 5.00152 8.28269 4.94701 8.244L5.23701 7.836L5.23601 7.837Z" fill="black"/>
</svg>
