<svg width="24" height="24" viewBox="0 0 24 24" fill="none" xmlns="http://www.w3.org/2000/svg">
<path d="M12 16C14.2091 16 16 14.2091 16 12C16 9.79086 14.2091 8 12 8C9.79086 8 8 9.79086 8 12C8 14.2091 9.79086 16 12 16Z" stroke="#313031" stroke-width="1.5" stroke-linecap="round" stroke-linejoin="round"/>
<path d="M5.23022 16.7754L5.11801 18.5158C5.10996 18.6274 5.12659 18.7393 5.16673 18.8437C5.20687 18.9481 5.26953 19.0423 5.35024 19.1197C6.42896 20.1429 7.73431 20.8965 9.15978 21.3191C9.26716 21.3503 9.38011 21.3575 9.49057 21.34C9.60102 21.3226 9.70628 21.2811 9.79885 21.2183L11.25 20.251H12.75L14.2012 21.2184C14.2937 21.2811 14.399 21.3227 14.5094 21.3401C14.6199 21.3575 14.7328 21.3504 14.8402 21.3192C16.2657 20.8966 17.571 20.1429 18.6497 19.1197C18.7305 19.0423 18.7931 18.9481 18.8333 18.8437C18.8734 18.7394 18.8901 18.6274 18.882 18.5159L18.7698 16.7755L19.5198 15.4764L21.0832 14.7034C21.1838 14.6546 21.2724 14.5842 21.3428 14.4973C21.4131 14.4103 21.4634 14.3089 21.49 14.2003C21.8368 12.7546 21.8368 11.2473 21.49 9.80148C21.4633 9.69288 21.4131 9.59149 21.3427 9.50454C21.2724 9.41759 21.1838 9.34722 21.0832 9.29842L19.5199 8.52538L18.7699 7.22634L18.8821 5.48588C18.8901 5.37435 18.8735 5.26241 18.8333 5.15804C18.7932 5.05366 18.7306 4.95943 18.6498 4.88203C17.5711 3.85884 16.2658 3.10521 14.8403 2.68262C14.7329 2.65141 14.62 2.64426 14.5095 2.66168C14.3991 2.6791 14.2938 2.72066 14.2012 2.78341L12.7501 3.75077H11.2501L9.79892 2.78336C9.70636 2.72062 9.6011 2.67906 9.49064 2.66163C9.38018 2.64421 9.26724 2.65135 9.15986 2.68256C7.73439 3.10516 6.42904 3.85881 5.35034 4.88201C5.26962 4.9594 5.20696 5.05364 5.16681 5.15801C5.12667 5.26238 5.11003 5.37432 5.11809 5.48585L5.23028 7.22626L4.48028 8.5253L2.91689 9.29835C2.81627 9.34714 2.72765 9.41752 2.65733 9.50446C2.58701 9.59141 2.53673 9.6928 2.51006 9.80139C2.16331 11.2472 2.16331 12.7545 2.51008 14.2003C2.53674 14.3089 2.58702 14.4102 2.65734 14.4972C2.72765 14.5841 2.81628 14.6545 2.91689 14.7033L4.48022 15.4764L5.23022 16.7754Z" stroke="#313031" stroke-width="1.5" stroke-miterlimit="10"/>
</svg>
