<svg width="18" height="16" viewBox="0 0 18 16" fill="none" xmlns="http://www.w3.org/2000/svg">
<path d="M10.25 1.50182C10.25 0.805571 9.40875 0.456821 8.91625 0.949321L5.9825 3.88307C5.86638 3.99923 5.72851 4.09136 5.57676 4.1542C5.42501 4.21705 5.26237 4.24937 5.09813 4.24932H2.75C2.08696 4.24932 1.45107 4.51271 0.982233 4.98155C0.513392 5.45039 0.25 6.08628 0.25 6.74932V9.24932C0.25 9.91236 0.513392 10.5482 0.982233 11.0171C1.45107 11.4859 2.08696 11.7493 2.75 11.7493H5.09813C5.26237 11.7493 5.42501 11.7816 5.57676 11.8444C5.72851 11.9073 5.86638 11.9994 5.9825 12.1156L8.91625 15.0493C9.40875 15.5418 10.25 15.1931 10.25 14.4968V1.50182ZM6.86625 4.76682L9 2.6337V13.3662L6.86625 11.2324C6.63414 11.0001 6.35851 10.8158 6.05513 10.69C5.75175 10.5642 5.42655 10.4994 5.09813 10.4993H2.75C2.41848 10.4993 2.10054 10.3676 1.86612 10.1332C1.6317 9.89878 1.5 9.58084 1.5 9.24932V6.74932C1.5 6.4178 1.6317 6.09986 1.86612 5.86544C2.10054 5.63102 2.41848 5.49932 2.75 5.49932H5.09813C5.42647 5.49941 5.75161 5.43483 6.05499 5.30925C6.35836 5.18368 6.63403 4.99957 6.86625 4.76745V4.76682ZM13.265 3.89557C13.2189 3.82703 13.1597 3.76831 13.0907 3.72281C13.0218 3.6773 12.9445 3.64592 12.8633 3.63047C12.7822 3.61502 12.6988 3.61581 12.6179 3.63279C12.5371 3.64977 12.4604 3.68261 12.3923 3.72941C12.3243 3.77621 12.2662 3.83604 12.2214 3.90544C12.1765 3.97484 12.1459 4.05243 12.1313 4.13373C12.1167 4.21503 12.1183 4.29843 12.1361 4.3791C12.1539 4.45976 12.1875 4.5361 12.235 4.6037C13.0381 5.77182 13.4144 6.90057 13.4144 7.99932C13.4144 9.09807 13.0381 10.2268 12.235 11.3949C12.141 11.5315 12.1051 11.6999 12.1353 11.8629C12.1654 12.0259 12.259 12.1703 12.3956 12.2643C12.5322 12.3583 12.7005 12.3942 12.8636 12.3641C13.0266 12.3339 13.171 12.2403 13.265 12.1037C14.1806 10.7718 14.6638 9.40057 14.6638 7.99932C14.6638 6.59807 14.1806 5.22682 13.265 3.89557V3.89557ZM15.0563 1.29682C14.9362 1.18245 14.7757 1.12043 14.61 1.12442C14.4442 1.1284 14.2869 1.19806 14.1725 1.31807C14.0581 1.43808 13.9961 1.59861 14.0001 1.76435C14.0041 1.93008 14.0737 2.08745 14.1938 2.20182C15.6856 3.62245 16.4613 5.7887 16.4613 7.99932C16.4613 10.2099 15.6856 12.3762 14.1938 13.7968C14.1343 13.8535 14.0866 13.9212 14.0534 13.9963C14.0202 14.0714 14.0021 14.1522 14.0001 14.2343C13.9981 14.3164 14.0123 14.398 14.0419 14.4746C14.0715 14.5512 14.1159 14.6211 14.1725 14.6806C14.2291 14.74 14.2969 14.7877 14.372 14.8209C14.447 14.8541 14.5279 14.8723 14.61 14.8742C14.692 14.8762 14.7737 14.862 14.8503 14.8324C14.9268 14.8028 14.9968 14.7585 15.0563 14.7018C16.8456 12.9974 17.7106 10.4762 17.7106 7.99932C17.7106 5.52245 16.8456 3.0012 15.0563 1.29682V1.29682Z" fill="black"/>
</svg>
