<svg width="19" height="19" viewBox="0 0 19 19" fill="none" xmlns="http://www.w3.org/2000/svg">
<path d="M1.35703 18.3215C1.35703 18.5052 1.28988 18.6643 1.15559 18.7986C1.0213 18.9329 0.862277 19 0.678513 19C0.494749 19 0.335723 18.9329 0.201434 18.7986C0.0671445 18.6643 0 18.5052 0 18.3215C0 18.1377 0.0671445 17.9787 0.201434 17.8444C0.335723 17.7101 0.494749 17.643 0.678513 17.643C0.862277 17.643 1.0213 17.7101 1.15559 17.8444C1.28988 17.9787 1.35703 18.1377 1.35703 18.3215ZM3.39257 16.2859C3.39257 16.4697 3.32542 16.6287 3.19113 16.763C3.05684 16.8973 2.89782 16.9644 2.71405 16.9644C2.53029 16.9644 2.37126 16.8973 2.23697 16.763C2.10268 16.6287 2.03554 16.4697 2.03554 16.2859C2.03554 16.1021 2.10268 15.9431 2.23697 15.8088C2.37126 15.6745 2.53029 15.6074 2.71405 15.6074C2.89782 15.6074 3.05684 15.6745 3.19113 15.8088C3.32542 15.9431 3.39257 16.1021 3.39257 16.2859ZM3.86965 12.4162L6.5837 15.1303L5.62954 16.0845L2.91549 13.3704L3.86965 12.4162ZM7.46364 12.2148C7.46364 12.3985 7.3965 12.5576 7.26221 12.6919C7.12792 12.8261 6.9689 12.8933 6.78513 12.8933C6.60137 12.8933 6.44234 12.8261 6.30805 12.6919C6.17376 12.5576 6.10662 12.3985 6.10662 12.2148C6.10662 12.031 6.17376 11.872 6.30805 11.7377C6.44234 11.6034 6.60137 11.5362 6.78513 11.5362C6.9689 11.5362 7.12792 11.6034 7.26221 11.7377C7.3965 11.872 7.46364 12.031 7.46364 12.2148ZM14.9591 8.82216C14.9591 9.23917 14.9185 9.6226 14.8372 9.97247C14.7559 10.3223 14.6234 10.6528 14.4396 10.9637C14.2558 11.2747 14.1004 11.5133 13.9731 11.6794C13.8459 11.8455 13.6586 12.0734 13.4112 12.3632C13.1921 12.6106 13.0313 12.8014 12.9289 12.9357C12.8264 13.07 12.708 13.2467 12.5737 13.4658C12.4394 13.6849 12.3458 13.9111 12.2928 14.1443C12.2397 14.3776 12.2132 14.6391 12.2132 14.9289C12.2132 16.0527 11.8157 17.0121 11.0205 17.8073C10.2254 18.6024 9.26595 19 8.14216 19C7.95839 19 7.79937 18.9329 7.66508 18.7986C7.53079 18.6643 7.46364 18.5052 7.46364 18.3215C7.46364 18.1377 7.53079 17.9787 7.66508 17.8444C7.79937 17.7101 7.95839 17.643 8.14216 17.643C8.89135 17.643 9.53099 17.3779 10.0611 16.8478C10.5912 16.3177 10.8562 15.6781 10.8562 14.9289C10.8562 14.526 10.8969 14.1532 10.9781 13.8104C11.0594 13.4676 11.1902 13.146 11.3704 12.8456C11.5506 12.5452 11.7044 12.3102 11.8316 12.1406C11.9588 11.9709 12.1426 11.7483 12.3829 11.4726C12.6656 11.1475 12.8758 10.8931 13.0137 10.7093C13.1515 10.5255 13.284 10.2623 13.4112 9.91946C13.5385 9.57666 13.6021 9.21089 13.6021 8.82216C13.6021 7.51459 13.1374 6.39608 12.2079 5.46665C11.2785 4.53721 10.16 4.0725 8.85248 4.0725C7.54493 4.0725 6.42644 4.53721 5.49702 5.46665C4.5676 6.39608 4.10288 7.51459 4.10288 8.82216C4.10288 9.00592 4.03574 9.16495 3.90145 9.29924C3.76716 9.43353 3.60813 9.50068 3.42437 9.50068C3.24061 9.50068 3.08158 9.43353 2.94729 9.29924C2.813 9.16495 2.74586 9.00592 2.74586 8.82216C2.74586 7.99521 2.90665 7.20536 3.22824 6.45263C3.54983 5.69989 3.9845 5.04964 4.53226 4.50187C5.08001 3.95411 5.73026 3.51943 6.48298 3.19784C7.23571 2.87625 8.02554 2.71545 8.85248 2.71545C9.67941 2.71545 10.4692 2.87625 11.222 3.19784C11.9747 3.51943 12.6249 3.95411 13.1727 4.50187C13.7205 5.04964 14.1551 5.69989 14.4767 6.45263C14.7983 7.20536 14.9591 7.99521 14.9591 8.82216ZM9.49918 10.1792C9.49918 10.363 9.43204 10.522 9.29775 10.6563C9.16346 10.7906 9.00444 10.8577 8.82067 10.8577C8.63691 10.8577 8.47788 10.7906 8.34359 10.6563C8.2093 10.522 8.14216 10.363 8.14216 10.1792C8.14216 9.99544 8.2093 9.83641 8.34359 9.70212C8.47788 9.56783 8.63691 9.50068 8.82067 9.50068C9.00444 9.50068 9.16346 9.56783 9.29775 9.70212C9.43204 9.83641 9.49918 9.99544 9.49918 10.1792ZM12.5525 8.82216C12.5525 9.00592 12.4853 9.16495 12.3511 9.29924C12.2168 9.43353 12.0577 9.50068 11.874 9.50068C11.6902 9.50068 11.5312 9.43353 11.3969 9.29924C11.2626 9.16495 11.1955 9.00592 11.1955 8.82216C11.1955 8.16484 10.964 7.6047 10.5011 7.14175C10.0381 6.6788 9.47798 6.44733 8.82067 6.44733C8.17043 6.44733 7.61207 6.6788 7.14559 7.14175C6.67911 7.6047 6.44588 8.16484 6.44588 8.82216C6.44588 9.00592 6.37873 9.16495 6.24444 9.29924C6.11015 9.43353 5.95113 9.50068 5.76736 9.50068C5.5836 9.50068 5.42457 9.43353 5.29028 9.29924C5.15599 9.16495 5.08885 9.00592 5.08885 8.82216C5.08885 7.79024 5.45284 6.91028 6.18083 6.18228C6.90882 5.45428 7.78877 5.09028 8.82067 5.09028C9.85258 5.09028 10.7325 5.45428 11.4605 6.18228C12.1885 6.91028 12.5525 7.79024 12.5525 8.82216ZM16.7296 5.7582C16.8003 5.9349 16.7967 6.10807 16.719 6.2777C16.6412 6.44733 16.514 6.56748 16.3373 6.63816C16.2737 6.66643 16.1924 6.68057 16.0935 6.68057C15.9592 6.68057 15.8337 6.6417 15.7171 6.56395C15.6005 6.4862 15.5175 6.38018 15.468 6.24589C14.9874 4.9878 14.1958 3.94527 13.0932 3.11832C12.9448 3.00524 12.8564 2.85681 12.8281 2.67304C12.7999 2.48928 12.8423 2.32318 12.9554 2.17475C13.0755 2.02633 13.2275 1.93798 13.4112 1.9097C13.595 1.88143 13.7611 1.92384 13.9095 2.03693C15.2029 3.00524 16.143 4.24566 16.7296 5.7582ZM18.956 4.89945C19.0196 5.07615 19.0143 5.24931 18.9401 5.41894C18.8658 5.58857 18.7404 5.70873 18.5637 5.77941C18.486 5.80768 18.4047 5.82181 18.3199 5.82181C18.0089 5.82181 17.7968 5.67692 17.6838 5.38714C17.0335 3.70496 15.9839 2.31611 14.535 1.22058C14.3795 1.10749 14.2894 0.959066 14.2647 0.775299C14.2399 0.591533 14.2841 0.425436 14.3972 0.277009C14.5103 0.121514 14.6587 0.031398 14.8425 0.00666018C15.0262 -0.0180776 15.1923 0.026097 15.3408 0.139184C17.0017 1.37607 18.2068 2.96283 18.956 4.89945Z" fill="black"/>
</svg>
