<svg width="271" height="239" viewBox="0 0 271 239" fill="none" xmlns="http://www.w3.org/2000/svg">
<line y1="-0.25" x2="202" y2="-0.25" transform="matrix(0 -1 -1 0 248 210)" stroke="#CACACA" stroke-width="0.5"/>
<line y1="-0.25" x2="202" y2="-0.25" transform="matrix(0 -1 -1 0 216 210)" stroke="#CACACA" stroke-width="0.5"/>
<line y1="-0.25" x2="202" y2="-0.25" transform="matrix(0 -1 -1 0 184 210)" stroke="#CACACA" stroke-width="0.5"/>
<line y1="-0.25" x2="202" y2="-0.25" transform="matrix(0 -1 -1 0 152 210)" stroke="#CACACA" stroke-width="0.5"/>
<line y1="-0.25" x2="202" y2="-0.25" transform="matrix(0 -1 -1 0 120 210)" stroke="#CACACA" stroke-width="0.5"/>
<line y1="-0.25" x2="202" y2="-0.25" transform="matrix(0 -1 -1 0 88 210)" stroke="#CACACA" stroke-width="0.5"/>
<line y1="-0.25" x2="202" y2="-0.25" transform="matrix(0 -1 -1 0 56 210)" stroke="#CACACA" stroke-width="0.5"/>
<line y1="-0.25" x2="204" y2="-0.25" transform="matrix(-1 0 0 1 260 18)" stroke="#CACACA" stroke-width="0.5"/>
<path d="M259.256 68.288H260.192V69H257.6V68.288H258.584V64.624L257.36 65.272V64.512L259.256 63.512V68.288ZM263.573 65.128C263.573 64.8667 263.485 64.648 263.309 64.472C263.138 64.2907 262.893 64.2 262.573 64.2C262.232 64.2 261.96 64.2907 261.757 64.472C261.554 64.648 261.432 64.9093 261.389 65.256H260.781C260.813 64.9147 260.901 64.6107 261.045 64.344C261.194 64.072 261.4 63.8587 261.661 63.704C261.922 63.544 262.234 63.464 262.597 63.464C262.954 63.464 263.253 63.536 263.493 63.68C263.738 63.8187 263.925 64.0107 264.053 64.256C264.181 64.5013 264.245 64.7787 264.245 65.088C264.245 65.328 264.208 65.5413 264.133 65.728C264.058 65.9093 263.949 66.0827 263.805 66.248C263.661 66.4133 263.48 66.584 263.261 66.76C263.042 66.936 262.789 67.1333 262.501 67.352C262.288 67.512 262.096 67.6667 261.925 67.816C261.76 67.9653 261.64 68.1173 261.565 68.272H264.245V69H260.853V68.552C260.853 68.328 260.912 68.1227 261.029 67.936C261.152 67.744 261.309 67.5627 261.501 67.392C261.698 67.2213 261.904 67.056 262.117 66.896C262.416 66.6667 262.674 66.4613 262.893 66.28C263.112 66.0933 263.28 65.9093 263.397 65.728C263.514 65.5413 263.573 65.3413 263.573 65.128ZM267.032 63.464C267.464 63.464 267.824 63.5813 268.112 63.816C268.405 64.0507 268.624 64.3813 268.768 64.808C268.917 65.2293 268.992 65.72 268.992 66.28C268.992 66.84 268.917 67.3333 268.768 67.76C268.624 68.1813 268.405 68.5093 268.112 68.744C267.824 68.9787 267.464 69.096 267.032 69.096C266.6 69.096 266.237 68.9787 265.944 68.744C265.651 68.5093 265.429 68.1813 265.28 67.76C265.136 67.3333 265.064 66.84 265.064 66.28C265.064 65.72 265.136 65.2293 265.28 64.808C265.429 64.3813 265.651 64.0507 265.944 63.816C266.237 63.5813 266.6 63.464 267.032 63.464ZM267.032 64.208C266.616 64.208 266.296 64.3733 266.072 64.704C265.848 65.0347 265.736 65.56 265.736 66.28C265.736 67 265.848 67.5253 266.072 67.856C266.296 68.1867 266.616 68.352 267.032 68.352C267.448 68.352 267.765 68.1867 267.984 67.856C268.208 67.5253 268.32 67 268.32 66.28C268.32 65.56 268.208 65.0347 267.984 64.704C267.765 64.3733 267.448 64.208 267.032 64.208Z" fill="#1E2020"/>
<path opacity="0.9" d="M245 106C247.209 106 249 104.209 249 102V30C249 27.7909 247.209 26 245 26L56 26V106L245 106Z" fill="#FFA940"/>
<line y1="-0.25" x2="204" y2="-0.25" transform="matrix(-1 0 0 1 260 114)" stroke="#CACACA" stroke-width="0.5"/>
<path d="M145.912 159.56H148.48V160.288H146.368L146.152 161.808C146.269 161.723 146.413 161.659 146.584 161.616C146.755 161.568 146.941 161.544 147.144 161.544C147.496 161.544 147.8 161.613 148.056 161.752C148.317 161.891 148.517 162.091 148.656 162.352C148.8 162.608 148.872 162.915 148.872 163.272C148.872 163.629 148.795 163.947 148.64 164.224C148.485 164.496 148.269 164.709 147.992 164.864C147.72 165.019 147.405 165.096 147.048 165.096C146.728 165.096 146.44 165.032 146.184 164.904C145.933 164.776 145.728 164.595 145.568 164.36C145.413 164.12 145.317 163.843 145.28 163.528H145.888C145.963 163.795 146.099 164.003 146.296 164.152C146.499 164.296 146.755 164.368 147.064 164.368C147.379 164.368 147.645 164.275 147.864 164.088C148.088 163.901 148.2 163.624 148.2 163.256C148.2 162.888 148.093 162.605 147.88 162.408C147.667 162.211 147.389 162.112 147.048 162.112C146.835 162.112 146.635 162.144 146.448 162.208C146.261 162.272 146.099 162.376 145.96 162.52L145.512 162.352L145.912 159.56ZM151.579 159.464C152.011 159.464 152.371 159.581 152.659 159.816C152.952 160.051 153.171 160.381 153.315 160.808C153.464 161.229 153.539 161.72 153.539 162.28C153.539 162.84 153.464 163.333 153.315 163.76C153.171 164.181 152.952 164.509 152.659 164.744C152.371 164.979 152.011 165.096 151.579 165.096C151.147 165.096 150.784 164.979 150.491 164.744C150.198 164.509 149.976 164.181 149.827 163.76C149.683 163.333 149.611 162.84 149.611 162.28C149.611 161.72 149.683 161.229 149.827 160.808C149.976 160.381 150.198 160.051 150.491 159.816C150.784 159.581 151.147 159.464 151.579 159.464ZM151.579 160.208C151.163 160.208 150.843 160.373 150.619 160.704C150.395 161.035 150.283 161.56 150.283 162.28C150.283 163 150.395 163.525 150.619 163.856C150.843 164.187 151.163 164.352 151.579 164.352C151.995 164.352 152.312 164.187 152.531 163.856C152.755 163.525 152.867 163 152.867 162.28C152.867 161.56 152.755 161.035 152.531 160.704C152.312 160.373 151.995 160.208 151.579 160.208Z" fill="#1E2020"/>
<path opacity="0.9" d="M133 202C135.209 202 137 200.209 137 198V126C137 123.791 135.209 122 133 122H56V202H133Z" fill="#73D13D"/>
<line y1="-0.25" x2="204" y2="-0.25" transform="matrix(-1 0 0 1 260 210)" stroke="#C2C2C2" stroke-width="0.5"/>
<path d="M58.6414 218.464C59.0734 218.464 59.4334 218.581 59.7214 218.816C60.0148 219.051 60.2334 219.381 60.3774 219.808C60.5268 220.229 60.6014 220.72 60.6014 221.28C60.6014 221.84 60.5268 222.333 60.3774 222.76C60.2334 223.181 60.0148 223.509 59.7214 223.744C59.4334 223.979 59.0734 224.096 58.6414 224.096C58.2094 224.096 57.8468 223.979 57.5534 223.744C57.2601 223.509 57.0388 223.181 56.8894 222.76C56.7454 222.333 56.6734 221.84 56.6734 221.28C56.6734 220.72 56.7454 220.229 56.8894 219.808C57.0388 219.381 57.2601 219.051 57.5534 218.816C57.8468 218.581 58.2094 218.464 58.6414 218.464ZM58.6414 219.208C58.2254 219.208 57.9054 219.373 57.6814 219.704C57.4574 220.035 57.3454 220.56 57.3454 221.28C57.3454 222 57.4574 222.525 57.6814 222.856C57.9054 223.187 58.2254 223.352 58.6414 223.352C59.0574 223.352 59.3748 223.187 59.5934 222.856C59.8174 222.525 59.9294 222 59.9294 221.28C59.9294 220.56 59.8174 220.035 59.5934 219.704C59.3748 219.373 59.0574 219.208 58.6414 219.208Z" fill="#1E2020"/>
<path d="M86.356 220.128C86.356 219.867 86.268 219.648 86.092 219.472C85.9213 219.291 85.676 219.2 85.356 219.2C85.0147 219.2 84.7427 219.291 84.54 219.472C84.3373 219.648 84.2147 219.909 84.172 220.256H83.564C83.596 219.915 83.684 219.611 83.828 219.344C83.9773 219.072 84.1827 218.859 84.444 218.704C84.7053 218.544 85.0173 218.464 85.38 218.464C85.7373 218.464 86.036 218.536 86.276 218.68C86.5213 218.819 86.708 219.011 86.836 219.256C86.964 219.501 87.028 219.779 87.028 220.088C87.028 220.328 86.9907 220.541 86.916 220.728C86.8413 220.909 86.732 221.083 86.588 221.248C86.444 221.413 86.2627 221.584 86.044 221.76C85.8253 221.936 85.572 222.133 85.284 222.352C85.0707 222.512 84.8787 222.667 84.708 222.816C84.5427 222.965 84.4227 223.117 84.348 223.272H87.028V224H83.636V223.552C83.636 223.328 83.6947 223.123 83.812 222.936C83.9347 222.744 84.092 222.563 84.284 222.392C84.4813 222.221 84.6867 222.056 84.9 221.896C85.1987 221.667 85.4573 221.461 85.676 221.28C85.8947 221.093 86.0627 220.909 86.18 220.728C86.2973 220.541 86.356 220.341 86.356 220.128ZM89.9749 218.464C90.4069 218.464 90.7669 218.581 91.0549 218.816C91.3483 219.051 91.5669 219.381 91.7109 219.808C91.8603 220.229 91.9349 220.72 91.9349 221.28C91.9349 221.84 91.8603 222.333 91.7109 222.76C91.5669 223.181 91.3483 223.509 91.0549 223.744C90.7669 223.979 90.4069 224.096 89.9749 224.096C89.5429 224.096 89.1803 223.979 88.8869 223.744C88.5936 223.509 88.3723 223.181 88.2229 222.76C88.0789 222.333 88.0069 221.84 88.0069 221.28C88.0069 220.72 88.0789 220.229 88.2229 219.808C88.3723 219.381 88.5936 219.051 88.8869 218.816C89.1803 218.581 89.5429 218.464 89.9749 218.464ZM89.9749 219.208C89.5589 219.208 89.2389 219.373 89.0149 219.704C88.7909 220.035 88.6789 220.56 88.6789 221.28C88.6789 222 88.7909 222.525 89.0149 222.856C89.2389 223.187 89.5589 223.352 89.9749 223.352C90.3909 223.352 90.7083 223.187 90.9269 222.856C91.1509 222.525 91.2629 222 91.2629 221.28C91.2629 220.56 91.1509 220.035 90.9269 219.704C90.7083 219.373 90.3909 219.208 89.9749 219.208Z" fill="#1E2020"/>
<path d="M118.5 222.824H117.812V224H117.14V222.824H114.676V222.224L117.236 218.56H117.812V222.144H118.5V222.824ZM115.388 222.144H117.14V219.6L115.388 222.144ZM121.308 218.464C121.74 218.464 122.1 218.581 122.388 218.816C122.681 219.051 122.9 219.381 123.044 219.808C123.193 220.229 123.268 220.72 123.268 221.28C123.268 221.84 123.193 222.333 123.044 222.76C122.9 223.181 122.681 223.509 122.388 223.744C122.1 223.979 121.74 224.096 121.308 224.096C120.876 224.096 120.513 223.979 120.22 223.744C119.927 223.509 119.705 223.181 119.556 222.76C119.412 222.333 119.34 221.84 119.34 221.28C119.34 220.72 119.412 220.229 119.556 219.808C119.705 219.381 119.927 219.051 120.22 218.816C120.513 218.581 120.876 218.464 121.308 218.464ZM121.308 219.208C120.892 219.208 120.572 219.373 120.348 219.704C120.124 220.035 120.012 220.56 120.012 221.28C120.012 222 120.124 222.525 120.348 222.856C120.572 223.187 120.892 223.352 121.308 223.352C121.724 223.352 122.041 223.187 122.26 222.856C122.484 222.525 122.596 222 122.596 221.28C122.596 220.56 122.484 220.035 122.26 219.704C122.041 219.373 121.724 219.208 121.308 219.208Z" fill="#1E2020"/>
<path d="M149.832 222.184C149.832 222.499 149.76 222.803 149.616 223.096C149.477 223.389 149.272 223.629 149 223.816C148.728 224.003 148.389 224.096 147.984 224.096C147.68 224.096 147.413 224.043 147.184 223.936C146.954 223.829 146.76 223.688 146.6 223.512C146.445 223.331 146.328 223.131 146.248 222.912C146.173 222.693 146.136 222.472 146.136 222.248C146.136 222.104 146.146 221.968 146.168 221.84C146.194 221.707 146.237 221.571 146.296 221.432C146.36 221.288 146.448 221.123 146.56 220.936C146.677 220.744 146.826 220.515 147.008 220.248L148.144 218.56H148.88L147.536 220.512C147.616 220.48 147.701 220.456 147.792 220.44C147.882 220.424 147.978 220.416 148.08 220.416C148.405 220.416 148.698 220.491 148.96 220.64C149.226 220.784 149.437 220.989 149.592 221.256C149.752 221.517 149.832 221.827 149.832 222.184ZM147.984 220.992C147.738 220.992 147.528 221.048 147.352 221.16C147.176 221.272 147.04 221.419 146.944 221.6C146.853 221.781 146.808 221.979 146.808 222.192C146.808 222.4 146.853 222.595 146.944 222.776C147.04 222.952 147.176 223.096 147.352 223.208C147.528 223.315 147.738 223.368 147.984 223.368C148.229 223.368 148.44 223.315 148.616 223.208C148.792 223.096 148.925 222.952 149.016 222.776C149.112 222.595 149.16 222.4 149.16 222.192C149.16 221.979 149.112 221.781 149.016 221.6C148.925 221.419 148.792 221.272 148.616 221.16C148.44 221.048 148.229 220.992 147.984 220.992ZM152.641 218.464C153.073 218.464 153.433 218.581 153.721 218.816C154.015 219.051 154.233 219.381 154.377 219.808C154.527 220.229 154.601 220.72 154.601 221.28C154.601 221.84 154.527 222.333 154.377 222.76C154.233 223.181 154.015 223.509 153.721 223.744C153.433 223.979 153.073 224.096 152.641 224.096C152.209 224.096 151.847 223.979 151.553 223.744C151.26 223.509 151.039 223.181 150.889 222.76C150.745 222.333 150.673 221.84 150.673 221.28C150.673 220.72 150.745 220.229 150.889 219.808C151.039 219.381 151.26 219.051 151.553 218.816C151.847 218.581 152.209 218.464 152.641 218.464ZM152.641 219.208C152.225 219.208 151.905 219.373 151.681 219.704C151.457 220.035 151.345 220.56 151.345 221.28C151.345 222 151.457 222.525 151.681 222.856C151.905 223.187 152.225 223.352 152.641 223.352C153.057 223.352 153.375 223.187 153.593 222.856C153.817 222.525 153.929 222 153.929 221.28C153.929 220.56 153.817 220.035 153.593 219.704C153.375 219.373 153.057 219.208 152.641 219.208Z" fill="#1E2020"/>
<path d="M177.502 222.448C177.502 222.133 177.582 221.864 177.742 221.64C177.902 221.411 178.108 221.248 178.358 221.152C178.134 221.061 177.956 220.912 177.822 220.704C177.689 220.491 177.622 220.256 177.622 220C177.622 219.712 177.689 219.453 177.822 219.224C177.956 218.989 178.148 218.805 178.398 218.672C178.654 218.533 178.956 218.464 179.302 218.464C179.654 218.464 179.953 218.533 180.198 218.672C180.449 218.805 180.641 218.989 180.774 219.224C180.908 219.453 180.974 219.712 180.974 220C180.974 220.277 180.9 220.517 180.75 220.72C180.606 220.923 180.43 221.072 180.222 221.168C180.473 221.253 180.678 221.411 180.838 221.64C181.004 221.864 181.086 222.133 181.086 222.448C181.086 222.768 181.012 223.053 180.862 223.304C180.713 223.549 180.505 223.744 180.238 223.888C179.972 224.027 179.66 224.096 179.302 224.096C178.95 224.096 178.638 224.027 178.366 223.888C178.094 223.744 177.881 223.549 177.726 223.304C177.577 223.053 177.502 222.768 177.502 222.448ZM179.302 220.92C179.617 220.92 179.862 220.837 180.038 220.672C180.214 220.507 180.302 220.293 180.302 220.032C180.302 219.771 180.214 219.565 180.038 219.416C179.862 219.261 179.617 219.184 179.302 219.184C178.988 219.184 178.74 219.261 178.558 219.416C178.382 219.565 178.294 219.771 178.294 220.032C178.294 220.293 178.382 220.507 178.558 220.672C178.74 220.837 178.988 220.92 179.302 220.92ZM179.294 221.464C178.921 221.464 178.641 221.552 178.454 221.728C178.268 221.899 178.174 222.125 178.174 222.408C178.174 222.685 178.27 222.917 178.462 223.104C178.654 223.285 178.937 223.376 179.31 223.376C179.684 223.376 179.961 223.285 180.142 223.104C180.324 222.923 180.414 222.691 180.414 222.408C180.414 222.125 180.318 221.899 180.126 221.728C179.94 221.552 179.662 221.464 179.294 221.464ZM183.975 218.464C184.407 218.464 184.767 218.581 185.055 218.816C185.348 219.051 185.567 219.381 185.711 219.808C185.86 220.229 185.935 220.72 185.935 221.28C185.935 221.84 185.86 222.333 185.711 222.76C185.567 223.181 185.348 223.509 185.055 223.744C184.767 223.979 184.407 224.096 183.975 224.096C183.543 224.096 183.18 223.979 182.887 223.744C182.594 223.509 182.372 223.181 182.223 222.76C182.079 222.333 182.007 221.84 182.007 221.28C182.007 220.72 182.079 220.229 182.223 219.808C182.372 219.381 182.594 219.051 182.887 218.816C183.18 218.581 183.543 218.464 183.975 218.464ZM183.975 219.208C183.559 219.208 183.239 219.373 183.015 219.704C182.791 220.035 182.679 220.56 182.679 221.28C182.679 222 182.791 222.525 183.015 222.856C183.239 223.187 183.559 223.352 183.975 223.352C184.391 223.352 184.708 223.187 184.927 222.856C185.151 222.525 185.263 222 185.263 221.28C185.263 220.56 185.151 220.035 184.927 219.704C184.708 219.373 184.391 219.208 183.975 219.208Z" fill="#1E2020"/>
<path d="M210.813 223.288H211.749V224H209.157V223.288H210.141V219.624L208.917 220.272V219.512L210.813 218.512V223.288ZM214.421 218.464C214.853 218.464 215.213 218.581 215.501 218.816C215.795 219.051 216.013 219.381 216.157 219.808C216.307 220.229 216.381 220.72 216.381 221.28C216.381 221.84 216.307 222.333 216.157 222.76C216.013 223.181 215.795 223.509 215.501 223.744C215.213 223.979 214.853 224.096 214.421 224.096C213.989 224.096 213.627 223.979 213.333 223.744C213.04 223.509 212.819 223.181 212.669 222.76C212.525 222.333 212.453 221.84 212.453 221.28C212.453 220.72 212.525 220.229 212.669 219.808C212.819 219.381 213.04 219.051 213.333 218.816C213.627 218.581 213.989 218.464 214.421 218.464ZM214.421 219.208C214.005 219.208 213.685 219.373 213.461 219.704C213.237 220.035 213.125 220.56 213.125 221.28C213.125 222 213.237 222.525 213.461 222.856C213.685 223.187 214.005 223.352 214.421 223.352C214.837 223.352 215.155 223.187 215.373 222.856C215.597 222.525 215.709 222 215.709 221.28C215.709 220.56 215.597 220.035 215.373 219.704C215.155 219.373 214.837 219.208 214.421 219.208ZM219.308 218.464C219.74 218.464 220.1 218.581 220.388 218.816C220.681 219.051 220.9 219.381 221.044 219.808C221.193 220.229 221.268 220.72 221.268 221.28C221.268 221.84 221.193 222.333 221.044 222.76C220.9 223.181 220.681 223.509 220.388 223.744C220.1 223.979 219.74 224.096 219.308 224.096C218.876 224.096 218.513 223.979 218.22 223.744C217.927 223.509 217.705 223.181 217.556 222.76C217.412 222.333 217.34 221.84 217.34 221.28C217.34 220.72 217.412 220.229 217.556 219.808C217.705 219.381 217.927 219.051 218.22 218.816C218.513 218.581 218.876 218.464 219.308 218.464ZM219.308 219.208C218.892 219.208 218.572 219.373 218.348 219.704C218.124 220.035 218.012 220.56 218.012 221.28C218.012 222 218.124 222.525 218.348 222.856C218.572 223.187 218.892 223.352 219.308 223.352C219.724 223.352 220.041 223.187 220.26 222.856C220.484 222.525 220.596 222 220.596 221.28C220.596 220.56 220.484 220.035 220.26 219.704C220.041 219.373 219.724 219.208 219.308 219.208Z" fill="#1E2020"/>
<path d="M245.545 223.288H246.481V224H243.889V223.288H244.873V219.624L243.649 220.272V219.512L245.545 218.512V223.288ZM250.023 220.128C250.023 219.867 249.935 219.648 249.759 219.472C249.588 219.291 249.343 219.2 249.023 219.2C248.681 219.2 248.409 219.291 248.207 219.472C248.004 219.648 247.881 219.909 247.839 220.256H247.231C247.263 219.915 247.351 219.611 247.495 219.344C247.644 219.072 247.849 218.859 248.111 218.704C248.372 218.544 248.684 218.464 249.047 218.464C249.404 218.464 249.703 218.536 249.943 218.68C250.188 218.819 250.375 219.011 250.503 219.256C250.631 219.501 250.695 219.779 250.695 220.088C250.695 220.328 250.657 220.541 250.583 220.728C250.508 220.909 250.399 221.083 250.255 221.248C250.111 221.413 249.929 221.584 249.711 221.76C249.492 221.936 249.239 222.133 248.951 222.352C248.737 222.512 248.545 222.667 248.375 222.816C248.209 222.965 248.089 223.117 248.015 223.272H250.695V224H247.303V223.552C247.303 223.328 247.361 223.123 247.479 222.936C247.601 222.744 247.759 222.563 247.951 222.392C248.148 222.221 248.353 222.056 248.567 221.896C248.865 221.667 249.124 221.461 249.343 221.28C249.561 221.093 249.729 220.909 249.847 220.728C249.964 220.541 250.023 220.341 250.023 220.128ZM253.641 218.464C254.073 218.464 254.433 218.581 254.721 218.816C255.015 219.051 255.233 219.381 255.377 219.808C255.527 220.229 255.601 220.72 255.601 221.28C255.601 221.84 255.527 222.333 255.377 222.76C255.233 223.181 255.015 223.509 254.721 223.744C254.433 223.979 254.073 224.096 253.641 224.096C253.209 224.096 252.847 223.979 252.553 223.744C252.26 223.509 252.039 223.181 251.889 222.76C251.745 222.333 251.673 221.84 251.673 221.28C251.673 220.72 251.745 220.229 251.889 219.808C252.039 219.381 252.26 219.051 252.553 218.816C252.847 218.581 253.209 218.464 253.641 218.464ZM253.641 219.208C253.225 219.208 252.905 219.373 252.681 219.704C252.457 220.035 252.345 220.56 252.345 221.28C252.345 222 252.457 222.525 252.681 222.856C252.905 223.187 253.225 223.352 253.641 223.352C254.057 223.352 254.375 223.187 254.593 222.856C254.817 222.525 254.929 222 254.929 221.28C254.929 220.56 254.817 220.035 254.593 219.704C254.375 219.373 254.057 219.208 253.641 219.208Z" fill="#1E2020"/>
<path d="M4.8 48.464C5.184 48.464 5.52533 48.5333 5.824 48.672C6.128 48.8107 6.384 49.008 6.592 49.264C6.8 49.5147 6.95733 49.8133 7.064 50.16C7.176 50.5013 7.232 50.8747 7.232 51.28C7.232 51.6853 7.176 52.0613 7.064 52.408C6.95733 52.7493 6.8 53.048 6.592 53.304C6.384 53.5547 6.128 53.7493 5.824 53.888C5.52533 54.0267 5.184 54.096 4.8 54.096C4.416 54.096 4.072 54.0267 3.768 53.888C3.46933 53.7493 3.216 53.5547 3.008 53.304C2.80533 53.048 2.648 52.7493 2.536 52.408C2.42933 52.0613 2.376 51.6853 2.376 51.28C2.376 50.8747 2.42933 50.5013 2.536 50.16C2.648 49.8133 2.80533 49.5147 3.008 49.264C3.216 49.008 3.46933 48.8107 3.768 48.672C4.072 48.5333 4.416 48.464 4.8 48.464ZM4.8 49.224C4.464 49.224 4.16267 49.3013 3.896 49.456C3.63467 49.6107 3.42667 49.84 3.272 50.144C3.12267 50.448 3.048 50.8267 3.048 51.28C3.048 51.7333 3.12267 52.112 3.272 52.416C3.42667 52.72 3.63467 52.9493 3.896 53.104C4.16267 53.2587 4.464 53.336 4.8 53.336C5.14133 53.336 5.44267 53.2587 5.704 53.104C5.97067 52.9493 6.17867 52.72 6.328 52.416C6.48267 52.112 6.56 51.7333 6.56 51.28C6.56 50.8267 6.48267 50.448 6.328 50.144C6.17867 49.84 5.97067 49.6107 5.704 49.456C5.44267 49.3013 5.14133 49.224 4.8 49.224ZM9.99338 50.176C10.3507 50.176 10.652 50.256 10.8974 50.416C11.148 50.576 11.34 50.7973 11.4734 51.08C11.6067 51.3627 11.6734 51.6907 11.6734 52.064C11.6734 52.4373 11.6014 52.776 11.4574 53.08C11.3187 53.3787 11.1134 53.6187 10.8414 53.8C10.5694 53.976 10.2307 54.064 9.82538 54.064C9.42538 54.064 9.08404 53.9707 8.80138 53.784C8.52404 53.592 8.31071 53.3173 8.16138 52.96C8.01738 52.5973 7.94538 52.1573 7.94538 51.64C7.94538 51.0747 7.99338 50.5813 8.08938 50.16C8.19071 49.7333 8.37204 49.3893 8.63338 49.128C8.89471 48.8667 9.26538 48.7013 9.74538 48.632L11.3534 48.392V49.088L9.84938 49.328C9.55071 49.376 9.31604 49.464 9.14538 49.592C8.97471 49.72 8.84938 49.8907 8.76938 50.104C8.69471 50.312 8.64404 50.5653 8.61738 50.864C8.78271 50.6133 8.98271 50.4373 9.21738 50.336C9.45204 50.2293 9.71071 50.176 9.99338 50.176ZM9.87338 50.824C9.59604 50.824 9.35071 50.8667 9.13738 50.952C8.92404 51.032 8.74804 51.1653 8.60938 51.352V51.864C8.60938 52.3493 8.71604 52.7227 8.92938 52.984C9.14804 53.2453 9.44671 53.376 9.82538 53.376C10.188 53.376 10.4787 53.264 10.6974 53.04C10.916 52.8107 11.0254 52.4853 11.0254 52.064C11.0254 51.6427 10.9187 51.3307 10.7054 51.128C10.4974 50.9253 10.22 50.824 9.87338 50.824ZM13.1369 50.136V53.352H14.5609V50.136H15.2009V53.352H16.6249V50.136H17.2649V53.352H17.8409V55.008H17.2249V54H12.4969V50.136H13.1369ZM21.1301 54.016C20.9487 54.016 20.7994 53.9653 20.6821 53.864C20.5647 53.7573 20.4954 53.5973 20.4741 53.384C20.3407 53.5973 20.1807 53.76 19.9941 53.872C19.8127 53.9787 19.5967 54.032 19.3461 54.032C19.0101 54.032 18.7381 53.944 18.5301 53.768C18.3221 53.592 18.2181 53.3307 18.2181 52.984C18.2181 52.7653 18.2581 52.584 18.3381 52.44C18.4181 52.2907 18.5381 52.1653 18.6981 52.064C18.8581 51.9627 19.0554 51.8667 19.2901 51.776L20.4341 51.328C20.4127 51.104 20.3274 50.9493 20.1781 50.864C20.0341 50.7787 19.8607 50.736 19.6581 50.736C19.4447 50.736 19.2634 50.7813 19.1141 50.872C18.9701 50.9573 18.8821 51.0933 18.8501 51.28H18.2501C18.2874 50.9973 18.3754 50.768 18.5141 50.592C18.6527 50.416 18.8234 50.2853 19.0261 50.2C19.2287 50.1147 19.4394 50.072 19.6581 50.072C20.0901 50.072 20.4341 50.1867 20.6901 50.416C20.9461 50.64 21.0714 50.992 21.0661 51.472L21.0501 52.952C21.0501 53.1067 21.0714 53.2133 21.1141 53.272C21.1567 53.3307 21.2261 53.36 21.3221 53.36H21.4741V54C21.4207 54.0053 21.3621 54.008 21.2981 54.008C21.2394 54.0133 21.1834 54.016 21.1301 54.016ZM18.8581 52.872C18.8581 53.048 18.9167 53.1787 19.0341 53.264C19.1567 53.344 19.3247 53.384 19.5381 53.384C19.7301 53.384 19.9034 53.3573 20.0581 53.304C20.2127 53.2453 20.3327 53.168 20.4181 53.072L20.4341 51.816L19.7221 52.104C19.4127 52.2267 19.1914 52.3413 19.0581 52.448C18.9247 52.5547 18.8581 52.696 18.8581 52.872ZM21.7778 54L23.1138 52.424C22.8951 52.4187 22.6924 52.3787 22.5058 52.304C22.3191 52.224 22.1698 52.1013 22.0578 51.936C21.9511 51.7707 21.8978 51.5547 21.8978 51.288C21.8978 51.0373 21.9591 50.8267 22.0818 50.656C22.2044 50.4853 22.3724 50.3573 22.5858 50.272C22.7991 50.1813 23.0364 50.136 23.2978 50.136H24.7378V54H24.0978V52.424H23.8738L22.5858 54H21.7778ZM23.3458 51.984H24.0978V50.784H23.3618C23.1111 50.784 22.9111 50.8267 22.7618 50.912C22.6178 50.9973 22.5458 51.152 22.5458 51.376C22.5458 51.584 22.6204 51.7387 22.7697 51.84C22.9244 51.936 23.1164 51.984 23.3458 51.984Z" fill="#1E2020"/>
<path d="M2.576 110.666V105.226H4.136C4.55733 105.226 4.904 105.298 5.176 105.442C5.45333 105.586 5.66133 105.786 5.8 106.042C5.93867 106.293 6.008 106.589 6.008 106.93C6.008 107.266 5.93867 107.559 5.8 107.81C5.66133 108.055 5.45333 108.245 5.176 108.378C4.904 108.511 4.55733 108.578 4.136 108.578H3.248V110.666H2.576ZM4.088 105.97H3.248V107.938H4.088C4.46667 107.938 4.768 107.855 4.992 107.69C5.22133 107.519 5.336 107.266 5.336 106.93C5.336 106.594 5.22133 106.351 4.992 106.202C4.768 106.047 4.46667 105.97 4.088 105.97ZM9.97188 109.49C9.91321 109.703 9.81721 109.906 9.68388 110.098C9.55054 110.285 9.36921 110.437 9.13988 110.554C8.91054 110.671 8.61988 110.73 8.26788 110.73C7.91054 110.73 7.59588 110.642 7.32388 110.466C7.05188 110.285 6.83854 110.042 6.68388 109.738C6.53454 109.434 6.45988 109.098 6.45988 108.73C6.45988 108.357 6.53454 108.021 6.68388 107.722C6.83854 107.423 7.05188 107.186 7.32388 107.01C7.59588 106.829 7.91054 106.738 8.26788 106.738C8.63588 106.738 8.95321 106.826 9.21988 107.002C9.48654 107.178 9.69188 107.421 9.83588 107.73C9.98521 108.039 10.0599 108.391 10.0599 108.786C10.0599 108.802 10.0599 108.818 10.0599 108.834C10.0599 108.85 10.0599 108.866 10.0599 108.882H7.10788C7.13454 109.239 7.24921 109.527 7.45188 109.746C7.65988 109.965 7.93188 110.074 8.26788 110.074C8.56654 110.074 8.80654 110.023 8.98788 109.922C9.16921 109.815 9.30254 109.671 9.38788 109.49H9.97188ZM8.26788 107.394C7.94254 107.394 7.68121 107.487 7.48388 107.674C7.29188 107.855 7.17188 108.103 7.12388 108.418H9.39588C9.35854 108.135 9.24921 107.895 9.06788 107.698C8.89188 107.495 8.62521 107.394 8.26788 107.394ZM13.0321 110.666V108.866C12.9415 109.015 12.8135 109.138 12.6481 109.234C12.4881 109.33 12.2828 109.378 12.0321 109.378C11.6001 109.378 11.2721 109.261 11.0481 109.026C10.8241 108.791 10.7121 108.463 10.7121 108.042V106.802H11.3521V107.874C11.3521 108.167 11.4241 108.378 11.5681 108.506C11.7175 108.634 11.9308 108.698 12.2081 108.698C12.3788 108.698 12.5361 108.679 12.6801 108.642C12.8295 108.599 12.9468 108.535 13.0321 108.45V106.802H13.6721V110.666H13.0321ZM15.3869 106.802V108.154H16.1149C16.5416 108.154 16.8883 108.247 17.1549 108.434C17.4216 108.615 17.5549 108.927 17.5549 109.37C17.5549 109.663 17.4909 109.906 17.3629 110.098C17.2349 110.29 17.0643 110.434 16.8509 110.53C16.6376 110.621 16.3976 110.666 16.1309 110.666H14.7469V106.802H15.3869ZM16.0989 108.706H15.3869V110.018H16.0829C16.3389 110.018 16.5416 109.97 16.6909 109.874C16.8456 109.773 16.9229 109.602 16.9229 109.362C16.9229 109.143 16.8563 108.981 16.7229 108.874C16.5949 108.762 16.3869 108.706 16.0989 108.706ZM4.672 122.666L3.176 120.754V122.666H2.536V118.802H3.176V120.618L4.72 118.802H5.456L3.864 120.618L5.472 122.666H4.672ZM5.61925 121.978C5.65125 121.983 5.69125 121.991 5.73925 122.002C5.79258 122.007 5.85125 122.01 5.91525 122.01C6.09125 122.01 6.21925 121.893 6.29925 121.658C6.37925 121.423 6.44592 121.063 6.49925 120.578C6.52592 120.311 6.54725 120.034 6.56325 119.746C6.57925 119.458 6.58992 119.143 6.59525 118.802H8.96325V122.666H8.32325V119.45H7.13925C7.13392 119.647 7.12325 119.855 7.10725 120.074C7.09658 120.287 7.08325 120.49 7.06725 120.682C7.02992 121.167 6.97392 121.559 6.89925 121.858C6.82992 122.157 6.72858 122.373 6.59525 122.506C6.46192 122.639 6.27792 122.706 6.04325 122.706C5.96325 122.706 5.88592 122.701 5.81125 122.69C5.73658 122.679 5.67258 122.663 5.61925 122.642V121.978ZM10.676 118.802V121.618L12.54 118.802H13.164V122.666H12.524V119.802L10.628 122.666H10.036V118.802H10.676ZM17.5031 121.49C17.4445 121.703 17.3485 121.906 17.2151 122.098C17.0818 122.285 16.9005 122.437 16.6711 122.554C16.4418 122.671 16.1511 122.73 15.7991 122.73C15.4418 122.73 15.1271 122.642 14.8551 122.466C14.5831 122.285 14.3698 122.042 14.2151 121.738C14.0658 121.434 13.9911 121.098 13.9911 120.73C13.9911 120.357 14.0658 120.021 14.2151 119.722C14.3698 119.423 14.5831 119.186 14.8551 119.01C15.1271 118.829 15.4418 118.738 15.7991 118.738C16.1671 118.738 16.4845 118.826 16.7511 119.002C17.0178 119.178 17.2231 119.421 17.3671 119.73C17.5165 120.039 17.5911 120.391 17.5911 120.786C17.5911 120.802 17.5911 120.818 17.5911 120.834C17.5911 120.85 17.5911 120.866 17.5911 120.882H14.6391C14.6658 121.239 14.7805 121.527 14.9831 121.746C15.1911 121.965 15.4631 122.074 15.7991 122.074C16.0978 122.074 16.3378 122.023 16.5191 121.922C16.7005 121.815 16.8338 121.671 16.9191 121.49H17.5031ZM15.7991 119.394C15.4738 119.394 15.2125 119.487 15.0151 119.674C14.8231 119.855 14.7031 120.103 14.6551 120.418H16.9271C16.8898 120.135 16.7805 119.895 16.5991 119.698C16.4231 119.495 16.1565 119.394 15.7991 119.394ZM20.8194 122.666V120.986H19.0354V122.666H18.3954V118.802H19.0354V120.338H20.8194V118.802H21.4594V122.666H20.8194ZM22.1762 118.802H25.2962V119.458H24.0562V122.666H23.4162V119.458H22.1762V118.802ZM28.6535 122.682C28.4722 122.682 28.3228 122.631 28.2055 122.53C28.0882 122.423 28.0188 122.263 27.9975 122.05C27.8642 122.263 27.7042 122.426 27.5175 122.538C27.3362 122.645 27.1202 122.698 26.8695 122.698C26.5335 122.698 26.2615 122.61 26.0535 122.434C25.8455 122.258 25.7415 121.997 25.7415 121.65C25.7415 121.431 25.7815 121.25 25.8615 121.106C25.9415 120.957 26.0615 120.831 26.2215 120.73C26.3815 120.629 26.5788 120.533 26.8135 120.442L27.9575 119.994C27.9362 119.77 27.8508 119.615 27.7015 119.53C27.5575 119.445 27.3842 119.402 27.1815 119.402C26.9682 119.402 26.7868 119.447 26.6375 119.538C26.4935 119.623 26.4055 119.759 26.3735 119.946H25.7735C25.8108 119.663 25.8988 119.434 26.0375 119.258C26.1762 119.082 26.3468 118.951 26.5495 118.866C26.7522 118.781 26.9628 118.738 27.1815 118.738C27.6135 118.738 27.9575 118.853 28.2135 119.082C28.4695 119.306 28.5948 119.658 28.5895 120.138L28.5735 121.618C28.5735 121.773 28.5948 121.879 28.6375 121.938C28.6802 121.997 28.7495 122.026 28.8455 122.026H28.9975V122.666C28.9442 122.671 28.8855 122.674 28.8215 122.674C28.7628 122.679 28.7068 122.682 28.6535 122.682ZM26.3815 121.538C26.3815 121.714 26.4402 121.845 26.5575 121.93C26.6802 122.01 26.8482 122.05 27.0615 122.05C27.2535 122.05 27.4268 122.023 27.5815 121.97C27.7362 121.911 27.8562 121.834 27.9415 121.738L27.9575 120.482L27.2455 120.77C26.9362 120.893 26.7148 121.007 26.5815 121.114C26.4482 121.221 26.3815 121.362 26.3815 121.538Z" fill="#1E2020"/>
<path d="M2.576 173.334V167.894H4.136C4.55733 167.894 4.904 167.966 5.176 168.11C5.45333 168.254 5.66133 168.454 5.8 168.71C5.93867 168.961 6.008 169.257 6.008 169.598C6.008 169.934 5.93867 170.227 5.8 170.478C5.66133 170.723 5.45333 170.913 5.176 171.046C4.904 171.179 4.55733 171.246 4.136 171.246H3.248V173.334H2.576ZM4.088 168.638H3.248V170.606H4.088C4.46667 170.606 4.768 170.523 4.992 170.358C5.22133 170.187 5.336 169.934 5.336 169.598C5.336 169.262 5.22133 169.019 4.992 168.87C4.768 168.715 4.46667 168.638 4.088 168.638ZM9.97188 172.158C9.91321 172.371 9.81721 172.574 9.68388 172.766C9.55054 172.953 9.36921 173.105 9.13988 173.222C8.91054 173.339 8.61988 173.398 8.26788 173.398C7.91054 173.398 7.59588 173.31 7.32388 173.134C7.05188 172.953 6.83854 172.71 6.68388 172.406C6.53454 172.102 6.45988 171.766 6.45988 171.398C6.45988 171.025 6.53454 170.689 6.68388 170.39C6.83854 170.091 7.05188 169.854 7.32388 169.678C7.59588 169.497 7.91054 169.406 8.26788 169.406C8.63588 169.406 8.95321 169.494 9.21988 169.67C9.48654 169.846 9.69188 170.089 9.83588 170.398C9.98521 170.707 10.0599 171.059 10.0599 171.454C10.0599 171.47 10.0599 171.486 10.0599 171.502C10.0599 171.518 10.0599 171.534 10.0599 171.55H7.10788C7.13454 171.907 7.24921 172.195 7.45188 172.414C7.65988 172.633 7.93188 172.742 8.26788 172.742C8.56654 172.742 8.80654 172.691 8.98788 172.59C9.16921 172.483 9.30254 172.339 9.38788 172.158H9.97188ZM8.26788 170.062C7.94254 170.062 7.68121 170.155 7.48388 170.342C7.29188 170.523 7.17188 170.771 7.12388 171.086H9.39588C9.35854 170.803 9.24921 170.563 9.06788 170.366C8.89188 170.163 8.62521 170.062 8.26788 170.062ZM13.0321 173.334V171.534C12.9415 171.683 12.8135 171.806 12.6481 171.902C12.4881 171.998 12.2828 172.046 12.0321 172.046C11.6001 172.046 11.2721 171.929 11.0481 171.694C10.8241 171.459 10.7121 171.131 10.7121 170.71V169.47H11.3521V170.542C11.3521 170.835 11.4241 171.046 11.5681 171.174C11.7175 171.302 11.9308 171.366 12.2081 171.366C12.3788 171.366 12.5361 171.347 12.6801 171.31C12.8295 171.267 12.9468 171.203 13.0321 171.118V169.47H13.6721V173.334H13.0321ZM15.3869 169.47V170.822H16.1149C16.5416 170.822 16.8883 170.915 17.1549 171.102C17.4216 171.283 17.5549 171.595 17.5549 172.038C17.5549 172.331 17.4909 172.574 17.3629 172.766C17.2349 172.958 17.0643 173.102 16.8509 173.198C16.6376 173.289 16.3976 173.334 16.1309 173.334H14.7469V169.47H15.3869ZM16.0989 171.374H15.3869V172.686H16.0829C16.3389 172.686 16.5416 172.638 16.6909 172.542C16.8456 172.441 16.9229 172.27 16.9229 172.03C16.9229 171.811 16.8563 171.649 16.7229 171.542C16.5949 171.43 16.3869 171.374 16.0989 171.374ZM4.168 181.406C4.54667 181.406 4.87467 181.494 5.152 181.67C5.43467 181.846 5.65333 182.086 5.808 182.39C5.968 182.689 6.048 183.025 6.048 183.398C6.048 183.771 5.968 184.11 5.808 184.414C5.65333 184.713 5.43467 184.953 5.152 185.134C4.87467 185.31 4.54667 185.398 4.168 185.398C3.79467 185.398 3.46667 185.31 3.184 185.134C2.90133 184.953 2.68 184.713 2.52 184.414C2.36533 184.11 2.288 183.771 2.288 183.398C2.288 183.025 2.36533 182.689 2.52 182.39C2.68 182.086 2.90133 181.846 3.184 181.67C3.46667 181.494 3.79467 181.406 4.168 181.406ZM4.168 182.094C3.79467 182.094 3.496 182.214 3.272 182.454C3.048 182.694 2.936 183.009 2.936 183.398C2.936 183.787 3.048 184.105 3.272 184.35C3.496 184.59 3.79467 184.71 4.168 184.71C4.54133 184.71 4.84 184.59 5.064 184.35C5.288 184.105 5.4 183.787 5.4 183.398C5.4 183.009 5.288 182.694 5.064 182.454C4.84 182.214 4.54133 182.094 4.168 182.094ZM9.28794 185.334V182.118H7.51194V185.334H6.87194V181.47H9.92794V185.334H9.28794ZM14.2609 184.158C14.2023 184.371 14.1063 184.574 13.9729 184.766C13.8396 184.953 13.6583 185.105 13.4289 185.222C13.1996 185.339 12.9089 185.398 12.5569 185.398C12.1996 185.398 11.8849 185.31 11.6129 185.134C11.3409 184.953 11.1276 184.71 10.9729 184.406C10.8236 184.102 10.7489 183.766 10.7489 183.398C10.7489 183.025 10.8236 182.689 10.9729 182.39C11.1276 182.091 11.3409 181.854 11.6129 181.678C11.8849 181.497 12.1996 181.406 12.5569 181.406C12.9249 181.406 13.2423 181.494 13.5089 181.67C13.7756 181.846 13.9809 182.089 14.1249 182.398C14.2743 182.707 14.3489 183.059 14.3489 183.454C14.3489 183.47 14.3489 183.486 14.3489 183.502C14.3489 183.518 14.3489 183.534 14.3489 183.55H11.3969C11.4236 183.907 11.5383 184.195 11.7409 184.414C11.9489 184.633 12.2209 184.742 12.5569 184.742C12.8556 184.742 13.0956 184.691 13.2769 184.59C13.4583 184.483 13.5916 184.339 13.6769 184.158H14.2609ZM12.5569 182.062C12.2316 182.062 11.9703 182.155 11.7729 182.342C11.5809 182.523 11.4609 182.771 11.4129 183.086H13.6849C13.6476 182.803 13.5383 182.563 13.3569 182.366C13.1809 182.163 12.9143 182.062 12.5569 182.062ZM15.7612 182.142C15.8839 181.891 16.0492 181.707 16.2572 181.59C16.4652 181.467 16.7265 181.406 17.0412 181.406C17.4092 181.406 17.7265 181.491 17.9932 181.662C18.2599 181.827 18.4625 182.059 18.6012 182.358C18.7452 182.651 18.8172 182.987 18.8172 183.366C18.8172 183.745 18.7452 184.089 18.6012 184.398C18.4625 184.702 18.2599 184.945 17.9932 185.126C17.7319 185.307 17.4172 185.398 17.0492 185.398C16.7612 185.398 16.5132 185.347 16.3052 185.246C16.0972 185.139 15.9265 184.974 15.7932 184.75V186.934H15.1532V181.47H15.7612V182.142ZM16.9372 184.726C17.3532 184.726 17.6625 184.598 17.8652 184.342C18.0679 184.086 18.1692 183.761 18.1692 183.366C18.1692 182.971 18.0652 182.659 17.8572 182.43C17.6545 182.195 17.3452 182.078 16.9292 182.078C16.6465 182.078 16.4092 182.121 16.2172 182.206C16.0252 182.286 15.8839 182.419 15.7932 182.606V184.214C15.8839 184.395 16.0252 184.526 16.2172 184.606C16.4145 184.686 16.6545 184.726 16.9372 184.726ZM22.341 185.35C22.1597 185.35 22.0103 185.299 21.893 185.198C21.7757 185.091 21.7063 184.931 21.685 184.718C21.5517 184.931 21.3917 185.094 21.205 185.206C21.0237 185.313 20.8077 185.366 20.557 185.366C20.221 185.366 19.949 185.278 19.741 185.102C19.533 184.926 19.429 184.665 19.429 184.318C19.429 184.099 19.469 183.918 19.549 183.774C19.629 183.625 19.749 183.499 19.909 183.398C20.069 183.297 20.2663 183.201 20.501 183.11L21.645 182.662C21.6237 182.438 21.5383 182.283 21.389 182.198C21.245 182.113 21.0717 182.07 20.869 182.07C20.6557 182.07 20.4743 182.115 20.325 182.206C20.181 182.291 20.093 182.427 20.061 182.614H19.461C19.4983 182.331 19.5863 182.102 19.725 181.926C19.8637 181.75 20.0343 181.619 20.237 181.534C20.4397 181.449 20.6503 181.406 20.869 181.406C21.301 181.406 21.645 181.521 21.901 181.75C22.157 181.974 22.2823 182.326 22.277 182.806L22.261 184.286C22.261 184.441 22.2823 184.547 22.325 184.606C22.3677 184.665 22.437 184.694 22.533 184.694H22.685V185.334C22.6317 185.339 22.573 185.342 22.509 185.342C22.4503 185.347 22.3943 185.35 22.341 185.35ZM20.069 184.206C20.069 184.382 20.1277 184.513 20.245 184.598C20.3677 184.678 20.5357 184.718 20.749 184.718C20.941 184.718 21.1143 184.691 21.269 184.638C21.4237 184.579 21.5437 184.502 21.629 184.406L21.645 183.15L20.933 183.438C20.6237 183.561 20.4023 183.675 20.269 183.782C20.1357 183.889 20.069 184.03 20.069 184.206ZM22.8715 181.47H25.9915V182.126H24.7515V185.334H24.1115V182.126H22.8715V181.47ZM28.2618 181.406C28.6404 181.406 28.9684 181.494 29.2458 181.67C29.5284 181.846 29.7471 182.086 29.9018 182.39C30.0618 182.689 30.1418 183.025 30.1418 183.398C30.1418 183.771 30.0618 184.11 29.9018 184.414C29.7471 184.713 29.5284 184.953 29.2458 185.134C28.9684 185.31 28.6404 185.398 28.2618 185.398C27.8884 185.398 27.5604 185.31 27.2778 185.134C26.9951 184.953 26.7738 184.713 26.6138 184.414C26.4591 184.11 26.3818 183.771 26.3818 183.398C26.3818 183.025 26.4591 182.689 26.6138 182.39C26.7738 182.086 26.9951 181.846 27.2778 181.67C27.5604 181.494 27.8884 181.406 28.2618 181.406ZM28.2618 182.094C27.8884 182.094 27.5898 182.214 27.3658 182.454C27.1418 182.694 27.0298 183.009 27.0298 183.398C27.0298 183.787 27.1418 184.105 27.3658 184.35C27.5898 184.59 27.8884 184.71 28.2618 184.71C28.6351 184.71 28.9338 184.59 29.1578 184.35C29.3818 184.105 29.4938 183.787 29.4938 183.398C29.4938 183.009 29.3818 182.694 29.1578 182.454C28.9338 182.214 28.6351 182.094 28.2618 182.094ZM31.5737 182.142C31.6964 181.891 31.8617 181.707 32.0697 181.59C32.2777 181.467 32.539 181.406 32.8537 181.406C33.2217 181.406 33.539 181.491 33.8057 181.662C34.0724 181.827 34.275 182.059 34.4137 182.358C34.5577 182.651 34.6297 182.987 34.6297 183.366C34.6297 183.745 34.5577 184.089 34.4137 184.398C34.275 184.702 34.0724 184.945 33.8057 185.126C33.5444 185.307 33.2297 185.398 32.8617 185.398C32.5737 185.398 32.3257 185.347 32.1177 185.246C31.9097 185.139 31.739 184.974 31.6057 184.75V186.934H30.9657V181.47H31.5737V182.142ZM32.7497 184.726C33.1657 184.726 33.475 184.598 33.6777 184.342C33.8804 184.086 33.9817 183.761 33.9817 183.366C33.9817 182.971 33.8777 182.659 33.6697 182.43C33.467 182.195 33.1577 182.078 32.7417 182.078C32.459 182.078 32.2217 182.121 32.0297 182.206C31.8377 182.286 31.6964 182.419 31.6057 182.606V184.214C31.6964 184.395 31.8377 184.526 32.0297 184.606C32.227 184.686 32.467 184.726 32.7497 184.726ZM38.1535 185.35C37.9722 185.35 37.8228 185.299 37.7055 185.198C37.5882 185.091 37.5188 184.931 37.4975 184.718C37.3642 184.931 37.2042 185.094 37.0175 185.206C36.8362 185.313 36.6202 185.366 36.3695 185.366C36.0335 185.366 35.7615 185.278 35.5535 185.102C35.3455 184.926 35.2415 184.665 35.2415 184.318C35.2415 184.099 35.2815 183.918 35.3615 183.774C35.4415 183.625 35.5615 183.499 35.7215 183.398C35.8815 183.297 36.0788 183.201 36.3135 183.11L37.4575 182.662C37.4362 182.438 37.3508 182.283 37.2015 182.198C37.0575 182.113 36.8842 182.07 36.6815 182.07C36.4682 182.07 36.2868 182.115 36.1375 182.206C35.9935 182.291 35.9055 182.427 35.8735 182.614H35.2735C35.3108 182.331 35.3988 182.102 35.5375 181.926C35.6762 181.75 35.8468 181.619 36.0495 181.534C36.2522 181.449 36.4628 181.406 36.6815 181.406C37.1135 181.406 37.4575 181.521 37.7135 181.75C37.9695 181.974 38.0948 182.326 38.0895 182.806L38.0735 184.286C38.0735 184.441 38.0948 184.547 38.1375 184.606C38.1802 184.665 38.2495 184.694 38.3455 184.694H38.4975V185.334C38.4442 185.339 38.3855 185.342 38.3215 185.342C38.2628 185.347 38.2068 185.35 38.1535 185.35ZM35.8815 184.206C35.8815 184.382 35.9402 184.513 36.0575 184.598C36.1802 184.678 36.3482 184.718 36.5615 184.718C36.7535 184.718 36.9268 184.691 37.0815 184.638C37.2362 184.579 37.3562 184.502 37.4415 184.406L37.4575 183.15L36.7455 183.438C36.4362 183.561 36.2148 183.675 36.0815 183.782C35.9482 183.889 35.8815 184.03 35.8815 184.206Z" fill="#1E2020"/>
</svg>
