<svg width="271" height="211" viewBox="0 0 271 211" fill="none" xmlns="http://www.w3.org/2000/svg">
<line x1="32.75" y1="210" x2="32.75" y2="8" stroke="#CACACA" stroke-width="0.5"/>
<line y1="-0.25" x2="204" y2="-0.25" transform="matrix(1 0 0 -1 33 210)" stroke="#CACACA" stroke-width="0.5"/>
<path d="M225 114C225 167.019 182.019 210 129 210C75.9807 210 33 167.019 33 114C33 60.9807 75.9807 18 129 18C182.019 18 225 60.9807 225 114ZM65.64 114C65.64 148.993 94.0072 177.36 129 177.36C163.993 177.36 192.36 148.993 192.36 114C192.36 79.0072 163.993 50.64 129 50.64C94.0072 50.64 65.64 79.0072 65.64 114Z" fill="#C5C5C5"/>
<path d="M129.636 18V50.64C119.909 50.64 110.694 52.8318 102.458 56.7485L88.4668 27.2756C103.55 20.1654 112.581 18.2031 129.636 18Z" fill="#E8E8E8"/>
<path d="M129 18C152.623 18 175.416 26.7098 193.019 42.463C210.622 58.2163 221.799 79.9068 224.411 103.385C227.023 126.863 220.887 150.479 207.177 169.716C193.467 188.953 173.146 202.46 150.1 207.652C127.055 212.845 102.905 209.358 82.2699 197.859C61.6347 186.36 45.9637 167.656 38.2551 145.327C30.5465 122.997 31.3416 98.6093 40.4882 76.8292C49.6348 55.0491 66.4908 37.4061 87.8311 27.2756L101.828 56.7619C87.7439 63.448 76.619 75.0924 70.5822 89.4673C64.5455 103.842 64.0207 119.938 69.1084 134.676C74.1961 149.413 84.5389 161.758 98.1581 169.347C111.777 176.936 127.717 179.237 142.926 175.811C158.136 172.384 171.548 163.469 180.597 150.773C189.646 138.076 193.695 122.489 191.971 106.994C190.247 91.4985 182.871 77.1827 171.253 66.7856C159.635 56.3885 144.591 50.64 129 50.64V18Z" fill="#9CA3CE"/>
<path d="M129 18C148.526 18 167.588 23.9544 183.643 35.0686C199.697 46.1829 211.981 61.9286 218.855 80.205C225.729 98.4814 226.866 118.419 222.115 137.359C217.364 156.298 206.95 173.339 192.263 186.206C177.577 199.074 159.315 207.157 139.916 209.377C120.516 211.598 100.901 207.849 83.6865 198.633C66.4724 189.416 52.478 175.169 43.5706 157.793C34.6632 140.417 31.2663 120.737 33.8331 101.38L66.1898 105.671C64.4957 118.447 66.7377 131.435 72.6166 142.903C78.4955 154.372 87.7318 163.775 99.0931 169.858C110.454 175.941 123.401 178.414 136.204 176.949C149.008 175.484 161.061 170.149 170.754 161.656C180.447 153.163 187.32 141.917 190.456 129.417C193.592 116.917 192.841 103.758 188.304 91.6953C183.767 79.6329 175.66 69.2407 165.064 61.9053C154.468 54.5699 141.887 50.64 129 50.64V18Z" fill="#FFD600"/>
<path d="M129 18C148.526 18 167.588 23.9544 183.643 35.0686C199.697 46.1829 211.981 61.9286 218.855 80.205C225.729 98.4814 226.866 118.419 222.115 137.359C217.364 156.298 206.95 173.339 192.263 186.206C177.577 199.074 159.315 207.157 139.916 209.377C120.516 211.598 100.901 207.849 83.6865 198.633C66.4724 189.416 52.478 175.169 43.5706 157.793C34.6632 140.417 31.2663 120.737 33.8331 101.38L66.1898 105.671C64.4957 118.447 66.7377 131.435 72.6166 142.903C78.4955 154.372 87.7318 163.775 99.0931 169.858C110.454 175.941 123.401 178.414 136.204 176.949C149.008 175.484 161.061 170.149 170.754 161.656C180.447 153.163 187.32 141.917 190.456 129.417C193.592 116.917 192.841 103.758 188.304 91.6953C183.767 79.6329 175.66 69.2407 165.064 61.9053C154.468 54.5699 141.887 50.64 129 50.64V18Z" fill="#BAE637"/>
<path d="M129 18C153.798 18 177.635 27.5962 195.516 44.7783C213.397 61.9604 223.935 85.3954 224.924 110.174C225.912 134.953 217.273 159.153 200.818 177.704C184.362 196.256 159.933 208.4 134.046 209.695V177.159C150.361 175.855 165.539 168.289 176.4 156.045C187.26 143.801 192.962 127.829 192.31 111.475C191.657 95.121 184.702 79.6539 172.9 68.3137C161.099 56.9735 145.367 50.64 129 50.64V18Z" fill="#69C0FF"/>
<path d="M129 18C141.607 18 154.09 20.4831 165.738 25.3076C177.385 30.132 187.968 37.2033 196.882 46.1178C205.797 55.0322 212.868 65.6151 217.692 77.2624C222.517 88.9097 225 101.393 225 114L192.36 114C192.36 105.679 190.721 97.4404 187.537 89.7532C184.353 82.066 179.686 75.0812 173.802 69.1977C167.919 63.3142 160.934 58.6471 153.247 55.463C145.56 52.2789 137.321 50.64 129 50.64V18Z" fill="#87E8DE"/>
<path d="M129 18C143.317 18 157.453 21.2023 170.372 27.3724L156.306 56.8258C147.779 52.7535 138.449 50.64 129 50.64V18Z" fill="#C5C5C5"/>
<path d="M169.543 26.9812C178.546 31.1757 186.843 36.7417 194.139 43.4807L171.991 67.4572C167.176 63.0095 161.7 59.3359 155.758 56.5676L169.543 26.9812Z" fill="#8E8E8E"/>
<path d="M37.5338 143.154C33.1859 129.513 31.9442 115.072 33.8995 100.889L66.2337 105.347C64.9432 114.707 65.7627 124.238 68.6323 133.241L37.5338 143.154Z" fill="#7A81B0"/>
<path d="M137.597 209.614C127.955 210.481 118.237 209.885 108.774 207.845L115.651 175.938C121.897 177.284 128.31 177.678 134.674 177.105L137.597 209.614Z" fill="#FF7A45"/>
<path d="M108.773 207.845C94.7772 204.828 81.6335 198.719 70.3042 189.966L90.2607 164.137C97.7381 169.915 106.413 173.947 115.65 175.938L108.773 207.845Z" fill="#FADB14"/>
</svg>
