<svg width="271" height="239" viewBox="0 0 271 239" fill="none" xmlns="http://www.w3.org/2000/svg">
<line y1="-0.25" x2="202" y2="-0.25" transform="matrix(0 -1 -1 0 248 210)" stroke="#CACACA" stroke-width="0.5"/>
<line y1="-0.25" x2="202" y2="-0.25" transform="matrix(0 -1 -1 0 216 210)" stroke="#CACACA" stroke-width="0.5"/>
<line y1="-0.25" x2="202" y2="-0.25" transform="matrix(0 -1 -1 0 184 210)" stroke="#CACACA" stroke-width="0.5"/>
<line y1="-0.25" x2="202" y2="-0.25" transform="matrix(0 -1 -1 0 152 210)" stroke="#CACACA" stroke-width="0.5"/>
<line y1="-0.25" x2="202" y2="-0.25" transform="matrix(0 -1 -1 0 120 210)" stroke="#CACACA" stroke-width="0.5"/>
<line y1="-0.25" x2="202" y2="-0.25" transform="matrix(0 -1 -1 0 88 210)" stroke="#CACACA" stroke-width="0.5"/>
<line y1="-0.25" x2="202" y2="-0.25" transform="matrix(0 -1 -1 0 56 210)" stroke="#CACACA" stroke-width="0.5"/>
<line y1="-0.25" x2="204" y2="-0.25" transform="matrix(-1 0 0 1 260 18)" stroke="#CACACA" stroke-width="0.5"/>
<path d="M260.12 49.128C260.12 48.8667 260.032 48.648 259.856 48.472C259.685 48.2907 259.44 48.2 259.12 48.2C258.779 48.2 258.507 48.2907 258.304 48.472C258.101 48.648 257.979 48.9093 257.936 49.256H257.328C257.36 48.9147 257.448 48.6107 257.592 48.344C257.741 48.072 257.947 47.8587 258.208 47.704C258.469 47.544 258.781 47.464 259.144 47.464C259.501 47.464 259.8 47.536 260.04 47.68C260.285 47.8187 260.472 48.0107 260.6 48.256C260.728 48.5013 260.792 48.7787 260.792 49.088C260.792 49.328 260.755 49.5413 260.68 49.728C260.605 49.9093 260.496 50.0827 260.352 50.248C260.208 50.4133 260.027 50.584 259.808 50.76C259.589 50.936 259.336 51.1333 259.048 51.352C258.835 51.512 258.643 51.6667 258.472 51.816C258.307 51.9653 258.187 52.1173 258.112 52.272H260.792V53H257.4V52.552C257.4 52.328 257.459 52.1227 257.576 51.936C257.699 51.744 257.856 51.5627 258.048 51.392C258.245 51.2213 258.451 51.056 258.664 50.896C258.963 50.6667 259.221 50.4613 259.44 50.28C259.659 50.0933 259.827 49.9093 259.944 49.728C260.061 49.5413 260.12 49.3413 260.12 49.128ZM262.084 47.56H264.652V48.288H262.54L262.324 49.808C262.441 49.7227 262.585 49.6587 262.756 49.616C262.927 49.568 263.113 49.544 263.316 49.544C263.668 49.544 263.972 49.6133 264.228 49.752C264.489 49.8907 264.689 50.0907 264.828 50.352C264.972 50.608 265.044 50.9147 265.044 51.272C265.044 51.6293 264.967 51.9467 264.812 52.224C264.657 52.496 264.441 52.7093 264.164 52.864C263.892 53.0187 263.577 53.096 263.22 53.096C262.9 53.096 262.612 53.032 262.356 52.904C262.105 52.776 261.9 52.5947 261.74 52.36C261.585 52.12 261.489 51.8427 261.452 51.528H262.06C262.135 51.7947 262.271 52.0027 262.468 52.152C262.671 52.296 262.927 52.368 263.236 52.368C263.551 52.368 263.817 52.2747 264.036 52.088C264.26 51.9013 264.372 51.624 264.372 51.256C264.372 50.888 264.265 50.6053 264.052 50.408C263.839 50.2107 263.561 50.112 263.22 50.112C263.007 50.112 262.807 50.144 262.62 50.208C262.433 50.272 262.271 50.376 262.132 50.52L261.684 50.352L262.084 47.56ZM267.535 52.368C267.865 52.368 268.137 52.2773 268.351 52.096C268.569 51.9093 268.679 51.6453 268.679 51.304C268.679 50.9947 268.577 50.7493 268.375 50.568C268.177 50.3813 267.916 50.288 267.591 50.288C267.452 50.288 267.321 50.304 267.199 50.336C267.081 50.3627 266.98 50.3973 266.895 50.44L266.655 50.048L268.407 48.288H265.991V47.56H269.031V48.384L267.663 49.744C267.673 49.7387 267.687 49.736 267.703 49.736C267.719 49.736 267.732 49.736 267.743 49.736C268.239 49.736 268.631 49.8853 268.919 50.184C269.207 50.4773 269.351 50.8507 269.351 51.304C269.351 51.5867 269.303 51.84 269.207 52.064C269.116 52.288 268.991 52.4773 268.831 52.632C268.671 52.7813 268.476 52.896 268.247 52.976C268.023 53.056 267.78 53.096 267.519 53.096C267.001 53.096 266.575 52.9467 266.239 52.648C265.908 52.344 265.716 51.936 265.663 51.424H266.271C266.34 51.744 266.484 51.9813 266.703 52.136C266.927 52.2907 267.204 52.368 267.535 52.368Z" fill="#1E2020"/>
<path opacity="0.9" d="M245 74C247.209 74 249 72.2091 249 70V30C249 27.7909 247.209 26 245 26L56 26V74L245 74Z" fill="#73D13D"/>
<line y1="-0.25" x2="204" y2="-0.25" transform="matrix(-1 0 0 1 260 82)" stroke="#CACACA" stroke-width="0.5"/>
<path d="M115.256 116.288H116.192V117H113.6V116.288H114.584V112.624L113.36 113.272V112.512L115.256 111.512V116.288ZM118.709 116.288H119.645V117H117.053V116.288H118.037V112.624L116.813 113.272V112.512L118.709 111.512V116.288ZM122.157 111.464C122.589 111.464 122.949 111.581 123.237 111.816C123.53 112.051 123.749 112.381 123.893 112.808C124.042 113.229 124.117 113.72 124.117 114.28C124.117 114.84 124.042 115.333 123.893 115.76C123.749 116.181 123.53 116.509 123.237 116.744C122.949 116.979 122.589 117.096 122.157 117.096C121.725 117.096 121.362 116.979 121.069 116.744C120.776 116.509 120.554 116.181 120.405 115.76C120.261 115.333 120.189 114.84 120.189 114.28C120.189 113.72 120.261 113.229 120.405 112.808C120.554 112.381 120.776 112.051 121.069 111.816C121.362 111.581 121.725 111.464 122.157 111.464ZM122.157 112.208C121.741 112.208 121.421 112.373 121.197 112.704C120.973 113.035 120.861 113.56 120.861 114.28C120.861 115 120.973 115.525 121.197 115.856C121.421 116.187 121.741 116.352 122.157 116.352C122.573 116.352 122.89 116.187 123.109 115.856C123.333 115.525 123.445 115 123.445 114.28C123.445 113.56 123.333 113.035 123.109 112.704C122.89 112.373 122.573 112.208 122.157 112.208Z" fill="#1E2020"/>
<path opacity="0.9" d="M101 138C103.209 138 105 136.209 105 134V94C105 91.7909 103.209 90 101 90H56V138H101Z" fill="#69C0FF"/>
<line y1="-0.25" x2="204" y2="-0.25" transform="matrix(-1 0 0 1 260 146)" stroke="#CACACA" stroke-width="0.5"/>
<path d="M89.912 175.56H92.48V176.288H90.368L90.152 177.808C90.2693 177.723 90.4133 177.659 90.584 177.616C90.7547 177.568 90.9413 177.544 91.144 177.544C91.496 177.544 91.8 177.613 92.056 177.752C92.3173 177.891 92.5173 178.091 92.656 178.352C92.8 178.608 92.872 178.915 92.872 179.272C92.872 179.629 92.7947 179.947 92.64 180.224C92.4853 180.496 92.2693 180.709 91.992 180.864C91.72 181.019 91.4053 181.096 91.048 181.096C90.728 181.096 90.44 181.032 90.184 180.904C89.9333 180.776 89.728 180.595 89.568 180.36C89.4133 180.12 89.3173 179.843 89.28 179.528H89.888C89.9627 179.795 90.0987 180.003 90.296 180.152C90.4987 180.296 90.7547 180.368 91.064 180.368C91.3787 180.368 91.6453 180.275 91.864 180.088C92.088 179.901 92.2 179.624 92.2 179.256C92.2 178.888 92.0933 178.605 91.88 178.408C91.6667 178.211 91.3893 178.112 91.048 178.112C90.8347 178.112 90.6347 178.144 90.448 178.208C90.2613 178.272 90.0987 178.376 89.96 178.52L89.512 178.352L89.912 175.56ZM95.5789 175.464C96.0109 175.464 96.3709 175.581 96.6589 175.816C96.9523 176.051 97.1709 176.381 97.3149 176.808C97.4643 177.229 97.5389 177.72 97.5389 178.28C97.5389 178.84 97.4643 179.333 97.3149 179.76C97.1709 180.181 96.9523 180.509 96.6589 180.744C96.3709 180.979 96.0109 181.096 95.5789 181.096C95.1469 181.096 94.7843 180.979 94.4909 180.744C94.1976 180.509 93.9763 180.181 93.8269 179.76C93.6829 179.333 93.6109 178.84 93.6109 178.28C93.6109 177.72 93.6829 177.229 93.8269 176.808C93.9763 176.381 94.1976 176.051 94.4909 175.816C94.7843 175.581 95.1469 175.464 95.5789 175.464ZM95.5789 176.208C95.1629 176.208 94.8429 176.373 94.6189 176.704C94.3949 177.035 94.2829 177.56 94.2829 178.28C94.2829 179 94.3949 179.525 94.6189 179.856C94.8429 180.187 95.1629 180.352 95.5789 180.352C95.9949 180.352 96.3123 180.187 96.5309 179.856C96.7549 179.525 96.8669 179 96.8669 178.28C96.8669 177.56 96.7549 177.035 96.5309 176.704C96.3123 176.373 95.9949 176.208 95.5789 176.208Z" fill="#1E2020"/>
<path opacity="0.9" d="M77 202C79.2091 202 81 200.209 81 198V158C81 155.791 79.2091 154 77 154H56V202H77Z" fill="#FFA940"/>
<line y1="-0.25" x2="204" y2="-0.25" transform="matrix(-1 0 0 1 260 210)" stroke="#C2C2C2" stroke-width="0.5"/>
<path d="M58.6414 218.464C59.0734 218.464 59.4334 218.581 59.7214 218.816C60.0148 219.051 60.2334 219.381 60.3774 219.808C60.5268 220.229 60.6014 220.72 60.6014 221.28C60.6014 221.84 60.5268 222.333 60.3774 222.76C60.2334 223.181 60.0148 223.509 59.7214 223.744C59.4334 223.979 59.0734 224.096 58.6414 224.096C58.2094 224.096 57.8468 223.979 57.5534 223.744C57.2601 223.509 57.0388 223.181 56.8894 222.76C56.7454 222.333 56.6734 221.84 56.6734 221.28C56.6734 220.72 56.7454 220.229 56.8894 219.808C57.0388 219.381 57.2601 219.051 57.5534 218.816C57.8468 218.581 58.2094 218.464 58.6414 218.464ZM58.6414 219.208C58.2254 219.208 57.9054 219.373 57.6814 219.704C57.4574 220.035 57.3454 220.56 57.3454 221.28C57.3454 222 57.4574 222.525 57.6814 222.856C57.9054 223.187 58.2254 223.352 58.6414 223.352C59.0574 223.352 59.3748 223.187 59.5934 222.856C59.8174 222.525 59.9294 222 59.9294 221.28C59.9294 220.56 59.8174 220.035 59.5934 219.704C59.3748 219.373 59.0574 219.208 58.6414 219.208Z" fill="#1E2020"/>
<path d="M81.981 218.56H84.549V219.288H82.437L82.221 220.808C82.3383 220.723 82.4823 220.659 82.653 220.616C82.8237 220.568 83.0103 220.544 83.213 220.544C83.565 220.544 83.869 220.613 84.125 220.752C84.3863 220.891 84.5863 221.091 84.725 221.352C84.869 221.608 84.941 221.915 84.941 222.272C84.941 222.629 84.8637 222.947 84.709 223.224C84.5543 223.496 84.3383 223.709 84.061 223.864C83.789 224.019 83.4743 224.096 83.117 224.096C82.797 224.096 82.509 224.032 82.253 223.904C82.0023 223.776 81.797 223.595 81.637 223.36C81.4823 223.12 81.3863 222.843 81.349 222.528H81.957C82.0317 222.795 82.1677 223.003 82.365 223.152C82.5677 223.296 82.8237 223.368 83.133 223.368C83.4477 223.368 83.7143 223.275 83.933 223.088C84.157 222.901 84.269 222.624 84.269 222.256C84.269 221.888 84.1623 221.605 83.949 221.408C83.7357 221.211 83.4583 221.112 83.117 221.112C82.9037 221.112 82.7037 221.144 82.517 221.208C82.3303 221.272 82.1677 221.376 82.029 221.52L81.581 221.352L81.981 218.56ZM87.8079 218.464C88.2399 218.464 88.5999 218.581 88.8879 218.816C89.1813 219.051 89.3999 219.381 89.5439 219.808C89.6933 220.229 89.7679 220.72 89.7679 221.28C89.7679 221.84 89.6933 222.333 89.5439 222.76C89.3999 223.181 89.1813 223.509 88.8879 223.744C88.5999 223.979 88.2399 224.096 87.8079 224.096C87.3759 224.096 87.0133 223.979 86.7199 223.744C86.4266 223.509 86.2053 223.181 86.0559 222.76C85.9119 222.333 85.8399 221.84 85.8399 221.28C85.8399 220.72 85.9119 220.229 86.0559 219.808C86.2053 219.381 86.4266 219.051 86.7199 218.816C87.0133 218.581 87.3759 218.464 87.8079 218.464ZM87.8079 219.208C87.3919 219.208 87.0719 219.373 86.8479 219.704C86.6239 220.035 86.5119 220.56 86.5119 221.28C86.5119 222 86.6239 222.525 86.8479 222.856C87.0719 223.187 87.3919 223.352 87.8079 223.352C88.2239 223.352 88.5413 223.187 88.7599 222.856C88.9839 222.525 89.0959 222 89.0959 221.28C89.0959 220.56 88.9839 220.035 88.7599 219.704C88.5413 219.373 88.2239 219.208 87.8079 219.208Z" fill="#1E2020"/>
<path d="M112.48 223.288H113.416V224H110.824V223.288H111.808V219.624L110.584 220.272V219.512L112.48 218.512V223.288ZM116.088 218.464C116.52 218.464 116.88 218.581 117.168 218.816C117.462 219.051 117.68 219.381 117.824 219.808C117.974 220.229 118.048 220.72 118.048 221.28C118.048 221.84 117.974 222.333 117.824 222.76C117.68 223.181 117.462 223.509 117.168 223.744C116.88 223.979 116.52 224.096 116.088 224.096C115.656 224.096 115.294 223.979 115 223.744C114.707 223.509 114.486 223.181 114.336 222.76C114.192 222.333 114.12 221.84 114.12 221.28C114.12 220.72 114.192 220.229 114.336 219.808C114.486 219.381 114.707 219.051 115 218.816C115.294 218.581 115.656 218.464 116.088 218.464ZM116.088 219.208C115.672 219.208 115.352 219.373 115.128 219.704C114.904 220.035 114.792 220.56 114.792 221.28C114.792 222 114.904 222.525 115.128 222.856C115.352 223.187 115.672 223.352 116.088 223.352C116.504 223.352 116.822 223.187 117.04 222.856C117.264 222.525 117.376 222 117.376 221.28C117.376 220.56 117.264 220.035 117.04 219.704C116.822 219.373 116.504 219.208 116.088 219.208ZM120.975 218.464C121.407 218.464 121.767 218.581 122.055 218.816C122.348 219.051 122.567 219.381 122.711 219.808C122.86 220.229 122.935 220.72 122.935 221.28C122.935 221.84 122.86 222.333 122.711 222.76C122.567 223.181 122.348 223.509 122.055 223.744C121.767 223.979 121.407 224.096 120.975 224.096C120.543 224.096 120.18 223.979 119.887 223.744C119.594 223.509 119.372 223.181 119.223 222.76C119.079 222.333 119.007 221.84 119.007 221.28C119.007 220.72 119.079 220.229 119.223 219.808C119.372 219.381 119.594 219.051 119.887 218.816C120.18 218.581 120.543 218.464 120.975 218.464ZM120.975 219.208C120.559 219.208 120.239 219.373 120.015 219.704C119.791 220.035 119.679 220.56 119.679 221.28C119.679 222 119.791 222.525 120.015 222.856C120.239 223.187 120.559 223.352 120.975 223.352C121.391 223.352 121.708 223.187 121.927 222.856C122.151 222.525 122.263 222 122.263 221.28C122.263 220.56 122.151 220.035 121.927 219.704C121.708 219.373 121.391 219.208 120.975 219.208Z" fill="#1E2020"/>
<path d="M145.045 223.288H145.981V224H143.389V223.288H144.373V219.624L143.149 220.272V219.512L145.045 218.512V223.288ZM147.315 218.56H149.883V219.288H147.771L147.555 220.808C147.672 220.723 147.816 220.659 147.987 220.616C148.157 220.568 148.344 220.544 148.547 220.544C148.899 220.544 149.203 220.613 149.459 220.752C149.72 220.891 149.92 221.091 150.059 221.352C150.203 221.608 150.275 221.915 150.275 222.272C150.275 222.629 150.197 222.947 150.043 223.224C149.888 223.496 149.672 223.709 149.395 223.864C149.123 224.019 148.808 224.096 148.451 224.096C148.131 224.096 147.843 224.032 147.587 223.904C147.336 223.776 147.131 223.595 146.971 223.36C146.816 223.12 146.72 222.843 146.683 222.528H147.291C147.365 222.795 147.501 223.003 147.699 223.152C147.901 223.296 148.157 223.368 148.467 223.368C148.781 223.368 149.048 223.275 149.267 223.088C149.491 222.901 149.603 222.624 149.603 222.256C149.603 221.888 149.496 221.605 149.283 221.408C149.069 221.211 148.792 221.112 148.451 221.112C148.237 221.112 148.037 221.144 147.851 221.208C147.664 221.272 147.501 221.376 147.363 221.52L146.915 221.352L147.315 218.56ZM153.141 218.464C153.573 218.464 153.933 218.581 154.221 218.816C154.515 219.051 154.733 219.381 154.877 219.808C155.027 220.229 155.101 220.72 155.101 221.28C155.101 221.84 155.027 222.333 154.877 222.76C154.733 223.181 154.515 223.509 154.221 223.744C153.933 223.979 153.573 224.096 153.141 224.096C152.709 224.096 152.347 223.979 152.053 223.744C151.76 223.509 151.539 223.181 151.389 222.76C151.245 222.333 151.173 221.84 151.173 221.28C151.173 220.72 151.245 220.229 151.389 219.808C151.539 219.381 151.76 219.051 152.053 218.816C152.347 218.581 152.709 218.464 153.141 218.464ZM153.141 219.208C152.725 219.208 152.405 219.373 152.181 219.704C151.957 220.035 151.845 220.56 151.845 221.28C151.845 222 151.957 222.525 152.181 222.856C152.405 223.187 152.725 223.352 153.141 223.352C153.557 223.352 153.875 223.187 154.093 222.856C154.317 222.525 154.429 222 154.429 221.28C154.429 220.56 154.317 220.035 154.093 219.704C153.875 219.373 153.557 219.208 153.141 219.208Z" fill="#1E2020"/>
<path d="M177.802 220.128C177.802 219.867 177.714 219.648 177.538 219.472C177.368 219.291 177.122 219.2 176.802 219.2C176.461 219.2 176.189 219.291 175.986 219.472C175.784 219.648 175.661 219.909 175.618 220.256H175.01C175.042 219.915 175.13 219.611 175.274 219.344C175.424 219.072 175.629 218.859 175.89 218.704C176.152 218.544 176.464 218.464 176.826 218.464C177.184 218.464 177.482 218.536 177.722 218.68C177.968 218.819 178.154 219.011 178.282 219.256C178.41 219.501 178.474 219.779 178.474 220.088C178.474 220.328 178.437 220.541 178.362 220.728C178.288 220.909 178.178 221.083 178.034 221.248C177.89 221.413 177.709 221.584 177.49 221.76C177.272 221.936 177.018 222.133 176.73 222.352C176.517 222.512 176.325 222.667 176.154 222.816C175.989 222.965 175.869 223.117 175.794 223.272H178.474V224H175.082V223.552C175.082 223.328 175.141 223.123 175.258 222.936C175.381 222.744 175.538 222.563 175.73 222.392C175.928 222.221 176.133 222.056 176.346 221.896C176.645 221.667 176.904 221.461 177.122 221.28C177.341 221.093 177.509 220.909 177.626 220.728C177.744 220.541 177.802 220.341 177.802 220.128ZM181.421 218.464C181.853 218.464 182.213 218.581 182.501 218.816C182.795 219.051 183.013 219.381 183.157 219.808C183.307 220.229 183.381 220.72 183.381 221.28C183.381 221.84 183.307 222.333 183.157 222.76C183.013 223.181 182.795 223.509 182.501 223.744C182.213 223.979 181.853 224.096 181.421 224.096C180.989 224.096 180.627 223.979 180.333 223.744C180.04 223.509 179.819 223.181 179.669 222.76C179.525 222.333 179.453 221.84 179.453 221.28C179.453 220.72 179.525 220.229 179.669 219.808C179.819 219.381 180.04 219.051 180.333 218.816C180.627 218.581 180.989 218.464 181.421 218.464ZM181.421 219.208C181.005 219.208 180.685 219.373 180.461 219.704C180.237 220.035 180.125 220.56 180.125 221.28C180.125 222 180.237 222.525 180.461 222.856C180.685 223.187 181.005 223.352 181.421 223.352C181.837 223.352 182.155 223.187 182.373 222.856C182.597 222.525 182.709 222 182.709 221.28C182.709 220.56 182.597 220.035 182.373 219.704C182.155 219.373 181.837 219.208 181.421 219.208ZM186.308 218.464C186.74 218.464 187.1 218.581 187.388 218.816C187.681 219.051 187.9 219.381 188.044 219.808C188.193 220.229 188.268 220.72 188.268 221.28C188.268 221.84 188.193 222.333 188.044 222.76C187.9 223.181 187.681 223.509 187.388 223.744C187.1 223.979 186.74 224.096 186.308 224.096C185.876 224.096 185.513 223.979 185.22 223.744C184.927 223.509 184.705 223.181 184.556 222.76C184.412 222.333 184.34 221.84 184.34 221.28C184.34 220.72 184.412 220.229 184.556 219.808C184.705 219.381 184.927 219.051 185.22 218.816C185.513 218.581 185.876 218.464 186.308 218.464ZM186.308 219.208C185.892 219.208 185.572 219.373 185.348 219.704C185.124 220.035 185.012 220.56 185.012 221.28C185.012 222 185.124 222.525 185.348 222.856C185.572 223.187 185.892 223.352 186.308 223.352C186.724 223.352 187.041 223.187 187.26 222.856C187.484 222.525 187.596 222 187.596 221.28C187.596 220.56 187.484 220.035 187.26 219.704C187.041 219.373 186.724 219.208 186.308 219.208Z" fill="#1E2020"/>
<path d="M211.524 220.128C211.524 219.867 211.436 219.648 211.26 219.472C211.089 219.291 210.844 219.2 210.524 219.2C210.183 219.2 209.911 219.291 209.708 219.472C209.505 219.648 209.383 219.909 209.34 220.256H208.732C208.764 219.915 208.852 219.611 208.996 219.344C209.145 219.072 209.351 218.859 209.612 218.704C209.873 218.544 210.185 218.464 210.548 218.464C210.905 218.464 211.204 218.536 211.444 218.68C211.689 218.819 211.876 219.011 212.004 219.256C212.132 219.501 212.196 219.779 212.196 220.088C212.196 220.328 212.159 220.541 212.084 220.728C212.009 220.909 211.9 221.083 211.756 221.248C211.612 221.413 211.431 221.584 211.212 221.76C210.993 221.936 210.74 222.133 210.452 222.352C210.239 222.512 210.047 222.667 209.876 222.816C209.711 222.965 209.591 223.117 209.516 223.272H212.196V224H208.804V223.552C208.804 223.328 208.863 223.123 208.98 222.936C209.103 222.744 209.26 222.563 209.452 222.392C209.649 222.221 209.855 222.056 210.068 221.896C210.367 221.667 210.625 221.461 210.844 221.28C211.063 221.093 211.231 220.909 211.348 220.728C211.465 220.541 211.524 220.341 211.524 220.128ZM213.648 218.56H216.216V219.288H214.104L213.888 220.808C214.005 220.723 214.149 220.659 214.32 220.616C214.491 220.568 214.677 220.544 214.88 220.544C215.232 220.544 215.536 220.613 215.792 220.752C216.053 220.891 216.253 221.091 216.392 221.352C216.536 221.608 216.608 221.915 216.608 222.272C216.608 222.629 216.531 222.947 216.376 223.224C216.221 223.496 216.005 223.709 215.728 223.864C215.456 224.019 215.141 224.096 214.784 224.096C214.464 224.096 214.176 224.032 213.92 223.904C213.669 223.776 213.464 223.595 213.304 223.36C213.149 223.12 213.053 222.843 213.016 222.528H213.624C213.699 222.795 213.835 223.003 214.032 223.152C214.235 223.296 214.491 223.368 214.8 223.368C215.115 223.368 215.381 223.275 215.6 223.088C215.824 222.901 215.936 222.624 215.936 222.256C215.936 221.888 215.829 221.605 215.616 221.408C215.403 221.211 215.125 221.112 214.784 221.112C214.571 221.112 214.371 221.144 214.184 221.208C213.997 221.272 213.835 221.376 213.696 221.52L213.248 221.352L213.648 218.56ZM219.475 218.464C219.907 218.464 220.267 218.581 220.555 218.816C220.848 219.051 221.067 219.381 221.211 219.808C221.36 220.229 221.435 220.72 221.435 221.28C221.435 221.84 221.36 222.333 221.211 222.76C221.067 223.181 220.848 223.509 220.555 223.744C220.267 223.979 219.907 224.096 219.475 224.096C219.043 224.096 218.68 223.979 218.387 223.744C218.094 223.509 217.872 223.181 217.723 222.76C217.579 222.333 217.507 221.84 217.507 221.28C217.507 220.72 217.579 220.229 217.723 219.808C217.872 219.381 218.094 219.051 218.387 218.816C218.68 218.581 219.043 218.464 219.475 218.464ZM219.475 219.208C219.059 219.208 218.739 219.373 218.515 219.704C218.291 220.035 218.179 220.56 218.179 221.28C218.179 222 218.291 222.525 218.515 222.856C218.739 223.187 219.059 223.352 219.475 223.352C219.891 223.352 220.208 223.187 220.427 222.856C220.651 222.525 220.763 222 220.763 221.28C220.763 220.56 220.651 220.035 220.427 219.704C220.208 219.373 219.891 219.208 219.475 219.208Z" fill="#1E2020"/>
<path d="M244.129 223.368C244.46 223.368 244.732 223.277 244.945 223.096C245.164 222.909 245.273 222.645 245.273 222.304C245.273 221.995 245.172 221.749 244.969 221.568C244.772 221.381 244.51 221.288 244.185 221.288C244.046 221.288 243.916 221.304 243.793 221.336C243.676 221.363 243.574 221.397 243.489 221.44L243.249 221.048L245.001 219.288H242.585V218.56H245.625V219.384L244.257 220.744C244.268 220.739 244.281 220.736 244.297 220.736C244.313 220.736 244.326 220.736 244.337 220.736C244.833 220.736 245.225 220.885 245.513 221.184C245.801 221.477 245.945 221.851 245.945 222.304C245.945 222.587 245.897 222.84 245.801 223.064C245.71 223.288 245.585 223.477 245.425 223.632C245.265 223.781 245.07 223.896 244.841 223.976C244.617 224.056 244.374 224.096 244.113 224.096C243.596 224.096 243.169 223.947 242.833 223.648C242.502 223.344 242.31 222.936 242.257 222.424H242.865C242.934 222.744 243.078 222.981 243.297 223.136C243.521 223.291 243.798 223.368 244.129 223.368ZM248.755 218.464C249.187 218.464 249.547 218.581 249.835 218.816C250.128 219.051 250.347 219.381 250.491 219.808C250.64 220.229 250.715 220.72 250.715 221.28C250.715 221.84 250.64 222.333 250.491 222.76C250.347 223.181 250.128 223.509 249.835 223.744C249.547 223.979 249.187 224.096 248.755 224.096C248.323 224.096 247.96 223.979 247.667 223.744C247.374 223.509 247.152 223.181 247.003 222.76C246.859 222.333 246.787 221.84 246.787 221.28C246.787 220.72 246.859 220.229 247.003 219.808C247.152 219.381 247.374 219.051 247.667 218.816C247.96 218.581 248.323 218.464 248.755 218.464ZM248.755 219.208C248.339 219.208 248.019 219.373 247.795 219.704C247.571 220.035 247.459 220.56 247.459 221.28C247.459 222 247.571 222.525 247.795 222.856C248.019 223.187 248.339 223.352 248.755 223.352C249.171 223.352 249.488 223.187 249.707 222.856C249.931 222.525 250.043 222 250.043 221.28C250.043 220.56 249.931 220.035 249.707 219.704C249.488 219.373 249.171 219.208 248.755 219.208ZM253.641 218.464C254.073 218.464 254.433 218.581 254.721 218.816C255.015 219.051 255.233 219.381 255.377 219.808C255.527 220.229 255.601 220.72 255.601 221.28C255.601 221.84 255.527 222.333 255.377 222.76C255.233 223.181 255.015 223.509 254.721 223.744C254.433 223.979 254.073 224.096 253.641 224.096C253.209 224.096 252.847 223.979 252.553 223.744C252.26 223.509 252.039 223.181 251.889 222.76C251.745 222.333 251.673 221.84 251.673 221.28C251.673 220.72 251.745 220.229 251.889 219.808C252.039 219.381 252.26 219.051 252.553 218.816C252.847 218.581 253.209 218.464 253.641 218.464ZM253.641 219.208C253.225 219.208 252.905 219.373 252.681 219.704C252.457 220.035 252.345 220.56 252.345 221.28C252.345 222 252.457 222.525 252.681 222.856C252.905 223.187 253.225 223.352 253.641 223.352C254.057 223.352 254.375 223.187 254.593 222.856C254.817 222.525 254.929 222 254.929 221.28C254.929 220.56 254.817 220.035 254.593 219.704C254.375 219.373 254.057 219.208 253.641 219.208Z" fill="#1E2020"/>
<path d="M4.8 48.464C5.184 48.464 5.52533 48.5333 5.824 48.672C6.128 48.8107 6.384 49.008 6.592 49.264C6.8 49.5147 6.95733 49.8133 7.064 50.16C7.176 50.5013 7.232 50.8747 7.232 51.28C7.232 51.6853 7.176 52.0613 7.064 52.408C6.95733 52.7493 6.8 53.048 6.592 53.304C6.384 53.5547 6.128 53.7493 5.824 53.888C5.52533 54.0267 5.184 54.096 4.8 54.096C4.416 54.096 4.072 54.0267 3.768 53.888C3.46933 53.7493 3.216 53.5547 3.008 53.304C2.80533 53.048 2.648 52.7493 2.536 52.408C2.42933 52.0613 2.376 51.6853 2.376 51.28C2.376 50.8747 2.42933 50.5013 2.536 50.16C2.648 49.8133 2.80533 49.5147 3.008 49.264C3.216 49.008 3.46933 48.8107 3.768 48.672C4.072 48.5333 4.416 48.464 4.8 48.464ZM4.8 49.224C4.464 49.224 4.16267 49.3013 3.896 49.456C3.63467 49.6107 3.42667 49.84 3.272 50.144C3.12267 50.448 3.048 50.8267 3.048 51.28C3.048 51.7333 3.12267 52.112 3.272 52.416C3.42667 52.72 3.63467 52.9493 3.896 53.104C4.16267 53.2587 4.464 53.336 4.8 53.336C5.14133 53.336 5.44267 53.2587 5.704 53.104C5.97067 52.9493 6.17867 52.72 6.328 52.416C6.48267 52.112 6.56 51.7333 6.56 51.28C6.56 50.8267 6.48267 50.448 6.328 50.144C6.17867 49.84 5.97067 49.6107 5.704 49.456C5.44267 49.3013 5.14133 49.224 4.8 49.224ZM9.99338 50.176C10.3507 50.176 10.652 50.256 10.8974 50.416C11.148 50.576 11.34 50.7973 11.4734 51.08C11.6067 51.3627 11.6734 51.6907 11.6734 52.064C11.6734 52.4373 11.6014 52.776 11.4574 53.08C11.3187 53.3787 11.1134 53.6187 10.8414 53.8C10.5694 53.976 10.2307 54.064 9.82538 54.064C9.42538 54.064 9.08404 53.9707 8.80138 53.784C8.52404 53.592 8.31071 53.3173 8.16138 52.96C8.01738 52.5973 7.94538 52.1573 7.94538 51.64C7.94538 51.0747 7.99338 50.5813 8.08938 50.16C8.19071 49.7333 8.37204 49.3893 8.63338 49.128C8.89471 48.8667 9.26538 48.7013 9.74538 48.632L11.3534 48.392V49.088L9.84938 49.328C9.55071 49.376 9.31604 49.464 9.14538 49.592C8.97471 49.72 8.84938 49.8907 8.76938 50.104C8.69471 50.312 8.64404 50.5653 8.61738 50.864C8.78271 50.6133 8.98271 50.4373 9.21738 50.336C9.45204 50.2293 9.71071 50.176 9.99338 50.176ZM9.87338 50.824C9.59604 50.824 9.35071 50.8667 9.13738 50.952C8.92404 51.032 8.74804 51.1653 8.60938 51.352V51.864C8.60938 52.3493 8.71604 52.7227 8.92938 52.984C9.14804 53.2453 9.44671 53.376 9.82538 53.376C10.188 53.376 10.4787 53.264 10.6974 53.04C10.916 52.8107 11.0254 52.4853 11.0254 52.064C11.0254 51.6427 10.9187 51.3307 10.7054 51.128C10.4974 50.9253 10.22 50.824 9.87338 50.824ZM13.1369 50.136V53.352H14.5609V50.136H15.2009V53.352H16.6249V50.136H17.2649V53.352H17.8409V55.008H17.2249V54H12.4969V50.136H13.1369ZM21.1301 54.016C20.9487 54.016 20.7994 53.9653 20.6821 53.864C20.5647 53.7573 20.4954 53.5973 20.4741 53.384C20.3407 53.5973 20.1807 53.76 19.9941 53.872C19.8127 53.9787 19.5967 54.032 19.3461 54.032C19.0101 54.032 18.7381 53.944 18.5301 53.768C18.3221 53.592 18.2181 53.3307 18.2181 52.984C18.2181 52.7653 18.2581 52.584 18.3381 52.44C18.4181 52.2907 18.5381 52.1653 18.6981 52.064C18.8581 51.9627 19.0554 51.8667 19.2901 51.776L20.4341 51.328C20.4127 51.104 20.3274 50.9493 20.1781 50.864C20.0341 50.7787 19.8607 50.736 19.6581 50.736C19.4447 50.736 19.2634 50.7813 19.1141 50.872C18.9701 50.9573 18.8821 51.0933 18.8501 51.28H18.2501C18.2874 50.9973 18.3754 50.768 18.5141 50.592C18.6527 50.416 18.8234 50.2853 19.0261 50.2C19.2287 50.1147 19.4394 50.072 19.6581 50.072C20.0901 50.072 20.4341 50.1867 20.6901 50.416C20.9461 50.64 21.0714 50.992 21.0661 51.472L21.0501 52.952C21.0501 53.1067 21.0714 53.2133 21.1141 53.272C21.1567 53.3307 21.2261 53.36 21.3221 53.36H21.4741V54C21.4207 54.0053 21.3621 54.008 21.2981 54.008C21.2394 54.0133 21.1834 54.016 21.1301 54.016ZM18.8581 52.872C18.8581 53.048 18.9167 53.1787 19.0341 53.264C19.1567 53.344 19.3247 53.384 19.5381 53.384C19.7301 53.384 19.9034 53.3573 20.0581 53.304C20.2127 53.2453 20.3327 53.168 20.4181 53.072L20.4341 51.816L19.7221 52.104C19.4127 52.2267 19.1914 52.3413 19.0581 52.448C18.9247 52.5547 18.8581 52.696 18.8581 52.872ZM21.7778 54L23.1138 52.424C22.8951 52.4187 22.6924 52.3787 22.5058 52.304C22.3191 52.224 22.1698 52.1013 22.0578 51.936C21.9511 51.7707 21.8978 51.5547 21.8978 51.288C21.8978 51.0373 21.9591 50.8267 22.0818 50.656C22.2044 50.4853 22.3724 50.3573 22.5858 50.272C22.7991 50.1813 23.0364 50.136 23.2978 50.136H24.7378V54H24.0978V52.424H23.8738L22.5858 54H21.7778ZM23.3458 51.984H24.0978V50.784H23.3618C23.1111 50.784 22.9111 50.8267 22.7618 50.912C22.6178 50.9973 22.5458 51.152 22.5458 51.376C22.5458 51.584 22.6204 51.7387 22.7697 51.84C22.9244 51.936 23.1164 51.984 23.3458 51.984Z" fill="#1E2020"/>
<path d="M2.576 110.666V105.226H4.136C4.55733 105.226 4.904 105.298 5.176 105.442C5.45333 105.586 5.66133 105.786 5.8 106.042C5.93867 106.293 6.008 106.589 6.008 106.93C6.008 107.266 5.93867 107.559 5.8 107.81C5.66133 108.055 5.45333 108.245 5.176 108.378C4.904 108.511 4.55733 108.578 4.136 108.578H3.248V110.666H2.576ZM4.088 105.97H3.248V107.938H4.088C4.46667 107.938 4.768 107.855 4.992 107.69C5.22133 107.519 5.336 107.266 5.336 106.93C5.336 106.594 5.22133 106.351 4.992 106.202C4.768 106.047 4.46667 105.97 4.088 105.97ZM9.97188 109.49C9.91321 109.703 9.81721 109.906 9.68388 110.098C9.55054 110.285 9.36921 110.437 9.13988 110.554C8.91054 110.671 8.61988 110.73 8.26788 110.73C7.91054 110.73 7.59588 110.642 7.32388 110.466C7.05188 110.285 6.83854 110.042 6.68388 109.738C6.53454 109.434 6.45988 109.098 6.45988 108.73C6.45988 108.357 6.53454 108.021 6.68388 107.722C6.83854 107.423 7.05188 107.186 7.32388 107.01C7.59588 106.829 7.91054 106.738 8.26788 106.738C8.63588 106.738 8.95321 106.826 9.21988 107.002C9.48654 107.178 9.69188 107.421 9.83588 107.73C9.98521 108.039 10.0599 108.391 10.0599 108.786C10.0599 108.802 10.0599 108.818 10.0599 108.834C10.0599 108.85 10.0599 108.866 10.0599 108.882H7.10788C7.13454 109.239 7.24921 109.527 7.45188 109.746C7.65988 109.965 7.93188 110.074 8.26788 110.074C8.56654 110.074 8.80654 110.023 8.98788 109.922C9.16921 109.815 9.30254 109.671 9.38788 109.49H9.97188ZM8.26788 107.394C7.94254 107.394 7.68121 107.487 7.48388 107.674C7.29188 107.855 7.17188 108.103 7.12388 108.418H9.39588C9.35854 108.135 9.24921 107.895 9.06788 107.698C8.89188 107.495 8.62521 107.394 8.26788 107.394ZM13.0321 110.666V108.866C12.9415 109.015 12.8135 109.138 12.6481 109.234C12.4881 109.33 12.2828 109.378 12.0321 109.378C11.6001 109.378 11.2721 109.261 11.0481 109.026C10.8241 108.791 10.7121 108.463 10.7121 108.042V106.802H11.3521V107.874C11.3521 108.167 11.4241 108.378 11.5681 108.506C11.7175 108.634 11.9308 108.698 12.2081 108.698C12.3788 108.698 12.5361 108.679 12.6801 108.642C12.8295 108.599 12.9468 108.535 13.0321 108.45V106.802H13.6721V110.666H13.0321ZM15.3869 106.802V108.154H16.1149C16.5416 108.154 16.8883 108.247 17.1549 108.434C17.4216 108.615 17.5549 108.927 17.5549 109.37C17.5549 109.663 17.4909 109.906 17.3629 110.098C17.2349 110.29 17.0643 110.434 16.8509 110.53C16.6376 110.621 16.3976 110.666 16.1309 110.666H14.7469V106.802H15.3869ZM16.0989 108.706H15.3869V110.018H16.0829C16.3389 110.018 16.5416 109.97 16.6909 109.874C16.8456 109.773 16.9229 109.602 16.9229 109.362C16.9229 109.143 16.8563 108.981 16.7229 108.874C16.5949 108.762 16.3869 108.706 16.0989 108.706ZM4.672 122.666L3.176 120.754V122.666H2.536V118.802H3.176V120.618L4.72 118.802H5.456L3.864 120.618L5.472 122.666H4.672ZM5.61925 121.978C5.65125 121.983 5.69125 121.991 5.73925 122.002C5.79258 122.007 5.85125 122.01 5.91525 122.01C6.09125 122.01 6.21925 121.893 6.29925 121.658C6.37925 121.423 6.44592 121.063 6.49925 120.578C6.52592 120.311 6.54725 120.034 6.56325 119.746C6.57925 119.458 6.58992 119.143 6.59525 118.802H8.96325V122.666H8.32325V119.45H7.13925C7.13392 119.647 7.12325 119.855 7.10725 120.074C7.09658 120.287 7.08325 120.49 7.06725 120.682C7.02992 121.167 6.97392 121.559 6.89925 121.858C6.82992 122.157 6.72858 122.373 6.59525 122.506C6.46192 122.639 6.27792 122.706 6.04325 122.706C5.96325 122.706 5.88592 122.701 5.81125 122.69C5.73658 122.679 5.67258 122.663 5.61925 122.642V121.978ZM10.676 118.802V121.618L12.54 118.802H13.164V122.666H12.524V119.802L10.628 122.666H10.036V118.802H10.676ZM17.5031 121.49C17.4445 121.703 17.3485 121.906 17.2151 122.098C17.0818 122.285 16.9005 122.437 16.6711 122.554C16.4418 122.671 16.1511 122.73 15.7991 122.73C15.4418 122.73 15.1271 122.642 14.8551 122.466C14.5831 122.285 14.3698 122.042 14.2151 121.738C14.0658 121.434 13.9911 121.098 13.9911 120.73C13.9911 120.357 14.0658 120.021 14.2151 119.722C14.3698 119.423 14.5831 119.186 14.8551 119.01C15.1271 118.829 15.4418 118.738 15.7991 118.738C16.1671 118.738 16.4845 118.826 16.7511 119.002C17.0178 119.178 17.2231 119.421 17.3671 119.73C17.5165 120.039 17.5911 120.391 17.5911 120.786C17.5911 120.802 17.5911 120.818 17.5911 120.834C17.5911 120.85 17.5911 120.866 17.5911 120.882H14.6391C14.6658 121.239 14.7805 121.527 14.9831 121.746C15.1911 121.965 15.4631 122.074 15.7991 122.074C16.0978 122.074 16.3378 122.023 16.5191 121.922C16.7005 121.815 16.8338 121.671 16.9191 121.49H17.5031ZM15.7991 119.394C15.4738 119.394 15.2125 119.487 15.0151 119.674C14.8231 119.855 14.7031 120.103 14.6551 120.418H16.9271C16.8898 120.135 16.7805 119.895 16.5991 119.698C16.4231 119.495 16.1565 119.394 15.7991 119.394ZM20.8194 122.666V120.986H19.0354V122.666H18.3954V118.802H19.0354V120.338H20.8194V118.802H21.4594V122.666H20.8194ZM22.1762 118.802H25.2962V119.458H24.0562V122.666H23.4162V119.458H22.1762V118.802ZM28.6535 122.682C28.4722 122.682 28.3228 122.631 28.2055 122.53C28.0882 122.423 28.0188 122.263 27.9975 122.05C27.8642 122.263 27.7042 122.426 27.5175 122.538C27.3362 122.645 27.1202 122.698 26.8695 122.698C26.5335 122.698 26.2615 122.61 26.0535 122.434C25.8455 122.258 25.7415 121.997 25.7415 121.65C25.7415 121.431 25.7815 121.25 25.8615 121.106C25.9415 120.957 26.0615 120.831 26.2215 120.73C26.3815 120.629 26.5788 120.533 26.8135 120.442L27.9575 119.994C27.9362 119.77 27.8508 119.615 27.7015 119.53C27.5575 119.445 27.3842 119.402 27.1815 119.402C26.9682 119.402 26.7868 119.447 26.6375 119.538C26.4935 119.623 26.4055 119.759 26.3735 119.946H25.7735C25.8108 119.663 25.8988 119.434 26.0375 119.258C26.1762 119.082 26.3468 118.951 26.5495 118.866C26.7522 118.781 26.9628 118.738 27.1815 118.738C27.6135 118.738 27.9575 118.853 28.2135 119.082C28.4695 119.306 28.5948 119.658 28.5895 120.138L28.5735 121.618C28.5735 121.773 28.5948 121.879 28.6375 121.938C28.6802 121.997 28.7495 122.026 28.8455 122.026H28.9975V122.666C28.9442 122.671 28.8855 122.674 28.8215 122.674C28.7628 122.679 28.7068 122.682 28.6535 122.682ZM26.3815 121.538C26.3815 121.714 26.4402 121.845 26.5575 121.93C26.6802 122.01 26.8482 122.05 27.0615 122.05C27.2535 122.05 27.4268 122.023 27.5815 121.97C27.7362 121.911 27.8562 121.834 27.9415 121.738L27.9575 120.482L27.2455 120.77C26.9362 120.893 26.7148 121.007 26.5815 121.114C26.4482 121.221 26.3815 121.362 26.3815 121.538Z" fill="#1E2020"/>
<path d="M2.576 173.334V167.894H4.136C4.55733 167.894 4.904 167.966 5.176 168.11C5.45333 168.254 5.66133 168.454 5.8 168.71C5.93867 168.961 6.008 169.257 6.008 169.598C6.008 169.934 5.93867 170.227 5.8 170.478C5.66133 170.723 5.45333 170.913 5.176 171.046C4.904 171.179 4.55733 171.246 4.136 171.246H3.248V173.334H2.576ZM4.088 168.638H3.248V170.606H4.088C4.46667 170.606 4.768 170.523 4.992 170.358C5.22133 170.187 5.336 169.934 5.336 169.598C5.336 169.262 5.22133 169.019 4.992 168.87C4.768 168.715 4.46667 168.638 4.088 168.638ZM9.97188 172.158C9.91321 172.371 9.81721 172.574 9.68388 172.766C9.55054 172.953 9.36921 173.105 9.13988 173.222C8.91054 173.339 8.61988 173.398 8.26788 173.398C7.91054 173.398 7.59588 173.31 7.32388 173.134C7.05188 172.953 6.83854 172.71 6.68388 172.406C6.53454 172.102 6.45988 171.766 6.45988 171.398C6.45988 171.025 6.53454 170.689 6.68388 170.39C6.83854 170.091 7.05188 169.854 7.32388 169.678C7.59588 169.497 7.91054 169.406 8.26788 169.406C8.63588 169.406 8.95321 169.494 9.21988 169.67C9.48654 169.846 9.69188 170.089 9.83588 170.398C9.98521 170.707 10.0599 171.059 10.0599 171.454C10.0599 171.47 10.0599 171.486 10.0599 171.502C10.0599 171.518 10.0599 171.534 10.0599 171.55H7.10788C7.13454 171.907 7.24921 172.195 7.45188 172.414C7.65988 172.633 7.93188 172.742 8.26788 172.742C8.56654 172.742 8.80654 172.691 8.98788 172.59C9.16921 172.483 9.30254 172.339 9.38788 172.158H9.97188ZM8.26788 170.062C7.94254 170.062 7.68121 170.155 7.48388 170.342C7.29188 170.523 7.17188 170.771 7.12388 171.086H9.39588C9.35854 170.803 9.24921 170.563 9.06788 170.366C8.89188 170.163 8.62521 170.062 8.26788 170.062ZM13.0321 173.334V171.534C12.9415 171.683 12.8135 171.806 12.6481 171.902C12.4881 171.998 12.2828 172.046 12.0321 172.046C11.6001 172.046 11.2721 171.929 11.0481 171.694C10.8241 171.459 10.7121 171.131 10.7121 170.71V169.47H11.3521V170.542C11.3521 170.835 11.4241 171.046 11.5681 171.174C11.7175 171.302 11.9308 171.366 12.2081 171.366C12.3788 171.366 12.5361 171.347 12.6801 171.31C12.8295 171.267 12.9468 171.203 13.0321 171.118V169.47H13.6721V173.334H13.0321ZM15.3869 169.47V170.822H16.1149C16.5416 170.822 16.8883 170.915 17.1549 171.102C17.4216 171.283 17.5549 171.595 17.5549 172.038C17.5549 172.331 17.4909 172.574 17.3629 172.766C17.2349 172.958 17.0643 173.102 16.8509 173.198C16.6376 173.289 16.3976 173.334 16.1309 173.334H14.7469V169.47H15.3869ZM16.0989 171.374H15.3869V172.686H16.0829C16.3389 172.686 16.5416 172.638 16.6909 172.542C16.8456 172.441 16.9229 172.27 16.9229 172.03C16.9229 171.811 16.8563 171.649 16.7229 171.542C16.5949 171.43 16.3869 171.374 16.0989 171.374ZM4.168 181.406C4.54667 181.406 4.87467 181.494 5.152 181.67C5.43467 181.846 5.65333 182.086 5.808 182.39C5.968 182.689 6.048 183.025 6.048 183.398C6.048 183.771 5.968 184.11 5.808 184.414C5.65333 184.713 5.43467 184.953 5.152 185.134C4.87467 185.31 4.54667 185.398 4.168 185.398C3.79467 185.398 3.46667 185.31 3.184 185.134C2.90133 184.953 2.68 184.713 2.52 184.414C2.36533 184.11 2.288 183.771 2.288 183.398C2.288 183.025 2.36533 182.689 2.52 182.39C2.68 182.086 2.90133 181.846 3.184 181.67C3.46667 181.494 3.79467 181.406 4.168 181.406ZM4.168 182.094C3.79467 182.094 3.496 182.214 3.272 182.454C3.048 182.694 2.936 183.009 2.936 183.398C2.936 183.787 3.048 184.105 3.272 184.35C3.496 184.59 3.79467 184.71 4.168 184.71C4.54133 184.71 4.84 184.59 5.064 184.35C5.288 184.105 5.4 183.787 5.4 183.398C5.4 183.009 5.288 182.694 5.064 182.454C4.84 182.214 4.54133 182.094 4.168 182.094ZM9.28794 185.334V182.118H7.51194V185.334H6.87194V181.47H9.92794V185.334H9.28794ZM14.2609 184.158C14.2023 184.371 14.1063 184.574 13.9729 184.766C13.8396 184.953 13.6583 185.105 13.4289 185.222C13.1996 185.339 12.9089 185.398 12.5569 185.398C12.1996 185.398 11.8849 185.31 11.6129 185.134C11.3409 184.953 11.1276 184.71 10.9729 184.406C10.8236 184.102 10.7489 183.766 10.7489 183.398C10.7489 183.025 10.8236 182.689 10.9729 182.39C11.1276 182.091 11.3409 181.854 11.6129 181.678C11.8849 181.497 12.1996 181.406 12.5569 181.406C12.9249 181.406 13.2423 181.494 13.5089 181.67C13.7756 181.846 13.9809 182.089 14.1249 182.398C14.2743 182.707 14.3489 183.059 14.3489 183.454C14.3489 183.47 14.3489 183.486 14.3489 183.502C14.3489 183.518 14.3489 183.534 14.3489 183.55H11.3969C11.4236 183.907 11.5383 184.195 11.7409 184.414C11.9489 184.633 12.2209 184.742 12.5569 184.742C12.8556 184.742 13.0956 184.691 13.2769 184.59C13.4583 184.483 13.5916 184.339 13.6769 184.158H14.2609ZM12.5569 182.062C12.2316 182.062 11.9703 182.155 11.7729 182.342C11.5809 182.523 11.4609 182.771 11.4129 183.086H13.6849C13.6476 182.803 13.5383 182.563 13.3569 182.366C13.1809 182.163 12.9143 182.062 12.5569 182.062ZM15.7612 182.142C15.8839 181.891 16.0492 181.707 16.2572 181.59C16.4652 181.467 16.7265 181.406 17.0412 181.406C17.4092 181.406 17.7265 181.491 17.9932 181.662C18.2599 181.827 18.4625 182.059 18.6012 182.358C18.7452 182.651 18.8172 182.987 18.8172 183.366C18.8172 183.745 18.7452 184.089 18.6012 184.398C18.4625 184.702 18.2599 184.945 17.9932 185.126C17.7319 185.307 17.4172 185.398 17.0492 185.398C16.7612 185.398 16.5132 185.347 16.3052 185.246C16.0972 185.139 15.9265 184.974 15.7932 184.75V186.934H15.1532V181.47H15.7612V182.142ZM16.9372 184.726C17.3532 184.726 17.6625 184.598 17.8652 184.342C18.0679 184.086 18.1692 183.761 18.1692 183.366C18.1692 182.971 18.0652 182.659 17.8572 182.43C17.6545 182.195 17.3452 182.078 16.9292 182.078C16.6465 182.078 16.4092 182.121 16.2172 182.206C16.0252 182.286 15.8839 182.419 15.7932 182.606V184.214C15.8839 184.395 16.0252 184.526 16.2172 184.606C16.4145 184.686 16.6545 184.726 16.9372 184.726ZM22.341 185.35C22.1597 185.35 22.0103 185.299 21.893 185.198C21.7757 185.091 21.7063 184.931 21.685 184.718C21.5517 184.931 21.3917 185.094 21.205 185.206C21.0237 185.313 20.8077 185.366 20.557 185.366C20.221 185.366 19.949 185.278 19.741 185.102C19.533 184.926 19.429 184.665 19.429 184.318C19.429 184.099 19.469 183.918 19.549 183.774C19.629 183.625 19.749 183.499 19.909 183.398C20.069 183.297 20.2663 183.201 20.501 183.11L21.645 182.662C21.6237 182.438 21.5383 182.283 21.389 182.198C21.245 182.113 21.0717 182.07 20.869 182.07C20.6557 182.07 20.4743 182.115 20.325 182.206C20.181 182.291 20.093 182.427 20.061 182.614H19.461C19.4983 182.331 19.5863 182.102 19.725 181.926C19.8637 181.75 20.0343 181.619 20.237 181.534C20.4397 181.449 20.6503 181.406 20.869 181.406C21.301 181.406 21.645 181.521 21.901 181.75C22.157 181.974 22.2823 182.326 22.277 182.806L22.261 184.286C22.261 184.441 22.2823 184.547 22.325 184.606C22.3677 184.665 22.437 184.694 22.533 184.694H22.685V185.334C22.6317 185.339 22.573 185.342 22.509 185.342C22.4503 185.347 22.3943 185.35 22.341 185.35ZM20.069 184.206C20.069 184.382 20.1277 184.513 20.245 184.598C20.3677 184.678 20.5357 184.718 20.749 184.718C20.941 184.718 21.1143 184.691 21.269 184.638C21.4237 184.579 21.5437 184.502 21.629 184.406L21.645 183.15L20.933 183.438C20.6237 183.561 20.4023 183.675 20.269 183.782C20.1357 183.889 20.069 184.03 20.069 184.206ZM22.8715 181.47H25.9915V182.126H24.7515V185.334H24.1115V182.126H22.8715V181.47ZM28.2618 181.406C28.6404 181.406 28.9684 181.494 29.2458 181.67C29.5284 181.846 29.7471 182.086 29.9018 182.39C30.0618 182.689 30.1418 183.025 30.1418 183.398C30.1418 183.771 30.0618 184.11 29.9018 184.414C29.7471 184.713 29.5284 184.953 29.2458 185.134C28.9684 185.31 28.6404 185.398 28.2618 185.398C27.8884 185.398 27.5604 185.31 27.2778 185.134C26.9951 184.953 26.7738 184.713 26.6138 184.414C26.4591 184.11 26.3818 183.771 26.3818 183.398C26.3818 183.025 26.4591 182.689 26.6138 182.39C26.7738 182.086 26.9951 181.846 27.2778 181.67C27.5604 181.494 27.8884 181.406 28.2618 181.406ZM28.2618 182.094C27.8884 182.094 27.5898 182.214 27.3658 182.454C27.1418 182.694 27.0298 183.009 27.0298 183.398C27.0298 183.787 27.1418 184.105 27.3658 184.35C27.5898 184.59 27.8884 184.71 28.2618 184.71C28.6351 184.71 28.9338 184.59 29.1578 184.35C29.3818 184.105 29.4938 183.787 29.4938 183.398C29.4938 183.009 29.3818 182.694 29.1578 182.454C28.9338 182.214 28.6351 182.094 28.2618 182.094ZM31.5737 182.142C31.6964 181.891 31.8617 181.707 32.0697 181.59C32.2777 181.467 32.539 181.406 32.8537 181.406C33.2217 181.406 33.539 181.491 33.8057 181.662C34.0724 181.827 34.275 182.059 34.4137 182.358C34.5577 182.651 34.6297 182.987 34.6297 183.366C34.6297 183.745 34.5577 184.089 34.4137 184.398C34.275 184.702 34.0724 184.945 33.8057 185.126C33.5444 185.307 33.2297 185.398 32.8617 185.398C32.5737 185.398 32.3257 185.347 32.1177 185.246C31.9097 185.139 31.739 184.974 31.6057 184.75V186.934H30.9657V181.47H31.5737V182.142ZM32.7497 184.726C33.1657 184.726 33.475 184.598 33.6777 184.342C33.8804 184.086 33.9817 183.761 33.9817 183.366C33.9817 182.971 33.8777 182.659 33.6697 182.43C33.467 182.195 33.1577 182.078 32.7417 182.078C32.459 182.078 32.2217 182.121 32.0297 182.206C31.8377 182.286 31.6964 182.419 31.6057 182.606V184.214C31.6964 184.395 31.8377 184.526 32.0297 184.606C32.227 184.686 32.467 184.726 32.7497 184.726ZM38.1535 185.35C37.9722 185.35 37.8228 185.299 37.7055 185.198C37.5882 185.091 37.5188 184.931 37.4975 184.718C37.3642 184.931 37.2042 185.094 37.0175 185.206C36.8362 185.313 36.6202 185.366 36.3695 185.366C36.0335 185.366 35.7615 185.278 35.5535 185.102C35.3455 184.926 35.2415 184.665 35.2415 184.318C35.2415 184.099 35.2815 183.918 35.3615 183.774C35.4415 183.625 35.5615 183.499 35.7215 183.398C35.8815 183.297 36.0788 183.201 36.3135 183.11L37.4575 182.662C37.4362 182.438 37.3508 182.283 37.2015 182.198C37.0575 182.113 36.8842 182.07 36.6815 182.07C36.4682 182.07 36.2868 182.115 36.1375 182.206C35.9935 182.291 35.9055 182.427 35.8735 182.614H35.2735C35.3108 182.331 35.3988 182.102 35.5375 181.926C35.6762 181.75 35.8468 181.619 36.0495 181.534C36.2522 181.449 36.4628 181.406 36.6815 181.406C37.1135 181.406 37.4575 181.521 37.7135 181.75C37.9695 181.974 38.0948 182.326 38.0895 182.806L38.0735 184.286C38.0735 184.441 38.0948 184.547 38.1375 184.606C38.1802 184.665 38.2495 184.694 38.3455 184.694H38.4975V185.334C38.4442 185.339 38.3855 185.342 38.3215 185.342C38.2628 185.347 38.2068 185.35 38.1535 185.35ZM35.8815 184.206C35.8815 184.382 35.9402 184.513 36.0575 184.598C36.1802 184.678 36.3482 184.718 36.5615 184.718C36.7535 184.718 36.9268 184.691 37.0815 184.638C37.2362 184.579 37.3562 184.502 37.4415 184.406L37.4575 183.15L36.7455 183.438C36.4362 183.561 36.2148 183.675 36.0815 183.782C35.9482 183.889 35.8815 184.03 35.8815 184.206Z" fill="#1E2020"/>
</svg>
