<svg width="279" height="239" viewBox="0 0 279 239" fill="none" xmlns="http://www.w3.org/2000/svg">
<line y1="-0.25" x2="202" y2="-0.25" transform="matrix(0 -1 -1 0 256 210)" stroke="#CACACA" stroke-width="0.5"/>
<line y1="-0.25" x2="202" y2="-0.25" transform="matrix(0 -1 -1 0 236.8 210)" stroke="#CACACA" stroke-width="0.5"/>
<line y1="-0.25" x2="202" y2="-0.25" transform="matrix(0 -1 -1 0 217.6 210)" stroke="#CACACA" stroke-width="0.5"/>
<line y1="-0.25" x2="202" y2="-0.25" transform="matrix(0 -1 -1 0 198.4 210)" stroke="#CACACA" stroke-width="0.5"/>
<line y1="-0.25" x2="202" y2="-0.25" transform="matrix(0 -1 -1 0 179.2 210)" stroke="#CACACA" stroke-width="0.5"/>
<line y1="-0.25" x2="202" y2="-0.25" transform="matrix(0 -1 -1 0 160 210)" stroke="#CACACA" stroke-width="0.5"/>
<line y1="-0.25" x2="202" y2="-0.25" transform="matrix(0 -1 -1 0 140.8 210)" stroke="#CACACA" stroke-width="0.5"/>
<line y1="-0.25" x2="202" y2="-0.25" transform="matrix(0 -1 -1 0 121.6 210)" stroke="#CACACA" stroke-width="0.5"/>
<line y1="-0.25" x2="202" y2="-0.25" transform="matrix(0 -1 -1 0 102.4 210)" stroke="#CACACA" stroke-width="0.5"/>
<line y1="-0.25" x2="202" y2="-0.25" transform="matrix(0 -1 -1 0 83.2002 210)" stroke="#CACACA" stroke-width="0.5"/>
<line y1="-0.25" x2="202" y2="-0.25" transform="matrix(0 -1 -1 0 64 210)" stroke="#CACACA" stroke-width="0.5"/>
<line y1="-0.25" x2="204" y2="-0.25" transform="matrix(-1 0 0 1 268 18)" stroke="#CACACA" stroke-width="0.5"/>
<path d="M113.256 52.288H114.192V53H111.6V52.288H112.584V48.624L111.36 49.272V48.512L113.256 47.512V52.288Z" fill="#1E2020"/>
<path opacity="0.9" d="M99 74C101.209 74 103 72.2091 103 70V30C103 27.7909 101.209 26 99 26H64V74H99Z" fill="#A0D911"/>
<line y1="-0.25" x2="204" y2="-0.25" transform="matrix(-1 0 0 1 268 82)" stroke="#CACACA" stroke-width="0.5"/>
<path d="M261.048 115.824H260.36V117H259.688V115.824H257.224V115.224L259.784 111.56H260.36V115.144H261.048V115.824ZM257.936 115.144H259.688V112.6L257.936 115.144ZM261.512 117.928C261.629 117.805 261.739 117.669 261.84 117.52C261.941 117.376 262.019 117.229 262.072 117.08C261.933 117.069 261.827 117.021 261.752 116.936C261.677 116.851 261.64 116.739 261.64 116.6C261.64 116.445 261.691 116.32 261.792 116.224C261.893 116.128 262.011 116.08 262.144 116.08C262.283 116.08 262.4 116.131 262.496 116.232C262.592 116.333 262.64 116.472 262.64 116.648C262.64 116.803 262.613 116.955 262.56 117.104C262.507 117.259 262.419 117.419 262.296 117.584C262.179 117.755 262.013 117.947 261.8 118.16L261.512 117.928ZM263.573 117L265.709 112.304H263.141V111.56H266.397V112.264L264.245 117H263.573Z" fill="#1E2020"/>
<path opacity="0.9" d="M245 138C247.209 138 249 136.209 249 134V94C249 91.7909 247.209 90 245 90L64 90V138H245Z" fill="#FFA940"/>
<line y1="-0.25" x2="204" y2="-0.25" transform="matrix(-1 0 0 1 268 146)" stroke="#CACACA" stroke-width="0.5"/>
<path d="M230.048 179.824H229.36V181H228.688V179.824H226.224V179.224L228.784 175.56H229.36V179.144H230.048V179.824ZM226.936 179.144H228.688V176.6L226.936 179.144Z" fill="#1E2020"/>
<path opacity="0.9" d="M214 202C216.209 202 218 200.209 218 198V158C218 155.791 216.209 154 214 154H64V202H214Z" fill="#69C0FF"/>
<line y1="-0.25" x2="204" y2="-0.25" transform="matrix(-1 0 0 1 268 210)" stroke="#C2C2C2" stroke-width="0.5"/>
<path d="M66.6414 218.464C67.0734 218.464 67.4334 218.581 67.7214 218.816C68.0148 219.051 68.2334 219.381 68.3774 219.808C68.5268 220.229 68.6014 220.72 68.6014 221.28C68.6014 221.84 68.5268 222.333 68.3774 222.76C68.2334 223.181 68.0148 223.509 67.7214 223.744C67.4334 223.979 67.0734 224.096 66.6414 224.096C66.2094 224.096 65.8468 223.979 65.5534 223.744C65.2601 223.509 65.0388 223.181 64.8894 222.76C64.7454 222.333 64.6734 221.84 64.6734 221.28C64.6734 220.72 64.7454 220.229 64.8894 219.808C65.0388 219.381 65.2601 219.051 65.5534 218.816C65.8468 218.581 66.2094 218.464 66.6414 218.464ZM66.6414 219.208C66.2254 219.208 65.9054 219.373 65.6814 219.704C65.4574 220.035 65.3454 220.56 65.3454 221.28C65.3454 222 65.4574 222.525 65.6814 222.856C65.9054 223.187 66.2254 223.352 66.6414 223.352C67.0574 223.352 67.3748 223.187 67.5934 222.856C67.8174 222.525 67.9294 222 67.9294 221.28C67.9294 220.56 67.8174 220.035 67.5934 219.704C67.3748 219.373 67.0574 219.208 66.6414 219.208Z" fill="#1E2020"/>
<path d="M83.1198 218.464C83.5518 218.464 83.9118 218.581 84.1998 218.816C84.4931 219.051 84.7118 219.381 84.8558 219.808C85.0051 220.229 85.0798 220.72 85.0798 221.28C85.0798 221.84 85.0051 222.333 84.8558 222.76C84.7118 223.181 84.4931 223.509 84.1998 223.744C83.9118 223.979 83.5518 224.096 83.1198 224.096C82.6878 224.096 82.3251 223.979 82.0318 223.744C81.7384 223.509 81.5171 223.181 81.3678 222.76C81.2238 222.333 81.1518 221.84 81.1518 221.28C81.1518 220.72 81.2238 220.229 81.3678 219.808C81.5171 219.381 81.7384 219.051 82.0318 218.816C82.3251 218.581 82.6878 218.464 83.1198 218.464ZM83.1198 219.208C82.7038 219.208 82.3838 219.373 82.1598 219.704C81.9358 220.035 81.8238 220.56 81.8238 221.28C81.8238 222 81.9358 222.525 82.1598 222.856C82.3838 223.187 82.7038 223.352 83.1198 223.352C83.5358 223.352 83.8531 223.187 84.0718 222.856C84.2958 222.525 84.4078 222 84.4078 221.28C84.4078 220.56 84.2958 220.035 84.0718 219.704C83.8531 219.373 83.5358 219.208 83.1198 219.208ZM85.6661 224.928C85.7834 224.805 85.8928 224.669 85.9941 224.52C86.0954 224.376 86.1728 224.229 86.2261 224.08C86.0874 224.069 85.9808 224.021 85.9061 223.936C85.8314 223.851 85.7941 223.739 85.7941 223.6C85.7941 223.445 85.8448 223.32 85.9461 223.224C86.0474 223.128 86.1648 223.08 86.2981 223.08C86.4368 223.08 86.5541 223.131 86.6501 223.232C86.7461 223.333 86.7941 223.472 86.7941 223.648C86.7941 223.803 86.7674 223.955 86.7141 224.104C86.6608 224.259 86.5728 224.419 86.4501 224.584C86.3328 224.755 86.1674 224.947 85.9541 225.16L85.6661 224.928ZM88.101 218.56H90.669V219.288H88.557L88.341 220.808C88.4583 220.723 88.6023 220.659 88.773 220.616C88.9436 220.568 89.1303 220.544 89.333 220.544C89.685 220.544 89.989 220.613 90.245 220.752C90.5063 220.891 90.7063 221.091 90.845 221.352C90.989 221.608 91.061 221.915 91.061 222.272C91.061 222.629 90.9836 222.947 90.829 223.224C90.6743 223.496 90.4583 223.709 90.181 223.864C89.909 224.019 89.5943 224.096 89.237 224.096C88.917 224.096 88.629 224.032 88.373 223.904C88.1223 223.776 87.917 223.595 87.757 223.36C87.6023 223.12 87.5063 222.843 87.469 222.528H88.077C88.1516 222.795 88.2876 223.003 88.485 223.152C88.6876 223.296 88.9436 223.368 89.253 223.368C89.5676 223.368 89.8343 223.275 90.053 223.088C90.277 222.901 90.389 222.624 90.389 222.256C90.389 221.888 90.2823 221.605 90.069 221.408C89.8556 221.211 89.5783 221.112 89.237 221.112C89.0236 221.112 88.8236 221.144 88.637 221.208C88.4503 221.272 88.2876 221.376 88.149 221.52L87.701 221.352L88.101 218.56Z" fill="#1E2020"/>
<path d="M105.603 223.288H106.539V224H103.947V223.288H104.931V219.624L103.707 220.272V219.512L105.603 218.512V223.288Z" fill="#1E2020"/>
<path d="M120.847 223.288H121.783V224H119.191V223.288H120.175V219.624L118.951 220.272V219.512L120.847 218.512V223.288ZM122.466 224.928C122.584 224.805 122.693 224.669 122.794 224.52C122.896 224.376 122.973 224.229 123.026 224.08C122.888 224.069 122.781 224.021 122.706 223.936C122.632 223.851 122.594 223.739 122.594 223.6C122.594 223.445 122.645 223.32 122.746 223.224C122.848 223.128 122.965 223.08 123.098 223.08C123.237 223.08 123.354 223.131 123.45 223.232C123.546 223.333 123.594 223.472 123.594 223.648C123.594 223.803 123.568 223.955 123.514 224.104C123.461 224.259 123.373 224.419 123.25 224.584C123.133 224.755 122.968 224.947 122.754 225.16L122.466 224.928ZM124.901 218.56H127.469V219.288H125.357L125.141 220.808C125.259 220.723 125.403 220.659 125.573 220.616C125.744 220.568 125.931 220.544 126.133 220.544C126.485 220.544 126.789 220.613 127.045 220.752C127.307 220.891 127.507 221.091 127.645 221.352C127.789 221.608 127.861 221.915 127.861 222.272C127.861 222.629 127.784 222.947 127.629 223.224C127.475 223.496 127.259 223.709 126.981 223.864C126.709 224.019 126.395 224.096 126.037 224.096C125.717 224.096 125.429 224.032 125.173 223.904C124.923 223.776 124.717 223.595 124.557 223.36C124.403 223.12 124.307 222.843 124.269 222.528H124.877C124.952 222.795 125.088 223.003 125.285 223.152C125.488 223.296 125.744 223.368 126.053 223.368C126.368 223.368 126.635 223.275 126.853 223.088C127.077 222.901 127.189 222.624 127.189 222.256C127.189 221.888 127.083 221.605 126.869 221.408C126.656 221.211 126.379 221.112 126.037 221.112C125.824 221.112 125.624 221.144 125.437 221.208C125.251 221.272 125.088 221.376 124.949 221.52L124.501 221.352L124.901 218.56Z" fill="#1E2020"/>
<path d="M143.509 220.128C143.509 219.867 143.421 219.648 143.245 219.472C143.074 219.291 142.829 219.2 142.509 219.2C142.168 219.2 141.896 219.291 141.693 219.472C141.49 219.648 141.368 219.909 141.325 220.256H140.717C140.749 219.915 140.837 219.611 140.981 219.344C141.13 219.072 141.336 218.859 141.597 218.704C141.858 218.544 142.17 218.464 142.533 218.464C142.89 218.464 143.189 218.536 143.429 218.68C143.674 218.819 143.861 219.011 143.989 219.256C144.117 219.501 144.181 219.779 144.181 220.088C144.181 220.328 144.144 220.541 144.069 220.728C143.994 220.909 143.885 221.083 143.741 221.248C143.597 221.413 143.416 221.584 143.197 221.76C142.978 221.936 142.725 222.133 142.437 222.352C142.224 222.512 142.032 222.667 141.861 222.816C141.696 222.965 141.576 223.117 141.501 223.272H144.181V224H140.789V223.552C140.789 223.328 140.848 223.123 140.965 222.936C141.088 222.744 141.245 222.563 141.437 222.392C141.634 222.221 141.84 222.056 142.053 221.896C142.352 221.667 142.61 221.461 142.829 221.28C143.048 221.093 143.216 220.909 143.333 220.728C143.45 220.541 143.509 220.341 143.509 220.128Z" fill="#1E2020"/>
<path d="M159.831 220.128C159.831 219.867 159.743 219.648 159.567 219.472C159.397 219.291 159.151 219.2 158.831 219.2C158.49 219.2 158.218 219.291 158.015 219.472C157.813 219.648 157.69 219.909 157.647 220.256H157.039C157.071 219.915 157.159 219.611 157.303 219.344C157.453 219.072 157.658 218.859 157.919 218.704C158.181 218.544 158.493 218.464 158.855 218.464C159.213 218.464 159.511 218.536 159.751 218.68C159.997 218.819 160.183 219.011 160.311 219.256C160.439 219.501 160.503 219.779 160.503 220.088C160.503 220.328 160.466 220.541 160.391 220.728C160.317 220.909 160.207 221.083 160.063 221.248C159.919 221.413 159.738 221.584 159.519 221.76C159.301 221.936 159.047 222.133 158.759 222.352C158.546 222.512 158.354 222.667 158.183 222.816C158.018 222.965 157.898 223.117 157.823 223.272H160.503V224H157.111V223.552C157.111 223.328 157.17 223.123 157.287 222.936C157.41 222.744 157.567 222.563 157.759 222.392C157.957 222.221 158.162 222.056 158.375 221.896C158.674 221.667 158.933 221.461 159.151 221.28C159.37 221.093 159.538 220.909 159.655 220.728C159.773 220.541 159.831 220.341 159.831 220.128ZM161.266 224.928C161.384 224.805 161.493 224.669 161.594 224.52C161.696 224.376 161.773 224.229 161.826 224.08C161.688 224.069 161.581 224.021 161.506 223.936C161.432 223.851 161.394 223.739 161.394 223.6C161.394 223.445 161.445 223.32 161.546 223.224C161.648 223.128 161.765 223.08 161.898 223.08C162.037 223.08 162.154 223.131 162.25 223.232C162.346 223.333 162.394 223.472 162.394 223.648C162.394 223.803 162.368 223.955 162.314 224.104C162.261 224.259 162.173 224.419 162.05 224.584C161.933 224.755 161.768 224.947 161.554 225.16L161.266 224.928ZM163.701 218.56H166.269V219.288H164.157L163.941 220.808C164.058 220.723 164.202 220.659 164.373 220.616C164.544 220.568 164.73 220.544 164.933 220.544C165.285 220.544 165.589 220.613 165.845 220.752C166.106 220.891 166.306 221.091 166.445 221.352C166.589 221.608 166.661 221.915 166.661 222.272C166.661 222.629 166.584 222.947 166.429 223.224C166.274 223.496 166.058 223.709 165.781 223.864C165.509 224.019 165.194 224.096 164.837 224.096C164.517 224.096 164.229 224.032 163.973 223.904C163.722 223.776 163.517 223.595 163.357 223.36C163.202 223.12 163.106 222.843 163.069 222.528H163.677C163.752 222.795 163.888 223.003 164.085 223.152C164.288 223.296 164.544 223.368 164.853 223.368C165.168 223.368 165.434 223.275 165.653 223.088C165.877 222.901 165.989 222.624 165.989 222.256C165.989 221.888 165.882 221.605 165.669 221.408C165.456 221.211 165.178 221.112 164.837 221.112C164.624 221.112 164.424 221.144 164.237 221.208C164.05 221.272 163.888 221.376 163.749 221.52L163.301 221.352L163.701 218.56Z" fill="#1E2020"/>
<path d="M181.302 223.368C181.633 223.368 181.905 223.277 182.118 223.096C182.337 222.909 182.446 222.645 182.446 222.304C182.446 221.995 182.345 221.749 182.142 221.568C181.945 221.381 181.683 221.288 181.358 221.288C181.219 221.288 181.089 221.304 180.966 221.336C180.849 221.363 180.747 221.397 180.662 221.44L180.422 221.048L182.174 219.288H179.758V218.56H182.798V219.384L181.43 220.744C181.441 220.739 181.454 220.736 181.47 220.736C181.486 220.736 181.499 220.736 181.51 220.736C182.006 220.736 182.398 220.885 182.686 221.184C182.974 221.477 183.118 221.851 183.118 222.304C183.118 222.587 183.07 222.84 182.974 223.064C182.883 223.288 182.758 223.477 182.598 223.632C182.438 223.781 182.243 223.896 182.014 223.976C181.79 224.056 181.547 224.096 181.286 224.096C180.769 224.096 180.342 223.947 180.006 223.648C179.675 223.344 179.483 222.936 179.43 222.424H180.038C180.107 222.744 180.251 222.981 180.47 223.136C180.694 223.291 180.971 223.368 181.302 223.368Z" fill="#1E2020"/>
<path d="M197.624 223.368C197.955 223.368 198.227 223.277 198.44 223.096C198.659 222.909 198.768 222.645 198.768 222.304C198.768 221.995 198.667 221.749 198.464 221.568C198.267 221.381 198.005 221.288 197.68 221.288C197.541 221.288 197.411 221.304 197.288 221.336C197.171 221.363 197.069 221.397 196.984 221.44L196.744 221.048L198.496 219.288H196.08V218.56H199.12V219.384L197.752 220.744C197.763 220.739 197.776 220.736 197.792 220.736C197.808 220.736 197.821 220.736 197.832 220.736C198.328 220.736 198.72 220.885 199.008 221.184C199.296 221.477 199.44 221.851 199.44 222.304C199.44 222.587 199.392 222.84 199.296 223.064C199.205 223.288 199.08 223.477 198.92 223.632C198.76 223.781 198.565 223.896 198.336 223.976C198.112 224.056 197.869 224.096 197.608 224.096C197.091 224.096 196.664 223.947 196.328 223.648C195.997 223.344 195.805 222.936 195.752 222.424H196.36C196.429 222.744 196.573 222.981 196.792 223.136C197.016 223.291 197.293 223.368 197.624 223.368ZM200.066 224.928C200.183 224.805 200.293 224.669 200.394 224.52C200.495 224.376 200.573 224.229 200.626 224.08C200.487 224.069 200.381 224.021 200.306 223.936C200.231 223.851 200.194 223.739 200.194 223.6C200.194 223.445 200.245 223.32 200.346 223.224C200.447 223.128 200.565 223.08 200.698 223.08C200.837 223.08 200.954 223.131 201.05 223.232C201.146 223.333 201.194 223.472 201.194 223.648C201.194 223.803 201.167 223.955 201.114 224.104C201.061 224.259 200.973 224.419 200.85 224.584C200.733 224.755 200.567 224.947 200.354 225.16L200.066 224.928ZM202.501 218.56H205.069V219.288H202.957L202.741 220.808C202.858 220.723 203.002 220.659 203.173 220.616C203.344 220.568 203.53 220.544 203.733 220.544C204.085 220.544 204.389 220.613 204.645 220.752C204.906 220.891 205.106 221.091 205.245 221.352C205.389 221.608 205.461 221.915 205.461 222.272C205.461 222.629 205.384 222.947 205.229 223.224C205.074 223.496 204.858 223.709 204.581 223.864C204.309 224.019 203.994 224.096 203.637 224.096C203.317 224.096 203.029 224.032 202.773 223.904C202.522 223.776 202.317 223.595 202.157 223.36C202.002 223.12 201.906 222.843 201.869 222.528H202.477C202.552 222.795 202.688 223.003 202.885 223.152C203.088 223.296 203.344 223.368 203.653 223.368C203.968 223.368 204.234 223.275 204.453 223.088C204.677 222.901 204.789 222.624 204.789 222.256C204.789 221.888 204.682 221.605 204.469 221.408C204.256 221.211 203.978 221.112 203.637 221.112C203.424 221.112 203.224 221.144 203.037 221.208C202.85 221.272 202.688 221.376 202.549 221.52L202.101 221.352L202.501 218.56Z" fill="#1E2020"/>
<path d="M221.92 222.824H221.232V224H220.56V222.824H218.096V222.224L220.656 218.56H221.232V222.144H221.92V222.824ZM218.808 222.144H220.56V219.6L218.808 222.144Z" fill="#1E2020"/>
<path d="M238.242 222.824H237.554V224H236.882V222.824H234.418V222.224L236.978 218.56H237.554V222.144H238.242V222.824ZM235.13 222.144H236.882V219.6L235.13 222.144ZM238.866 224.928C238.984 224.805 239.093 224.669 239.194 224.52C239.296 224.376 239.373 224.229 239.426 224.08C239.288 224.069 239.181 224.021 239.106 223.936C239.032 223.851 238.994 223.739 238.994 223.6C238.994 223.445 239.045 223.32 239.146 223.224C239.248 223.128 239.365 223.08 239.498 223.08C239.637 223.08 239.754 223.131 239.85 223.232C239.946 223.333 239.994 223.472 239.994 223.648C239.994 223.803 239.968 223.955 239.914 224.104C239.861 224.259 239.773 224.419 239.65 224.584C239.533 224.755 239.368 224.947 239.154 225.16L238.866 224.928ZM241.301 218.56H243.869V219.288H241.757L241.541 220.808C241.658 220.723 241.802 220.659 241.973 220.616C242.144 220.568 242.33 220.544 242.533 220.544C242.885 220.544 243.189 220.613 243.445 220.752C243.706 220.891 243.906 221.091 244.045 221.352C244.189 221.608 244.261 221.915 244.261 222.272C244.261 222.629 244.184 222.947 244.029 223.224C243.874 223.496 243.658 223.709 243.381 223.864C243.109 224.019 242.794 224.096 242.437 224.096C242.117 224.096 241.829 224.032 241.573 223.904C241.322 223.776 241.117 223.595 240.957 223.36C240.802 223.12 240.706 222.843 240.669 222.528H241.277C241.352 222.795 241.488 223.003 241.685 223.152C241.888 223.296 242.144 223.368 242.453 223.368C242.768 223.368 243.034 223.275 243.253 223.088C243.477 222.901 243.589 222.624 243.589 222.256C243.589 221.888 243.482 221.605 243.269 221.408C243.056 221.211 242.778 221.112 242.437 221.112C242.224 221.112 242.024 221.144 241.837 221.208C241.65 221.272 241.488 221.376 241.349 221.52L240.901 221.352L241.301 218.56Z" fill="#1E2020"/>
<path d="M257.701 218.56H260.269V219.288H258.157L257.941 220.808C258.058 220.723 258.202 220.659 258.373 220.616C258.544 220.568 258.73 220.544 258.933 220.544C259.285 220.544 259.589 220.613 259.845 220.752C260.106 220.891 260.306 221.091 260.445 221.352C260.589 221.608 260.661 221.915 260.661 222.272C260.661 222.629 260.584 222.947 260.429 223.224C260.274 223.496 260.058 223.709 259.781 223.864C259.509 224.019 259.194 224.096 258.837 224.096C258.517 224.096 258.229 224.032 257.973 223.904C257.722 223.776 257.517 223.595 257.357 223.36C257.202 223.12 257.106 222.843 257.069 222.528H257.677C257.752 222.795 257.888 223.003 258.085 223.152C258.288 223.296 258.544 223.368 258.853 223.368C259.168 223.368 259.434 223.275 259.653 223.088C259.877 222.901 259.989 222.624 259.989 222.256C259.989 221.888 259.882 221.605 259.669 221.408C259.456 221.211 259.178 221.112 258.837 221.112C258.624 221.112 258.424 221.144 258.237 221.208C258.05 221.272 257.888 221.376 257.749 221.52L257.301 221.352L257.701 218.56Z" fill="#1E2020"/>
<path d="M2.8 48.464C3.184 48.464 3.52533 48.5333 3.824 48.672C4.128 48.8107 4.384 49.008 4.592 49.264C4.8 49.5147 4.95733 49.8133 5.064 50.16C5.176 50.5013 5.232 50.8747 5.232 51.28C5.232 51.6853 5.176 52.0613 5.064 52.408C4.95733 52.7493 4.8 53.048 4.592 53.304C4.384 53.5547 4.128 53.7493 3.824 53.888C3.52533 54.0267 3.184 54.096 2.8 54.096C2.416 54.096 2.072 54.0267 1.768 53.888C1.46933 53.7493 1.216 53.5547 1.008 53.304C0.805333 53.048 0.648 52.7493 0.536 52.408C0.429333 52.0613 0.376 51.6853 0.376 51.28C0.376 50.8747 0.429333 50.5013 0.536 50.16C0.648 49.8133 0.805333 49.5147 1.008 49.264C1.216 49.008 1.46933 48.8107 1.768 48.672C2.072 48.5333 2.416 48.464 2.8 48.464ZM2.8 49.224C2.464 49.224 2.16267 49.3013 1.896 49.456C1.63467 49.6107 1.42667 49.84 1.272 50.144C1.12267 50.448 1.048 50.8267 1.048 51.28C1.048 51.7333 1.12267 52.112 1.272 52.416C1.42667 52.72 1.63467 52.9493 1.896 53.104C2.16267 53.2587 2.464 53.336 2.8 53.336C3.14133 53.336 3.44267 53.2587 3.704 53.104C3.97067 52.9493 4.17867 52.72 4.328 52.416C4.48267 52.112 4.56 51.7333 4.56 51.28C4.56 50.8267 4.48267 50.448 4.328 50.144C4.17867 49.84 3.97067 49.6107 3.704 49.456C3.44267 49.3013 3.14133 49.224 2.8 49.224ZM5.49313 55.008V53.352H5.82913C6.09579 53.0693 6.29046 52.6747 6.41313 52.168C6.54113 51.656 6.60779 50.9787 6.61313 50.136H8.98113V53.352H9.55713V55.008H8.94113V54H6.10913V55.008H5.49313ZM7.15713 50.784C7.14113 51.3227 7.08779 51.8053 6.99713 52.232C6.90646 52.6587 6.75446 53.032 6.54113 53.352H8.34113V50.784H7.15713ZM12.5928 54V52.32H10.8088V54H10.1688V50.136H10.8088V51.672H12.5928V50.136H13.2328V54H12.5928ZM15.9336 50.072C16.3123 50.072 16.6403 50.16 16.9176 50.336C17.2003 50.512 17.419 50.752 17.5736 51.056C17.7336 51.3547 17.8136 51.6907 17.8136 52.064C17.8136 52.4373 17.7336 52.776 17.5736 53.08C17.419 53.3787 17.2003 53.6187 16.9176 53.8C16.6403 53.976 16.3123 54.064 15.9336 54.064C15.5603 54.064 15.2323 53.976 14.9496 53.8C14.667 53.6187 14.4456 53.3787 14.2856 53.08C14.131 52.776 14.0536 52.4373 14.0536 52.064C14.0536 51.6907 14.131 51.3547 14.2856 51.056C14.4456 50.752 14.667 50.512 14.9496 50.336C15.2323 50.16 15.5603 50.072 15.9336 50.072ZM15.9336 50.76C15.5603 50.76 15.2616 50.88 15.0376 51.12C14.8136 51.36 14.7016 51.6747 14.7016 52.064C14.7016 52.4533 14.8136 52.7707 15.0376 53.016C15.2616 53.256 15.5603 53.376 15.9336 53.376C16.307 53.376 16.6056 53.256 16.8296 53.016C17.0536 52.7707 17.1656 52.4533 17.1656 52.064C17.1656 51.6747 17.0536 51.36 16.8296 51.12C16.6056 50.88 16.307 50.76 15.9336 50.76ZM20.1336 54H18.6376V50.136H20.0696C20.4642 50.136 20.7789 50.224 21.0136 50.4C21.2482 50.576 21.3656 50.8267 21.3656 51.152C21.3656 51.3547 21.3149 51.528 21.2136 51.672C21.1122 51.816 20.9789 51.9093 20.8136 51.952C21.0322 51.9893 21.2082 52.0853 21.3416 52.24C21.4802 52.3893 21.5496 52.5947 21.5496 52.856C21.5496 53.2293 21.4269 53.5147 21.1816 53.712C20.9416 53.904 20.5922 54 20.1336 54ZM19.2616 50.76V51.784H20.0696C20.2829 51.784 20.4456 51.744 20.5576 51.664C20.6749 51.5787 20.7336 51.4453 20.7336 51.264C20.7336 51.0933 20.6829 50.968 20.5816 50.888C20.4802 50.8027 20.3202 50.76 20.1016 50.76H19.2616ZM19.2616 52.224V53.376H20.0696C20.3682 53.376 20.5816 53.3307 20.7096 53.24C20.8429 53.144 20.9096 52.9973 20.9096 52.8C20.9096 52.5973 20.8429 52.4507 20.7096 52.36C20.5762 52.2693 20.3682 52.224 20.0856 52.224H19.2616ZM22.9565 50.808C23.0792 50.5573 23.2445 50.3733 23.4525 50.256C23.6605 50.1333 23.9218 50.072 24.2365 50.072C24.6045 50.072 24.9218 50.1573 25.1885 50.328C25.4552 50.4933 25.6578 50.7253 25.7965 51.024C25.9405 51.3173 26.0125 51.6533 26.0125 52.032C26.0125 52.4107 25.9405 52.7547 25.7965 53.064C25.6578 53.368 25.4552 53.6107 25.1885 53.792C24.9272 53.9733 24.6125 54.064 24.2445 54.064C23.9565 54.064 23.7085 54.0133 23.5005 53.912C23.2925 53.8053 23.1218 53.64 22.9885 53.416V55.6H22.3485V50.136H22.9565V50.808ZM24.1325 53.392C24.5485 53.392 24.8578 53.264 25.0605 53.008C25.2632 52.752 25.3645 52.4267 25.3645 52.032C25.3645 51.6373 25.2605 51.3253 25.0525 51.096C24.8498 50.8613 24.5405 50.744 24.1245 50.744C23.8418 50.744 23.6045 50.7867 23.4125 50.872C23.2205 50.952 23.0792 51.0853 22.9885 51.272V52.88C23.0792 53.0613 23.2205 53.192 23.4125 53.272C23.6098 53.352 23.8498 53.392 24.1325 53.392ZM27.0182 54.072C26.8849 54.072 26.7675 54.024 26.6662 53.928C26.5649 53.832 26.5142 53.712 26.5142 53.568C26.5142 53.424 26.5649 53.304 26.6662 53.208C26.7675 53.112 26.8849 53.064 27.0182 53.064C27.1569 53.064 27.2742 53.112 27.3702 53.208C27.4662 53.304 27.5142 53.424 27.5142 53.568C27.5142 53.712 27.4662 53.832 27.3702 53.928C27.2742 54.024 27.1569 54.072 27.0182 54.072ZM30.9331 50.808C31.0557 50.5573 31.2211 50.3733 31.4291 50.256C31.6371 50.1333 31.8984 50.072 32.2131 50.072C32.5811 50.072 32.8984 50.1573 33.1651 50.328C33.4317 50.4933 33.6344 50.7253 33.7731 51.024C33.9171 51.3173 33.9891 51.6533 33.9891 52.032C33.9891 52.4107 33.9171 52.7547 33.7731 53.064C33.6344 53.368 33.4317 53.6107 33.1651 53.792C32.9037 53.9733 32.5891 54.064 32.2211 54.064C31.9331 54.064 31.6851 54.0133 31.4771 53.912C31.2691 53.8053 31.0984 53.64 30.9651 53.416V55.6H30.3251V50.136H30.9331V50.808ZM32.1091 53.392C32.5251 53.392 32.8344 53.264 33.0371 53.008C33.2397 52.752 33.3411 52.4267 33.3411 52.032C33.3411 51.6373 33.2371 51.3253 33.0291 51.096C32.8264 50.8613 32.5171 50.744 32.1011 50.744C31.8184 50.744 31.5811 50.7867 31.3891 50.872C31.1971 50.952 31.0557 51.0853 30.9651 51.272V52.88C31.0557 53.0613 31.1971 53.192 31.3891 53.272C31.5864 53.352 31.8264 53.392 32.1091 53.392ZM38.0969 52.824C38.0382 53.0373 37.9422 53.24 37.8089 53.432C37.6755 53.6187 37.4942 53.7707 37.2649 53.888C37.0355 54.0053 36.7449 54.064 36.3929 54.064C36.0355 54.064 35.7209 53.976 35.4489 53.8C35.1769 53.6187 34.9635 53.376 34.8089 53.072C34.6595 52.768 34.5849 52.432 34.5849 52.064C34.5849 51.6907 34.6595 51.3547 34.8089 51.056C34.9635 50.7573 35.1769 50.52 35.4489 50.344C35.7209 50.1627 36.0355 50.072 36.3929 50.072C36.7609 50.072 37.0782 50.16 37.3449 50.336C37.6115 50.512 37.8169 50.7547 37.9609 51.064C38.1102 51.3733 38.1849 51.7253 38.1849 52.12C38.1849 52.136 38.1849 52.152 38.1849 52.168C38.1849 52.184 38.1849 52.2 38.1849 52.216H35.2329C35.2595 52.5733 35.3742 52.8613 35.5769 53.08C35.7849 53.2987 36.0569 53.408 36.3929 53.408C36.6915 53.408 36.9315 53.3573 37.1129 53.256C37.2942 53.1493 37.4275 53.0053 37.5129 52.824H38.0969ZM36.3929 50.728C36.0675 50.728 35.8062 50.8213 35.6089 51.008C35.4169 51.1893 35.2969 51.4373 35.2489 51.752H37.5209C37.4835 51.4693 37.3742 51.2293 37.1929 51.032C37.0169 50.8293 36.7502 50.728 36.3929 50.728ZM41.1571 54V52.2C41.0665 52.3493 40.9385 52.472 40.7731 52.568C40.6131 52.664 40.4078 52.712 40.1571 52.712C39.7251 52.712 39.3971 52.5947 39.1731 52.36C38.9491 52.1253 38.8371 51.7973 38.8371 51.376V50.136H39.4771V51.208C39.4771 51.5013 39.5491 51.712 39.6931 51.84C39.8425 51.968 40.0558 52.032 40.3331 52.032C40.5038 52.032 40.6611 52.0133 40.8051 51.976C40.9545 51.9333 41.0718 51.8693 41.1571 51.784V50.136H41.7971V54H41.1571ZM43.5119 50.136V51.488H44.2399C44.6666 51.488 45.0133 51.5813 45.2799 51.768C45.5466 51.9493 45.6799 52.2613 45.6799 52.704C45.6799 52.9973 45.6159 53.24 45.4879 53.432C45.3599 53.624 45.1893 53.768 44.9759 53.864C44.7626 53.9547 44.5226 54 44.2559 54H42.8719V50.136H43.5119ZM44.2239 52.04H43.5119V53.352H44.2079C44.4639 53.352 44.6666 53.304 44.8159 53.208C44.9706 53.1067 45.0479 52.936 45.0479 52.696C45.0479 52.4773 44.9813 52.3147 44.8479 52.208C44.7199 52.096 44.5119 52.04 44.2239 52.04Z" fill="#1E2020"/>
<path d="M2.8 111.13C3.184 111.13 3.52533 111.199 3.824 111.338C4.128 111.477 4.384 111.674 4.592 111.93C4.8 112.181 4.95733 112.479 5.064 112.826C5.176 113.167 5.232 113.541 5.232 113.946C5.232 114.351 5.176 114.727 5.064 115.074C4.95733 115.415 4.8 115.714 4.592 115.97C4.384 116.221 4.128 116.415 3.824 116.554C3.52533 116.693 3.184 116.762 2.8 116.762C2.416 116.762 2.072 116.693 1.768 116.554C1.46933 116.415 1.216 116.221 1.008 115.97C0.805333 115.714 0.648 115.415 0.536 115.074C0.429333 114.727 0.376 114.351 0.376 113.946C0.376 113.541 0.429333 113.167 0.536 112.826C0.648 112.479 0.805333 112.181 1.008 111.93C1.216 111.674 1.46933 111.477 1.768 111.338C2.072 111.199 2.416 111.13 2.8 111.13ZM2.8 111.89C2.464 111.89 2.16267 111.967 1.896 112.122C1.63467 112.277 1.42667 112.506 1.272 112.81C1.12267 113.114 1.048 113.493 1.048 113.946C1.048 114.399 1.12267 114.778 1.272 115.082C1.42667 115.386 1.63467 115.615 1.896 115.77C2.16267 115.925 2.464 116.002 2.8 116.002C3.14133 116.002 3.44267 115.925 3.704 115.77C3.97067 115.615 4.17867 115.386 4.328 115.082C4.48267 114.778 4.56 114.399 4.56 113.946C4.56 113.493 4.48267 113.114 4.328 112.81C4.17867 112.506 3.97067 112.277 3.704 112.122C3.44267 111.967 3.14133 111.89 2.8 111.89ZM5.49313 117.674V116.018H5.82913C6.09579 115.735 6.29046 115.341 6.41313 114.834C6.54113 114.322 6.60779 113.645 6.61313 112.802H8.98113V116.018H9.55713V117.674H8.94113V116.666H6.10913V117.674H5.49313ZM7.15713 113.45C7.14113 113.989 7.08779 114.471 6.99713 114.898C6.90646 115.325 6.75446 115.698 6.54113 116.018H8.34113V113.45H7.15713ZM12.5928 116.666V114.986H10.8088V116.666H10.1688V112.802H10.8088V114.338H12.5928V112.802H13.2328V116.666H12.5928ZM15.9336 112.738C16.3123 112.738 16.6403 112.826 16.9176 113.002C17.2003 113.178 17.419 113.418 17.5736 113.722C17.7336 114.021 17.8136 114.357 17.8136 114.73C17.8136 115.103 17.7336 115.442 17.5736 115.746C17.419 116.045 17.2003 116.285 16.9176 116.466C16.6403 116.642 16.3123 116.73 15.9336 116.73C15.5603 116.73 15.2323 116.642 14.9496 116.466C14.667 116.285 14.4456 116.045 14.2856 115.746C14.131 115.442 14.0536 115.103 14.0536 114.73C14.0536 114.357 14.131 114.021 14.2856 113.722C14.4456 113.418 14.667 113.178 14.9496 113.002C15.2323 112.826 15.5603 112.738 15.9336 112.738ZM15.9336 113.426C15.5603 113.426 15.2616 113.546 15.0376 113.786C14.8136 114.026 14.7016 114.341 14.7016 114.73C14.7016 115.119 14.8136 115.437 15.0376 115.682C15.2616 115.922 15.5603 116.042 15.9336 116.042C16.307 116.042 16.6056 115.922 16.8296 115.682C17.0536 115.437 17.1656 115.119 17.1656 114.73C17.1656 114.341 17.0536 114.026 16.8296 113.786C16.6056 113.546 16.307 113.426 15.9336 113.426ZM20.1336 116.666H18.6376V112.802H20.0696C20.4642 112.802 20.7789 112.89 21.0136 113.066C21.2482 113.242 21.3656 113.493 21.3656 113.818C21.3656 114.021 21.3149 114.194 21.2136 114.338C21.1122 114.482 20.9789 114.575 20.8136 114.618C21.0322 114.655 21.2082 114.751 21.3416 114.906C21.4802 115.055 21.5496 115.261 21.5496 115.522C21.5496 115.895 21.4269 116.181 21.1816 116.378C20.9416 116.57 20.5922 116.666 20.1336 116.666ZM19.2616 113.426V114.45H20.0696C20.2829 114.45 20.4456 114.41 20.5576 114.33C20.6749 114.245 20.7336 114.111 20.7336 113.93C20.7336 113.759 20.6829 113.634 20.5816 113.554C20.4802 113.469 20.3202 113.426 20.1016 113.426H19.2616ZM19.2616 114.89V116.042H20.0696C20.3682 116.042 20.5816 115.997 20.7096 115.906C20.8429 115.81 20.9096 115.663 20.9096 115.466C20.9096 115.263 20.8429 115.117 20.7096 115.026C20.5762 114.935 20.3682 114.89 20.0856 114.89H19.2616ZM22.9565 113.474C23.0792 113.223 23.2445 113.039 23.4525 112.922C23.6605 112.799 23.9218 112.738 24.2365 112.738C24.6045 112.738 24.9218 112.823 25.1885 112.994C25.4552 113.159 25.6578 113.391 25.7965 113.69C25.9405 113.983 26.0125 114.319 26.0125 114.698C26.0125 115.077 25.9405 115.421 25.7965 115.73C25.6578 116.034 25.4552 116.277 25.1885 116.458C24.9272 116.639 24.6125 116.73 24.2445 116.73C23.9565 116.73 23.7085 116.679 23.5005 116.578C23.2925 116.471 23.1218 116.306 22.9885 116.082V118.266H22.3485V112.802H22.9565V113.474ZM24.1325 116.058C24.5485 116.058 24.8578 115.93 25.0605 115.674C25.2632 115.418 25.3645 115.093 25.3645 114.698C25.3645 114.303 25.2605 113.991 25.0525 113.762C24.8498 113.527 24.5405 113.41 24.1245 113.41C23.8418 113.41 23.6045 113.453 23.4125 113.538C23.2205 113.618 23.0792 113.751 22.9885 113.938V115.546C23.0792 115.727 23.2205 115.858 23.4125 115.938C23.6098 116.018 23.8498 116.058 24.1325 116.058ZM27.0182 116.738C26.8849 116.738 26.7675 116.69 26.6662 116.594C26.5649 116.498 26.5142 116.378 26.5142 116.234C26.5142 116.09 26.5649 115.97 26.6662 115.874C26.7675 115.778 26.8849 115.73 27.0182 115.73C27.1569 115.73 27.2742 115.778 27.3702 115.874C27.4662 115.97 27.5142 116.09 27.5142 116.234C27.5142 116.378 27.4662 116.498 27.3702 116.594C27.2742 116.69 27.1569 116.738 27.0182 116.738ZM29.9731 112.802H33.0931V113.458H31.8531V116.666H31.2131V113.458H29.9731V112.802ZM34.4494 112.802V115.618L36.3134 112.802H36.9374V116.666H36.2974V113.802L34.4014 116.666H33.8094V112.802H34.4494ZM38.6526 112.802V116.018H40.0766V112.802H40.7166V116.018H42.1406V112.802H42.7806V116.666H38.0126V112.802H38.6526ZM44.4963 112.802V115.618L46.3603 112.802H46.9843V116.666H46.3443V113.802L44.4483 116.666H43.8563V112.802H44.4963ZM50.4834 116.666V114.986H48.6994V116.666H48.0594V112.802H48.6994V114.338H50.4834V112.802H51.1234V116.666H50.4834ZM54.8723 116.682C54.6909 116.682 54.5416 116.631 54.4243 116.53C54.3069 116.423 54.2376 116.263 54.2163 116.05C54.0829 116.263 53.9229 116.426 53.7363 116.538C53.5549 116.645 53.3389 116.698 53.0883 116.698C52.7523 116.698 52.4803 116.61 52.2723 116.434C52.0643 116.258 51.9603 115.997 51.9603 115.65C51.9603 115.431 52.0003 115.25 52.0803 115.106C52.1603 114.957 52.2803 114.831 52.4403 114.73C52.6003 114.629 52.7976 114.533 53.0323 114.442L54.1763 113.994C54.1549 113.77 54.0696 113.615 53.9203 113.53C53.7763 113.445 53.6029 113.402 53.4003 113.402C53.1869 113.402 53.0056 113.447 52.8563 113.538C52.7123 113.623 52.6243 113.759 52.5923 113.946H51.9923C52.0296 113.663 52.1176 113.434 52.2563 113.258C52.3949 113.082 52.5656 112.951 52.7683 112.866C52.9709 112.781 53.1816 112.738 53.4003 112.738C53.8323 112.738 54.1763 112.853 54.4323 113.082C54.6883 113.306 54.8136 113.658 54.8083 114.138L54.7923 115.618C54.7923 115.773 54.8136 115.879 54.8563 115.938C54.8989 115.997 54.9683 116.026 55.0643 116.026H55.2163V116.666C55.1629 116.671 55.1043 116.674 55.0403 116.674C54.9816 116.679 54.9256 116.682 54.8723 116.682ZM52.6003 115.538C52.6003 115.714 52.6589 115.845 52.7763 115.93C52.8989 116.01 53.0669 116.05 53.2803 116.05C53.4723 116.05 53.6456 116.023 53.8003 115.97C53.9549 115.911 54.0749 115.834 54.1603 115.738L54.1763 114.482L53.4643 114.77C53.1549 114.893 52.9336 115.007 52.8003 115.114C52.6669 115.221 52.6003 115.362 52.6003 115.538Z" fill="#1E2020"/>
<path d="M1.232 167.334H0.576V161.894H1.224L3.168 165.27L5.112 161.894H5.712V167.334H5.04V163.27L3.264 166.334H3.008L1.232 163.27V167.334ZM9.50506 167.35C9.32373 167.35 9.1744 167.299 9.05706 167.198C8.93973 167.091 8.8704 166.931 8.84906 166.718C8.71573 166.931 8.55573 167.094 8.36906 167.206C8.18773 167.313 7.97173 167.366 7.72106 167.366C7.38506 167.366 7.11306 167.278 6.90506 167.102C6.69706 166.926 6.59306 166.665 6.59306 166.318C6.59306 166.099 6.63306 165.918 6.71306 165.774C6.79306 165.625 6.91306 165.499 7.07306 165.398C7.23306 165.297 7.4304 165.201 7.66506 165.11L8.80906 164.662C8.78773 164.438 8.7024 164.283 8.55306 164.198C8.40906 164.113 8.23573 164.07 8.03306 164.07C7.81973 164.07 7.6384 164.115 7.48906 164.206C7.34506 164.291 7.25706 164.427 7.22506 164.614H6.62506C6.6624 164.331 6.7504 164.102 6.88906 163.926C7.02773 163.75 7.1984 163.619 7.40106 163.534C7.60373 163.449 7.8144 163.406 8.03306 163.406C8.46506 163.406 8.80906 163.521 9.06506 163.75C9.32106 163.974 9.4464 164.326 9.44106 164.806L9.42506 166.286C9.42506 166.441 9.4464 166.547 9.48906 166.606C9.53173 166.665 9.60106 166.694 9.69706 166.694H9.84906V167.334C9.79573 167.339 9.73706 167.342 9.67306 167.342C9.6144 167.347 9.5584 167.35 9.50506 167.35ZM7.23306 166.206C7.23306 166.382 7.29173 166.513 7.40906 166.598C7.53173 166.678 7.69973 166.718 7.91306 166.718C8.10506 166.718 8.2784 166.691 8.43306 166.638C8.58773 166.579 8.70773 166.502 8.79306 166.406L8.80906 165.15L8.09706 165.438C7.78773 165.561 7.5664 165.675 7.43306 165.782C7.29973 165.889 7.23306 166.03 7.23306 166.206ZM12.6408 167.334L11.1447 165.422V167.334H10.5048V163.47H11.1447V165.286L12.6888 163.47H13.4248L11.8328 165.286L13.4408 167.334H12.6408ZM15.4796 163.398C15.9169 163.398 16.2822 163.515 16.5756 163.75C16.8742 163.985 17.0689 164.307 17.1596 164.718H16.5756C16.5222 164.542 16.4022 164.393 16.2156 164.27C16.0342 164.147 15.7809 164.086 15.4556 164.086C15.0822 164.086 14.7942 164.209 14.5916 164.454C14.3889 164.699 14.2876 165.011 14.2876 165.39C14.2876 165.763 14.3889 166.075 14.5916 166.326C14.7942 166.577 15.0822 166.702 15.4556 166.702C15.7809 166.702 16.0342 166.641 16.2156 166.518C16.4022 166.395 16.5222 166.246 16.5756 166.07H17.1596C17.0689 166.475 16.8742 166.798 16.5756 167.038C16.2822 167.273 15.9169 167.39 15.4796 167.39C15.1062 167.39 14.7809 167.302 14.5036 167.126C14.2262 166.945 14.0129 166.702 13.8636 166.398C13.7142 166.094 13.6396 165.758 13.6396 165.39C13.6396 165.017 13.7142 164.681 13.8636 164.382C14.0129 164.083 14.2262 163.846 14.5036 163.67C14.7809 163.489 15.1062 163.398 15.4796 163.398ZM18.151 167.406C18.0177 167.406 17.9003 167.358 17.799 167.262C17.6977 167.166 17.647 167.046 17.647 166.902C17.647 166.758 17.6977 166.638 17.799 166.542C17.9003 166.446 18.0177 166.398 18.151 166.398C18.2897 166.398 18.407 166.446 18.503 166.542C18.599 166.638 18.647 166.758 18.647 166.902C18.647 167.046 18.599 167.166 18.503 167.262C18.407 167.358 18.2897 167.406 18.151 167.406ZM20.9619 168.342V166.686H21.2979C21.5645 166.403 21.7592 166.009 21.8819 165.502C22.0099 164.99 22.0765 164.313 22.0819 163.47H24.4499V166.686H25.0259V168.342H24.4099V167.334H21.5779V168.342H20.9619ZM22.6259 164.118C22.6099 164.657 22.5565 165.139 22.4659 165.566C22.3752 165.993 22.2232 166.366 22.0099 166.686H23.8099V164.118H22.6259ZM25.2677 166.646C25.2997 166.651 25.3397 166.659 25.3877 166.67C25.441 166.675 25.4997 166.678 25.5637 166.678C25.7397 166.678 25.8677 166.561 25.9477 166.326C26.0277 166.091 26.0944 165.731 26.1477 165.246C26.1744 164.979 26.1957 164.702 26.2117 164.414C26.2277 164.126 26.2384 163.811 26.2437 163.47H28.6117V167.334H27.9717V164.118H26.7877C26.7824 164.315 26.7717 164.523 26.7557 164.742C26.745 164.955 26.7317 165.158 26.7157 165.35C26.6784 165.835 26.6224 166.227 26.5477 166.526C26.4784 166.825 26.377 167.041 26.2437 167.174C26.1104 167.307 25.9264 167.374 25.6917 167.374C25.6117 167.374 25.5344 167.369 25.4597 167.358C25.385 167.347 25.321 167.331 25.2677 167.31V166.646ZM30.3244 163.47V166.286L32.1884 163.47H32.8124V167.334H32.1724V164.47L30.2764 167.334H29.6844V163.47H30.3244ZM33.5356 163.47H36.6556V164.126H35.4156V167.334H34.7756V164.126H33.5356V163.47ZM37.1354 167.406C37.002 167.406 36.8847 167.358 36.7834 167.262C36.682 167.166 36.6314 167.046 36.6314 166.902C36.6314 166.758 36.682 166.638 36.7834 166.542C36.8847 166.446 37.002 166.398 37.1354 166.398C37.274 166.398 37.3914 166.446 37.4874 166.542C37.5834 166.638 37.6314 166.758 37.6314 166.902C37.6314 167.046 37.5834 167.166 37.4874 167.262C37.3914 167.358 37.274 167.406 37.1354 167.406ZM1.144 176.142C1.26667 175.891 1.432 175.707 1.64 175.59C1.848 175.467 2.10933 175.406 2.424 175.406C2.792 175.406 3.10933 175.491 3.376 175.662C3.64267 175.827 3.84533 176.059 3.984 176.358C4.128 176.651 4.2 176.987 4.2 177.366C4.2 177.745 4.128 178.089 3.984 178.398C3.84533 178.702 3.64267 178.945 3.376 179.126C3.11467 179.307 2.8 179.398 2.432 179.398C2.144 179.398 1.896 179.347 1.688 179.246C1.48 179.139 1.30933 178.974 1.176 178.75V180.934H0.536V175.47H1.144V176.142ZM2.32 178.726C2.736 178.726 3.04533 178.598 3.248 178.342C3.45067 178.086 3.552 177.761 3.552 177.366C3.552 176.971 3.448 176.659 3.24 176.43C3.03733 176.195 2.728 176.078 2.312 176.078C2.02933 176.078 1.792 176.121 1.6 176.206C1.408 176.286 1.26667 176.419 1.176 176.606V178.214C1.26667 178.395 1.408 178.526 1.6 178.606C1.79733 178.686 2.03733 178.726 2.32 178.726ZM8.30781 178.158C8.24915 178.371 8.15315 178.574 8.01981 178.766C7.88648 178.953 7.70515 179.105 7.47581 179.222C7.24648 179.339 6.95581 179.398 6.60381 179.398C6.24648 179.398 5.93181 179.31 5.65981 179.134C5.38781 178.953 5.17448 178.71 5.01981 178.406C4.87048 178.102 4.79581 177.766 4.79581 177.398C4.79581 177.025 4.87048 176.689 5.01981 176.39C5.17448 176.091 5.38781 175.854 5.65981 175.678C5.93181 175.497 6.24648 175.406 6.60381 175.406C6.97181 175.406 7.28915 175.494 7.55581 175.67C7.82248 175.846 8.02781 176.089 8.17181 176.398C8.32115 176.707 8.39581 177.059 8.39581 177.454C8.39581 177.47 8.39581 177.486 8.39581 177.502C8.39581 177.518 8.39581 177.534 8.39581 177.55H5.44381C5.47048 177.907 5.58515 178.195 5.78781 178.414C5.99581 178.633 6.26781 178.742 6.60381 178.742C6.90248 178.742 7.14248 178.691 7.32381 178.59C7.50515 178.483 7.63848 178.339 7.72381 178.158H8.30781ZM6.60381 176.062C6.27848 176.062 6.01715 176.155 5.81981 176.342C5.62781 176.523 5.50781 176.771 5.45981 177.086H7.73181C7.69448 176.803 7.58515 176.563 7.40381 176.366C7.22781 176.163 6.96115 176.062 6.60381 176.062ZM11.3681 179.334V177.534C11.2774 177.683 11.1494 177.806 10.9841 177.902C10.8241 177.998 10.6187 178.046 10.3681 178.046C9.93606 178.046 9.60806 177.929 9.38406 177.694C9.16006 177.459 9.04806 177.131 9.04806 176.71V175.47H9.68806V176.542C9.68806 176.835 9.76006 177.046 9.90406 177.174C10.0534 177.302 10.2667 177.366 10.5441 177.366C10.7147 177.366 10.8721 177.347 11.0161 177.31C11.1654 177.267 11.2827 177.203 11.3681 177.118V175.47H12.0081V179.334H11.3681ZM13.7229 175.47V178.286L15.5869 175.47H16.2109V179.334H15.5709V176.47L13.6749 179.334H13.0829V175.47H13.7229ZM2.168 187.406C2.54667 187.406 2.87467 187.494 3.152 187.67C3.43467 187.846 3.65333 188.086 3.808 188.39C3.968 188.689 4.048 189.025 4.048 189.398C4.048 189.771 3.968 190.11 3.808 190.414C3.65333 190.713 3.43467 190.953 3.152 191.134C2.87467 191.31 2.54667 191.398 2.168 191.398C1.79467 191.398 1.46667 191.31 1.184 191.134C0.901333 190.953 0.68 190.713 0.52 190.414C0.365333 190.11 0.288 189.771 0.288 189.398C0.288 189.025 0.365333 188.689 0.52 188.39C0.68 188.086 0.901333 187.846 1.184 187.67C1.46667 187.494 1.79467 187.406 2.168 187.406ZM2.168 188.094C1.79467 188.094 1.496 188.214 1.272 188.454C1.048 188.694 0.936 189.009 0.936 189.398C0.936 189.787 1.048 190.105 1.272 190.35C1.496 190.59 1.79467 190.71 2.168 190.71C2.54133 190.71 2.84 190.59 3.064 190.35C3.288 190.105 3.4 189.787 3.4 189.398C3.4 189.009 3.288 188.694 3.064 188.454C2.84 188.214 2.54133 188.094 2.168 188.094ZM7.28794 191.334V188.118H5.51194V191.334H4.87194V187.47H7.92794V191.334H7.28794ZM12.2609 190.158C12.2023 190.371 12.1063 190.574 11.9729 190.766C11.8396 190.953 11.6583 191.105 11.4289 191.222C11.1996 191.339 10.9089 191.398 10.5569 191.398C10.1996 191.398 9.88494 191.31 9.61294 191.134C9.34094 190.953 9.1276 190.71 8.97294 190.406C8.8236 190.102 8.74894 189.766 8.74894 189.398C8.74894 189.025 8.8236 188.689 8.97294 188.39C9.1276 188.091 9.34094 187.854 9.61294 187.678C9.88494 187.497 10.1996 187.406 10.5569 187.406C10.9249 187.406 11.2423 187.494 11.5089 187.67C11.7756 187.846 11.9809 188.089 12.1249 188.398C12.2743 188.707 12.3489 189.059 12.3489 189.454C12.3489 189.47 12.3489 189.486 12.3489 189.502C12.3489 189.518 12.3489 189.534 12.3489 189.55H9.39694C9.4236 189.907 9.53827 190.195 9.74094 190.414C9.94894 190.633 10.2209 190.742 10.5569 190.742C10.8556 190.742 11.0956 190.691 11.2769 190.59C11.4583 190.483 11.5916 190.339 11.6769 190.158H12.2609ZM10.5569 188.062C10.2316 188.062 9.97027 188.155 9.77294 188.342C9.58094 188.523 9.46094 188.771 9.41294 189.086H11.6849C11.6476 188.803 11.5383 188.563 11.3569 188.366C11.1809 188.163 10.9143 188.062 10.5569 188.062ZM13.7612 188.142C13.8839 187.891 14.0492 187.707 14.2572 187.59C14.4652 187.467 14.7265 187.406 15.0412 187.406C15.4092 187.406 15.7265 187.491 15.9932 187.662C16.2599 187.827 16.4625 188.059 16.6012 188.358C16.7452 188.651 16.8172 188.987 16.8172 189.366C16.8172 189.745 16.7452 190.089 16.6012 190.398C16.4625 190.702 16.2599 190.945 15.9932 191.126C15.7319 191.307 15.4172 191.398 15.0492 191.398C14.7612 191.398 14.5132 191.347 14.3052 191.246C14.0972 191.139 13.9265 190.974 13.7932 190.75V192.934H13.1532V187.47H13.7612V188.142ZM14.9372 190.726C15.3532 190.726 15.6625 190.598 15.8652 190.342C16.0679 190.086 16.1692 189.761 16.1692 189.366C16.1692 188.971 16.0652 188.659 15.8572 188.43C15.6545 188.195 15.3452 188.078 14.9292 188.078C14.6465 188.078 14.4092 188.121 14.2172 188.206C14.0252 188.286 13.8839 188.419 13.7932 188.606V190.214C13.8839 190.395 14.0252 190.526 14.2172 190.606C14.4145 190.686 14.6545 190.726 14.9372 190.726ZM20.341 191.35C20.1597 191.35 20.0103 191.299 19.893 191.198C19.7757 191.091 19.7063 190.931 19.685 190.718C19.5517 190.931 19.3917 191.094 19.205 191.206C19.0237 191.313 18.8077 191.366 18.557 191.366C18.221 191.366 17.949 191.278 17.741 191.102C17.533 190.926 17.429 190.665 17.429 190.318C17.429 190.099 17.469 189.918 17.549 189.774C17.629 189.625 17.749 189.499 17.909 189.398C18.069 189.297 18.2663 189.201 18.501 189.11L19.645 188.662C19.6237 188.438 19.5383 188.283 19.389 188.198C19.245 188.113 19.0717 188.07 18.869 188.07C18.6557 188.07 18.4743 188.115 18.325 188.206C18.181 188.291 18.093 188.427 18.061 188.614H17.461C17.4983 188.331 17.5863 188.102 17.725 187.926C17.8637 187.75 18.0343 187.619 18.237 187.534C18.4397 187.449 18.6503 187.406 18.869 187.406C19.301 187.406 19.645 187.521 19.901 187.75C20.157 187.974 20.2823 188.326 20.277 188.806L20.261 190.286C20.261 190.441 20.2823 190.547 20.325 190.606C20.3677 190.665 20.437 190.694 20.533 190.694H20.685V191.334C20.6317 191.339 20.573 191.342 20.509 191.342C20.4503 191.347 20.3943 191.35 20.341 191.35ZM18.069 190.206C18.069 190.382 18.1277 190.513 18.245 190.598C18.3677 190.678 18.5357 190.718 18.749 190.718C18.941 190.718 19.1143 190.691 19.269 190.638C19.4237 190.579 19.5437 190.502 19.629 190.406L19.645 189.15L18.933 189.438C18.6237 189.561 18.4023 189.675 18.269 189.782C18.1357 189.889 18.069 190.03 18.069 190.206ZM20.8715 187.47H23.9915V188.126H22.7515V191.334H22.1115V188.126H20.8715V187.47ZM26.2618 187.406C26.6404 187.406 26.9684 187.494 27.2458 187.67C27.5284 187.846 27.7471 188.086 27.9018 188.39C28.0618 188.689 28.1418 189.025 28.1418 189.398C28.1418 189.771 28.0618 190.11 27.9018 190.414C27.7471 190.713 27.5284 190.953 27.2458 191.134C26.9684 191.31 26.6404 191.398 26.2618 191.398C25.8884 191.398 25.5604 191.31 25.2778 191.134C24.9951 190.953 24.7738 190.713 24.6138 190.414C24.4591 190.11 24.3818 189.771 24.3818 189.398C24.3818 189.025 24.4591 188.689 24.6138 188.39C24.7738 188.086 24.9951 187.846 25.2778 187.67C25.5604 187.494 25.8884 187.406 26.2618 187.406ZM26.2618 188.094C25.8884 188.094 25.5898 188.214 25.3658 188.454C25.1418 188.694 25.0298 189.009 25.0298 189.398C25.0298 189.787 25.1418 190.105 25.3658 190.35C25.5898 190.59 25.8884 190.71 26.2618 190.71C26.6351 190.71 26.9338 190.59 27.1578 190.35C27.3818 190.105 27.4938 189.787 27.4938 189.398C27.4938 189.009 27.3818 188.694 27.1578 188.454C26.9338 188.214 26.6351 188.094 26.2618 188.094ZM29.5737 188.142C29.6964 187.891 29.8617 187.707 30.0697 187.59C30.2777 187.467 30.539 187.406 30.8537 187.406C31.2217 187.406 31.539 187.491 31.8057 187.662C32.0724 187.827 32.275 188.059 32.4137 188.358C32.5577 188.651 32.6297 188.987 32.6297 189.366C32.6297 189.745 32.5577 190.089 32.4137 190.398C32.275 190.702 32.0724 190.945 31.8057 191.126C31.5444 191.307 31.2297 191.398 30.8617 191.398C30.5737 191.398 30.3257 191.347 30.1177 191.246C29.9097 191.139 29.739 190.974 29.6057 190.75V192.934H28.9657V187.47H29.5737V188.142ZM30.7497 190.726C31.1657 190.726 31.475 190.598 31.6777 190.342C31.8804 190.086 31.9817 189.761 31.9817 189.366C31.9817 188.971 31.8777 188.659 31.6697 188.43C31.467 188.195 31.1577 188.078 30.7417 188.078C30.459 188.078 30.2217 188.121 30.0297 188.206C29.8377 188.286 29.6964 188.419 29.6057 188.606V190.214C29.6964 190.395 29.8377 190.526 30.0297 190.606C30.227 190.686 30.467 190.726 30.7497 190.726ZM36.1535 191.35C35.9722 191.35 35.8228 191.299 35.7055 191.198C35.5882 191.091 35.5188 190.931 35.4975 190.718C35.3642 190.931 35.2042 191.094 35.0175 191.206C34.8362 191.313 34.6202 191.366 34.3695 191.366C34.0335 191.366 33.7615 191.278 33.5535 191.102C33.3455 190.926 33.2415 190.665 33.2415 190.318C33.2415 190.099 33.2815 189.918 33.3615 189.774C33.4415 189.625 33.5615 189.499 33.7215 189.398C33.8815 189.297 34.0788 189.201 34.3135 189.11L35.4575 188.662C35.4362 188.438 35.3508 188.283 35.2015 188.198C35.0575 188.113 34.8842 188.07 34.6815 188.07C34.4682 188.07 34.2868 188.115 34.1375 188.206C33.9935 188.291 33.9055 188.427 33.8735 188.614H33.2735C33.3108 188.331 33.3988 188.102 33.5375 187.926C33.6762 187.75 33.8468 187.619 34.0495 187.534C34.2522 187.449 34.4628 187.406 34.6815 187.406C35.1135 187.406 35.4575 187.521 35.7135 187.75C35.9695 187.974 36.0948 188.326 36.0895 188.806L36.0735 190.286C36.0735 190.441 36.0948 190.547 36.1375 190.606C36.1802 190.665 36.2495 190.694 36.3455 190.694H36.4975V191.334C36.4442 191.339 36.3855 191.342 36.3215 191.342C36.2628 191.347 36.2068 191.35 36.1535 191.35ZM33.8815 190.206C33.8815 190.382 33.9402 190.513 34.0575 190.598C34.1802 190.678 34.3482 190.718 34.5615 190.718C34.7535 190.718 34.9268 190.691 35.0815 190.638C35.2362 190.579 35.3562 190.502 35.4415 190.406L35.4575 189.15L34.7455 189.438C34.4362 189.561 34.2148 189.675 34.0815 189.782C33.9482 189.889 33.8815 190.03 33.8815 190.206Z" fill="#1E2020"/>
</svg>
