<svg width="271" height="239" viewBox="0 0 271 239" fill="none" xmlns="http://www.w3.org/2000/svg">
<line y1="-0.25" x2="202" y2="-0.25" transform="matrix(0 -1 -1 0 248 210)" stroke="#CACACA" stroke-width="0.5"/>
<line y1="-0.25" x2="202" y2="-0.25" transform="matrix(0 -1 -1 0 226.667 210)" stroke="#CACACA" stroke-width="0.5"/>
<line y1="-0.25" x2="202" y2="-0.25" transform="matrix(0 -1 -1 0 205.333 210)" stroke="#CACACA" stroke-width="0.5"/>
<line y1="-0.25" x2="202" y2="-0.25" transform="matrix(0 -1 -1 0 184 210)" stroke="#CACACA" stroke-width="0.5"/>
<line y1="-0.25" x2="202" y2="-0.25" transform="matrix(0 -1 -1 0 162.667 210)" stroke="#CACACA" stroke-width="0.5"/>
<line y1="-0.25" x2="202" y2="-0.25" transform="matrix(0 -1 -1 0 141.333 210)" stroke="#CACACA" stroke-width="0.5"/>
<line y1="-0.25" x2="202" y2="-0.25" transform="matrix(0 -1 -1 0 120 210)" stroke="#CACACA" stroke-width="0.5"/>
<line y1="-0.25" x2="202" y2="-0.25" transform="matrix(0 -1 -1 0 98.6665 210)" stroke="#CACACA" stroke-width="0.5"/>
<line y1="-0.25" x2="202" y2="-0.25" transform="matrix(0 -1 -1 0 77.3335 210)" stroke="#CACACA" stroke-width="0.5"/>
<line y1="-0.25" x2="202" y2="-0.25" transform="matrix(0 -1 -1 0 56 210)" stroke="#CACACA" stroke-width="0.5"/>
<line y1="-0.25" x2="204" y2="-0.25" transform="matrix(-1 0 0 1 260 18)" stroke="#CACACA" stroke-width="0.5"/>
<path d="M259.12 49.128C259.12 48.8667 259.032 48.648 258.856 48.472C258.685 48.2907 258.44 48.2 258.12 48.2C257.779 48.2 257.507 48.2907 257.304 48.472C257.101 48.648 256.979 48.9093 256.936 49.256H256.328C256.36 48.9147 256.448 48.6107 256.592 48.344C256.741 48.072 256.947 47.8587 257.208 47.704C257.469 47.544 257.781 47.464 258.144 47.464C258.501 47.464 258.8 47.536 259.04 47.68C259.285 47.8187 259.472 48.0107 259.6 48.256C259.728 48.5013 259.792 48.7787 259.792 49.088C259.792 49.328 259.755 49.5413 259.68 49.728C259.605 49.9093 259.496 50.0827 259.352 50.248C259.208 50.4133 259.027 50.584 258.808 50.76C258.589 50.936 258.336 51.1333 258.048 51.352C257.835 51.512 257.643 51.6667 257.472 51.816C257.307 51.9653 257.187 52.1173 257.112 52.272H259.792V53H256.4V52.552C256.4 52.328 256.459 52.1227 256.576 51.936C256.699 51.744 256.856 51.5627 257.048 51.392C257.245 51.2213 257.451 51.056 257.664 50.896C257.963 50.6667 258.221 50.4613 258.44 50.28C258.659 50.0933 258.827 49.9093 258.944 49.728C259.061 49.5413 259.12 49.3413 259.12 49.128Z" fill="#1E2020"/>
<path opacity="0.9" d="M244 74C246.209 74 248 72.2091 248 70V30C248 27.7909 246.209 26 244 26L56 26V74L244 74Z" fill="#40A9FF"/>
<line y1="-0.25" x2="204" y2="-0.25" transform="matrix(-1 0 0 1 260 82)" stroke="#CACACA" stroke-width="0.5"/>
<path d="M76.368 111.464C76.8 111.464 77.16 111.581 77.448 111.816C77.7413 112.051 77.96 112.381 78.104 112.808C78.2533 113.229 78.328 113.72 78.328 114.28C78.328 114.84 78.2533 115.333 78.104 115.76C77.96 116.181 77.7413 116.509 77.448 116.744C77.16 116.979 76.8 117.096 76.368 117.096C75.936 117.096 75.5733 116.979 75.28 116.744C74.9867 116.509 74.7653 116.181 74.616 115.76C74.472 115.333 74.4 114.84 74.4 114.28C74.4 113.72 74.472 113.229 74.616 112.808C74.7653 112.381 74.9867 112.051 75.28 111.816C75.5733 111.581 75.936 111.464 76.368 111.464ZM76.368 112.208C75.952 112.208 75.632 112.373 75.408 112.704C75.184 113.035 75.072 113.56 75.072 114.28C75.072 115 75.184 115.525 75.408 115.856C75.632 116.187 75.952 116.352 76.368 116.352C76.784 116.352 77.1013 116.187 77.32 115.856C77.544 115.525 77.656 115 77.656 114.28C77.656 113.56 77.544 113.035 77.32 112.704C77.1013 112.373 76.784 112.208 76.368 112.208ZM78.7543 117.928C78.8716 117.805 78.981 117.669 79.0823 117.52C79.1836 117.376 79.261 117.229 79.3143 117.08C79.1756 117.069 79.069 117.021 78.9943 116.936C78.9196 116.851 78.8823 116.739 78.8823 116.6C78.8823 116.445 78.933 116.32 79.0343 116.224C79.1356 116.128 79.253 116.08 79.3863 116.08C79.525 116.08 79.6423 116.131 79.7383 116.232C79.8343 116.333 79.8823 116.472 79.8823 116.648C79.8823 116.803 79.8556 116.955 79.8023 117.104C79.749 117.259 79.661 117.419 79.5383 117.584C79.421 117.755 79.2556 117.947 79.0423 118.16L78.7543 117.928ZM82.2692 116.368C82.5999 116.368 82.8719 116.277 83.0852 116.096C83.3039 115.909 83.4132 115.645 83.4132 115.304C83.4132 114.995 83.3119 114.749 83.1092 114.568C82.9119 114.381 82.6505 114.288 82.3252 114.288C82.1865 114.288 82.0559 114.304 81.9332 114.336C81.8159 114.363 81.7145 114.397 81.6292 114.44L81.3892 114.048L83.1412 112.288H80.7252V111.56H83.7652V112.384L82.3972 113.744C82.4079 113.739 82.4212 113.736 82.4372 113.736C82.4532 113.736 82.4665 113.736 82.4772 113.736C82.9732 113.736 83.3652 113.885 83.6532 114.184C83.9412 114.477 84.0852 114.851 84.0852 115.304C84.0852 115.587 84.0372 115.84 83.9412 116.064C83.8505 116.288 83.7252 116.477 83.5652 116.632C83.4052 116.781 83.2105 116.896 82.9812 116.976C82.7572 117.056 82.5145 117.096 82.2532 117.096C81.7359 117.096 81.3092 116.947 80.9732 116.648C80.6425 116.344 80.4505 115.936 80.3972 115.424H81.0052C81.0745 115.744 81.2185 115.981 81.4372 116.136C81.6612 116.291 81.9385 116.368 82.2692 116.368Z" fill="#1E2020"/>
<path opacity="0.9" d="M64 138C65.1046 138 66 137.105 66 136V92C66 90.8954 65.1046 90 64 90H56V138H64Z" fill="#FFA940"/>
<line y1="-0.25" x2="204" y2="-0.25" transform="matrix(-1 0 0 1 260 146)" stroke="#CACACA" stroke-width="0.5"/>
<path d="M67.368 175.464C67.8 175.464 68.16 175.581 68.448 175.816C68.7413 176.051 68.96 176.381 69.104 176.808C69.2533 177.229 69.328 177.72 69.328 178.28C69.328 178.84 69.2533 179.333 69.104 179.76C68.96 180.181 68.7413 180.509 68.448 180.744C68.16 180.979 67.8 181.096 67.368 181.096C66.936 181.096 66.5733 180.979 66.28 180.744C65.9867 180.509 65.7653 180.181 65.616 179.76C65.472 179.333 65.4 178.84 65.4 178.28C65.4 177.72 65.472 177.229 65.616 176.808C65.7653 176.381 65.9867 176.051 66.28 175.816C66.5733 175.581 66.936 175.464 67.368 175.464ZM67.368 176.208C66.952 176.208 66.632 176.373 66.408 176.704C66.184 177.035 66.072 177.56 66.072 178.28C66.072 179 66.184 179.525 66.408 179.856C66.632 180.187 66.952 180.352 67.368 180.352C67.784 180.352 68.1013 180.187 68.32 179.856C68.544 179.525 68.656 179 68.656 178.28C68.656 177.56 68.544 177.035 68.32 176.704C68.1013 176.373 67.784 176.208 67.368 176.208Z" fill="#1E2020"/>
<path opacity="0.9" d="M56 202C56.5523 202 57 201.552 57 201V155C57 154.448 56.5523 154 56 154V202Z" fill="#23263B"/>
<line y1="-0.25" x2="204" y2="-0.25" transform="matrix(-1 0 0 1 260 210)" stroke="#C2C2C2" stroke-width="0.5"/>
<path d="M58.7199 218.464C59.1519 218.464 59.5119 218.581 59.7999 218.816C60.0932 219.051 60.3119 219.381 60.4559 219.808C60.6052 220.229 60.6799 220.72 60.6799 221.28C60.6799 221.84 60.6052 222.333 60.4559 222.76C60.3119 223.181 60.0932 223.509 59.7999 223.744C59.5119 223.979 59.1519 224.096 58.7199 224.096C58.2879 224.096 57.9252 223.979 57.6319 223.744C57.3385 223.509 57.1172 223.181 56.9679 222.76C56.8239 222.333 56.7519 221.84 56.7519 221.28C56.7519 220.72 56.8239 220.229 56.9679 219.808C57.1172 219.381 57.3385 219.051 57.6319 218.816C57.9252 218.581 58.2879 218.464 58.7199 218.464ZM58.7199 219.208C58.3039 219.208 57.9839 219.373 57.7599 219.704C57.5359 220.035 57.4239 220.56 57.4239 221.28C57.4239 222 57.5359 222.525 57.7599 222.856C57.9839 223.187 58.3039 223.352 58.7199 223.352C59.1359 223.352 59.4532 223.187 59.6719 222.856C59.8959 222.525 60.0079 222 60.0079 221.28C60.0079 220.56 59.8959 220.035 59.6719 219.704C59.4532 219.373 59.1359 219.208 58.7199 219.208ZM61.2662 224.928C61.3835 224.805 61.4929 224.669 61.5942 224.52C61.6955 224.376 61.7729 224.229 61.8262 224.08C61.6875 224.069 61.5809 224.021 61.5062 223.936C61.4315 223.851 61.3942 223.739 61.3942 223.6C61.3942 223.445 61.4449 223.32 61.5462 223.224C61.6475 223.128 61.7649 223.08 61.8982 223.08C62.0369 223.08 62.1542 223.131 62.2502 223.232C62.3462 223.333 62.3942 223.472 62.3942 223.648C62.3942 223.803 62.3675 223.955 62.3142 224.104C62.2609 224.259 62.1729 224.419 62.0502 224.584C61.9329 224.755 61.7675 224.947 61.5542 225.16L61.2662 224.928ZM65.9091 220.128C65.9091 219.867 65.8211 219.648 65.6451 219.472C65.4744 219.291 65.2291 219.2 64.9091 219.2C64.5677 219.2 64.2957 219.291 64.0931 219.472C63.8904 219.648 63.7677 219.909 63.7251 220.256H63.1171C63.1491 219.915 63.2371 219.611 63.3811 219.344C63.5304 219.072 63.7357 218.859 63.9971 218.704C64.2584 218.544 64.5704 218.464 64.9331 218.464C65.2904 218.464 65.5891 218.536 65.8291 218.68C66.0744 218.819 66.2611 219.011 66.3891 219.256C66.5171 219.501 66.5811 219.779 66.5811 220.088C66.5811 220.328 66.5437 220.541 66.4691 220.728C66.3944 220.909 66.2851 221.083 66.1411 221.248C65.9971 221.413 65.8157 221.584 65.5971 221.76C65.3784 221.936 65.1251 222.133 64.8371 222.352C64.6237 222.512 64.4317 222.667 64.2611 222.816C64.0957 222.965 63.9757 223.117 63.9011 223.272H66.5811V224H63.1891V223.552C63.1891 223.328 63.2477 223.123 63.3651 222.936C63.4877 222.744 63.6451 222.563 63.8371 222.392C64.0344 222.221 64.2397 222.056 64.4531 221.896C64.7517 221.667 65.0104 221.461 65.2291 221.28C65.4477 221.093 65.6157 220.909 65.7331 220.728C65.8504 220.541 65.9091 220.341 65.9091 220.128Z" fill="#1E2020"/>
<path d="M80.1584 218.464C80.5904 218.464 80.9504 218.581 81.2384 218.816C81.5317 219.051 81.7504 219.381 81.8944 219.808C82.0437 220.229 82.1184 220.72 82.1184 221.28C82.1184 221.84 82.0437 222.333 81.8944 222.76C81.7504 223.181 81.5317 223.509 81.2384 223.744C80.9504 223.979 80.5904 224.096 80.1584 224.096C79.7264 224.096 79.3637 223.979 79.0704 223.744C78.777 223.509 78.5557 223.181 78.4064 222.76C78.2624 222.333 78.1904 221.84 78.1904 221.28C78.1904 220.72 78.2624 220.229 78.4064 219.808C78.5557 219.381 78.777 219.051 79.0704 218.816C79.3637 218.581 79.7264 218.464 80.1584 218.464ZM80.1584 219.208C79.7424 219.208 79.4224 219.373 79.1984 219.704C78.9744 220.035 78.8624 220.56 78.8624 221.28C78.8624 222 78.9744 222.525 79.1984 222.856C79.4224 223.187 79.7424 223.352 80.1584 223.352C80.5744 223.352 80.8917 223.187 81.1104 222.856C81.3344 222.525 81.4464 222 81.4464 221.28C81.4464 220.56 81.3344 220.035 81.1104 219.704C80.8917 219.373 80.5744 219.208 80.1584 219.208ZM82.7047 224.928C82.822 224.805 82.9313 224.669 83.0327 224.52C83.134 224.376 83.2113 224.229 83.2647 224.08C83.126 224.069 83.0193 224.021 82.9447 223.936C82.87 223.851 82.8327 223.739 82.8327 223.6C82.8327 223.445 82.8833 223.32 82.9847 223.224C83.086 223.128 83.2033 223.08 83.3367 223.08C83.4753 223.08 83.5927 223.131 83.6887 223.232C83.7847 223.333 83.8327 223.472 83.8327 223.648C83.8327 223.803 83.806 223.955 83.7527 224.104C83.6993 224.259 83.6113 224.419 83.4887 224.584C83.3713 224.755 83.206 224.947 82.9927 225.16L82.7047 224.928ZM88.2755 222.824H87.5875V224H86.9155V222.824H84.4515V222.224L87.0115 218.56H87.5875V222.144H88.2755V222.824ZM85.1635 222.144H86.9155V219.6L85.1635 222.144Z" fill="#1E2020"/>
<path d="M101.784 218.464C102.216 218.464 102.576 218.581 102.864 218.816C103.158 219.051 103.376 219.381 103.52 219.808C103.67 220.229 103.744 220.72 103.744 221.28C103.744 221.84 103.67 222.333 103.52 222.76C103.376 223.181 103.158 223.509 102.864 223.744C102.576 223.979 102.216 224.096 101.784 224.096C101.352 224.096 100.99 223.979 100.696 223.744C100.403 223.509 100.182 223.181 100.032 222.76C99.8883 222.333 99.8163 221.84 99.8163 221.28C99.8163 220.72 99.8883 220.229 100.032 219.808C100.182 219.381 100.403 219.051 100.696 218.816C100.99 218.581 101.352 218.464 101.784 218.464ZM101.784 219.208C101.368 219.208 101.048 219.373 100.824 219.704C100.6 220.035 100.488 220.56 100.488 221.28C100.488 222 100.6 222.525 100.824 222.856C101.048 223.187 101.368 223.352 101.784 223.352C102.2 223.352 102.518 223.187 102.736 222.856C102.96 222.525 103.072 222 103.072 221.28C103.072 220.56 102.96 220.035 102.736 219.704C102.518 219.373 102.2 219.208 101.784 219.208ZM104.331 224.928C104.448 224.805 104.557 224.669 104.659 224.52C104.76 224.376 104.837 224.229 104.891 224.08C104.752 224.069 104.645 224.021 104.571 223.936C104.496 223.851 104.459 223.739 104.459 223.6C104.459 223.445 104.509 223.32 104.611 223.224C104.712 223.128 104.829 223.08 104.963 223.08C105.101 223.08 105.219 223.131 105.315 223.232C105.411 223.333 105.459 223.472 105.459 223.648C105.459 223.803 105.432 223.955 105.379 224.104C105.325 224.259 105.237 224.419 105.115 224.584C104.997 224.755 104.832 224.947 104.619 225.16L104.331 224.928ZM109.83 222.184C109.83 222.499 109.758 222.803 109.614 223.096C109.475 223.389 109.27 223.629 108.998 223.816C108.726 224.003 108.387 224.096 107.982 224.096C107.678 224.096 107.411 224.043 107.182 223.936C106.952 223.829 106.758 223.688 106.598 223.512C106.443 223.331 106.326 223.131 106.246 222.912C106.171 222.693 106.134 222.472 106.134 222.248C106.134 222.104 106.144 221.968 106.166 221.84C106.192 221.707 106.235 221.571 106.294 221.432C106.358 221.288 106.446 221.123 106.558 220.936C106.675 220.744 106.824 220.515 107.006 220.248L108.142 218.56H108.878L107.534 220.512C107.614 220.48 107.699 220.456 107.79 220.44C107.88 220.424 107.976 220.416 108.078 220.416C108.403 220.416 108.696 220.491 108.958 220.64C109.224 220.784 109.435 220.989 109.59 221.256C109.75 221.517 109.83 221.827 109.83 222.184ZM107.982 220.992C107.736 220.992 107.526 221.048 107.35 221.16C107.174 221.272 107.038 221.419 106.942 221.6C106.851 221.781 106.806 221.979 106.806 222.192C106.806 222.4 106.851 222.595 106.942 222.776C107.038 222.952 107.174 223.096 107.35 223.208C107.526 223.315 107.736 223.368 107.982 223.368C108.227 223.368 108.438 223.315 108.614 223.208C108.79 223.096 108.923 222.952 109.014 222.776C109.11 222.595 109.158 222.4 109.158 222.192C109.158 221.979 109.11 221.781 109.014 221.6C108.923 221.419 108.79 221.272 108.614 221.16C108.438 221.048 108.227 220.992 107.982 220.992Z" fill="#1E2020"/>
<path d="M123.293 218.464C123.725 218.464 124.085 218.581 124.373 218.816C124.666 219.051 124.885 219.381 125.029 219.808C125.178 220.229 125.253 220.72 125.253 221.28C125.253 221.84 125.178 222.333 125.029 222.76C124.885 223.181 124.666 223.509 124.373 223.744C124.085 223.979 123.725 224.096 123.293 224.096C122.861 224.096 122.498 223.979 122.205 223.744C121.911 223.509 121.69 223.181 121.541 222.76C121.397 222.333 121.325 221.84 121.325 221.28C121.325 220.72 121.397 220.229 121.541 219.808C121.69 219.381 121.911 219.051 122.205 218.816C122.498 218.581 122.861 218.464 123.293 218.464ZM123.293 219.208C122.877 219.208 122.557 219.373 122.333 219.704C122.109 220.035 121.997 220.56 121.997 221.28C121.997 222 122.109 222.525 122.333 222.856C122.557 223.187 122.877 223.352 123.293 223.352C123.709 223.352 124.026 223.187 124.245 222.856C124.469 222.525 124.581 222 124.581 221.28C124.581 220.56 124.469 220.035 124.245 219.704C124.026 219.373 123.709 219.208 123.293 219.208ZM125.839 224.928C125.956 224.805 126.066 224.669 126.167 224.52C126.268 224.376 126.346 224.229 126.399 224.08C126.26 224.069 126.154 224.021 126.079 223.936C126.004 223.851 125.967 223.739 125.967 223.6C125.967 223.445 126.018 223.32 126.119 223.224C126.22 223.128 126.338 223.08 126.471 223.08C126.61 223.08 126.727 223.131 126.823 223.232C126.919 223.333 126.967 223.472 126.967 223.648C126.967 223.803 126.94 223.955 126.887 224.104C126.834 224.259 126.746 224.419 126.623 224.584C126.506 224.755 126.34 224.947 126.127 225.16L125.839 224.928ZM127.722 222.448C127.722 222.133 127.802 221.864 127.962 221.64C128.122 221.411 128.327 221.248 128.578 221.152C128.354 221.061 128.175 220.912 128.042 220.704C127.908 220.491 127.842 220.256 127.842 220C127.842 219.712 127.908 219.453 128.042 219.224C128.175 218.989 128.367 218.805 128.618 218.672C128.874 218.533 129.175 218.464 129.522 218.464C129.874 218.464 130.172 218.533 130.418 218.672C130.668 218.805 130.86 218.989 130.994 219.224C131.127 219.453 131.194 219.712 131.194 220C131.194 220.277 131.119 220.517 130.97 220.72C130.826 220.923 130.65 221.072 130.442 221.168C130.692 221.253 130.898 221.411 131.058 221.64C131.223 221.864 131.306 222.133 131.306 222.448C131.306 222.768 131.231 223.053 131.082 223.304C130.932 223.549 130.724 223.744 130.458 223.888C130.191 224.027 129.879 224.096 129.522 224.096C129.17 224.096 128.858 224.027 128.586 223.888C128.314 223.744 128.1 223.549 127.946 223.304C127.796 223.053 127.722 222.768 127.722 222.448ZM129.522 220.92C129.836 220.92 130.082 220.837 130.258 220.672C130.434 220.507 130.522 220.293 130.522 220.032C130.522 219.771 130.434 219.565 130.258 219.416C130.082 219.261 129.836 219.184 129.522 219.184C129.207 219.184 128.959 219.261 128.778 219.416C128.602 219.565 128.514 219.771 128.514 220.032C128.514 220.293 128.602 220.507 128.778 220.672C128.959 220.837 129.207 220.92 129.522 220.92ZM129.514 221.464C129.14 221.464 128.86 221.552 128.674 221.728C128.487 221.899 128.394 222.125 128.394 222.408C128.394 222.685 128.49 222.917 128.682 223.104C128.874 223.285 129.156 223.376 129.53 223.376C129.903 223.376 130.18 223.285 130.362 223.104C130.543 222.923 130.634 222.691 130.634 222.408C130.634 222.125 130.538 221.899 130.346 221.728C130.159 221.552 129.882 221.464 129.514 221.464Z" fill="#1E2020"/>
<path d="M144.51 223.288H145.446V224H142.854V223.288H143.838V219.624L142.614 220.272V219.512L144.51 218.512V223.288ZM146.129 224.928C146.246 224.805 146.356 224.669 146.457 224.52C146.558 224.376 146.636 224.229 146.689 224.08C146.55 224.069 146.444 224.021 146.369 223.936C146.294 223.851 146.257 223.739 146.257 223.6C146.257 223.445 146.308 223.32 146.409 223.224C146.51 223.128 146.628 223.08 146.761 223.08C146.9 223.08 147.017 223.131 147.113 223.232C147.209 223.333 147.257 223.472 147.257 223.648C147.257 223.803 147.23 223.955 147.177 224.104C147.124 224.259 147.036 224.419 146.913 224.584C146.796 224.755 146.63 224.947 146.417 225.16L146.129 224.928ZM149.864 218.464C150.296 218.464 150.656 218.581 150.944 218.816C151.237 219.051 151.456 219.381 151.6 219.808C151.749 220.229 151.824 220.72 151.824 221.28C151.824 221.84 151.749 222.333 151.6 222.76C151.456 223.181 151.237 223.509 150.944 223.744C150.656 223.979 150.296 224.096 149.864 224.096C149.432 224.096 149.069 223.979 148.776 223.744C148.482 223.509 148.261 223.181 148.112 222.76C147.968 222.333 147.896 221.84 147.896 221.28C147.896 220.72 147.968 220.229 148.112 219.808C148.261 219.381 148.482 219.051 148.776 218.816C149.069 218.581 149.432 218.464 149.864 218.464ZM149.864 219.208C149.448 219.208 149.128 219.373 148.904 219.704C148.68 220.035 148.568 220.56 148.568 221.28C148.568 222 148.68 222.525 148.904 222.856C149.128 223.187 149.448 223.352 149.864 223.352C150.28 223.352 150.597 223.187 150.816 222.856C151.04 222.525 151.152 222 151.152 221.28C151.152 220.56 151.04 220.035 150.816 219.704C150.597 219.373 150.28 219.208 149.864 219.208Z" fill="#1E2020"/>
<path d="M165.425 223.288H166.361V224H163.769V223.288H164.753V219.624L163.529 220.272V219.512L165.425 218.512V223.288ZM167.044 224.928C167.161 224.805 167.271 224.669 167.372 224.52C167.473 224.376 167.551 224.229 167.604 224.08C167.465 224.069 167.359 224.021 167.284 223.936C167.209 223.851 167.172 223.739 167.172 223.6C167.172 223.445 167.223 223.32 167.324 223.224C167.425 223.128 167.543 223.08 167.676 223.08C167.815 223.08 167.932 223.131 168.028 223.232C168.124 223.333 168.172 223.472 168.172 223.648C168.172 223.803 168.145 223.955 168.092 224.104C168.039 224.259 167.951 224.419 167.828 224.584C167.711 224.755 167.545 224.947 167.332 225.16L167.044 224.928ZM171.687 220.128C171.687 219.867 171.599 219.648 171.423 219.472C171.252 219.291 171.007 219.2 170.687 219.2C170.346 219.2 170.074 219.291 169.871 219.472C169.668 219.648 169.546 219.909 169.503 220.256H168.895C168.927 219.915 169.015 219.611 169.159 219.344C169.308 219.072 169.514 218.859 169.775 218.704C170.036 218.544 170.348 218.464 170.711 218.464C171.068 218.464 171.367 218.536 171.607 218.68C171.852 218.819 172.039 219.011 172.167 219.256C172.295 219.501 172.359 219.779 172.359 220.088C172.359 220.328 172.322 220.541 172.247 220.728C172.172 220.909 172.063 221.083 171.919 221.248C171.775 221.413 171.594 221.584 171.375 221.76C171.156 221.936 170.903 222.133 170.615 222.352C170.402 222.512 170.21 222.667 170.039 222.816C169.874 222.965 169.754 223.117 169.679 223.272H172.359V224H168.967V223.552C168.967 223.328 169.026 223.123 169.143 222.936C169.266 222.744 169.423 222.563 169.615 222.392C169.812 222.221 170.018 222.056 170.231 221.896C170.53 221.667 170.788 221.461 171.007 221.28C171.226 221.093 171.394 220.909 171.511 220.728C171.628 220.541 171.687 220.341 171.687 220.128Z" fill="#1E2020"/>
<path d="M185.863 223.288H186.799V224H184.207V223.288H185.191V219.624L183.967 220.272V219.512L185.863 218.512V223.288ZM187.482 224.928C187.6 224.805 187.709 224.669 187.81 224.52C187.912 224.376 187.989 224.229 188.042 224.08C187.904 224.069 187.797 224.021 187.722 223.936C187.648 223.851 187.61 223.739 187.61 223.6C187.61 223.445 187.661 223.32 187.762 223.224C187.864 223.128 187.981 223.08 188.114 223.08C188.253 223.08 188.37 223.131 188.466 223.232C188.562 223.333 188.61 223.472 188.61 223.648C188.61 223.803 188.584 223.955 188.53 224.104C188.477 224.259 188.389 224.419 188.266 224.584C188.149 224.755 187.984 224.947 187.77 225.16L187.482 224.928ZM193.053 222.824H192.365V224H191.693V222.824H189.229V222.224L191.789 218.56H192.365V222.144H193.053V222.824ZM189.941 222.144H191.693V219.6L189.941 222.144Z" fill="#1E2020"/>
<path d="M206.489 223.288H207.425V224H204.833V223.288H205.817V219.624L204.593 220.272V219.512L206.489 218.512V223.288ZM208.108 224.928C208.225 224.805 208.335 224.669 208.436 224.52C208.537 224.376 208.615 224.229 208.668 224.08C208.529 224.069 208.423 224.021 208.348 223.936C208.273 223.851 208.236 223.739 208.236 223.6C208.236 223.445 208.287 223.32 208.388 223.224C208.489 223.128 208.607 223.08 208.74 223.08C208.879 223.08 208.996 223.131 209.092 223.232C209.188 223.333 209.236 223.472 209.236 223.648C209.236 223.803 209.209 223.955 209.156 224.104C209.103 224.259 209.015 224.419 208.892 224.584C208.775 224.755 208.609 224.947 208.396 225.16L208.108 224.928ZM213.607 222.184C213.607 222.499 213.535 222.803 213.391 223.096C213.252 223.389 213.047 223.629 212.775 223.816C212.503 224.003 212.164 224.096 211.759 224.096C211.455 224.096 211.188 224.043 210.959 223.936C210.73 223.829 210.535 223.688 210.375 223.512C210.22 223.331 210.103 223.131 210.023 222.912C209.948 222.693 209.911 222.472 209.911 222.248C209.911 222.104 209.922 221.968 209.943 221.84C209.97 221.707 210.012 221.571 210.071 221.432C210.135 221.288 210.223 221.123 210.335 220.936C210.452 220.744 210.602 220.515 210.783 220.248L211.919 218.56H212.655L211.311 220.512C211.391 220.48 211.476 220.456 211.567 220.44C211.658 220.424 211.754 220.416 211.855 220.416C212.18 220.416 212.474 220.491 212.735 220.64C213.002 220.784 213.212 220.989 213.367 221.256C213.527 221.517 213.607 221.827 213.607 222.184ZM211.759 220.992C211.514 220.992 211.303 221.048 211.127 221.16C210.951 221.272 210.815 221.419 210.719 221.6C210.628 221.781 210.583 221.979 210.583 222.192C210.583 222.4 210.628 222.595 210.719 222.776C210.815 222.952 210.951 223.096 211.127 223.208C211.303 223.315 211.514 223.368 211.759 223.368C212.004 223.368 212.215 223.315 212.391 223.208C212.567 223.096 212.7 222.952 212.791 222.776C212.887 222.595 212.935 222.4 212.935 222.192C212.935 221.979 212.887 221.781 212.791 221.6C212.7 221.419 212.567 221.272 212.391 221.16C212.215 221.048 212.004 220.992 211.759 220.992Z" fill="#1E2020"/>
<path d="M226.998 223.288H227.934V224H225.342V223.288H226.326V219.624L225.102 220.272V219.512L226.998 218.512V223.288ZM228.617 224.928C228.734 224.805 228.843 224.669 228.945 224.52C229.046 224.376 229.123 224.229 229.177 224.08C229.038 224.069 228.931 224.021 228.857 223.936C228.782 223.851 228.745 223.739 228.745 223.6C228.745 223.445 228.795 223.32 228.897 223.224C228.998 223.128 229.115 223.08 229.249 223.08C229.387 223.08 229.505 223.131 229.601 223.232C229.697 223.333 229.745 223.472 229.745 223.648C229.745 223.803 229.718 223.955 229.665 224.104C229.611 224.259 229.523 224.419 229.401 224.584C229.283 224.755 229.118 224.947 228.905 225.16L228.617 224.928ZM230.5 222.448C230.5 222.133 230.58 221.864 230.74 221.64C230.9 221.411 231.105 221.248 231.356 221.152C231.132 221.061 230.953 220.912 230.82 220.704C230.686 220.491 230.62 220.256 230.62 220C230.62 219.712 230.686 219.453 230.82 219.224C230.953 218.989 231.145 218.805 231.396 218.672C231.652 218.533 231.953 218.464 232.3 218.464C232.652 218.464 232.95 218.533 233.196 218.672C233.446 218.805 233.638 218.989 233.772 219.224C233.905 219.453 233.972 219.712 233.972 220C233.972 220.277 233.897 220.517 233.748 220.72C233.604 220.923 233.428 221.072 233.22 221.168C233.47 221.253 233.676 221.411 233.836 221.64C234.001 221.864 234.084 222.133 234.084 222.448C234.084 222.768 234.009 223.053 233.86 223.304C233.71 223.549 233.502 223.744 233.236 223.888C232.969 224.027 232.657 224.096 232.3 224.096C231.948 224.096 231.636 224.027 231.364 223.888C231.092 223.744 230.878 223.549 230.724 223.304C230.574 223.053 230.5 222.768 230.5 222.448ZM232.3 220.92C232.614 220.92 232.86 220.837 233.036 220.672C233.212 220.507 233.3 220.293 233.3 220.032C233.3 219.771 233.212 219.565 233.036 219.416C232.86 219.261 232.614 219.184 232.3 219.184C231.985 219.184 231.737 219.261 231.556 219.416C231.38 219.565 231.292 219.771 231.292 220.032C231.292 220.293 231.38 220.507 231.556 220.672C231.737 220.837 231.985 220.92 232.3 220.92ZM232.292 221.464C231.918 221.464 231.638 221.552 231.452 221.728C231.265 221.899 231.172 222.125 231.172 222.408C231.172 222.685 231.268 222.917 231.46 223.104C231.652 223.285 231.934 223.376 232.308 223.376C232.681 223.376 232.958 223.285 233.14 223.104C233.321 222.923 233.412 222.691 233.412 222.408C233.412 222.125 233.316 221.899 233.124 221.728C232.937 221.552 232.66 221.464 232.292 221.464Z" fill="#1E2020"/>
<path d="M248.472 220.128C248.472 219.867 248.384 219.648 248.208 219.472C248.037 219.291 247.792 219.2 247.472 219.2C247.131 219.2 246.859 219.291 246.656 219.472C246.453 219.648 246.331 219.909 246.288 220.256H245.68C245.712 219.915 245.8 219.611 245.944 219.344C246.093 219.072 246.299 218.859 246.56 218.704C246.821 218.544 247.133 218.464 247.496 218.464C247.853 218.464 248.152 218.536 248.392 218.68C248.637 218.819 248.824 219.011 248.952 219.256C249.08 219.501 249.144 219.779 249.144 220.088C249.144 220.328 249.107 220.541 249.032 220.728C248.957 220.909 248.848 221.083 248.704 221.248C248.56 221.413 248.379 221.584 248.16 221.76C247.941 221.936 247.688 222.133 247.4 222.352C247.187 222.512 246.995 222.667 246.824 222.816C246.659 222.965 246.539 223.117 246.464 223.272H249.144V224H245.752V223.552C245.752 223.328 245.811 223.123 245.928 222.936C246.051 222.744 246.208 222.563 246.4 222.392C246.597 222.221 246.803 222.056 247.016 221.896C247.315 221.667 247.573 221.461 247.792 221.28C248.011 221.093 248.179 220.909 248.296 220.728C248.413 220.541 248.472 220.341 248.472 220.128ZM249.907 224.928C250.024 224.805 250.133 224.669 250.235 224.52C250.336 224.376 250.413 224.229 250.467 224.08C250.328 224.069 250.221 224.021 250.147 223.936C250.072 223.851 250.035 223.739 250.035 223.6C250.035 223.445 250.085 223.32 250.187 223.224C250.288 223.128 250.405 223.08 250.539 223.08C250.677 223.08 250.795 223.131 250.891 223.232C250.987 223.333 251.035 223.472 251.035 223.648C251.035 223.803 251.008 223.955 250.955 224.104C250.901 224.259 250.813 224.419 250.691 224.584C250.573 224.755 250.408 224.947 250.195 225.16L249.907 224.928ZM253.641 218.464C254.073 218.464 254.433 218.581 254.721 218.816C255.015 219.051 255.233 219.381 255.377 219.808C255.527 220.229 255.601 220.72 255.601 221.28C255.601 221.84 255.527 222.333 255.377 222.76C255.233 223.181 255.015 223.509 254.721 223.744C254.433 223.979 254.073 224.096 253.641 224.096C253.209 224.096 252.847 223.979 252.553 223.744C252.26 223.509 252.039 223.181 251.889 222.76C251.745 222.333 251.673 221.84 251.673 221.28C251.673 220.72 251.745 220.229 251.889 219.808C252.039 219.381 252.26 219.051 252.553 218.816C252.847 218.581 253.209 218.464 253.641 218.464ZM253.641 219.208C253.225 219.208 252.905 219.373 252.681 219.704C252.457 220.035 252.345 220.56 252.345 221.28C252.345 222 252.457 222.525 252.681 222.856C252.905 223.187 253.225 223.352 253.641 223.352C254.057 223.352 254.375 223.187 254.593 222.856C254.817 222.525 254.929 222 254.929 221.28C254.929 220.56 254.817 220.035 254.593 219.704C254.375 219.373 254.057 219.208 253.641 219.208Z" fill="#1E2020"/>
<path d="M5.304 54L3.248 51.104V54H2.576V48.56H3.248V51L5.304 48.56H6.056L4.016 50.984L6.168 54H5.304ZM6.32238 53.312C6.35438 53.3173 6.39438 53.3253 6.44238 53.336C6.49571 53.3413 6.55438 53.344 6.61838 53.344C6.79438 53.344 6.92238 53.2267 7.00238 52.992C7.08238 52.7573 7.14904 52.3973 7.20238 51.912C7.22904 51.6453 7.25038 51.368 7.26638 51.08C7.28238 50.792 7.29304 50.4773 7.29838 50.136H9.66638V54H9.02638V50.784H7.84238C7.83704 50.9813 7.82638 51.1893 7.81038 51.408C7.79971 51.6213 7.78638 51.824 7.77038 52.016C7.73304 52.5013 7.67704 52.8933 7.60238 53.192C7.53304 53.4907 7.43171 53.7067 7.29838 53.84C7.16504 53.9733 6.98104 54.04 6.74638 54.04C6.66638 54.04 6.58904 54.0347 6.51438 54.024C6.43971 54.0133 6.37571 53.9973 6.32238 53.976V53.312ZM11.3791 50.136V52.952L13.2431 50.136H13.8671V54H13.2271V51.136L11.3311 54H10.7391V50.136H11.3791ZM18.2063 52.824C18.1476 53.0373 18.0516 53.24 17.9183 53.432C17.7849 53.6187 17.6036 53.7707 17.3743 53.888C17.1449 54.0053 16.8543 54.064 16.5023 54.064C16.1449 54.064 15.8303 53.976 15.5583 53.8C15.2863 53.6187 15.0729 53.376 14.9183 53.072C14.7689 52.768 14.6943 52.432 14.6943 52.064C14.6943 51.6907 14.7689 51.3547 14.9183 51.056C15.0729 50.7573 15.2863 50.52 15.5583 50.344C15.8303 50.1627 16.1449 50.072 16.5023 50.072C16.8703 50.072 17.1876 50.16 17.4543 50.336C17.7209 50.512 17.9263 50.7547 18.0703 51.064C18.2196 51.3733 18.2943 51.7253 18.2943 52.12C18.2943 52.136 18.2943 52.152 18.2943 52.168C18.2943 52.184 18.2943 52.2 18.2943 52.216H15.3423C15.3689 52.5733 15.4836 52.8613 15.6863 53.08C15.8943 53.2987 16.1663 53.408 16.5023 53.408C16.8009 53.408 17.0409 53.3573 17.2223 53.256C17.4036 53.1493 17.5369 53.0053 17.6223 52.824H18.2063ZM16.5023 50.728C16.1769 50.728 15.9156 50.8213 15.7183 51.008C15.5263 51.1893 15.4063 51.4373 15.3583 51.752H17.6303C17.5929 51.4693 17.4836 51.2293 17.3023 51.032C17.1263 50.8293 16.8596 50.728 16.5023 50.728ZM21.5225 54V52.32H19.7385V54H19.0985V50.136H19.7385V51.672H21.5225V50.136H22.1625V54H21.5225ZM22.8793 50.136H25.9993V50.792H24.7593V54H24.1193V50.792H22.8793V50.136Z" fill="#1E2020"/>
<path d="M4.8 111.13C5.184 111.13 5.52533 111.199 5.824 111.338C6.128 111.477 6.384 111.674 6.592 111.93C6.8 112.181 6.95733 112.479 7.064 112.826C7.176 113.167 7.232 113.541 7.232 113.946C7.232 114.351 7.176 114.727 7.064 115.074C6.95733 115.415 6.8 115.714 6.592 115.97C6.384 116.221 6.128 116.415 5.824 116.554C5.52533 116.693 5.184 116.762 4.8 116.762C4.416 116.762 4.072 116.693 3.768 116.554C3.46933 116.415 3.216 116.221 3.008 115.97C2.80533 115.714 2.648 115.415 2.536 115.074C2.42933 114.727 2.376 114.351 2.376 113.946C2.376 113.541 2.42933 113.167 2.536 112.826C2.648 112.479 2.80533 112.181 3.008 111.93C3.216 111.674 3.46933 111.477 3.768 111.338C4.072 111.199 4.416 111.13 4.8 111.13ZM4.8 111.89C4.464 111.89 4.16267 111.967 3.896 112.122C3.63467 112.277 3.42667 112.506 3.272 112.81C3.12267 113.114 3.048 113.493 3.048 113.946C3.048 114.399 3.12267 114.778 3.272 115.082C3.42667 115.386 3.63467 115.615 3.896 115.77C4.16267 115.925 4.464 116.002 4.8 116.002C5.14133 116.002 5.44267 115.925 5.704 115.77C5.97067 115.615 6.17867 115.386 6.328 115.082C6.48267 114.778 6.56 114.399 6.56 113.946C6.56 113.493 6.48267 113.114 6.328 112.81C6.17867 112.506 5.97067 112.277 5.704 112.122C5.44267 111.967 5.14133 111.89 4.8 111.89ZM10.5614 116.666V113.45H8.78537V116.666H8.14538V112.802H11.2014V116.666H10.5614ZM15.5344 115.49C15.4757 115.703 15.3797 115.906 15.2464 116.098C15.113 116.285 14.9317 116.437 14.7024 116.554C14.473 116.671 14.1824 116.73 13.8304 116.73C13.473 116.73 13.1584 116.642 12.8864 116.466C12.6144 116.285 12.401 116.042 12.2464 115.738C12.097 115.434 12.0224 115.098 12.0224 114.73C12.0224 114.357 12.097 114.021 12.2464 113.722C12.401 113.423 12.6144 113.186 12.8864 113.01C13.1584 112.829 13.473 112.738 13.8304 112.738C14.1984 112.738 14.5157 112.826 14.7824 113.002C15.049 113.178 15.2544 113.421 15.3984 113.73C15.5477 114.039 15.6224 114.391 15.6224 114.786C15.6224 114.802 15.6224 114.818 15.6224 114.834C15.6224 114.85 15.6224 114.866 15.6224 114.882H12.6704C12.697 115.239 12.8117 115.527 13.0144 115.746C13.2224 115.965 13.4944 116.074 13.8304 116.074C14.129 116.074 14.369 116.023 14.5504 115.922C14.7317 115.815 14.865 115.671 14.9504 115.49H15.5344ZM13.8304 113.394C13.505 113.394 13.2437 113.487 13.0464 113.674C12.8544 113.855 12.7344 114.103 12.6864 114.418H14.9584C14.921 114.135 14.8117 113.895 14.6304 113.698C14.4544 113.495 14.1877 113.394 13.8304 113.394ZM17.0346 113.474C17.1573 113.223 17.3226 113.039 17.5306 112.922C17.7386 112.799 18 112.738 18.3146 112.738C18.6826 112.738 19 112.823 19.2666 112.994C19.5333 113.159 19.736 113.391 19.8746 113.69C20.0186 113.983 20.0906 114.319 20.0906 114.698C20.0906 115.077 20.0186 115.421 19.8746 115.73C19.736 116.034 19.5333 116.277 19.2666 116.458C19.0053 116.639 18.6906 116.73 18.3226 116.73C18.0346 116.73 17.7866 116.679 17.5786 116.578C17.3706 116.471 17.2 116.306 17.0666 116.082V118.266H16.4266V112.802H17.0346V113.474ZM18.2106 116.058C18.6266 116.058 18.936 115.93 19.1386 115.674C19.3413 115.418 19.4426 115.093 19.4426 114.698C19.4426 114.303 19.3386 113.991 19.1306 113.762C18.928 113.527 18.6186 113.41 18.2026 113.41C17.92 113.41 17.6826 113.453 17.4906 113.538C17.2986 113.618 17.1573 113.751 17.0666 113.938V115.546C17.1573 115.727 17.2986 115.858 17.4906 115.938C17.688 116.018 17.928 116.058 18.2106 116.058ZM23.6144 116.682C23.4331 116.682 23.2838 116.631 23.1664 116.53C23.0491 116.423 22.9798 116.263 22.9584 116.05C22.8251 116.263 22.6651 116.426 22.4784 116.538C22.2971 116.645 22.0811 116.698 21.8304 116.698C21.4944 116.698 21.2224 116.61 21.0144 116.434C20.8064 116.258 20.7024 115.997 20.7024 115.65C20.7024 115.431 20.7424 115.25 20.8224 115.106C20.9024 114.957 21.0224 114.831 21.1824 114.73C21.3424 114.629 21.5398 114.533 21.7744 114.442L22.9184 113.994C22.8971 113.77 22.8118 113.615 22.6624 113.53C22.5184 113.445 22.3451 113.402 22.1424 113.402C21.9291 113.402 21.7478 113.447 21.5984 113.538C21.4544 113.623 21.3664 113.759 21.3344 113.946H20.7344C20.7718 113.663 20.8598 113.434 20.9984 113.258C21.1371 113.082 21.3078 112.951 21.5104 112.866C21.7131 112.781 21.9238 112.738 22.1424 112.738C22.5744 112.738 22.9184 112.853 23.1744 113.082C23.4304 113.306 23.5558 113.658 23.5504 114.138L23.5344 115.618C23.5344 115.773 23.5558 115.879 23.5984 115.938C23.6411 115.997 23.7104 116.026 23.8064 116.026H23.9584V116.666C23.9051 116.671 23.8464 116.674 23.7824 116.674C23.7238 116.679 23.6678 116.682 23.6144 116.682ZM21.3424 115.538C21.3424 115.714 21.4011 115.845 21.5184 115.93C21.6411 116.01 21.8091 116.05 22.0224 116.05C22.2144 116.05 22.3878 116.023 22.5424 115.97C22.6971 115.911 22.8171 115.834 22.9024 115.738L22.9184 114.482L22.2064 114.77C21.8971 114.893 21.6758 115.007 21.5424 115.114C21.4091 115.221 21.3424 115.362 21.3424 115.538ZM24.1449 112.802H27.2649V113.458H26.0249V116.666H25.3849V113.458H24.1449V112.802ZM29.5352 112.738C29.9139 112.738 30.2419 112.826 30.5192 113.002C30.8019 113.178 31.0205 113.418 31.1752 113.722C31.3352 114.021 31.4152 114.357 31.4152 114.73C31.4152 115.103 31.3352 115.442 31.1752 115.746C31.0205 116.045 30.8019 116.285 30.5192 116.466C30.2419 116.642 29.9139 116.73 29.5352 116.73C29.1619 116.73 28.8339 116.642 28.5512 116.466C28.2685 116.285 28.0472 116.045 27.8872 115.746C27.7325 115.442 27.6552 115.103 27.6552 114.73C27.6552 114.357 27.7325 114.021 27.8872 113.722C28.0472 113.418 28.2685 113.178 28.5512 113.002C28.8339 112.826 29.1619 112.738 29.5352 112.738ZM29.5352 113.426C29.1619 113.426 28.8632 113.546 28.6392 113.786C28.4152 114.026 28.3032 114.341 28.3032 114.73C28.3032 115.119 28.4152 115.437 28.6392 115.682C28.8632 115.922 29.1619 116.042 29.5352 116.042C29.9085 116.042 30.2072 115.922 30.4312 115.682C30.6552 115.437 30.7672 115.119 30.7672 114.73C30.7672 114.341 30.6552 114.026 30.4312 113.786C30.2072 113.546 29.9085 113.426 29.5352 113.426ZM32.8471 113.474C32.9698 113.223 33.1351 113.039 33.3431 112.922C33.5511 112.799 33.8125 112.738 34.1271 112.738C34.4951 112.738 34.8125 112.823 35.0791 112.994C35.3458 113.159 35.5485 113.391 35.6871 113.69C35.8311 113.983 35.9031 114.319 35.9031 114.698C35.9031 115.077 35.8311 115.421 35.6871 115.73C35.5485 116.034 35.3458 116.277 35.0791 116.458C34.8178 116.639 34.5031 116.73 34.1351 116.73C33.8471 116.73 33.5991 116.679 33.3911 116.578C33.1831 116.471 33.0125 116.306 32.8791 116.082V118.266H32.2391V112.802H32.8471V113.474ZM34.0231 116.058C34.4391 116.058 34.7485 115.93 34.9511 115.674C35.1538 115.418 35.2551 115.093 35.2551 114.698C35.2551 114.303 35.1511 113.991 34.9431 113.762C34.7405 113.527 34.4311 113.41 34.0151 113.41C33.7325 113.41 33.4951 113.453 33.3031 113.538C33.1111 113.618 32.9698 113.751 32.8791 113.938V115.546C32.9698 115.727 33.1111 115.858 33.3031 115.938C33.5005 116.018 33.7405 116.058 34.0231 116.058Z" fill="#1E2020"/>
<path d="M2.224 173.894H6.272V174.638H4.584V179.334H3.912V174.638H2.224V173.894ZM7.26975 175.47V178.286L9.13375 175.47H9.75775V179.334H9.11775V176.47L7.22175 179.334H6.62975V175.47H7.26975ZM11.4729 175.47V178.686H12.8969V175.47H13.5369V178.686H14.9609V175.47H15.6009V179.334H10.8329V175.47H11.4729ZM17.3166 175.47V178.286L19.1806 175.47H19.8046V179.334H19.1646V176.47L17.2686 179.334H16.6766V175.47H17.3166ZM23.3038 179.334V177.654H21.5197V179.334H20.8798V175.47H21.5197V177.006H23.3038V175.47H23.9438V179.334H23.3038ZM27.6926 179.35C27.5112 179.35 27.3619 179.299 27.2446 179.198C27.1272 179.091 27.0579 178.931 27.0366 178.718C26.9032 178.931 26.7432 179.094 26.5566 179.206C26.3752 179.313 26.1592 179.366 25.9086 179.366C25.5726 179.366 25.3006 179.278 25.0926 179.102C24.8846 178.926 24.7806 178.665 24.7806 178.318C24.7806 178.099 24.8206 177.918 24.9006 177.774C24.9806 177.625 25.1006 177.499 25.2606 177.398C25.4206 177.297 25.6179 177.201 25.8526 177.11L26.9966 176.662C26.9752 176.438 26.8899 176.283 26.7406 176.198C26.5966 176.113 26.4232 176.07 26.2206 176.07C26.0072 176.07 25.8259 176.115 25.6766 176.206C25.5326 176.291 25.4446 176.427 25.4126 176.614H24.8126C24.8499 176.331 24.9379 176.102 25.0766 175.926C25.2152 175.75 25.3859 175.619 25.5886 175.534C25.7912 175.449 26.0019 175.406 26.2206 175.406C26.6526 175.406 26.9966 175.521 27.2526 175.75C27.5086 175.974 27.6339 176.326 27.6286 176.806L27.6126 178.286C27.6126 178.441 27.6339 178.547 27.6766 178.606C27.7192 178.665 27.7886 178.694 27.8846 178.694H28.0366V179.334C27.9832 179.339 27.9246 179.342 27.8606 179.342C27.8019 179.347 27.7459 179.35 27.6926 179.35ZM25.4206 178.206C25.4206 178.382 25.4792 178.513 25.5966 178.598C25.7192 178.678 25.8872 178.718 26.1006 178.718C26.2926 178.718 26.4659 178.691 26.6206 178.638C26.7752 178.579 26.8952 178.502 26.9806 178.406L26.9966 177.15L26.2846 177.438C25.9752 177.561 25.7539 177.675 25.6206 177.782C25.4872 177.889 25.4206 178.03 25.4206 178.206Z" fill="#1E2020"/>
</svg>
