<svg width="271" height="239" viewBox="0 0 271 239" fill="none" xmlns="http://www.w3.org/2000/svg">
<line y1="-0.25" x2="202" y2="-0.25" transform="matrix(0 -1 -1 0 248 210)" stroke="#CACACA" stroke-width="0.5"/>
<line y1="-0.25" x2="202" y2="-0.25" transform="matrix(0 -1 -1 0 226.667 210)" stroke="#CACACA" stroke-width="0.5"/>
<line y1="-0.25" x2="202" y2="-0.25" transform="matrix(0 -1 -1 0 205.333 210)" stroke="#CACACA" stroke-width="0.5"/>
<line y1="-0.25" x2="202" y2="-0.25" transform="matrix(0 -1 -1 0 184 210)" stroke="#CACACA" stroke-width="0.5"/>
<line y1="-0.25" x2="202" y2="-0.25" transform="matrix(0 -1 -1 0 162.667 210)" stroke="#CACACA" stroke-width="0.5"/>
<line y1="-0.25" x2="202" y2="-0.25" transform="matrix(0 -1 -1 0 141.333 210)" stroke="#CACACA" stroke-width="0.5"/>
<line y1="-0.25" x2="202" y2="-0.25" transform="matrix(0 -1 -1 0 120 210)" stroke="#CACACA" stroke-width="0.5"/>
<line y1="-0.25" x2="202" y2="-0.25" transform="matrix(0 -1 -1 0 98.6665 210)" stroke="#CACACA" stroke-width="0.5"/>
<line y1="-0.25" x2="202" y2="-0.25" transform="matrix(0 -1 -1 0 77.3335 210)" stroke="#CACACA" stroke-width="0.5"/>
<line y1="-0.25" x2="202" y2="-0.25" transform="matrix(0 -1 -1 0 56 210)" stroke="#CACACA" stroke-width="0.5"/>
<line y1="-0.25" x2="204" y2="-0.25" transform="matrix(-1 0 0 1 260 18)" stroke="#CACACA" stroke-width="0.5"/>
<path d="M246.048 51.824H245.36V53H244.688V51.824H242.224V51.224L244.784 47.56H245.36V51.144H246.048V51.824ZM242.936 51.144H244.688V48.6L242.936 51.144ZM248.48 52.368C248.811 52.368 249.083 52.2773 249.296 52.096C249.515 51.9093 249.624 51.6453 249.624 51.304C249.624 50.9947 249.523 50.7493 249.32 50.568C249.123 50.3813 248.861 50.288 248.536 50.288C248.397 50.288 248.267 50.304 248.144 50.336C248.027 50.3627 247.925 50.3973 247.84 50.44L247.6 50.048L249.352 48.288H246.936V47.56H249.976V48.384L248.608 49.744C248.619 49.7387 248.632 49.736 248.648 49.736C248.664 49.736 248.677 49.736 248.688 49.736C249.184 49.736 249.576 49.8853 249.864 50.184C250.152 50.4773 250.296 50.8507 250.296 51.304C250.296 51.5867 250.248 51.84 250.152 52.064C250.061 52.288 249.936 52.4773 249.776 52.632C249.616 52.7813 249.421 52.896 249.192 52.976C248.968 53.056 248.725 53.096 248.464 53.096C247.947 53.096 247.52 52.9467 247.184 52.648C246.853 52.344 246.661 51.936 246.608 51.424H247.216C247.285 51.744 247.429 51.9813 247.648 52.136C247.872 52.2907 248.149 52.368 248.48 52.368ZM254.05 50.456C253.703 50.456 253.421 50.3387 253.202 50.104C252.983 49.8693 252.874 49.4933 252.874 48.976C252.874 48.464 252.983 48.088 253.202 47.848C253.421 47.608 253.703 47.488 254.05 47.488C254.397 47.488 254.679 47.608 254.898 47.848C255.117 48.088 255.226 48.464 255.226 48.976C255.226 49.488 255.117 49.864 254.898 50.104C254.679 50.3387 254.397 50.456 254.05 50.456ZM256.554 47.56H257.114L254.722 53H254.162L256.554 47.56ZM254.05 49.784C254.237 49.784 254.389 49.72 254.506 49.592C254.623 49.4587 254.682 49.2533 254.682 48.976C254.682 48.6987 254.623 48.4933 254.506 48.36C254.389 48.2267 254.237 48.16 254.05 48.16C253.863 48.16 253.711 48.2267 253.594 48.36C253.477 48.4933 253.418 48.6987 253.418 48.976C253.418 49.2533 253.477 49.4587 253.594 49.592C253.711 49.72 253.863 49.784 254.05 49.784ZM257.362 53.072C257.015 53.072 256.733 52.9547 256.514 52.72C256.295 52.4853 256.186 52.112 256.186 51.6C256.186 51.088 256.295 50.712 256.514 50.472C256.733 50.232 257.015 50.112 257.362 50.112C257.709 50.112 257.991 50.232 258.21 50.472C258.429 50.712 258.538 51.088 258.538 51.6C258.538 52.112 258.429 52.4853 258.21 52.72C257.991 52.9547 257.709 53.072 257.362 53.072ZM257.362 52.4C257.549 52.4 257.701 52.336 257.818 52.208C257.935 52.08 257.994 51.8773 257.994 51.6C257.994 51.3227 257.935 51.1173 257.818 50.984C257.701 50.8507 257.549 50.784 257.362 50.784C257.175 50.784 257.023 50.8507 256.906 50.984C256.789 51.1173 256.73 51.3227 256.73 51.6C256.73 51.8773 256.789 52.08 256.906 52.208C257.023 52.336 257.175 52.4 257.362 52.4Z" fill="#1E2020"/>
<path opacity="0.9" d="M230 74C232.209 74 234 72.2091 234 70V30C234 27.7909 232.209 26 230 26L56 26V74L230 74Z" fill="#81D650"/>
<line y1="-0.25" x2="204" y2="-0.25" transform="matrix(-1 0 0 1 260 82)" stroke="#CACACA" stroke-width="0.5"/>
<path d="M154.12 113.128C154.12 112.867 154.032 112.648 153.856 112.472C153.685 112.291 153.44 112.2 153.12 112.2C152.779 112.2 152.507 112.291 152.304 112.472C152.101 112.648 151.979 112.909 151.936 113.256H151.328C151.36 112.915 151.448 112.611 151.592 112.344C151.741 112.072 151.947 111.859 152.208 111.704C152.469 111.544 152.781 111.464 153.144 111.464C153.501 111.464 153.8 111.536 154.04 111.68C154.285 111.819 154.472 112.011 154.6 112.256C154.728 112.501 154.792 112.779 154.792 113.088C154.792 113.328 154.755 113.541 154.68 113.728C154.605 113.909 154.496 114.083 154.352 114.248C154.208 114.413 154.027 114.584 153.808 114.76C153.589 114.936 153.336 115.133 153.048 115.352C152.835 115.512 152.643 115.667 152.472 115.816C152.307 115.965 152.187 116.117 152.112 116.272H154.792V117H151.4V116.552C151.4 116.328 151.459 116.123 151.576 115.936C151.699 115.744 151.856 115.563 152.048 115.392C152.245 115.221 152.451 115.056 152.664 114.896C152.963 114.667 153.221 114.461 153.44 114.28C153.659 114.093 153.827 113.909 153.944 113.728C154.061 113.541 154.12 113.341 154.12 113.128ZM157.579 111.464C158.011 111.464 158.371 111.581 158.659 111.816C158.952 112.051 159.171 112.381 159.315 112.808C159.464 113.229 159.539 113.72 159.539 114.28C159.539 114.84 159.464 115.333 159.315 115.76C159.171 116.181 158.952 116.509 158.659 116.744C158.371 116.979 158.011 117.096 157.579 117.096C157.147 117.096 156.784 116.979 156.491 116.744C156.198 116.509 155.976 116.181 155.827 115.76C155.683 115.333 155.611 114.84 155.611 114.28C155.611 113.72 155.683 113.229 155.827 112.808C155.976 112.381 156.198 112.051 156.491 111.816C156.784 111.581 157.147 111.464 157.579 111.464ZM157.579 112.208C157.163 112.208 156.843 112.373 156.619 112.704C156.395 113.035 156.283 113.56 156.283 114.28C156.283 115 156.395 115.525 156.619 115.856C156.843 116.187 157.163 116.352 157.579 116.352C157.995 116.352 158.312 116.187 158.531 115.856C158.755 115.525 158.867 115 158.867 114.28C158.867 113.56 158.755 113.035 158.531 112.704C158.312 112.373 157.995 112.208 157.579 112.208ZM163.41 114.456C163.063 114.456 162.78 114.339 162.562 114.104C162.343 113.869 162.234 113.493 162.234 112.976C162.234 112.464 162.343 112.088 162.562 111.848C162.78 111.608 163.063 111.488 163.41 111.488C163.756 111.488 164.039 111.608 164.258 111.848C164.476 112.088 164.586 112.464 164.586 112.976C164.586 113.488 164.476 113.864 164.258 114.104C164.039 114.339 163.756 114.456 163.41 114.456ZM165.914 111.56H166.474L164.082 117H163.522L165.914 111.56ZM163.41 113.784C163.596 113.784 163.748 113.72 163.866 113.592C163.983 113.459 164.042 113.253 164.042 112.976C164.042 112.699 163.983 112.493 163.866 112.36C163.748 112.227 163.596 112.16 163.41 112.16C163.223 112.16 163.071 112.227 162.954 112.36C162.836 112.493 162.778 112.699 162.778 112.976C162.778 113.253 162.836 113.459 162.954 113.592C163.071 113.72 163.223 113.784 163.41 113.784ZM166.722 117.072C166.375 117.072 166.092 116.955 165.874 116.72C165.655 116.485 165.546 116.112 165.546 115.6C165.546 115.088 165.655 114.712 165.874 114.472C166.092 114.232 166.375 114.112 166.722 114.112C167.068 114.112 167.351 114.232 167.57 114.472C167.788 114.712 167.898 115.088 167.898 115.6C167.898 116.112 167.788 116.485 167.57 116.72C167.351 116.955 167.068 117.072 166.722 117.072ZM166.722 116.4C166.908 116.4 167.06 116.336 167.178 116.208C167.295 116.08 167.354 115.877 167.354 115.6C167.354 115.323 167.295 115.117 167.178 114.984C167.06 114.851 166.908 114.784 166.722 114.784C166.535 114.784 166.383 114.851 166.266 114.984C166.148 115.117 166.09 115.323 166.09 115.6C166.09 115.877 166.148 116.08 166.266 116.208C166.383 116.336 166.535 116.4 166.722 116.4Z" fill="#1E2020"/>
<path opacity="0.9" d="M139 138C141.209 138 143 136.209 143 134V94C143 91.7909 141.209 90 139 90H56V138H139Z" fill="#FFB253"/>
<line y1="-0.25" x2="204" y2="-0.25" transform="matrix(-1 0 0 1 260 146)" stroke="#CACACA" stroke-width="0.5"/>
<path d="M225.152 180.368C225.483 180.368 225.755 180.277 225.968 180.096C226.187 179.909 226.296 179.645 226.296 179.304C226.296 178.995 226.195 178.749 225.992 178.568C225.795 178.381 225.533 178.288 225.208 178.288C225.069 178.288 224.939 178.304 224.816 178.336C224.699 178.363 224.597 178.397 224.512 178.44L224.272 178.048L226.024 176.288H223.608V175.56H226.648V176.384L225.28 177.744C225.291 177.739 225.304 177.736 225.32 177.736C225.336 177.736 225.349 177.736 225.36 177.736C225.856 177.736 226.248 177.885 226.536 178.184C226.824 178.477 226.968 178.851 226.968 179.304C226.968 179.587 226.92 179.84 226.824 180.064C226.733 180.288 226.608 180.477 226.448 180.632C226.288 180.781 226.093 180.896 225.864 180.976C225.64 181.056 225.397 181.096 225.136 181.096C224.619 181.096 224.192 180.947 223.856 180.648C223.525 180.344 223.333 179.936 223.28 179.424H223.888C223.957 179.744 224.101 179.981 224.32 180.136C224.544 180.291 224.821 180.368 225.152 180.368ZM227.87 181L230.006 176.304H227.438V175.56H230.694V176.264L228.542 181H227.87ZM234.527 178.456C234.18 178.456 233.897 178.339 233.679 178.104C233.46 177.869 233.351 177.493 233.351 176.976C233.351 176.464 233.46 176.088 233.679 175.848C233.897 175.608 234.18 175.488 234.527 175.488C234.873 175.488 235.156 175.608 235.375 175.848C235.593 176.088 235.703 176.464 235.703 176.976C235.703 177.488 235.593 177.864 235.375 178.104C235.156 178.339 234.873 178.456 234.527 178.456ZM237.031 175.56H237.591L235.199 181H234.639L237.031 175.56ZM234.527 177.784C234.713 177.784 234.865 177.72 234.983 177.592C235.1 177.459 235.159 177.253 235.159 176.976C235.159 176.699 235.1 176.493 234.983 176.36C234.865 176.227 234.713 176.16 234.527 176.16C234.34 176.16 234.188 176.227 234.071 176.36C233.953 176.493 233.895 176.699 233.895 176.976C233.895 177.253 233.953 177.459 234.071 177.592C234.188 177.72 234.34 177.784 234.527 177.784ZM237.839 181.072C237.492 181.072 237.209 180.955 236.991 180.72C236.772 180.485 236.663 180.112 236.663 179.6C236.663 179.088 236.772 178.712 236.991 178.472C237.209 178.232 237.492 178.112 237.839 178.112C238.185 178.112 238.468 178.232 238.687 178.472C238.905 178.712 239.015 179.088 239.015 179.6C239.015 180.112 238.905 180.485 238.687 180.72C238.468 180.955 238.185 181.072 237.839 181.072ZM237.839 180.4C238.025 180.4 238.177 180.336 238.295 180.208C238.412 180.08 238.471 179.877 238.471 179.6C238.471 179.323 238.412 179.117 238.295 178.984C238.177 178.851 238.025 178.784 237.839 178.784C237.652 178.784 237.5 178.851 237.383 178.984C237.265 179.117 237.207 179.323 237.207 179.6C237.207 179.877 237.265 180.08 237.383 180.208C237.5 180.336 237.652 180.4 237.839 180.4Z" fill="#1E2020"/>
<path opacity="0.9" d="M211 202C213.209 202 215 200.209 215 198V158C215 155.791 213.209 154 211 154H56V202H211Z" fill="#53B2FF"/>
<line y1="-0.25" x2="204" y2="-0.25" transform="matrix(-1 0 0 1 260 210)" stroke="#C2C2C2" stroke-width="0.5"/>
<path d="M58.6414 218.464C59.0734 218.464 59.4334 218.581 59.7214 218.816C60.0148 219.051 60.2334 219.381 60.3774 219.808C60.5268 220.229 60.6014 220.72 60.6014 221.28C60.6014 221.84 60.5268 222.333 60.3774 222.76C60.2334 223.181 60.0148 223.509 59.7214 223.744C59.4334 223.979 59.0734 224.096 58.6414 224.096C58.2094 224.096 57.8468 223.979 57.5534 223.744C57.2601 223.509 57.0388 223.181 56.8894 222.76C56.7454 222.333 56.6734 221.84 56.6734 221.28C56.6734 220.72 56.7454 220.229 56.8894 219.808C57.0388 219.381 57.2601 219.051 57.5534 218.816C57.8468 218.581 58.2094 218.464 58.6414 218.464ZM58.6414 219.208C58.2254 219.208 57.9054 219.373 57.6814 219.704C57.4574 220.035 57.3454 220.56 57.3454 221.28C57.3454 222 57.4574 222.525 57.6814 222.856C57.9054 223.187 58.2254 223.352 58.6414 223.352C59.0574 223.352 59.3748 223.187 59.5934 222.856C59.8174 222.525 59.9294 222 59.9294 221.28C59.9294 220.56 59.8174 220.035 59.5934 219.704C59.3748 219.373 59.0574 219.208 58.6414 219.208Z" fill="#1E2020"/>
<path d="M75.5897 218.56H78.1577V219.288H76.0457L75.8297 220.808C75.9471 220.723 76.0911 220.659 76.2617 220.616C76.4324 220.568 76.6191 220.544 76.8217 220.544C77.1737 220.544 77.4777 220.613 77.7337 220.752C77.9951 220.891 78.1951 221.091 78.3337 221.352C78.4777 221.608 78.5497 221.915 78.5497 222.272C78.5497 222.629 78.4724 222.947 78.3177 223.224C78.1631 223.496 77.9471 223.709 77.6697 223.864C77.3977 224.019 77.0831 224.096 76.7257 224.096C76.4057 224.096 76.1177 224.032 75.8617 223.904C75.6111 223.776 75.4057 223.595 75.2457 223.36C75.0911 223.12 74.9951 222.843 74.9577 222.528H75.5657C75.6404 222.795 75.7764 223.003 75.9737 223.152C76.1764 223.296 76.4324 223.368 76.7417 223.368C77.0564 223.368 77.3231 223.275 77.5417 223.088C77.7657 222.901 77.8777 222.624 77.8777 222.256C77.8777 221.888 77.7711 221.605 77.5577 221.408C77.3444 221.211 77.0671 221.112 76.7257 221.112C76.5124 221.112 76.3124 221.144 76.1257 221.208C75.9391 221.272 75.7764 221.376 75.6377 221.52L75.1897 221.352L75.5897 218.56Z" fill="#1E2020"/>
<path d="M94.8113 223.288H95.7473V224H93.1553V223.288H94.1393V219.624L92.9153 220.272V219.512L94.8113 218.512V223.288ZM98.4193 218.464C98.8513 218.464 99.2113 218.581 99.4993 218.816C99.7926 219.051 100.011 219.381 100.155 219.808C100.305 220.229 100.379 220.72 100.379 221.28C100.379 221.84 100.305 222.333 100.155 222.76C100.011 223.181 99.7926 223.509 99.4993 223.744C99.2113 223.979 98.8513 224.096 98.4193 224.096C97.9873 224.096 97.6246 223.979 97.3313 223.744C97.0379 223.509 96.8166 223.181 96.6673 222.76C96.5233 222.333 96.4513 221.84 96.4513 221.28C96.4513 220.72 96.5233 220.229 96.6673 219.808C96.8166 219.381 97.0379 219.051 97.3313 218.816C97.6246 218.581 97.9873 218.464 98.4193 218.464ZM98.4193 219.208C98.0033 219.208 97.6833 219.373 97.4593 219.704C97.2353 220.035 97.1233 220.56 97.1233 221.28C97.1233 222 97.2353 222.525 97.4593 222.856C97.6833 223.187 98.0033 223.352 98.4193 223.352C98.8353 223.352 99.1526 223.187 99.3713 222.856C99.5953 222.525 99.7073 222 99.7073 221.28C99.7073 220.56 99.5953 220.035 99.3713 219.704C99.1526 219.373 98.8353 219.208 98.4193 219.208Z" fill="#1E2020"/>
<path d="M116.098 223.288H117.034V224H114.442V223.288H115.426V219.624L114.202 220.272V219.512L116.098 218.512V223.288ZM118.368 218.56H120.936V219.288H118.824L118.608 220.808C118.725 220.723 118.869 220.659 119.04 220.616C119.21 220.568 119.397 220.544 119.6 220.544C119.952 220.544 120.256 220.613 120.512 220.752C120.773 220.891 120.973 221.091 121.112 221.352C121.256 221.608 121.328 221.915 121.328 222.272C121.328 222.629 121.25 222.947 121.096 223.224C120.941 223.496 120.725 223.709 120.448 223.864C120.176 224.019 119.861 224.096 119.504 224.096C119.184 224.096 118.896 224.032 118.64 223.904C118.389 223.776 118.184 223.595 118.024 223.36C117.869 223.12 117.773 222.843 117.736 222.528H118.344C118.418 222.795 118.554 223.003 118.752 223.152C118.954 223.296 119.21 223.368 119.52 223.368C119.834 223.368 120.101 223.275 120.32 223.088C120.544 222.901 120.656 222.624 120.656 222.256C120.656 221.888 120.549 221.605 120.336 221.408C120.122 221.211 119.845 221.112 119.504 221.112C119.29 221.112 119.09 221.144 118.904 221.208C118.717 221.272 118.554 221.376 118.416 221.52L117.968 221.352L118.368 218.56Z" fill="#1E2020"/>
<path d="M138.578 220.128C138.578 219.867 138.49 219.648 138.314 219.472C138.143 219.291 137.898 219.2 137.578 219.2C137.237 219.2 136.965 219.291 136.762 219.472C136.559 219.648 136.437 219.909 136.394 220.256H135.786C135.818 219.915 135.906 219.611 136.05 219.344C136.199 219.072 136.405 218.859 136.666 218.704C136.927 218.544 137.239 218.464 137.602 218.464C137.959 218.464 138.258 218.536 138.498 218.68C138.743 218.819 138.93 219.011 139.058 219.256C139.186 219.501 139.25 219.779 139.25 220.088C139.25 220.328 139.213 220.541 139.138 220.728C139.063 220.909 138.954 221.083 138.81 221.248C138.666 221.413 138.485 221.584 138.266 221.76C138.047 221.936 137.794 222.133 137.506 222.352C137.293 222.512 137.101 222.667 136.93 222.816C136.765 222.965 136.645 223.117 136.57 223.272H139.25V224H135.858V223.552C135.858 223.328 135.917 223.123 136.034 222.936C136.157 222.744 136.314 222.563 136.506 222.392C136.703 222.221 136.909 222.056 137.122 221.896C137.421 221.667 137.679 221.461 137.898 221.28C138.117 221.093 138.285 220.909 138.402 220.728C138.519 220.541 138.578 220.341 138.578 220.128ZM142.197 218.464C142.629 218.464 142.989 218.581 143.277 218.816C143.57 219.051 143.789 219.381 143.933 219.808C144.082 220.229 144.157 220.72 144.157 221.28C144.157 221.84 144.082 222.333 143.933 222.76C143.789 223.181 143.57 223.509 143.277 223.744C142.989 223.979 142.629 224.096 142.197 224.096C141.765 224.096 141.402 223.979 141.109 223.744C140.816 223.509 140.594 223.181 140.445 222.76C140.301 222.333 140.229 221.84 140.229 221.28C140.229 220.72 140.301 220.229 140.445 219.808C140.594 219.381 140.816 219.051 141.109 218.816C141.402 218.581 141.765 218.464 142.197 218.464ZM142.197 219.208C141.781 219.208 141.461 219.373 141.237 219.704C141.013 220.035 140.901 220.56 140.901 221.28C140.901 222 141.013 222.525 141.237 222.856C141.461 223.187 141.781 223.352 142.197 223.352C142.613 223.352 142.93 223.187 143.149 222.856C143.373 222.525 143.485 222 143.485 221.28C143.485 220.56 143.373 220.035 143.149 219.704C142.93 219.373 142.613 219.208 142.197 219.208Z" fill="#1E2020"/>
<path d="M161.022 220.128C161.022 219.867 160.934 219.648 160.758 219.472C160.587 219.291 160.342 219.2 160.022 219.2C159.68 219.2 159.408 219.291 159.206 219.472C159.003 219.648 158.88 219.909 158.838 220.256H158.23C158.262 219.915 158.35 219.611 158.494 219.344C158.643 219.072 158.848 218.859 159.11 218.704C159.371 218.544 159.683 218.464 160.046 218.464C160.403 218.464 160.702 218.536 160.942 218.68C161.187 218.819 161.374 219.011 161.502 219.256C161.63 219.501 161.694 219.779 161.694 220.088C161.694 220.328 161.656 220.541 161.582 220.728C161.507 220.909 161.398 221.083 161.254 221.248C161.11 221.413 160.928 221.584 160.71 221.76C160.491 221.936 160.238 222.133 159.95 222.352C159.736 222.512 159.544 222.667 159.374 222.816C159.208 222.965 159.088 223.117 159.014 223.272H161.694V224H158.302V223.552C158.302 223.328 158.36 223.123 158.478 222.936C158.6 222.744 158.758 222.563 158.95 222.392C159.147 222.221 159.352 222.056 159.566 221.896C159.864 221.667 160.123 221.461 160.342 221.28C160.56 221.093 160.728 220.909 160.846 220.728C160.963 220.541 161.022 220.341 161.022 220.128ZM163.145 218.56H165.713V219.288H163.601L163.385 220.808C163.503 220.723 163.647 220.659 163.817 220.616C163.988 220.568 164.175 220.544 164.377 220.544C164.729 220.544 165.033 220.613 165.289 220.752C165.551 220.891 165.751 221.091 165.889 221.352C166.033 221.608 166.105 221.915 166.105 222.272C166.105 222.629 166.028 222.947 165.873 223.224C165.719 223.496 165.503 223.709 165.225 223.864C164.953 224.019 164.639 224.096 164.281 224.096C163.961 224.096 163.673 224.032 163.417 223.904C163.167 223.776 162.961 223.595 162.801 223.36C162.647 223.12 162.551 222.843 162.513 222.528H163.121C163.196 222.795 163.332 223.003 163.529 223.152C163.732 223.296 163.988 223.368 164.297 223.368C164.612 223.368 164.879 223.275 165.097 223.088C165.321 222.901 165.433 222.624 165.433 222.256C165.433 221.888 165.327 221.605 165.113 221.408C164.9 221.211 164.623 221.112 164.281 221.112C164.068 221.112 163.868 221.144 163.681 221.208C163.495 221.272 163.332 221.376 163.193 221.52L162.745 221.352L163.145 218.56Z" fill="#1E2020"/>
<path d="M182.349 223.368C182.68 223.368 182.952 223.277 183.165 223.096C183.384 222.909 183.493 222.645 183.493 222.304C183.493 221.995 183.392 221.749 183.189 221.568C182.992 221.381 182.73 221.288 182.405 221.288C182.266 221.288 182.136 221.304 182.013 221.336C181.896 221.363 181.794 221.397 181.709 221.44L181.469 221.048L183.221 219.288H180.805V218.56H183.845V219.384L182.477 220.744C182.488 220.739 182.501 220.736 182.517 220.736C182.533 220.736 182.546 220.736 182.557 220.736C183.053 220.736 183.445 220.885 183.733 221.184C184.021 221.477 184.165 221.851 184.165 222.304C184.165 222.587 184.117 222.84 184.021 223.064C183.93 223.288 183.805 223.477 183.645 223.632C183.485 223.781 183.29 223.896 183.061 223.976C182.837 224.056 182.594 224.096 182.333 224.096C181.816 224.096 181.389 223.947 181.053 223.648C180.722 223.344 180.53 222.936 180.477 222.424H181.085C181.154 222.744 181.298 222.981 181.517 223.136C181.741 223.291 182.018 223.368 182.349 223.368ZM186.975 218.464C187.407 218.464 187.767 218.581 188.055 218.816C188.348 219.051 188.567 219.381 188.711 219.808C188.86 220.229 188.935 220.72 188.935 221.28C188.935 221.84 188.86 222.333 188.711 222.76C188.567 223.181 188.348 223.509 188.055 223.744C187.767 223.979 187.407 224.096 186.975 224.096C186.543 224.096 186.18 223.979 185.887 223.744C185.594 223.509 185.372 223.181 185.223 222.76C185.079 222.333 185.007 221.84 185.007 221.28C185.007 220.72 185.079 220.229 185.223 219.808C185.372 219.381 185.594 219.051 185.887 218.816C186.18 218.581 186.543 218.464 186.975 218.464ZM186.975 219.208C186.559 219.208 186.239 219.373 186.015 219.704C185.791 220.035 185.679 220.56 185.679 221.28C185.679 222 185.791 222.525 186.015 222.856C186.239 223.187 186.559 223.352 186.975 223.352C187.391 223.352 187.708 223.187 187.927 222.856C188.151 222.525 188.263 222 188.263 221.28C188.263 220.56 188.151 220.035 187.927 219.704C187.708 219.373 187.391 219.208 186.975 219.208Z" fill="#1E2020"/>
<path d="M204.753 223.368C205.084 223.368 205.356 223.277 205.569 223.096C205.788 222.909 205.897 222.645 205.897 222.304C205.897 221.995 205.796 221.749 205.593 221.568C205.396 221.381 205.135 221.288 204.809 221.288C204.671 221.288 204.54 221.304 204.417 221.336C204.3 221.363 204.199 221.397 204.113 221.44L203.873 221.048L205.625 219.288H203.209V218.56H206.249V219.384L204.881 220.744C204.892 220.739 204.905 220.736 204.921 220.736C204.937 220.736 204.951 220.736 204.961 220.736C205.457 220.736 205.849 220.885 206.137 221.184C206.425 221.477 206.569 221.851 206.569 222.304C206.569 222.587 206.521 222.84 206.425 223.064C206.335 223.288 206.209 223.477 206.049 223.632C205.889 223.781 205.695 223.896 205.465 223.976C205.241 224.056 204.999 224.096 204.737 224.096C204.22 224.096 203.793 223.947 203.457 223.648C203.127 223.344 202.935 222.936 202.881 222.424H203.489C203.559 222.744 203.703 222.981 203.921 223.136C204.145 223.291 204.423 223.368 204.753 223.368ZM207.923 218.56H210.491V219.288H208.379L208.163 220.808C208.281 220.723 208.425 220.659 208.595 220.616C208.766 220.568 208.953 220.544 209.155 220.544C209.507 220.544 209.811 220.613 210.067 220.752C210.329 220.891 210.529 221.091 210.667 221.352C210.811 221.608 210.883 221.915 210.883 222.272C210.883 222.629 210.806 222.947 210.651 223.224C210.497 223.496 210.281 223.709 210.003 223.864C209.731 224.019 209.417 224.096 209.059 224.096C208.739 224.096 208.451 224.032 208.195 223.904C207.945 223.776 207.739 223.595 207.579 223.36C207.425 223.12 207.329 222.843 207.291 222.528H207.899C207.974 222.795 208.11 223.003 208.307 223.152C208.51 223.296 208.766 223.368 209.075 223.368C209.39 223.368 209.657 223.275 209.875 223.088C210.099 222.901 210.211 222.624 210.211 222.256C210.211 221.888 210.105 221.605 209.891 221.408C209.678 221.211 209.401 221.112 209.059 221.112C208.846 221.112 208.646 221.144 208.459 221.208C208.273 221.272 208.11 221.376 207.971 221.52L207.523 221.352L207.923 218.56Z" fill="#1E2020"/>
<path d="M228.945 222.824H228.257V224H227.585V222.824H225.121V222.224L227.681 218.56H228.257V222.144H228.945V222.824ZM225.833 222.144H227.585V219.6L225.833 222.144ZM231.753 218.464C232.185 218.464 232.545 218.581 232.833 218.816C233.126 219.051 233.345 219.381 233.489 219.808C233.638 220.229 233.713 220.72 233.713 221.28C233.713 221.84 233.638 222.333 233.489 222.76C233.345 223.181 233.126 223.509 232.833 223.744C232.545 223.979 232.185 224.096 231.753 224.096C231.321 224.096 230.958 223.979 230.665 223.744C230.371 223.509 230.15 223.181 230.001 222.76C229.857 222.333 229.785 221.84 229.785 221.28C229.785 220.72 229.857 220.229 230.001 219.808C230.15 219.381 230.371 219.051 230.665 218.816C230.958 218.581 231.321 218.464 231.753 218.464ZM231.753 219.208C231.337 219.208 231.017 219.373 230.793 219.704C230.569 220.035 230.457 220.56 230.457 221.28C230.457 222 230.569 222.525 230.793 222.856C231.017 223.187 231.337 223.352 231.753 223.352C232.169 223.352 232.486 223.187 232.705 222.856C232.929 222.525 233.041 222 233.041 221.28C233.041 220.56 232.929 220.035 232.705 219.704C232.486 219.373 232.169 219.208 231.753 219.208Z" fill="#1E2020"/>
<path d="M251.349 222.824H250.661V224H249.989V222.824H247.525V222.224L250.085 218.56H250.661V222.144H251.349V222.824ZM248.237 222.144H249.989V219.6L248.237 222.144ZM252.701 218.56H255.269V219.288H253.157L252.941 220.808C253.058 220.723 253.202 220.659 253.373 220.616C253.544 220.568 253.73 220.544 253.933 220.544C254.285 220.544 254.589 220.613 254.845 220.752C255.106 220.891 255.306 221.091 255.445 221.352C255.589 221.608 255.661 221.915 255.661 222.272C255.661 222.629 255.584 222.947 255.429 223.224C255.274 223.496 255.058 223.709 254.781 223.864C254.509 224.019 254.194 224.096 253.837 224.096C253.517 224.096 253.229 224.032 252.973 223.904C252.722 223.776 252.517 223.595 252.357 223.36C252.202 223.12 252.106 222.843 252.069 222.528H252.677C252.752 222.795 252.888 223.003 253.085 223.152C253.288 223.296 253.544 223.368 253.853 223.368C254.168 223.368 254.434 223.275 254.653 223.088C254.877 222.901 254.989 222.624 254.989 222.256C254.989 221.888 254.882 221.605 254.669 221.408C254.456 221.211 254.178 221.112 253.837 221.112C253.624 221.112 253.424 221.144 253.237 221.208C253.05 221.272 252.888 221.376 252.749 221.52L252.301 221.352L252.701 218.56Z" fill="#1E2020"/>
<path d="M5.304 54L3.248 51.104V54H2.576V48.56H3.248V51L5.304 48.56H6.056L4.016 50.984L6.168 54H5.304ZM6.32238 53.312C6.35438 53.3173 6.39438 53.3253 6.44238 53.336C6.49571 53.3413 6.55438 53.344 6.61838 53.344C6.79438 53.344 6.92238 53.2267 7.00238 52.992C7.08238 52.7573 7.14904 52.3973 7.20238 51.912C7.22904 51.6453 7.25038 51.368 7.26638 51.08C7.28238 50.792 7.29304 50.4773 7.29838 50.136H9.66638V54H9.02638V50.784H7.84238C7.83704 50.9813 7.82638 51.1893 7.81038 51.408C7.79971 51.6213 7.78638 51.824 7.77038 52.016C7.73304 52.5013 7.67704 52.8933 7.60238 53.192C7.53304 53.4907 7.43171 53.7067 7.29838 53.84C7.16504 53.9733 6.98104 54.04 6.74638 54.04C6.66638 54.04 6.58904 54.0347 6.51438 54.024C6.43971 54.0133 6.37571 53.9973 6.32238 53.976V53.312ZM11.3791 50.136V52.952L13.2431 50.136H13.8671V54H13.2271V51.136L11.3311 54H10.7391V50.136H11.3791ZM18.2063 52.824C18.1476 53.0373 18.0516 53.24 17.9183 53.432C17.7849 53.6187 17.6036 53.7707 17.3743 53.888C17.1449 54.0053 16.8543 54.064 16.5023 54.064C16.1449 54.064 15.8303 53.976 15.5583 53.8C15.2863 53.6187 15.0729 53.376 14.9183 53.072C14.7689 52.768 14.6943 52.432 14.6943 52.064C14.6943 51.6907 14.7689 51.3547 14.9183 51.056C15.0729 50.7573 15.2863 50.52 15.5583 50.344C15.8303 50.1627 16.1449 50.072 16.5023 50.072C16.8703 50.072 17.1876 50.16 17.4543 50.336C17.7209 50.512 17.9263 50.7547 18.0703 51.064C18.2196 51.3733 18.2943 51.7253 18.2943 52.12C18.2943 52.136 18.2943 52.152 18.2943 52.168C18.2943 52.184 18.2943 52.2 18.2943 52.216H15.3423C15.3689 52.5733 15.4836 52.8613 15.6863 53.08C15.8943 53.2987 16.1663 53.408 16.5023 53.408C16.8009 53.408 17.0409 53.3573 17.2223 53.256C17.4036 53.1493 17.5369 53.0053 17.6223 52.824H18.2063ZM16.5023 50.728C16.1769 50.728 15.9156 50.8213 15.7183 51.008C15.5263 51.1893 15.4063 51.4373 15.3583 51.752H17.6303C17.5929 51.4693 17.4836 51.2293 17.3023 51.032C17.1263 50.8293 16.8596 50.728 16.5023 50.728ZM21.5225 54V52.32H19.7385V54H19.0985V50.136H19.7385V51.672H21.5225V50.136H22.1625V54H21.5225ZM22.8793 50.136H25.9993V50.792H24.7593V54H24.1193V50.792H22.8793V50.136Z" fill="#1E2020"/>
<path d="M4.952 116.666V113.45H3.176V116.666H2.536V112.802H5.592V116.666H4.952ZM9.925 115.49C9.86633 115.703 9.77033 115.906 9.637 116.098C9.50367 116.285 9.32233 116.437 9.093 116.554C8.86367 116.671 8.573 116.73 8.221 116.73C7.86367 116.73 7.549 116.642 7.277 116.466C7.005 116.285 6.79167 116.042 6.637 115.738C6.48767 115.434 6.413 115.098 6.413 114.73C6.413 114.357 6.48767 114.021 6.637 113.722C6.79167 113.423 7.005 113.186 7.277 113.01C7.549 112.829 7.86367 112.738 8.221 112.738C8.589 112.738 8.90633 112.826 9.173 113.002C9.43967 113.178 9.645 113.421 9.789 113.73C9.93833 114.039 10.013 114.391 10.013 114.786C10.013 114.802 10.013 114.818 10.013 114.834C10.013 114.85 10.013 114.866 10.013 114.882H7.061C7.08767 115.239 7.20233 115.527 7.405 115.746C7.613 115.965 7.885 116.074 8.221 116.074C8.51967 116.074 8.75967 116.023 8.941 115.922C9.12233 115.815 9.25567 115.671 9.341 115.49H9.925ZM8.221 113.394C7.89567 113.394 7.63433 113.487 7.437 113.674C7.245 113.855 7.125 114.103 7.077 114.418H9.349C9.31167 114.135 9.20233 113.895 9.021 113.698C8.845 113.495 8.57833 113.394 8.221 113.394ZM11.4253 113.474C11.5479 113.223 11.7133 113.039 11.9213 112.922C12.1293 112.799 12.3906 112.738 12.7053 112.738C13.0733 112.738 13.3906 112.823 13.6573 112.994C13.9239 113.159 14.1266 113.391 14.2653 113.69C14.4093 113.983 14.4813 114.319 14.4813 114.698C14.4813 115.077 14.4093 115.421 14.2653 115.73C14.1266 116.034 13.9239 116.277 13.6573 116.458C13.3959 116.639 13.0813 116.73 12.7133 116.73C12.4253 116.73 12.1773 116.679 11.9693 116.578C11.7613 116.471 11.5906 116.306 11.4572 116.082V118.266H10.8173V112.802H11.4253V113.474ZM12.6013 116.058C13.0173 116.058 13.3266 115.93 13.5293 115.674C13.7319 115.418 13.8333 115.093 13.8333 114.698C13.8333 114.303 13.7293 113.991 13.5213 113.762C13.3186 113.527 13.0093 113.41 12.5933 113.41C12.3106 113.41 12.0733 113.453 11.8813 113.538C11.6893 113.618 11.5479 113.751 11.4572 113.938V115.546C11.5479 115.727 11.6893 115.858 11.8813 115.938C12.0786 116.018 12.3186 116.058 12.6013 116.058ZM18.0051 116.682C17.8237 116.682 17.6744 116.631 17.5571 116.53C17.4397 116.423 17.3704 116.263 17.3491 116.05C17.2157 116.263 17.0557 116.426 16.8691 116.538C16.6877 116.645 16.4717 116.698 16.2211 116.698C15.8851 116.698 15.6131 116.61 15.4051 116.434C15.1971 116.258 15.0931 115.997 15.0931 115.65C15.0931 115.431 15.1331 115.25 15.2131 115.106C15.2931 114.957 15.4131 114.831 15.5731 114.73C15.7331 114.629 15.9304 114.533 16.1651 114.442L17.3091 113.994C17.2877 113.77 17.2024 113.615 17.0531 113.53C16.9091 113.445 16.7357 113.402 16.5331 113.402C16.3197 113.402 16.1384 113.447 15.9891 113.538C15.8451 113.623 15.7571 113.759 15.7251 113.946H15.1251C15.1624 113.663 15.2504 113.434 15.3891 113.258C15.5277 113.082 15.6984 112.951 15.9011 112.866C16.1037 112.781 16.3144 112.738 16.5331 112.738C16.9651 112.738 17.3091 112.853 17.5651 113.082C17.8211 113.306 17.9464 113.658 17.9411 114.138L17.9251 115.618C17.9251 115.773 17.9464 115.879 17.9891 115.938C18.0317 115.997 18.1011 116.026 18.1971 116.026H18.3491V116.666C18.2957 116.671 18.2371 116.674 18.1731 116.674C18.1144 116.679 18.0584 116.682 18.0051 116.682ZM15.7331 115.538C15.7331 115.714 15.7917 115.845 15.9091 115.93C16.0317 116.01 16.1997 116.05 16.4131 116.05C16.6051 116.05 16.7784 116.023 16.9331 115.97C17.0877 115.911 17.2077 115.834 17.2931 115.738L17.3091 114.482L16.5971 114.77C16.2877 114.893 16.0664 115.007 15.9331 115.114C15.7997 115.221 15.7331 115.362 15.7331 115.538ZM18.5356 112.802H21.6556V113.458H20.4156V116.666H19.7756V113.458H18.5356V112.802ZM23.9258 112.738C24.3045 112.738 24.6325 112.826 24.9098 113.002C25.1925 113.178 25.4111 113.418 25.5658 113.722C25.7258 114.021 25.8058 114.357 25.8058 114.73C25.8058 115.103 25.7258 115.442 25.5658 115.746C25.4111 116.045 25.1925 116.285 24.9098 116.466C24.6325 116.642 24.3045 116.73 23.9258 116.73C23.5525 116.73 23.2245 116.642 22.9418 116.466C22.6591 116.285 22.4378 116.045 22.2778 115.746C22.1231 115.442 22.0458 115.103 22.0458 114.73C22.0458 114.357 22.1231 114.021 22.2778 113.722C22.4378 113.418 22.6591 113.178 22.9418 113.002C23.2245 112.826 23.5525 112.738 23.9258 112.738ZM23.9258 113.426C23.5525 113.426 23.2538 113.546 23.0298 113.786C22.8058 114.026 22.6938 114.341 22.6938 114.73C22.6938 115.119 22.8058 115.437 23.0298 115.682C23.2538 115.922 23.5525 116.042 23.9258 116.042C24.2991 116.042 24.5978 115.922 24.8218 115.682C25.0458 115.437 25.1578 115.119 25.1578 114.73C25.1578 114.341 25.0458 114.026 24.8218 113.786C24.5978 113.546 24.2991 113.426 23.9258 113.426ZM27.2378 113.474C27.3604 113.223 27.5258 113.039 27.7338 112.922C27.9418 112.799 28.2031 112.738 28.5178 112.738C28.8858 112.738 29.2031 112.823 29.4698 112.994C29.7364 113.159 29.9391 113.391 30.0778 113.69C30.2218 113.983 30.2938 114.319 30.2938 114.698C30.2938 115.077 30.2218 115.421 30.0778 115.73C29.9391 116.034 29.7364 116.277 29.4698 116.458C29.2084 116.639 28.8938 116.73 28.5258 116.73C28.2378 116.73 27.9898 116.679 27.7818 116.578C27.5738 116.471 27.4031 116.306 27.2697 116.082V118.266H26.6298V112.802H27.2378V113.474ZM28.4138 116.058C28.8298 116.058 29.1391 115.93 29.3418 115.674C29.5444 115.418 29.6458 115.093 29.6458 114.698C29.6458 114.303 29.5418 113.991 29.3338 113.762C29.1311 113.527 28.8218 113.41 28.4058 113.41C28.1231 113.41 27.8858 113.453 27.6938 113.538C27.5018 113.618 27.3604 113.751 27.2697 113.938V115.546C27.3604 115.727 27.5018 115.858 27.6938 115.938C27.8911 116.018 28.1311 116.058 28.4138 116.058Z" fill="#1E2020"/>
<path d="M2.224 173.894H6.272V174.638H4.584V179.334H3.912V174.638H2.224V173.894ZM7.26975 175.47V178.286L9.13375 175.47H9.75775V179.334H9.11775V176.47L7.22175 179.334H6.62975V175.47H7.26975ZM11.4729 175.47V178.686H12.8969V175.47H13.5369V178.686H14.9609V175.47H15.6009V179.334H10.8329V175.47H11.4729ZM17.3166 175.47V178.286L19.1806 175.47H19.8046V179.334H19.1646V176.47L17.2686 179.334H16.6766V175.47H17.3166ZM23.3038 179.334V177.654H21.5197V179.334H20.8798V175.47H21.5197V177.006H23.3038V175.47H23.9438V179.334H23.3038ZM27.6926 179.35C27.5112 179.35 27.3619 179.299 27.2446 179.198C27.1272 179.091 27.0579 178.931 27.0366 178.718C26.9032 178.931 26.7432 179.094 26.5566 179.206C26.3752 179.313 26.1592 179.366 25.9086 179.366C25.5726 179.366 25.3006 179.278 25.0926 179.102C24.8846 178.926 24.7806 178.665 24.7806 178.318C24.7806 178.099 24.8206 177.918 24.9006 177.774C24.9806 177.625 25.1006 177.499 25.2606 177.398C25.4206 177.297 25.6179 177.201 25.8526 177.11L26.9966 176.662C26.9752 176.438 26.8899 176.283 26.7406 176.198C26.5966 176.113 26.4232 176.07 26.2206 176.07C26.0072 176.07 25.8259 176.115 25.6766 176.206C25.5326 176.291 25.4446 176.427 25.4126 176.614H24.8126C24.8499 176.331 24.9379 176.102 25.0766 175.926C25.2152 175.75 25.3859 175.619 25.5886 175.534C25.7912 175.449 26.0019 175.406 26.2206 175.406C26.6526 175.406 26.9966 175.521 27.2526 175.75C27.5086 175.974 27.6339 176.326 27.6286 176.806L27.6126 178.286C27.6126 178.441 27.6339 178.547 27.6766 178.606C27.7192 178.665 27.7886 178.694 27.8846 178.694H28.0366V179.334C27.9832 179.339 27.9246 179.342 27.8606 179.342C27.8019 179.347 27.7459 179.35 27.6926 179.35ZM25.4206 178.206C25.4206 178.382 25.4792 178.513 25.5966 178.598C25.7192 178.678 25.8872 178.718 26.1006 178.718C26.2926 178.718 26.4659 178.691 26.6206 178.638C26.7752 178.579 26.8952 178.502 26.9806 178.406L26.9966 177.15L26.2846 177.438C25.9752 177.561 25.7539 177.675 25.6206 177.782C25.4872 177.889 25.4206 178.03 25.4206 178.206Z" fill="#1E2020"/>
</svg>
