<svg width="279" height="252" viewBox="0 0 279 252" fill="none" xmlns="http://www.w3.org/2000/svg">
<line y1="-0.25" x2="202" y2="-0.25" transform="matrix(0 -1 -1 0 256.193 210.163)" stroke="#CACACA" stroke-width="0.5"/>
<line y1="-0.25" x2="202" y2="-0.25" transform="matrix(0 -1 -1 0 236.993 210.163)" stroke="#CACACA" stroke-width="0.5"/>
<line y1="-0.25" x2="202" y2="-0.25" transform="matrix(0 -1 -1 0 217.793 210.163)" stroke="#CACACA" stroke-width="0.5"/>
<line y1="-0.25" x2="202" y2="-0.25" transform="matrix(0 -1 -1 0 198.593 210.163)" stroke="#CACACA" stroke-width="0.5"/>
<line y1="-0.25" x2="202" y2="-0.25" transform="matrix(0 -1 -1 0 179.393 210.163)" stroke="#CACACA" stroke-width="0.5"/>
<line y1="-0.25" x2="202" y2="-0.25" transform="matrix(0 -1 -1 0 160.193 210.163)" stroke="#CACACA" stroke-width="0.5"/>
<line y1="-0.25" x2="202" y2="-0.25" transform="matrix(0 -1 -1 0 140.993 210.163)" stroke="#CACACA" stroke-width="0.5"/>
<line y1="-0.25" x2="202" y2="-0.25" transform="matrix(0 -1 -1 0 121.793 210.163)" stroke="#CACACA" stroke-width="0.5"/>
<line y1="-0.25" x2="202" y2="-0.25" transform="matrix(0 -1 -1 0 102.593 210.163)" stroke="#CACACA" stroke-width="0.5"/>
<line y1="-0.25" x2="202" y2="-0.25" transform="matrix(0 -1 -1 0 83.3929 210.163)" stroke="#CACACA" stroke-width="0.5"/>
<line y1="-0.25" x2="202" y2="-0.25" transform="matrix(0 -1 -1 0 64.1929 210.163)" stroke="#CACACA" stroke-width="0.5"/>
<line y1="-0.25" x2="204" y2="-0.25" transform="matrix(-1 0 0 1 268.193 18.1633)" stroke="#CACACA" stroke-width="0.5"/>
<path d="M113.449 52.4513H114.385V53.1633H111.793V52.4513H112.777V48.7873L111.553 49.4353V48.6753L113.449 47.6753V52.4513Z" fill="#1E2020"/>
<path opacity="0.9" d="M99.1929 74.1633C101.402 74.1633 103.193 72.3724 103.193 70.1633V30.1633C103.193 27.9541 101.402 26.1633 99.1929 26.1633H64.1929V74.1633H99.1929Z" fill="#A0D911"/>
<line y1="-0.25" x2="204" y2="-0.25" transform="matrix(-1 0 0 1 268.193 82.1633)" stroke="#CACACA" stroke-width="0.5"/>
<path d="M261.241 115.987H260.553V117.163H259.881V115.987H257.417V115.387L259.977 111.723H260.553V115.307H261.241V115.987ZM258.129 115.307H259.881V112.763L258.129 115.307ZM261.705 118.091C261.822 117.969 261.932 117.833 262.033 117.683C262.134 117.539 262.212 117.393 262.265 117.243C262.126 117.233 262.02 117.185 261.945 117.099C261.87 117.014 261.833 116.902 261.833 116.763C261.833 116.609 261.884 116.483 261.985 116.387C262.086 116.291 262.204 116.243 262.337 116.243C262.476 116.243 262.593 116.294 262.689 116.395C262.785 116.497 262.833 116.635 262.833 116.811C262.833 116.966 262.806 117.118 262.753 117.267C262.7 117.422 262.612 117.582 262.489 117.747C262.372 117.918 262.206 118.11 261.993 118.323L261.705 118.091ZM263.766 117.163L265.902 112.467H263.334V111.723H266.59V112.427L264.438 117.163H263.766Z" fill="#1E2020"/>
<path opacity="0.9" d="M245.193 138.163C247.402 138.163 249.193 136.372 249.193 134.163V94.1633C249.193 91.9541 247.402 90.1633 245.193 90.1633L64.1929 90.1633V138.163H245.193Z" fill="#FFA940"/>
<line y1="-0.25" x2="204" y2="-0.25" transform="matrix(-1 0 0 1 268.193 146.163)" stroke="#CACACA" stroke-width="0.5"/>
<path d="M230.241 179.987H229.553V181.163H228.881V179.987H226.417V179.387L228.977 175.723H229.553V179.307H230.241V179.987ZM227.129 179.307H228.881V176.763L227.129 179.307Z" fill="#1E2020"/>
<path opacity="0.9" d="M214.193 202.163C216.402 202.163 218.193 200.372 218.193 198.163V158.163C218.193 155.954 216.402 154.163 214.193 154.163H64.1929V202.163H214.193Z" fill="#69C0FF"/>
<line y1="-0.25" x2="204" y2="-0.25" transform="matrix(-1 0 0 1 268.193 210.163)" stroke="#C2C2C2" stroke-width="0.5"/>
<path d="M66.8344 218.627C67.2664 218.627 67.6264 218.745 67.9144 218.979C68.2077 219.214 68.4264 219.545 68.5704 219.971C68.7197 220.393 68.7944 220.883 68.7944 221.443C68.7944 222.003 68.7197 222.497 68.5704 222.923C68.4264 223.345 68.2077 223.673 67.9144 223.907C67.6264 224.142 67.2664 224.259 66.8344 224.259C66.4024 224.259 66.0397 224.142 65.7464 223.907C65.453 223.673 65.2317 223.345 65.0824 222.923C64.9384 222.497 64.8664 222.003 64.8664 221.443C64.8664 220.883 64.9384 220.393 65.0824 219.971C65.2317 219.545 65.453 219.214 65.7464 218.979C66.0397 218.745 66.4024 218.627 66.8344 218.627ZM66.8344 219.371C66.4184 219.371 66.0984 219.537 65.8744 219.867C65.6504 220.198 65.5384 220.723 65.5384 221.443C65.5384 222.163 65.6504 222.689 65.8744 223.019C66.0984 223.35 66.4184 223.515 66.8344 223.515C67.2504 223.515 67.5677 223.35 67.7864 223.019C68.0104 222.689 68.1224 222.163 68.1224 221.443C68.1224 220.723 68.0104 220.198 67.7864 219.867C67.5677 219.537 67.2504 219.371 66.8344 219.371Z" fill="#1E2020"/>
<path d="M83.3128 218.627C83.7448 218.627 84.1048 218.745 84.3928 218.979C84.6861 219.214 84.9048 219.545 85.0488 219.971C85.1981 220.393 85.2728 220.883 85.2728 221.443C85.2728 222.003 85.1981 222.497 85.0488 222.923C84.9048 223.345 84.6861 223.673 84.3928 223.907C84.1048 224.142 83.7448 224.259 83.3128 224.259C82.8808 224.259 82.5181 224.142 82.2248 223.907C81.9315 223.673 81.7101 223.345 81.5608 222.923C81.4168 222.497 81.3448 222.003 81.3448 221.443C81.3448 220.883 81.4168 220.393 81.5608 219.971C81.7101 219.545 81.9315 219.214 82.2248 218.979C82.5181 218.745 82.8808 218.627 83.3128 218.627ZM83.3128 219.371C82.8968 219.371 82.5768 219.537 82.3528 219.867C82.1288 220.198 82.0168 220.723 82.0168 221.443C82.0168 222.163 82.1288 222.689 82.3528 223.019C82.5768 223.35 82.8968 223.515 83.3128 223.515C83.7288 223.515 84.0461 223.35 84.2648 223.019C84.4888 222.689 84.6008 222.163 84.6008 221.443C84.6008 220.723 84.4888 220.198 84.2648 219.867C84.0461 219.537 83.7288 219.371 83.3128 219.371ZM85.8591 225.091C85.9764 224.969 86.0858 224.833 86.1871 224.683C86.2884 224.539 86.3658 224.393 86.4191 224.243C86.2804 224.233 86.1738 224.185 86.0991 224.099C86.0244 224.014 85.9871 223.902 85.9871 223.763C85.9871 223.609 86.0378 223.483 86.1391 223.387C86.2404 223.291 86.3578 223.243 86.4911 223.243C86.6298 223.243 86.7471 223.294 86.8431 223.395C86.9391 223.497 86.9871 223.635 86.9871 223.811C86.9871 223.966 86.9604 224.118 86.9071 224.267C86.8538 224.422 86.7658 224.582 86.6431 224.747C86.5258 224.918 86.3604 225.11 86.1471 225.323L85.8591 225.091ZM88.294 218.723H90.862V219.451H88.75L88.534 220.971C88.6513 220.886 88.7953 220.822 88.966 220.779C89.1367 220.731 89.3233 220.707 89.526 220.707C89.878 220.707 90.182 220.777 90.438 220.915C90.6993 221.054 90.8993 221.254 91.038 221.515C91.182 221.771 91.254 222.078 91.254 222.435C91.254 222.793 91.1767 223.11 91.022 223.387C90.8673 223.659 90.6513 223.873 90.374 224.027C90.102 224.182 89.7873 224.259 89.43 224.259C89.11 224.259 88.822 224.195 88.566 224.067C88.3153 223.939 88.11 223.758 87.95 223.523C87.7953 223.283 87.6993 223.006 87.662 222.691H88.27C88.3447 222.958 88.4807 223.166 88.678 223.315C88.8807 223.459 89.1367 223.531 89.446 223.531C89.7607 223.531 90.0273 223.438 90.246 223.251C90.47 223.065 90.582 222.787 90.582 222.419C90.582 222.051 90.4753 221.769 90.262 221.571C90.0487 221.374 89.7713 221.275 89.43 221.275C89.2167 221.275 89.0167 221.307 88.83 221.371C88.6433 221.435 88.4807 221.539 88.342 221.683L87.894 221.515L88.294 218.723Z" fill="#1E2020"/>
<path d="M105.796 223.451H106.732V224.163H104.14V223.451H105.124V219.787L103.9 220.435V219.675L105.796 218.675V223.451Z" fill="#1E2020"/>
<path d="M121.04 223.451H121.976V224.163H119.384V223.451H120.368V219.787L119.144 220.435V219.675L121.04 218.675V223.451ZM122.659 225.091C122.776 224.969 122.886 224.833 122.987 224.683C123.088 224.539 123.166 224.393 123.219 224.243C123.08 224.233 122.974 224.185 122.899 224.099C122.824 224.014 122.787 223.902 122.787 223.763C122.787 223.609 122.838 223.483 122.939 223.387C123.04 223.291 123.158 223.243 123.291 223.243C123.43 223.243 123.547 223.294 123.643 223.395C123.739 223.497 123.787 223.635 123.787 223.811C123.787 223.966 123.76 224.118 123.707 224.267C123.654 224.422 123.566 224.582 123.443 224.747C123.326 224.918 123.16 225.11 122.947 225.323L122.659 225.091ZM125.094 218.723H127.662V219.451H125.55L125.334 220.971C125.451 220.886 125.595 220.822 125.766 220.779C125.937 220.731 126.123 220.707 126.326 220.707C126.678 220.707 126.982 220.777 127.238 220.915C127.499 221.054 127.699 221.254 127.838 221.515C127.982 221.771 128.054 222.078 128.054 222.435C128.054 222.793 127.977 223.11 127.822 223.387C127.667 223.659 127.451 223.873 127.174 224.027C126.902 224.182 126.587 224.259 126.23 224.259C125.91 224.259 125.622 224.195 125.366 224.067C125.115 223.939 124.91 223.758 124.75 223.523C124.595 223.283 124.499 223.006 124.462 222.691H125.07C125.145 222.958 125.281 223.166 125.478 223.315C125.681 223.459 125.937 223.531 126.246 223.531C126.561 223.531 126.827 223.438 127.046 223.251C127.27 223.065 127.382 222.787 127.382 222.419C127.382 222.051 127.275 221.769 127.062 221.571C126.849 221.374 126.571 221.275 126.23 221.275C126.017 221.275 125.817 221.307 125.63 221.371C125.443 221.435 125.281 221.539 125.142 221.683L124.694 221.515L125.094 218.723Z" fill="#1E2020"/>
<path d="M143.702 220.291C143.702 220.03 143.614 219.811 143.438 219.635C143.267 219.454 143.022 219.363 142.702 219.363C142.361 219.363 142.089 219.454 141.886 219.635C141.683 219.811 141.561 220.073 141.518 220.419H140.91C140.942 220.078 141.03 219.774 141.174 219.507C141.323 219.235 141.529 219.022 141.79 218.867C142.051 218.707 142.363 218.627 142.726 218.627C143.083 218.627 143.382 218.699 143.622 218.843C143.867 218.982 144.054 219.174 144.182 219.419C144.31 219.665 144.374 219.942 144.374 220.251C144.374 220.491 144.337 220.705 144.262 220.891C144.187 221.073 144.078 221.246 143.934 221.411C143.79 221.577 143.609 221.747 143.39 221.923C143.171 222.099 142.918 222.297 142.63 222.515C142.417 222.675 142.225 222.83 142.054 222.979C141.889 223.129 141.769 223.281 141.694 223.435H144.374V224.163H140.982V223.715C140.982 223.491 141.041 223.286 141.158 223.099C141.281 222.907 141.438 222.726 141.63 222.555C141.827 222.385 142.033 222.219 142.246 222.059C142.545 221.83 142.803 221.625 143.022 221.443C143.241 221.257 143.409 221.073 143.526 220.891C143.643 220.705 143.702 220.505 143.702 220.291Z" fill="#1E2020"/>
<path d="M160.024 220.291C160.024 220.03 159.936 219.811 159.76 219.635C159.59 219.454 159.344 219.363 159.024 219.363C158.683 219.363 158.411 219.454 158.208 219.635C158.006 219.811 157.883 220.073 157.84 220.419H157.232C157.264 220.078 157.352 219.774 157.496 219.507C157.646 219.235 157.851 219.022 158.112 218.867C158.374 218.707 158.686 218.627 159.048 218.627C159.406 218.627 159.704 218.699 159.944 218.843C160.19 218.982 160.376 219.174 160.504 219.419C160.632 219.665 160.696 219.942 160.696 220.251C160.696 220.491 160.659 220.705 160.584 220.891C160.51 221.073 160.4 221.246 160.256 221.411C160.112 221.577 159.931 221.747 159.712 221.923C159.494 222.099 159.24 222.297 158.952 222.515C158.739 222.675 158.547 222.83 158.376 222.979C158.211 223.129 158.091 223.281 158.016 223.435H160.696V224.163H157.304V223.715C157.304 223.491 157.363 223.286 157.48 223.099C157.603 222.907 157.76 222.726 157.952 222.555C158.15 222.385 158.355 222.219 158.568 222.059C158.867 221.83 159.126 221.625 159.344 221.443C159.563 221.257 159.731 221.073 159.848 220.891C159.966 220.705 160.024 220.505 160.024 220.291ZM161.459 225.091C161.576 224.969 161.686 224.833 161.787 224.683C161.888 224.539 161.966 224.393 162.019 224.243C161.88 224.233 161.774 224.185 161.699 224.099C161.624 224.014 161.587 223.902 161.587 223.763C161.587 223.609 161.638 223.483 161.739 223.387C161.84 223.291 161.958 223.243 162.091 223.243C162.23 223.243 162.347 223.294 162.443 223.395C162.539 223.497 162.587 223.635 162.587 223.811C162.587 223.966 162.56 224.118 162.507 224.267C162.454 224.422 162.366 224.582 162.243 224.747C162.126 224.918 161.96 225.11 161.747 225.323L161.459 225.091ZM163.894 218.723H166.462V219.451H164.35L164.134 220.971C164.251 220.886 164.395 220.822 164.566 220.779C164.737 220.731 164.923 220.707 165.126 220.707C165.478 220.707 165.782 220.777 166.038 220.915C166.299 221.054 166.499 221.254 166.638 221.515C166.782 221.771 166.854 222.078 166.854 222.435C166.854 222.793 166.777 223.11 166.622 223.387C166.467 223.659 166.251 223.873 165.974 224.027C165.702 224.182 165.387 224.259 165.03 224.259C164.71 224.259 164.422 224.195 164.166 224.067C163.915 223.939 163.71 223.758 163.55 223.523C163.395 223.283 163.299 223.006 163.262 222.691H163.87C163.945 222.958 164.081 223.166 164.278 223.315C164.481 223.459 164.737 223.531 165.046 223.531C165.361 223.531 165.627 223.438 165.846 223.251C166.07 223.065 166.182 222.787 166.182 222.419C166.182 222.051 166.075 221.769 165.862 221.571C165.649 221.374 165.371 221.275 165.03 221.275C164.817 221.275 164.617 221.307 164.43 221.371C164.243 221.435 164.081 221.539 163.942 221.683L163.494 221.515L163.894 218.723Z" fill="#1E2020"/>
<path d="M181.495 223.531C181.826 223.531 182.098 223.441 182.311 223.259C182.53 223.073 182.639 222.809 182.639 222.467C182.639 222.158 182.538 221.913 182.335 221.731C182.138 221.545 181.876 221.451 181.551 221.451C181.412 221.451 181.282 221.467 181.159 221.499C181.042 221.526 180.94 221.561 180.855 221.603L180.615 221.211L182.367 219.451H179.951V218.723H182.991V219.547L181.623 220.907C181.634 220.902 181.647 220.899 181.663 220.899C181.679 220.899 181.692 220.899 181.703 220.899C182.199 220.899 182.591 221.049 182.879 221.347C183.167 221.641 183.311 222.014 183.311 222.467C183.311 222.75 183.263 223.003 183.167 223.227C183.076 223.451 182.951 223.641 182.791 223.795C182.631 223.945 182.436 224.059 182.207 224.139C181.983 224.219 181.74 224.259 181.479 224.259C180.962 224.259 180.535 224.11 180.199 223.811C179.868 223.507 179.676 223.099 179.623 222.587H180.231C180.3 222.907 180.444 223.145 180.663 223.299C180.887 223.454 181.164 223.531 181.495 223.531Z" fill="#1E2020"/>
<path d="M197.817 223.531C198.148 223.531 198.42 223.441 198.633 223.259C198.852 223.073 198.961 222.809 198.961 222.467C198.961 222.158 198.86 221.913 198.657 221.731C198.46 221.545 198.198 221.451 197.873 221.451C197.734 221.451 197.604 221.467 197.481 221.499C197.364 221.526 197.262 221.561 197.177 221.603L196.937 221.211L198.689 219.451H196.273V218.723H199.313V219.547L197.945 220.907C197.956 220.902 197.969 220.899 197.985 220.899C198.001 220.899 198.014 220.899 198.025 220.899C198.521 220.899 198.913 221.049 199.201 221.347C199.489 221.641 199.633 222.014 199.633 222.467C199.633 222.75 199.585 223.003 199.489 223.227C199.398 223.451 199.273 223.641 199.113 223.795C198.953 223.945 198.758 224.059 198.529 224.139C198.305 224.219 198.062 224.259 197.801 224.259C197.284 224.259 196.857 224.11 196.521 223.811C196.19 223.507 195.998 223.099 195.945 222.587H196.553C196.622 222.907 196.766 223.145 196.985 223.299C197.209 223.454 197.486 223.531 197.817 223.531ZM200.259 225.091C200.376 224.969 200.486 224.833 200.587 224.683C200.688 224.539 200.766 224.393 200.819 224.243C200.68 224.233 200.574 224.185 200.499 224.099C200.424 224.014 200.387 223.902 200.387 223.763C200.387 223.609 200.438 223.483 200.539 223.387C200.64 223.291 200.758 223.243 200.891 223.243C201.03 223.243 201.147 223.294 201.243 223.395C201.339 223.497 201.387 223.635 201.387 223.811C201.387 223.966 201.36 224.118 201.307 224.267C201.254 224.422 201.166 224.582 201.043 224.747C200.926 224.918 200.76 225.11 200.547 225.323L200.259 225.091ZM202.694 218.723H205.262V219.451H203.15L202.934 220.971C203.051 220.886 203.195 220.822 203.366 220.779C203.537 220.731 203.723 220.707 203.926 220.707C204.278 220.707 204.582 220.777 204.838 220.915C205.099 221.054 205.299 221.254 205.438 221.515C205.582 221.771 205.654 222.078 205.654 222.435C205.654 222.793 205.577 223.11 205.422 223.387C205.267 223.659 205.051 223.873 204.774 224.027C204.502 224.182 204.187 224.259 203.83 224.259C203.51 224.259 203.222 224.195 202.966 224.067C202.715 223.939 202.51 223.758 202.35 223.523C202.195 223.283 202.099 223.006 202.062 222.691H202.67C202.745 222.958 202.881 223.166 203.078 223.315C203.281 223.459 203.537 223.531 203.846 223.531C204.161 223.531 204.427 223.438 204.646 223.251C204.87 223.065 204.982 222.787 204.982 222.419C204.982 222.051 204.875 221.769 204.662 221.571C204.449 221.374 204.171 221.275 203.83 221.275C203.617 221.275 203.417 221.307 203.23 221.371C203.043 221.435 202.881 221.539 202.742 221.683L202.294 221.515L202.694 218.723Z" fill="#1E2020"/>
<path d="M222.113 222.987H221.425V224.163H220.753V222.987H218.289V222.387L220.849 218.723H221.425V222.307H222.113V222.987ZM219.001 222.307H220.753V219.763L219.001 222.307Z" fill="#1E2020"/>
<path d="M238.435 222.987H237.747V224.163H237.075V222.987H234.611V222.387L237.171 218.723H237.747V222.307H238.435V222.987ZM235.323 222.307H237.075V219.763L235.323 222.307ZM239.059 225.091C239.176 224.969 239.286 224.833 239.387 224.683C239.488 224.539 239.566 224.393 239.619 224.243C239.48 224.233 239.374 224.185 239.299 224.099C239.224 224.014 239.187 223.902 239.187 223.763C239.187 223.609 239.238 223.483 239.339 223.387C239.44 223.291 239.558 223.243 239.691 223.243C239.83 223.243 239.947 223.294 240.043 223.395C240.139 223.497 240.187 223.635 240.187 223.811C240.187 223.966 240.16 224.118 240.107 224.267C240.054 224.422 239.966 224.582 239.843 224.747C239.726 224.918 239.56 225.11 239.347 225.323L239.059 225.091ZM241.494 218.723H244.062V219.451H241.95L241.734 220.971C241.851 220.886 241.995 220.822 242.166 220.779C242.337 220.731 242.523 220.707 242.726 220.707C243.078 220.707 243.382 220.777 243.638 220.915C243.899 221.054 244.099 221.254 244.238 221.515C244.382 221.771 244.454 222.078 244.454 222.435C244.454 222.793 244.377 223.11 244.222 223.387C244.067 223.659 243.851 223.873 243.574 224.027C243.302 224.182 242.987 224.259 242.63 224.259C242.31 224.259 242.022 224.195 241.766 224.067C241.515 223.939 241.31 223.758 241.15 223.523C240.995 223.283 240.899 223.006 240.862 222.691H241.47C241.545 222.958 241.681 223.166 241.878 223.315C242.081 223.459 242.337 223.531 242.646 223.531C242.961 223.531 243.227 223.438 243.446 223.251C243.67 223.065 243.782 222.787 243.782 222.419C243.782 222.051 243.675 221.769 243.462 221.571C243.249 221.374 242.971 221.275 242.63 221.275C242.417 221.275 242.217 221.307 242.03 221.371C241.843 221.435 241.681 221.539 241.542 221.683L241.094 221.515L241.494 218.723Z" fill="#1E2020"/>
<path d="M257.894 218.723H260.462V219.451H258.35L258.134 220.971C258.251 220.886 258.395 220.822 258.566 220.779C258.737 220.731 258.923 220.707 259.126 220.707C259.478 220.707 259.782 220.777 260.038 220.915C260.299 221.054 260.499 221.254 260.638 221.515C260.782 221.771 260.854 222.078 260.854 222.435C260.854 222.793 260.777 223.11 260.622 223.387C260.467 223.659 260.251 223.873 259.974 224.027C259.702 224.182 259.387 224.259 259.03 224.259C258.71 224.259 258.422 224.195 258.166 224.067C257.915 223.939 257.71 223.758 257.55 223.523C257.395 223.283 257.299 223.006 257.262 222.691H257.87C257.945 222.958 258.081 223.166 258.278 223.315C258.481 223.459 258.737 223.531 259.046 223.531C259.361 223.531 259.627 223.438 259.846 223.251C260.07 223.065 260.182 222.787 260.182 222.419C260.182 222.051 260.075 221.769 259.862 221.571C259.649 221.374 259.371 221.275 259.03 221.275C258.817 221.275 258.617 221.307 258.43 221.371C258.243 221.435 258.081 221.539 257.942 221.683L257.494 221.515L257.894 218.723Z" fill="#1E2020"/>
<path d="M2.99293 48.6273C3.37693 48.6273 3.71827 48.6966 4.01693 48.8353C4.32093 48.9739 4.57693 49.1713 4.78493 49.4273C4.99293 49.6779 5.15027 49.9766 5.25693 50.3233C5.36893 50.6646 5.42493 51.0379 5.42493 51.4433C5.42493 51.8486 5.36893 52.2246 5.25693 52.5713C5.15027 52.9126 4.99293 53.2113 4.78493 53.4673C4.57693 53.7179 4.32093 53.9126 4.01693 54.0513C3.71827 54.1899 3.37693 54.2593 2.99293 54.2593C2.60893 54.2593 2.26493 54.1899 1.96093 54.0513C1.66227 53.9126 1.40893 53.7179 1.20093 53.4673C0.998266 53.2113 0.840932 52.9126 0.728932 52.5713C0.622265 52.2246 0.568932 51.8486 0.568932 51.4433C0.568932 51.0379 0.622265 50.6646 0.728932 50.3233C0.840932 49.9766 0.998266 49.6779 1.20093 49.4273C1.40893 49.1713 1.66227 48.9739 1.96093 48.8353C2.26493 48.6966 2.60893 48.6273 2.99293 48.6273ZM2.99293 49.3873C2.65693 49.3873 2.3556 49.4646 2.08893 49.6193C1.8276 49.7739 1.6196 50.0033 1.46493 50.3073C1.3156 50.6113 1.24093 50.9899 1.24093 51.4433C1.24093 51.8966 1.3156 52.2753 1.46493 52.5793C1.6196 52.8833 1.8276 53.1126 2.08893 53.2673C2.3556 53.4219 2.65693 53.4993 2.99293 53.4993C3.33427 53.4993 3.6356 53.4219 3.89693 53.2673C4.1636 53.1126 4.3716 52.8833 4.52093 52.5793C4.6756 52.2753 4.75293 51.8966 4.75293 51.4433C4.75293 50.9899 4.6756 50.6113 4.52093 50.3073C4.3716 50.0033 4.1636 49.7739 3.89693 49.6193C3.6356 49.4646 3.33427 49.3873 2.99293 49.3873ZM5.68606 55.1713V53.5153H6.02206C6.28872 53.2326 6.48339 52.8379 6.60606 52.3313C6.73406 51.8193 6.80072 51.1419 6.80606 50.2993H9.17406V53.5153H9.75006V55.1713H9.13406V54.1633H6.30206V55.1713H5.68606ZM7.35006 50.9473C7.33406 51.4859 7.28072 51.9686 7.19006 52.3953C7.09939 52.8219 6.94739 53.1953 6.73406 53.5153H8.53406V50.9473H7.35006ZM12.7857 54.1633V52.4833H11.0017V54.1633H10.3617V50.2993H11.0017V51.8353H12.7857V50.2993H13.4257V54.1633H12.7857ZM16.1266 50.2353C16.5052 50.2353 16.8332 50.3233 17.1106 50.4993C17.3932 50.6753 17.6119 50.9153 17.7666 51.2193C17.9266 51.5179 18.0066 51.8539 18.0066 52.2273C18.0066 52.6006 17.9266 52.9393 17.7666 53.2433C17.6119 53.5419 17.3932 53.7819 17.1106 53.9633C16.8332 54.1393 16.5052 54.2273 16.1266 54.2273C15.7532 54.2273 15.4252 54.1393 15.1426 53.9633C14.8599 53.7819 14.6386 53.5419 14.4786 53.2433C14.3239 52.9393 14.2466 52.6006 14.2466 52.2273C14.2466 51.8539 14.3239 51.5179 14.4786 51.2193C14.6386 50.9153 14.8599 50.6753 15.1426 50.4993C15.4252 50.3233 15.7532 50.2353 16.1266 50.2353ZM16.1266 50.9233C15.7532 50.9233 15.4546 51.0433 15.2306 51.2833C15.0066 51.5233 14.8946 51.8379 14.8946 52.2273C14.8946 52.6166 15.0066 52.9339 15.2306 53.1793C15.4546 53.4193 15.7532 53.5393 16.1266 53.5393C16.4999 53.5393 16.7986 53.4193 17.0226 53.1793C17.2466 52.9339 17.3586 52.6166 17.3586 52.2273C17.3586 51.8379 17.2466 51.5233 17.0226 51.2833C16.7986 51.0433 16.4999 50.9233 16.1266 50.9233ZM20.3265 54.1633H18.8305V50.2993H20.2625C20.6572 50.2993 20.9718 50.3873 21.2065 50.5633C21.4412 50.7393 21.5585 50.9899 21.5585 51.3153C21.5585 51.5179 21.5078 51.6913 21.4065 51.8353C21.3052 51.9793 21.1718 52.0726 21.0065 52.1153C21.2252 52.1526 21.4012 52.2486 21.5345 52.4033C21.6732 52.5526 21.7425 52.7579 21.7425 53.0193C21.7425 53.3926 21.6198 53.6779 21.3745 53.8753C21.1345 54.0673 20.7852 54.1633 20.3265 54.1633ZM19.4545 50.9233V51.9473H20.2625C20.4758 51.9473 20.6385 51.9073 20.7505 51.8273C20.8678 51.7419 20.9265 51.6086 20.9265 51.4273C20.9265 51.2566 20.8758 51.1313 20.7745 51.0513C20.6732 50.9659 20.5132 50.9233 20.2945 50.9233H19.4545ZM19.4545 52.3873V53.5393H20.2625C20.5612 53.5393 20.7745 53.4939 20.9025 53.4033C21.0358 53.3073 21.1025 53.1606 21.1025 52.9633C21.1025 52.7606 21.0358 52.6139 20.9025 52.5233C20.7692 52.4326 20.5612 52.3873 20.2785 52.3873H19.4545ZM23.1494 50.9713C23.2721 50.7206 23.4374 50.5366 23.6454 50.4193C23.8534 50.2966 24.1148 50.2353 24.4294 50.2353C24.7974 50.2353 25.1148 50.3206 25.3814 50.4913C25.6481 50.6566 25.8508 50.8886 25.9894 51.1873C26.1334 51.4806 26.2054 51.8166 26.2054 52.1953C26.2054 52.5739 26.1334 52.9179 25.9894 53.2273C25.8508 53.5313 25.6481 53.7739 25.3814 53.9553C25.1201 54.1366 24.8054 54.2273 24.4374 54.2273C24.1494 54.2273 23.9014 54.1766 23.6934 54.0753C23.4854 53.9686 23.3148 53.8033 23.1814 53.5793V55.7633H22.5414V50.2993H23.1494V50.9713ZM24.3254 53.5553C24.7414 53.5553 25.0508 53.4273 25.2534 53.1713C25.4561 52.9153 25.5574 52.5899 25.5574 52.1953C25.5574 51.8006 25.4534 51.4886 25.2454 51.2593C25.0428 51.0246 24.7334 50.9073 24.3174 50.9073C24.0348 50.9073 23.7974 50.9499 23.6054 51.0353C23.4134 51.1153 23.2721 51.2486 23.1814 51.4353V53.0433C23.2721 53.2246 23.4134 53.3553 23.6054 53.4353C23.8028 53.5153 24.0428 53.5553 24.3254 53.5553ZM27.2111 54.2353C27.0778 54.2353 26.9605 54.1873 26.8591 54.0913C26.7578 53.9953 26.7071 53.8753 26.7071 53.7313C26.7071 53.5873 26.7578 53.4673 26.8591 53.3713C26.9605 53.2753 27.0778 53.2273 27.2111 53.2273C27.3498 53.2273 27.4671 53.2753 27.5631 53.3713C27.6591 53.4673 27.7071 53.5873 27.7071 53.7313C27.7071 53.8753 27.6591 53.9953 27.5631 54.0913C27.4671 54.1873 27.3498 54.2353 27.2111 54.2353ZM31.126 50.9713C31.2487 50.7206 31.414 50.5366 31.622 50.4193C31.83 50.2966 32.0913 50.2353 32.406 50.2353C32.774 50.2353 33.0913 50.3206 33.358 50.4913C33.6247 50.6566 33.8273 50.8886 33.966 51.1873C34.11 51.4806 34.182 51.8166 34.182 52.1953C34.182 52.5739 34.11 52.9179 33.966 53.2273C33.8273 53.5313 33.6247 53.7739 33.358 53.9553C33.0967 54.1366 32.782 54.2273 32.414 54.2273C32.126 54.2273 31.878 54.1766 31.67 54.0753C31.462 53.9686 31.2913 53.8033 31.158 53.5793V55.7633H30.518V50.2993H31.126V50.9713ZM32.302 53.5553C32.718 53.5553 33.0273 53.4273 33.23 53.1713C33.4327 52.9153 33.534 52.5899 33.534 52.1953C33.534 51.8006 33.43 51.4886 33.222 51.2593C33.0193 51.0246 32.71 50.9073 32.294 50.9073C32.0113 50.9073 31.774 50.9499 31.582 51.0353C31.39 51.1153 31.2487 51.2486 31.158 51.4353V53.0433C31.2487 53.2246 31.39 53.3553 31.582 53.4353C31.7793 53.5153 32.0193 53.5553 32.302 53.5553ZM38.2898 52.9873C38.2311 53.2006 38.1351 53.4033 38.0018 53.5953C37.8685 53.7819 37.6871 53.9339 37.4578 54.0513C37.2285 54.1686 36.9378 54.2273 36.5858 54.2273C36.2285 54.2273 35.9138 54.1393 35.6418 53.9633C35.3698 53.7819 35.1565 53.5393 35.0018 53.2353C34.8525 52.9313 34.7778 52.5953 34.7778 52.2273C34.7778 51.8539 34.8525 51.5179 35.0018 51.2193C35.1565 50.9206 35.3698 50.6833 35.6418 50.5073C35.9138 50.3259 36.2285 50.2353 36.5858 50.2353C36.9538 50.2353 37.2711 50.3233 37.5378 50.4993C37.8045 50.6753 38.0098 50.9179 38.1538 51.2273C38.3031 51.5366 38.3778 51.8886 38.3778 52.2833C38.3778 52.2993 38.3778 52.3153 38.3778 52.3313C38.3778 52.3473 38.3778 52.3633 38.3778 52.3793H35.4258C35.4525 52.7366 35.5671 53.0246 35.7698 53.2433C35.9778 53.4619 36.2498 53.5713 36.5858 53.5713C36.8845 53.5713 37.1245 53.5206 37.3058 53.4193C37.4871 53.3126 37.6205 53.1686 37.7058 52.9873H38.2898ZM36.5858 50.8913C36.2605 50.8913 35.9991 50.9846 35.8018 51.1713C35.6098 51.3526 35.4898 51.6006 35.4418 51.9153H37.7138C37.6765 51.6326 37.5671 51.3926 37.3858 51.1953C37.2098 50.9926 36.9431 50.8913 36.5858 50.8913ZM41.3501 54.1633V52.3633C41.2594 52.5126 41.1314 52.6353 40.9661 52.7313C40.8061 52.8273 40.6007 52.8753 40.3501 52.8753C39.9181 52.8753 39.5901 52.7579 39.3661 52.5233C39.1421 52.2886 39.0301 51.9606 39.0301 51.5393V50.2993H39.6701V51.3713C39.6701 51.6646 39.7421 51.8753 39.8861 52.0033C40.0354 52.1313 40.2487 52.1953 40.5261 52.1953C40.6967 52.1953 40.8541 52.1766 40.9981 52.1393C41.1474 52.0966 41.2647 52.0326 41.3501 51.9473V50.2993H41.9901V54.1633H41.3501ZM43.7049 50.2993V51.6513H44.4329C44.8595 51.6513 45.2062 51.7446 45.4729 51.9313C45.7395 52.1126 45.8729 52.4246 45.8729 52.8673C45.8729 53.1606 45.8089 53.4033 45.6809 53.5953C45.5529 53.7873 45.3822 53.9313 45.1689 54.0273C44.9555 54.1179 44.7155 54.1633 44.4489 54.1633H43.0649V50.2993H43.7049ZM44.4169 52.2033H43.7049V53.5153H44.4009C44.6569 53.5153 44.8595 53.4673 45.0089 53.3713C45.1635 53.2699 45.2409 53.0993 45.2409 52.8593C45.2409 52.6406 45.1742 52.4779 45.0409 52.3713C44.9129 52.2593 44.7049 52.2033 44.4169 52.2033Z" fill="#1E2020"/>
<path d="M2.99293 111.294C3.37693 111.294 3.71827 111.363 4.01693 111.502C4.32093 111.641 4.57693 111.838 4.78493 112.094C4.99293 112.345 5.15027 112.643 5.25693 112.99C5.36893 113.331 5.42493 113.705 5.42493 114.11C5.42493 114.515 5.36893 114.891 5.25693 115.238C5.15027 115.579 4.99293 115.878 4.78493 116.134C4.57693 116.385 4.32093 116.579 4.01693 116.718C3.71827 116.857 3.37693 116.926 2.99293 116.926C2.60893 116.926 2.26493 116.857 1.96093 116.718C1.66227 116.579 1.40893 116.385 1.20093 116.134C0.998266 115.878 0.840932 115.579 0.728932 115.238C0.622265 114.891 0.568932 114.515 0.568932 114.11C0.568932 113.705 0.622265 113.331 0.728932 112.99C0.840932 112.643 0.998266 112.345 1.20093 112.094C1.40893 111.838 1.66227 111.641 1.96093 111.502C2.26493 111.363 2.60893 111.294 2.99293 111.294ZM2.99293 112.054C2.65693 112.054 2.3556 112.131 2.08893 112.286C1.8276 112.441 1.6196 112.67 1.46493 112.974C1.3156 113.278 1.24093 113.657 1.24093 114.11C1.24093 114.563 1.3156 114.942 1.46493 115.246C1.6196 115.55 1.8276 115.779 2.08893 115.934C2.3556 116.089 2.65693 116.166 2.99293 116.166C3.33427 116.166 3.6356 116.089 3.89693 115.934C4.1636 115.779 4.3716 115.55 4.52093 115.246C4.6756 114.942 4.75293 114.563 4.75293 114.11C4.75293 113.657 4.6756 113.278 4.52093 112.974C4.3716 112.67 4.1636 112.441 3.89693 112.286C3.6356 112.131 3.33427 112.054 2.99293 112.054ZM5.68606 117.838V116.182H6.02206C6.28872 115.899 6.48339 115.505 6.60606 114.998C6.73406 114.486 6.80072 113.809 6.80606 112.966H9.17406V116.182H9.75006V117.838H9.13406V116.83H6.30206V117.838H5.68606ZM7.35006 113.614C7.33406 114.153 7.28072 114.635 7.19006 115.062C7.09939 115.489 6.94739 115.862 6.73406 116.182H8.53406V113.614H7.35006ZM12.7857 116.83V115.15H11.0017V116.83H10.3617V112.966H11.0017V114.502H12.7857V112.966H13.4257V116.83H12.7857ZM16.1266 112.902C16.5052 112.902 16.8332 112.99 17.1106 113.166C17.3932 113.342 17.6119 113.582 17.7666 113.886C17.9266 114.185 18.0066 114.521 18.0066 114.894C18.0066 115.267 17.9266 115.606 17.7666 115.91C17.6119 116.209 17.3932 116.449 17.1106 116.63C16.8332 116.806 16.5052 116.894 16.1266 116.894C15.7532 116.894 15.4252 116.806 15.1426 116.63C14.8599 116.449 14.6386 116.209 14.4786 115.91C14.3239 115.606 14.2466 115.267 14.2466 114.894C14.2466 114.521 14.3239 114.185 14.4786 113.886C14.6386 113.582 14.8599 113.342 15.1426 113.166C15.4252 112.99 15.7532 112.902 16.1266 112.902ZM16.1266 113.59C15.7532 113.59 15.4546 113.71 15.2306 113.95C15.0066 114.19 14.8946 114.505 14.8946 114.894C14.8946 115.283 15.0066 115.601 15.2306 115.846C15.4546 116.086 15.7532 116.206 16.1266 116.206C16.4999 116.206 16.7986 116.086 17.0226 115.846C17.2466 115.601 17.3586 115.283 17.3586 114.894C17.3586 114.505 17.2466 114.19 17.0226 113.95C16.7986 113.71 16.4999 113.59 16.1266 113.59ZM20.3265 116.83H18.8305V112.966H20.2625C20.6572 112.966 20.9718 113.054 21.2065 113.23C21.4412 113.406 21.5585 113.657 21.5585 113.982C21.5585 114.185 21.5078 114.358 21.4065 114.502C21.3052 114.646 21.1718 114.739 21.0065 114.782C21.2252 114.819 21.4012 114.915 21.5345 115.07C21.6732 115.219 21.7425 115.425 21.7425 115.686C21.7425 116.059 21.6198 116.345 21.3745 116.542C21.1345 116.734 20.7852 116.83 20.3265 116.83ZM19.4545 113.59V114.614H20.2625C20.4758 114.614 20.6385 114.574 20.7505 114.494C20.8678 114.409 20.9265 114.275 20.9265 114.094C20.9265 113.923 20.8758 113.798 20.7745 113.718C20.6732 113.633 20.5132 113.59 20.2945 113.59H19.4545ZM19.4545 115.054V116.206H20.2625C20.5612 116.206 20.7745 116.161 20.9025 116.07C21.0358 115.974 21.1025 115.827 21.1025 115.63C21.1025 115.427 21.0358 115.281 20.9025 115.19C20.7692 115.099 20.5612 115.054 20.2785 115.054H19.4545ZM23.1494 113.638C23.2721 113.387 23.4374 113.203 23.6454 113.086C23.8534 112.963 24.1148 112.902 24.4294 112.902C24.7974 112.902 25.1148 112.987 25.3814 113.158C25.6481 113.323 25.8508 113.555 25.9894 113.854C26.1334 114.147 26.2054 114.483 26.2054 114.862C26.2054 115.241 26.1334 115.585 25.9894 115.894C25.8508 116.198 25.6481 116.441 25.3814 116.622C25.1201 116.803 24.8054 116.894 24.4374 116.894C24.1494 116.894 23.9014 116.843 23.6934 116.742C23.4854 116.635 23.3148 116.47 23.1814 116.246V118.43H22.5414V112.966H23.1494V113.638ZM24.3254 116.222C24.7414 116.222 25.0508 116.094 25.2534 115.838C25.4561 115.582 25.5574 115.257 25.5574 114.862C25.5574 114.467 25.4534 114.155 25.2454 113.926C25.0428 113.691 24.7334 113.574 24.3174 113.574C24.0348 113.574 23.7974 113.617 23.6054 113.702C23.4134 113.782 23.2721 113.915 23.1814 114.102V115.71C23.2721 115.891 23.4134 116.022 23.6054 116.102C23.8028 116.182 24.0428 116.222 24.3254 116.222ZM27.2111 116.902C27.0778 116.902 26.9605 116.854 26.8591 116.758C26.7578 116.662 26.7071 116.542 26.7071 116.398C26.7071 116.254 26.7578 116.134 26.8591 116.038C26.9605 115.942 27.0778 115.894 27.2111 115.894C27.3498 115.894 27.4671 115.942 27.5631 116.038C27.6591 116.134 27.7071 116.254 27.7071 116.398C27.7071 116.542 27.6591 116.662 27.5631 116.758C27.4671 116.854 27.3498 116.902 27.2111 116.902ZM30.166 112.966H33.286V113.622H32.046V116.83H31.406V113.622H30.166V112.966ZM34.6424 112.966V115.782L36.5064 112.966H37.1304V116.83H36.4904V113.966L34.5944 116.83H34.0024V112.966H34.6424ZM38.8455 112.966V116.182H40.2695V112.966H40.9095V116.182H42.3335V112.966H42.9735V116.83H38.2055V112.966H38.8455ZM44.6892 112.966V115.782L46.5532 112.966H47.1772V116.83H46.5372V113.966L44.6412 116.83H44.0492V112.966H44.6892ZM50.6764 116.83V115.15H48.8924V116.83H48.2524V112.966H48.8924V114.502H50.6764V112.966H51.3164V116.83H50.6764ZM55.0652 116.846C54.8838 116.846 54.7345 116.795 54.6172 116.694C54.4998 116.587 54.4305 116.427 54.4092 116.214C54.2758 116.427 54.1158 116.59 53.9292 116.702C53.7478 116.809 53.5318 116.862 53.2812 116.862C52.9452 116.862 52.6732 116.774 52.4652 116.598C52.2572 116.422 52.1532 116.161 52.1532 115.814C52.1532 115.595 52.1932 115.414 52.2732 115.27C52.3532 115.121 52.4732 114.995 52.6332 114.894C52.7932 114.793 52.9905 114.697 53.2252 114.606L54.3692 114.158C54.3478 113.934 54.2625 113.779 54.1132 113.694C53.9692 113.609 53.7958 113.566 53.5932 113.566C53.3798 113.566 53.1985 113.611 53.0492 113.702C52.9052 113.787 52.8172 113.923 52.7852 114.11H52.1852C52.2225 113.827 52.3105 113.598 52.4492 113.422C52.5878 113.246 52.7585 113.115 52.9612 113.03C53.1638 112.945 53.3745 112.902 53.5932 112.902C54.0252 112.902 54.3692 113.017 54.6252 113.246C54.8812 113.47 55.0065 113.822 55.0012 114.302L54.9852 115.782C54.9852 115.937 55.0065 116.043 55.0492 116.102C55.0918 116.161 55.1612 116.19 55.2572 116.19H55.4092V116.83C55.3558 116.835 55.2972 116.838 55.2332 116.838C55.1745 116.843 55.1185 116.846 55.0652 116.846ZM52.7932 115.702C52.7932 115.878 52.8518 116.009 52.9692 116.094C53.0918 116.174 53.2598 116.214 53.4732 116.214C53.6652 116.214 53.8385 116.187 53.9932 116.134C54.1478 116.075 54.2678 115.998 54.3532 115.902L54.3692 114.646L53.6572 114.934C53.3478 115.057 53.1265 115.171 52.9932 115.278C52.8598 115.385 52.7932 115.526 52.7932 115.702Z" fill="#1E2020"/>
<path d="M1.42493 167.497H0.768932V162.057H1.41693L3.36093 165.433L5.30493 162.057H5.90493V167.497H5.23293V163.433L3.45693 166.497H3.20093L1.42493 163.433V167.497ZM9.69799 167.513C9.51666 167.513 9.36733 167.462 9.24999 167.361C9.13266 167.254 9.06333 167.094 9.04199 166.881C8.90866 167.094 8.74866 167.257 8.56199 167.369C8.38066 167.475 8.16466 167.529 7.91399 167.529C7.57799 167.529 7.30599 167.441 7.09799 167.265C6.88999 167.089 6.78599 166.827 6.78599 166.481C6.78599 166.262 6.82599 166.081 6.90599 165.937C6.98599 165.787 7.10599 165.662 7.26599 165.561C7.42599 165.459 7.62333 165.363 7.85799 165.273L9.00199 164.825C8.98066 164.601 8.89533 164.446 8.74599 164.361C8.60199 164.275 8.42866 164.233 8.22599 164.233C8.01266 164.233 7.83133 164.278 7.68199 164.369C7.53799 164.454 7.44999 164.59 7.41799 164.777H6.81799C6.85533 164.494 6.94333 164.265 7.08199 164.089C7.22066 163.913 7.39133 163.782 7.59399 163.697C7.79666 163.611 8.00733 163.569 8.22599 163.569C8.65799 163.569 9.00199 163.683 9.25799 163.913C9.51399 164.137 9.63933 164.489 9.63399 164.969L9.61799 166.449C9.61799 166.603 9.63933 166.71 9.68199 166.769C9.72466 166.827 9.79399 166.857 9.88999 166.857H10.042V167.497C9.98866 167.502 9.92999 167.505 9.86599 167.505C9.80733 167.51 9.75133 167.513 9.69799 167.513ZM7.42599 166.369C7.42599 166.545 7.48466 166.675 7.60199 166.761C7.72466 166.841 7.89266 166.881 8.10599 166.881C8.29799 166.881 8.47133 166.854 8.62599 166.801C8.78066 166.742 8.90066 166.665 8.98599 166.569L9.00199 165.313L8.28999 165.601C7.98066 165.723 7.75933 165.838 7.62599 165.945C7.49266 166.051 7.42599 166.193 7.42599 166.369ZM12.8337 167.497L11.3377 165.585V167.497H10.6977V163.633H11.3377V165.449L12.8817 163.633H13.6177L12.0257 165.449L13.6337 167.497H12.8337ZM15.6725 163.561C16.1098 163.561 16.4752 163.678 16.7685 163.913C17.0672 164.147 17.2618 164.47 17.3525 164.881H16.7685C16.7152 164.705 16.5952 164.555 16.4085 164.433C16.2272 164.31 15.9738 164.249 15.6485 164.249C15.2752 164.249 14.9872 164.371 14.7845 164.617C14.5818 164.862 14.4805 165.174 14.4805 165.553C14.4805 165.926 14.5818 166.238 14.7845 166.489C14.9872 166.739 15.2752 166.865 15.6485 166.865C15.9738 166.865 16.2272 166.803 16.4085 166.681C16.5952 166.558 16.7152 166.409 16.7685 166.233H17.3525C17.2618 166.638 17.0672 166.961 16.7685 167.201C16.4752 167.435 16.1098 167.553 15.6725 167.553C15.2992 167.553 14.9738 167.465 14.6965 167.289C14.4192 167.107 14.2058 166.865 14.0565 166.561C13.9072 166.257 13.8325 165.921 13.8325 165.553C13.8325 165.179 13.9072 164.843 14.0565 164.545C14.2058 164.246 14.4192 164.009 14.6965 163.833C14.9738 163.651 15.2992 163.561 15.6725 163.561ZM18.3439 167.569C18.2106 167.569 18.0933 167.521 17.9919 167.425C17.8906 167.329 17.8399 167.209 17.8399 167.065C17.8399 166.921 17.8906 166.801 17.9919 166.705C18.0933 166.609 18.2106 166.561 18.3439 166.561C18.4826 166.561 18.5999 166.609 18.6959 166.705C18.7919 166.801 18.8399 166.921 18.8399 167.065C18.8399 167.209 18.7919 167.329 18.6959 167.425C18.5999 167.521 18.4826 167.569 18.3439 167.569ZM21.1548 168.505V166.849H21.4908C21.7575 166.566 21.9521 166.171 22.0748 165.665C22.2028 165.153 22.2695 164.475 22.2748 163.633H24.6428V166.849H25.2188V168.505H24.6028V167.497H21.7708V168.505H21.1548ZM22.8188 164.281C22.8028 164.819 22.7495 165.302 22.6588 165.729C22.5681 166.155 22.4161 166.529 22.2028 166.849H24.0028V164.281H22.8188ZM25.4606 166.809C25.4926 166.814 25.5326 166.822 25.5806 166.833C25.634 166.838 25.6926 166.841 25.7566 166.841C25.9326 166.841 26.0606 166.723 26.1406 166.489C26.2206 166.254 26.2873 165.894 26.3406 165.409C26.3673 165.142 26.3886 164.865 26.4046 164.577C26.4206 164.289 26.4313 163.974 26.4366 163.633H28.8046V167.497H28.1646V164.281H26.9806C26.9753 164.478 26.9646 164.686 26.9486 164.905C26.938 165.118 26.9246 165.321 26.9086 165.513C26.8713 165.998 26.8153 166.39 26.7406 166.689C26.6713 166.987 26.57 167.203 26.4366 167.337C26.3033 167.47 26.1193 167.537 25.8846 167.537C25.8046 167.537 25.7273 167.531 25.6526 167.521C25.578 167.51 25.514 167.494 25.4606 167.473V166.809ZM30.5174 163.633V166.449L32.3814 163.633H33.0054V167.497H32.3654V164.633L30.4694 167.497H29.8774V163.633H30.5174ZM33.7285 163.633H36.8485V164.289H35.6085V167.497H34.9685V164.289H33.7285V163.633ZM37.3283 167.569C37.195 167.569 37.0776 167.521 36.9763 167.425C36.875 167.329 36.8243 167.209 36.8243 167.065C36.8243 166.921 36.875 166.801 36.9763 166.705C37.0776 166.609 37.195 166.561 37.3283 166.561C37.467 166.561 37.5843 166.609 37.6803 166.705C37.7763 166.801 37.8243 166.921 37.8243 167.065C37.8243 167.209 37.7763 167.329 37.6803 167.425C37.5843 167.521 37.467 167.569 37.3283 167.569ZM1.33693 176.305C1.4596 176.054 1.62493 175.87 1.83293 175.753C2.04093 175.63 2.30227 175.569 2.61693 175.569C2.98493 175.569 3.30227 175.654 3.56893 175.825C3.8356 175.99 4.03827 176.222 4.17693 176.521C4.32093 176.814 4.39293 177.15 4.39293 177.529C4.39293 177.907 4.32093 178.251 4.17693 178.561C4.03827 178.865 3.8356 179.107 3.56893 179.289C3.3076 179.47 2.99293 179.561 2.62493 179.561C2.33693 179.561 2.08893 179.51 1.88093 179.409C1.67293 179.302 1.50227 179.137 1.36893 178.913V181.097H0.728932V175.633H1.33693V176.305ZM2.51293 178.889C2.92893 178.889 3.23827 178.761 3.44093 178.505C3.6436 178.249 3.74493 177.923 3.74493 177.529C3.74493 177.134 3.64093 176.822 3.43293 176.593C3.23027 176.358 2.92093 176.241 2.50493 176.241C2.22227 176.241 1.98493 176.283 1.79293 176.369C1.60093 176.449 1.4596 176.582 1.36893 176.769V178.377C1.4596 178.558 1.60093 178.689 1.79293 178.769C1.99027 178.849 2.23027 178.889 2.51293 178.889ZM8.50074 178.321C8.44208 178.534 8.34608 178.737 8.21274 178.929C8.07941 179.115 7.89808 179.267 7.66874 179.385C7.43941 179.502 7.14874 179.561 6.79674 179.561C6.43941 179.561 6.12474 179.473 5.85274 179.297C5.58074 179.115 5.36741 178.873 5.21274 178.569C5.06341 178.265 4.98874 177.929 4.98874 177.561C4.98874 177.187 5.06341 176.851 5.21274 176.553C5.36741 176.254 5.58074 176.017 5.85274 175.841C6.12474 175.659 6.43941 175.569 6.79674 175.569C7.16474 175.569 7.48208 175.657 7.74874 175.833C8.01541 176.009 8.22074 176.251 8.36474 176.561C8.51408 176.87 8.58874 177.222 8.58874 177.617C8.58874 177.633 8.58874 177.649 8.58874 177.665C8.58874 177.681 8.58874 177.697 8.58874 177.713H5.63674C5.66341 178.07 5.77808 178.358 5.98074 178.577C6.18874 178.795 6.46074 178.905 6.79674 178.905C7.09541 178.905 7.33541 178.854 7.51674 178.753C7.69808 178.646 7.83141 178.502 7.91674 178.321H8.50074ZM6.79674 176.225C6.47141 176.225 6.21008 176.318 6.01274 176.505C5.82074 176.686 5.70074 176.934 5.65274 177.249H7.92474C7.88741 176.966 7.77808 176.726 7.59674 176.529C7.42074 176.326 7.15408 176.225 6.79674 176.225ZM11.561 179.497V177.697C11.4703 177.846 11.3423 177.969 11.177 178.065C11.017 178.161 10.8117 178.209 10.561 178.209C10.129 178.209 9.80099 178.091 9.57699 177.857C9.35299 177.622 9.24099 177.294 9.24099 176.873V175.633H9.88099V176.705C9.88099 176.998 9.95299 177.209 10.097 177.337C10.2463 177.465 10.4597 177.529 10.737 177.529C10.9077 177.529 11.065 177.51 11.209 177.473C11.3583 177.43 11.4757 177.366 11.561 177.281V175.633H12.201V179.497H11.561ZM13.9158 175.633V178.449L15.7798 175.633H16.4038V179.497H15.7638V176.633L13.8678 179.497H13.2758V175.633H13.9158ZM2.36093 187.569C2.7396 187.569 3.0676 187.657 3.34493 187.833C3.6276 188.009 3.84627 188.249 4.00093 188.553C4.16093 188.851 4.24093 189.187 4.24093 189.561C4.24093 189.934 4.16093 190.273 4.00093 190.577C3.84627 190.875 3.6276 191.115 3.34493 191.297C3.0676 191.473 2.7396 191.561 2.36093 191.561C1.9876 191.561 1.6596 191.473 1.37693 191.297C1.09427 191.115 0.872932 190.875 0.712932 190.577C0.558265 190.273 0.480932 189.934 0.480932 189.561C0.480932 189.187 0.558265 188.851 0.712932 188.553C0.872932 188.249 1.09427 188.009 1.37693 187.833C1.6596 187.657 1.9876 187.569 2.36093 187.569ZM2.36093 188.257C1.9876 188.257 1.68893 188.377 1.46493 188.617C1.24093 188.857 1.12893 189.171 1.12893 189.561C1.12893 189.95 1.24093 190.267 1.46493 190.513C1.68893 190.753 1.9876 190.873 2.36093 190.873C2.73427 190.873 3.03293 190.753 3.25693 190.513C3.48093 190.267 3.59293 189.95 3.59293 189.561C3.59293 189.171 3.48093 188.857 3.25693 188.617C3.03293 188.377 2.73427 188.257 2.36093 188.257ZM7.48087 191.497V188.281H5.70487V191.497H5.06487V187.633H8.12087V191.497H7.48087ZM12.4539 190.321C12.3952 190.534 12.2992 190.737 12.1659 190.929C12.0325 191.115 11.8512 191.267 11.6219 191.385C11.3925 191.502 11.1019 191.561 10.7499 191.561C10.3925 191.561 10.0779 191.473 9.80587 191.297C9.53387 191.115 9.32054 190.873 9.16587 190.569C9.01654 190.265 8.94187 189.929 8.94187 189.561C8.94187 189.187 9.01654 188.851 9.16587 188.553C9.32054 188.254 9.53387 188.017 9.80587 187.841C10.0779 187.659 10.3925 187.569 10.7499 187.569C11.1179 187.569 11.4352 187.657 11.7019 187.833C11.9685 188.009 12.1739 188.251 12.3179 188.561C12.4672 188.87 12.5419 189.222 12.5419 189.617C12.5419 189.633 12.5419 189.649 12.5419 189.665C12.5419 189.681 12.5419 189.697 12.5419 189.713H9.58987C9.61654 190.07 9.7312 190.358 9.93387 190.577C10.1419 190.795 10.4139 190.905 10.7499 190.905C11.0485 190.905 11.2885 190.854 11.4699 190.753C11.6512 190.646 11.7845 190.502 11.8699 190.321H12.4539ZM10.7499 188.225C10.4245 188.225 10.1632 188.318 9.96587 188.505C9.77387 188.686 9.65387 188.934 9.60587 189.249H11.8779C11.8405 188.966 11.7312 188.726 11.5499 188.529C11.3739 188.326 11.1072 188.225 10.7499 188.225ZM13.9541 188.305C14.0768 188.054 14.2421 187.87 14.4501 187.753C14.6581 187.63 14.9195 187.569 15.2341 187.569C15.6021 187.569 15.9195 187.654 16.1861 187.825C16.4528 187.99 16.6555 188.222 16.7941 188.521C16.9381 188.814 17.0101 189.15 17.0101 189.529C17.0101 189.907 16.9381 190.251 16.7941 190.561C16.6555 190.865 16.4528 191.107 16.1861 191.289C15.9248 191.47 15.6101 191.561 15.2421 191.561C14.9541 191.561 14.7061 191.51 14.4981 191.409C14.2901 191.302 14.1195 191.137 13.9861 190.913V193.097H13.3461V187.633H13.9541V188.305ZM15.1301 190.889C15.5461 190.889 15.8555 190.761 16.0581 190.505C16.2608 190.249 16.3621 189.923 16.3621 189.529C16.3621 189.134 16.2581 188.822 16.0501 188.593C15.8475 188.358 15.5381 188.241 15.1221 188.241C14.8395 188.241 14.6021 188.283 14.4101 188.369C14.2181 188.449 14.0768 188.582 13.9861 188.769V190.377C14.0768 190.558 14.2181 190.689 14.4101 190.769C14.6075 190.849 14.8475 190.889 15.1301 190.889ZM20.5339 191.513C20.3526 191.513 20.2033 191.462 20.0859 191.361C19.9686 191.254 19.8993 191.094 19.8779 190.881C19.7446 191.094 19.5846 191.257 19.3979 191.369C19.2166 191.475 19.0006 191.529 18.7499 191.529C18.4139 191.529 18.1419 191.441 17.9339 191.265C17.7259 191.089 17.6219 190.827 17.6219 190.481C17.6219 190.262 17.6619 190.081 17.7419 189.937C17.8219 189.787 17.9419 189.662 18.1019 189.561C18.2619 189.459 18.4593 189.363 18.6939 189.273L19.8379 188.825C19.8166 188.601 19.7313 188.446 19.5819 188.361C19.4379 188.275 19.2646 188.233 19.0619 188.233C18.8486 188.233 18.6673 188.278 18.5179 188.369C18.3739 188.454 18.2859 188.59 18.2539 188.777H17.6539C17.6913 188.494 17.7793 188.265 17.9179 188.089C18.0566 187.913 18.2273 187.782 18.4299 187.697C18.6326 187.611 18.8433 187.569 19.0619 187.569C19.4939 187.569 19.8379 187.683 20.0939 187.913C20.3499 188.137 20.4753 188.489 20.4699 188.969L20.4539 190.449C20.4539 190.603 20.4753 190.71 20.5179 190.769C20.5606 190.827 20.6299 190.857 20.7259 190.857H20.8779V191.497C20.8246 191.502 20.7659 191.505 20.7019 191.505C20.6433 191.51 20.5873 191.513 20.5339 191.513ZM18.2619 190.369C18.2619 190.545 18.3206 190.675 18.4379 190.761C18.5606 190.841 18.7286 190.881 18.9419 190.881C19.1339 190.881 19.3073 190.854 19.4619 190.801C19.6166 190.742 19.7366 190.665 19.8219 190.569L19.8379 189.313L19.1259 189.601C18.8166 189.723 18.5953 189.838 18.4619 189.945C18.3286 190.051 18.2619 190.193 18.2619 190.369ZM21.0644 187.633H24.1844V188.289H22.9444V191.497H22.3044V188.289H21.0644V187.633ZM26.4547 187.569C26.8333 187.569 27.1613 187.657 27.4387 187.833C27.7213 188.009 27.94 188.249 28.0947 188.553C28.2547 188.851 28.3347 189.187 28.3347 189.561C28.3347 189.934 28.2547 190.273 28.0947 190.577C27.94 190.875 27.7213 191.115 27.4387 191.297C27.1613 191.473 26.8333 191.561 26.4547 191.561C26.0813 191.561 25.7533 191.473 25.4707 191.297C25.188 191.115 24.9667 190.875 24.8067 190.577C24.652 190.273 24.5747 189.934 24.5747 189.561C24.5747 189.187 24.652 188.851 24.8067 188.553C24.9667 188.249 25.188 188.009 25.4707 187.833C25.7533 187.657 26.0813 187.569 26.4547 187.569ZM26.4547 188.257C26.0813 188.257 25.7827 188.377 25.5587 188.617C25.3347 188.857 25.2227 189.171 25.2227 189.561C25.2227 189.95 25.3347 190.267 25.5587 190.513C25.7827 190.753 26.0813 190.873 26.4547 190.873C26.828 190.873 27.1267 190.753 27.3507 190.513C27.5747 190.267 27.6867 189.95 27.6867 189.561C27.6867 189.171 27.5747 188.857 27.3507 188.617C27.1267 188.377 26.828 188.257 26.4547 188.257ZM29.7666 188.305C29.8893 188.054 30.0546 187.87 30.2626 187.753C30.4706 187.63 30.732 187.569 31.0466 187.569C31.4146 187.569 31.732 187.654 31.9986 187.825C32.2653 187.99 32.468 188.222 32.6066 188.521C32.7506 188.814 32.8226 189.15 32.8226 189.529C32.8226 189.907 32.7506 190.251 32.6066 190.561C32.468 190.865 32.2653 191.107 31.9986 191.289C31.7373 191.47 31.4226 191.561 31.0546 191.561C30.7666 191.561 30.5186 191.51 30.3106 191.409C30.1026 191.302 29.932 191.137 29.7986 190.913V193.097H29.1586V187.633H29.7666V188.305ZM30.9426 190.889C31.3586 190.889 31.668 190.761 31.8706 190.505C32.0733 190.249 32.1746 189.923 32.1746 189.529C32.1746 189.134 32.0706 188.822 31.8626 188.593C31.66 188.358 31.3506 188.241 30.9346 188.241C30.652 188.241 30.4146 188.283 30.2226 188.369C30.0306 188.449 29.8893 188.582 29.7986 188.769V190.377C29.8893 190.558 30.0306 190.689 30.2226 190.769C30.42 190.849 30.66 190.889 30.9426 190.889ZM36.3464 191.513C36.1651 191.513 36.0158 191.462 35.8984 191.361C35.7811 191.254 35.7118 191.094 35.6904 190.881C35.5571 191.094 35.3971 191.257 35.2104 191.369C35.0291 191.475 34.8131 191.529 34.5624 191.529C34.2264 191.529 33.9544 191.441 33.7464 191.265C33.5384 191.089 33.4344 190.827 33.4344 190.481C33.4344 190.262 33.4744 190.081 33.5544 189.937C33.6344 189.787 33.7544 189.662 33.9144 189.561C34.0744 189.459 34.2718 189.363 34.5064 189.273L35.6504 188.825C35.6291 188.601 35.5438 188.446 35.3944 188.361C35.2504 188.275 35.0771 188.233 34.8744 188.233C34.6611 188.233 34.4798 188.278 34.3304 188.369C34.1864 188.454 34.0984 188.59 34.0664 188.777H33.4664C33.5038 188.494 33.5918 188.265 33.7304 188.089C33.8691 187.913 34.0398 187.782 34.2424 187.697C34.4451 187.611 34.6558 187.569 34.8744 187.569C35.3064 187.569 35.6504 187.683 35.9064 187.913C36.1624 188.137 36.2878 188.489 36.2824 188.969L36.2664 190.449C36.2664 190.603 36.2878 190.71 36.3304 190.769C36.3731 190.827 36.4424 190.857 36.5384 190.857H36.6904V191.497C36.6371 191.502 36.5784 191.505 36.5144 191.505C36.4558 191.51 36.3998 191.513 36.3464 191.513ZM34.0744 190.369C34.0744 190.545 34.1331 190.675 34.2504 190.761C34.3731 190.841 34.5411 190.881 34.7544 190.881C34.9464 190.881 35.1198 190.854 35.2744 190.801C35.4291 190.742 35.5491 190.665 35.6344 190.569L35.6504 189.313L34.9384 189.601C34.6291 189.723 34.4078 189.838 34.2744 189.945C34.1411 190.051 34.0744 190.193 34.0744 190.369Z" fill="#1E2020"/>
</svg>
