<svg width="18" height="18" viewBox="0 0 18 18" fill="none" xmlns="http://www.w3.org/2000/svg">
<path d="M10.7959 2.95923H16.5C16.7761 2.95923 17 3.18309 17 3.45923V14.2143C17 14.4905 16.7761 14.7143 16.5 14.7143H10.7959" stroke="black"/>
<path d="M10.1979 1.11961L1.40194 2.8788C1.16823 2.92554 1 3.13075 1 3.36909V14.3175C1 14.5499 1.16009 14.7516 1.38638 14.8044L10.1823 16.8568C10.4959 16.93 10.7959 16.6919 10.7959 16.3699V1.6099C10.7959 1.29438 10.5073 1.05773 10.1979 1.11961Z" stroke="black"/>
<rect x="13.408" y="5.57147" width="1.95918" height="0.653061" fill="black"/>
<rect x="13.408" y="8.00006" width="1.95918" height="0.653061" fill="black"/>
<rect x="13.408" y="10.0001" width="1.95918" height="0.653061" fill="black"/>
<rect x="13.408" y="12" width="1.95918" height="0.653061" fill="black"/>
<rect x="10.7959" y="12" width="1.30612" height="0.653061" fill="black"/>
<rect x="10.7959" y="10.0001" width="1.30612" height="0.653061" fill="black"/>
<rect x="10.7959" y="8.00006" width="1.30612" height="0.653061" fill="black"/>
<rect x="10.7959" y="5.57147" width="1.30612" height="0.653061" fill="black"/>
<path d="M7.41411 6.72449L6.42046 8.96019L6.33021 9.16326L6.42046 9.36633L7.41411 11.602H7.20706L6.35735 9.61936L6.16188 9.16326L6.35735 8.70716L7.20706 6.72449H7.41411ZM5.4382 8.70716L5.63367 9.16326L5.4382 9.61936L4.58848 11.602H4.38144L5.37509 9.36633L5.46534 9.16326L5.37509 8.96019L4.38144 6.72449H4.58848L5.4382 8.70716Z" fill="black" stroke="black"/>
</svg>
