<svg width="20" height="20" viewBox="0 0 20 20" fill="none" xmlns="http://www.w3.org/2000/svg">
<path d="M11.25 3.5028C11.25 2.80655 10.4088 2.4578 9.91625 2.9503L6.9825 5.88405C6.86638 6.0002 6.72851 6.09234 6.57676 6.15518C6.42501 6.21802 6.26237 6.25034 6.09813 6.2503H3.75C3.08696 6.2503 2.45107 6.51369 1.98223 6.98253C1.51339 7.45137 1.25 8.08726 1.25 8.7503V11.2503C1.25 11.9133 1.51339 12.5492 1.98223 13.0181C2.45107 13.4869 3.08696 13.7503 3.75 13.7503H6.09813C6.26237 13.7502 6.42501 13.7826 6.57676 13.8454C6.72851 13.9083 6.86638 14.0004 6.9825 14.1165L9.91625 17.0503C10.4088 17.5428 11.25 17.194 11.25 16.4978V3.5028ZM7.86625 6.7678L10 4.63467V15.3672L7.86625 13.2334C7.63414 13.0011 7.35851 12.8167 7.05513 12.6909C6.75175 12.5651 6.42655 12.5004 6.09813 12.5003H3.75C3.41848 12.5003 3.10054 12.3686 2.86612 12.1342C2.6317 11.8998 2.5 11.5818 2.5 11.2503V8.7503C2.5 8.41878 2.6317 8.10083 2.86612 7.86641C3.10054 7.63199 3.41848 7.5003 3.75 7.5003H6.09813C6.42647 7.50039 6.75161 7.43581 7.05499 7.31023C7.35836 7.18465 7.63403 7.00055 7.86625 6.76842V6.7678ZM14.265 5.89655C14.2189 5.82801 14.1597 5.76929 14.0907 5.72378C14.0218 5.67828 13.9445 5.6469 13.8633 5.63145C13.7822 5.61599 13.6988 5.61678 13.6179 5.63377C13.5371 5.65075 13.4604 5.68359 13.3923 5.73039C13.3243 5.77719 13.2662 5.83702 13.2214 5.90642C13.1765 5.97582 13.1459 6.05341 13.1313 6.13471C13.1167 6.21601 13.1183 6.2994 13.1361 6.38007C13.1539 6.46074 13.1875 6.53708 13.235 6.60467C14.0381 7.7728 14.4144 8.90155 14.4144 10.0003C14.4144 11.099 14.0381 12.2278 13.235 13.3959C13.141 13.5325 13.1051 13.7008 13.1353 13.8639C13.1654 14.0269 13.259 14.1713 13.3956 14.2653C13.5322 14.3593 13.7005 14.3952 13.8636 14.365C14.0266 14.3349 14.171 14.2413 14.265 14.1047C15.1806 12.7728 15.6638 11.4015 15.6638 10.0003C15.6638 8.59905 15.1806 7.2278 14.265 5.89655V5.89655ZM16.0563 3.2978C15.9362 3.18342 15.7757 3.12141 15.61 3.12539C15.4442 3.12938 15.2869 3.19904 15.1725 3.31905C15.0581 3.43906 14.9961 3.59959 15.0001 3.76532C15.0041 3.93106 15.0737 4.08842 15.1938 4.2028C16.6856 5.62342 17.4613 7.78967 17.4613 10.0003C17.4613 12.2109 16.6856 14.3772 15.1938 15.7978C15.1343 15.8544 15.0866 15.9222 15.0534 15.9973C15.0202 16.0723 15.0021 16.1532 15.0001 16.2353C14.9981 16.3173 15.0123 16.399 15.0419 16.4756C15.0715 16.5521 15.1159 16.6221 15.1725 16.6815C15.2291 16.741 15.2969 16.7887 15.372 16.8219C15.447 16.8551 15.5279 16.8732 15.61 16.8752C15.692 16.8772 15.7737 16.863 15.8503 16.8334C15.9268 16.8038 15.9968 16.7594 16.0563 16.7028C17.8456 14.9984 18.7106 12.4772 18.7106 10.0003C18.7106 7.52342 17.8456 5.00217 16.0563 3.2978V3.2978Z" fill="black"/>
</svg>
