<svg width="611" height="205" viewBox="0 0 611 205" fill="none" xmlns="http://www.w3.org/2000/svg">
<rect y="50" width="611" height="2" fill="#C7F0F6"/>
<rect y="148" width="611" height="2" fill="#C7F0F6"/>
<path d="M57.5 0.5H66.5V13.0073L62 19.1536L57.5 13.0073V0.5Z" fill="#F2C725" stroke="#D5B849"/>
<path d="M218.5 0.5H227.5V13.0073L223 19.1536L218.5 13.0073V0.5Z" fill="#F2C725" stroke="#D5B849"/>
<path d="M301.5 0.5H310.5V13.0073L306 19.1536L301.5 13.0073V0.5Z" fill="#F2C725" stroke="#D5B849"/>
<path d="M547.5 0.5H556.5V13.0073L552 19.1536L547.5 13.0073V0.5Z" fill="#F2C725" stroke="#D5B849"/>
<path d="M127.5 202.5H118.5V189.993L123 183.846L127.5 189.993V202.5Z" fill="#C8E4FA" stroke="#BBCFE0"/>
<path d="M423.5 202.5H414.5V189.993L419 183.846L423.5 189.993V202.5Z" fill="#C8E4FA" stroke="#BBCFE0"/>
<path d="M449.5 202.5H440.5V189.993L445 183.846L449.5 189.993V202.5Z" fill="#C8E4FA" stroke="#BBCFE0"/>
<path d="M128 148.046V149.318L279 149V147.728L277.5 144.867L276 142.006L275 138.191V133.104L273.5 131.514V127.382V114.983L271.5 108.624V117.208L270.5 144.867L267.5 145.503L265.5 147.728H255L252.5 147.092V147.728H251.5V146.139L250 144.867V129.607L249.5 124.52L249 117.208L247.5 113.711V120.069L246.5 147.728H245L243.5 147.092L242.5 147.728L241.5 146.139L240 147.092L239 146.139H237.5H235.5L233 147.092H232V146.139L230.5 145.503V139.145L229.5 138.191V136.283V132.15H228.5V134.058L227.5 137.555L227 144.231L226 143.595V141.052L225 138.827V135.647V131.514L223 141.052H222V138.509H220.5V141.052H219L217.5 142.006L216 143.277V141.052V136.919V133.422L215.5 129.607H214.5V126.11V123.249L213.5 122.295V127.382L212.5 129.607V130.561V133.104L211 134.694V136.283L208.5 138.827L207.5 141.052V142.642V145.503L206.5 146.139L205.5 147.092L204.5 145.503V144.231V141.37V138.827L203.5 137.555V135.329V132.15H202.5V131.197C202 131.197 201 131.069 201 130.561C201 130.052 200 129.713 199.5 129.607V125.156L198.5 123.249L197 121.977L196.5 120.705V117.208L195.5 114.983L195 117.844V121.659L193.5 118.798V113.393L192.5 111.486L191.5 119.434V127.382V133.74L191 134.058V135.647H189.5V137.873L189 139.462L188.5 139.145L188 138.827V136.919V134.694L187.5 133.104V130.561H186.5V116.89L186 116.572V110.85V105.763L185 94V105.763H183.5V109.578V117.208L182.5 117.844V125.156V130.561V134.058V135.329L181.5 136.919V134.694V132.468L180.5 132.15V125.474L179.5 125.156V121.341V119.434L179 113.711V110.85L178.5 108.624L177.5 107.353V111.168V117.844L177 118.798V131.197L176 132.468V133.74H175.5V131.514V127.382H174V128.017H173.5V129.607L172.5 130.243V132.468H172V134.694V136.283L170.5 136.919V135.647L169.5 135.329V110.214H169V101.63L168 100.358L167.5 95.2717V111.168L166.5 111.486V117.208V123.249H165.5V132.468V135.329L164 136.283V137.555H162.5V135.647V135.329L161.5 134.694V133.74H160.5L160 132.468V131.197L159 132.468V143.595V144.867V146.139H157.5V145.503V143.277V141.052L156.5 139.78V136.919L156 136.283V133.104V128.017V121.341V118.798V117.844L154.5 117.208V113.393V111.486L153.5 111.168V123.249V128.017H152.5V132.15V139.78L152 141.37L151.5 139.78V137.555V130.561H150.5V123.249V119.751V117.208L149.5 115.618V118.162L148.5 120.069V124.202V126.11L147.5 128.971V133.104C147.333 133.74 147.1 135.075 147.5 135.329C147.9 135.584 147.667 137.343 147.5 138.191C147.333 138.827 146.9 140.289 146.5 141.052C146.1 141.815 145.667 142.006 145.5 142.006V138.827V136.919L144.5 135.647V138.509L143.5 141.052V143.277V145.503L142.5 146.139V144.867V143.595H141.5V142.006L140.5 141.052V139.78L140 135.329L140.5 126.746L140 118.162L139.5 117.844V113.393L139 112.439V108.624L138.5 107.988L138 105.763V102.902L137.5 100.676V108.942H136.5V116.254V134.058H135.5V133.104L134.5 134.058V136.919L133.5 137.555V142.006H132.5V138.191H131.5V135.647L130.5 135.329V136.919L129.5 137.555V142.642V144.867L128 148.046Z" fill="#00BCD4" stroke="#00BCD4" stroke-width="0.5" stroke-linejoin="round"/>
<path d="M128 149.954V148.682L279 149V150.272L277.5 153.133L276 155.994L275 159.809V164.896L273.5 166.486V170.618V183.017L271.5 189.376V180.792L270.5 153.133L267.5 152.497L265.5 150.272H255L252.5 150.908V150.272H251.5V151.861L250 153.133V168.393L249.5 173.48L249 180.792L247.5 184.289V177.931L246.5 150.272H245L243.5 150.908L242.5 150.272L241.5 151.861L240 150.908L239 151.861H237.5H235.5L233 150.908H232V151.861L230.5 152.497V158.855L229.5 159.809V161.717V165.85H228.5V163.942L227.5 160.445L227 153.769L226 154.405V156.948L225 159.173V162.353V166.486L223 156.948H222V159.491H220.5V156.948H219L217.5 155.994L216 154.723V156.948V161.081V164.578L215.5 168.393H214.5V171.89V174.751L213.5 175.705V170.618L212.5 168.393V167.439V164.896L211 163.306V161.717L208.5 159.173L207.5 156.948V155.358V152.497L206.5 151.861L205.5 150.908L204.5 152.497V153.769V156.63V159.173L203.5 160.445V162.671V165.85H202.5V166.803C202 166.803 201 166.931 201 167.439C201 167.948 200 168.287 199.5 168.393V172.844L198.5 174.751L197 176.023L196.5 177.295V180.792L195.5 183.017L195 180.156V176.341L193.5 179.202V184.607L192.5 186.514L191.5 178.566V170.618V164.26L191 163.942V162.353H189.5V160.127L189 158.538L188.5 158.855L188 159.173V161.081V163.306L187.5 164.896V167.439H186.5V181.11L186 181.428V187.15V192.237L185 204V192.237H183.5V188.422V180.792L182.5 180.156V172.844V167.439V163.942V162.671L181.5 161.081V163.306V165.532L180.5 165.85V172.526L179.5 172.844V176.659V178.566L179 184.289V187.15L178.5 189.376L177.5 190.647V186.832V180.156L177 179.202V166.803L176 165.532V164.26H175.5V166.486V170.618H174V169.983H173.5V168.393L172.5 167.757V165.532H172V163.306V161.717L170.5 161.081V162.353L169.5 162.671V187.786H169V196.37L168 197.642L167.5 202.728V186.832L166.5 186.514V180.792V174.751H165.5V165.532V162.671L164 161.717V160.445H162.5V162.353V162.671L161.5 163.306V164.26H160.5L160 165.532V166.803L159 165.532V154.405V153.133V151.861H157.5V152.497V154.723V156.948L156.5 158.22V161.081L156 161.717V164.896V169.983V176.659V179.202V180.156L154.5 180.792V184.607V186.514L153.5 186.832V174.751V169.983H152.5V165.85V158.22L152 156.63L151.5 158.22V160.445V167.439H150.5V174.751V178.249V180.792L149.5 182.382V179.838L148.5 177.931V173.798V171.89L147.5 169.029V164.896C147.333 164.26 147.1 162.925 147.5 162.671C147.9 162.416 147.667 160.657 147.5 159.809C147.333 159.173 146.9 157.711 146.5 156.948C146.1 156.185 145.667 155.994 145.5 155.994V159.173V161.081L144.5 162.353V159.491L143.5 156.948V154.723V152.497L142.5 151.861V153.133V154.405H141.5V155.994L140.5 156.948V158.22L140 162.671L140.5 171.254L140 179.838L139.5 180.156V184.607L139 185.561V189.376L138.5 190.012L138 192.237V195.098L137.5 197.324V189.058H136.5V181.746V163.942H135.5V164.896L134.5 163.942V161.081L133.5 160.445V155.994H132.5V159.809H131.5V162.353L130.5 162.671V161.081L129.5 160.445V155.358V153.133L128 149.954Z" fill="#00BCD4" stroke="#00BCD4" stroke-width="0.5" stroke-linejoin="round"/>
<path d="M445 50.7457V51.7514L596 51.5V50.4942L594.5 48.2312L593 45.9682L592 42.9509V38.9277L590.5 37.6705V34.4017V24.5954L588.5 19.5665V26.3555L587.5 48.2312L584.5 48.7341L582.5 50.4942H572L569.5 49.9913V50.4942H568.5V49.237L567 48.2312V36.1618L566.5 32.1387L566 26.3555L564.5 23.5896V28.6185L563.5 50.4942H562L560.5 49.9913L559.5 50.4942L558.5 49.237L557 49.9913L556 49.237H554.5H552.5L550 49.9913H549V49.237L547.5 48.7341V43.7052L546.5 42.9509V41.4422V38.1734H545.5V39.6821L544.5 42.448L544 47.7283L543 47.2254V45.2139L542 43.4538V40.9393V37.6705L540 45.2139H539V43.2023H537.5V45.2139H536L534.5 45.9682L533 46.974V45.2139V41.9451V39.1792L532.5 36.1618H531.5V33.396V31.1329L530.5 30.3786V34.4017L529.5 36.1618V36.9162V38.9277L528 40.185V41.4422L525.5 43.4538L524.5 45.2139V46.4711V48.7341L523.5 49.237L522.5 49.9913L521.5 48.7341V47.7283V45.4653V43.4538L520.5 42.448V40.6879V38.1734H519.5V37.4191C519 37.4191 518 37.3185 518 36.9162C518 36.5139 517 36.2457 516.5 36.1618V32.6416L515.5 31.1329L514 30.1272L513.5 29.1214V26.3555L512.5 24.5954L512 26.8584V29.8757L510.5 27.6127V23.3382L509.5 21.8295L508.5 28.1156V34.4017V39.4306L508 39.6821V40.9393H506.5V42.6994L506 43.9566L505.5 43.7052L505 43.4538V41.9451V40.185L504.5 38.9277V36.9162H503.5V26.104L503 25.8526V21.3266V17.3035L502 8V17.3035H500.5V20.3208V26.3555L499.5 26.8584V32.6416V36.9162V39.6821V40.6879L498.5 41.9451V40.185V38.4249L497.5 38.1734V32.8931L496.5 32.6416V29.6243V28.1156L496 23.5896V21.3266L495.5 19.5665L494.5 18.5607V21.578V26.8584L494 27.6127V37.4191L493 38.4249V39.4306H492.5V37.6705V34.4017H491V34.9046H490.5V36.1618L489.5 36.6647V38.4249H489V40.185V41.4422L487.5 41.9451V40.9393L486.5 40.6879V20.8237H486V14.0347L485 13.0289L484.5 9.00578V21.578L483.5 21.8295V26.3555V31.1329H482.5V38.4249V40.6879L481 41.4422V42.448H479.5V40.9393V40.6879L478.5 40.185V39.4306H477.5L477 38.4249V37.4191L476 38.4249V47.2254V48.2312V49.237H474.5V48.7341V46.974V45.2139L473.5 44.2081V41.9451L473 41.4422V38.9277V34.9046V29.6243V27.6127V26.8584L471.5 26.3555V23.3382V21.8295L470.5 21.578V31.1329V34.9046H469.5V38.1734V44.2081L469 45.4653L468.5 44.2081V42.448V36.9162H467.5V31.1329V28.3671V26.3555L466.5 25.0983V27.1098L465.5 28.6185V31.8873V33.396L464.5 35.659V38.9277C464.333 39.4306 464.1 40.4867 464.5 40.6879C464.9 40.889 464.667 42.2803 464.5 42.9509C464.333 43.4538 463.9 44.6104 463.5 45.2139C463.1 45.8173 462.667 45.9682 462.5 45.9682V43.4538V41.9451L461.5 40.9393V43.2023L460.5 45.2139V46.974V48.7341L459.5 49.237V48.2312V47.2254H458.5V45.9682L457.5 45.2139V44.2081L457 40.6879L457.5 33.8988L457 27.1098L456.5 26.8584V23.3382L456 22.5838V19.5665L455.5 19.0636L455 17.3035V15.0405L454.5 13.2803V19.8179H453.5V25.6012V39.6821H452.5V38.9277L451.5 39.6821V41.9451L450.5 42.448V45.9682H449.5V42.9509H448.5V40.9393L447.5 40.6879V41.9451L446.5 42.448V46.4711V48.2312L445 50.7457Z" fill="#00BCD4" stroke="#00BCD4" stroke-width="0.5" stroke-linejoin="round"/>
<path d="M445 52.2543V51.2486L596 51.5V52.5058L594.5 54.7688L593 57.0318L592 60.0491V64.0723L590.5 65.3295V68.5983V78.4046L588.5 83.4335V76.6445L587.5 54.7688L584.5 54.2659L582.5 52.5058H572L569.5 53.0087V52.5058H568.5V53.763L567 54.7688V66.8382L566.5 70.8613L566 76.6445L564.5 79.4104V74.3815L563.5 52.5058H562L560.5 53.0087L559.5 52.5058L558.5 53.763L557 53.0087L556 53.763H554.5H552.5L550 53.0087H549V53.763L547.5 54.2659V59.2948L546.5 60.0491V61.5578V64.8266H545.5V63.3179L544.5 60.552L544 55.2717L543 55.7746V57.7861L542 59.5462V62.0607V65.3295L540 57.7861H539V59.7977H537.5V57.7861H536L534.5 57.0318L533 56.026V57.7861V61.0549V63.8208L532.5 66.8382H531.5V69.604V71.8671L530.5 72.6214V68.5983L529.5 66.8382V66.0838V64.0723L528 62.815V61.5578L525.5 59.5462L524.5 57.7861V56.5289V54.2659L523.5 53.763L522.5 53.0087L521.5 54.2659V55.2717V57.5347V59.5462L520.5 60.552V62.3121V64.8266H519.5V65.5809C519 65.5809 518 65.6815 518 66.0838C518 66.4861 517 66.7543 516.5 66.8382V70.3584L515.5 71.8671L514 72.8728L513.5 73.8786V76.6445L512.5 78.4046L512 76.1416V73.1243L510.5 75.3873V79.6618L509.5 81.1705L508.5 74.8844V68.5983V63.5694L508 63.3179V62.0607H506.5V60.3006L506 59.0434L505.5 59.2948L505 59.5462V61.0549V62.815L504.5 64.0723V66.0838H503.5V76.896L503 77.1474V81.6734V85.6965L502 95V85.6965H500.5V82.6792V76.6445L499.5 76.1416V70.3584V66.0838V63.3179V62.3121L498.5 61.0549V62.815V64.5751L497.5 64.8266V70.1069L496.5 70.3584V73.3757V74.8844L496 79.4104V81.6734L495.5 83.4335L494.5 84.4393V81.422V76.1416L494 75.3873V65.5809L493 64.5751V63.5694H492.5V65.3295V68.5983H491V68.0954H490.5V66.8382L489.5 66.3353V64.5751H489V62.815V61.5578L487.5 61.0549V62.0607L486.5 62.3121V82.1763H486V88.9653L485 89.9711L484.5 93.9942V81.422L483.5 81.1705V76.6445V71.8671H482.5V64.5751V62.3121L481 61.5578V60.552H479.5V62.0607V62.3121L478.5 62.815V63.5694H477.5L477 64.5751V65.5809L476 64.5751V55.7746V54.7688V53.763H474.5V54.2659V56.026V57.7861L473.5 58.7919V61.0549L473 61.5578V64.0723V68.0954V73.3757V75.3873V76.1416L471.5 76.6445V79.6618V81.1705L470.5 81.422V71.8671V68.0954H469.5V64.8266V58.7919L469 57.5347L468.5 58.7919V60.552V66.0838H467.5V71.8671V74.6329V76.6445L466.5 77.9017V75.8902L465.5 74.3815V71.1127V69.604L464.5 67.341V64.0723C464.333 63.5694 464.1 62.5133 464.5 62.3121C464.9 62.111 464.667 60.7197 464.5 60.0491C464.333 59.5462 463.9 58.3896 463.5 57.7861C463.1 57.1827 462.667 57.0318 462.5 57.0318V59.5462V61.0549L461.5 62.0607V59.7977L460.5 57.7861V56.026V54.2659L459.5 53.763V54.7688V55.7746H458.5V57.0318L457.5 57.7861V58.7919L457 62.3121L457.5 69.1012L457 75.8902L456.5 76.1416V79.6618L456 80.4162V83.4335L455.5 83.9364L455 85.6965V87.9595L454.5 89.7197V83.1821H453.5V77.3988V63.3179H452.5V64.0723L451.5 63.3179V61.0549L450.5 60.552V57.0318H449.5V60.0491H448.5V62.0607L447.5 62.3121V61.0549L446.5 60.552V56.5289V54.7688L445 52.2543Z" fill="#00BCD4" stroke="#00BCD4" stroke-width="0.5" stroke-linejoin="round"/>
<path d="M392 49.7457V50.7514L306 50.5V49.4942L306.854 47.2312L307.709 44.9682L308.278 41.9509V37.9277L309.132 36.6705V33.4017V23.5954L310.272 18.5665V25.3555L310.841 47.2312L312.55 47.7341L313.689 49.4942H319.669L321.093 48.9913V49.4942H321.662V48.237L322.517 47.2312V35.1618L322.801 31.1387L323.086 25.3555L323.94 22.5896V27.6185L324.51 49.4942H325.364L326.219 48.9913L326.788 49.4942L327.358 48.237L328.212 48.9913L328.781 48.237H329.636H330.775L332.199 48.9913H332.768V48.237L333.623 47.7341V42.7052L334.192 41.9509V40.4422V37.1734H334.762V38.6821L335.331 41.448L335.616 46.7283L336.185 46.2254V44.2139L336.755 42.4538V39.9393V36.6705L337.894 44.2139H338.464V42.2023H339.318V44.2139H340.172L341.026 44.9682L341.881 45.974V44.2139V40.9451V38.1792L342.166 35.1618H342.735V32.396V30.1329L343.305 29.3786V33.4017L343.874 35.1618V35.9162V37.9277L344.728 39.185V40.4422L346.152 42.4538L346.722 44.2139V45.4711V47.7341L347.291 48.237L347.861 48.9913L348.43 47.7341V46.7283V44.4653V42.4538L349 41.448V39.6879V37.1734H349.57V36.4191C349.854 36.4191 350.424 36.3185 350.424 35.9162C350.424 35.5139 350.993 35.2457 351.278 35.1618V31.6416L351.848 30.1329L352.702 29.1272L352.987 28.1214V25.3555L353.556 23.5954L353.841 25.8584V28.8757L354.695 26.6127V22.3382L355.265 20.8295L355.834 27.1156V33.4017V38.4306L356.119 38.6821V39.9393H356.974V41.6994L357.258 42.9566L357.543 42.7052L357.828 42.4538V40.9451V39.185L358.113 37.9277V35.9162H358.682V25.104L358.967 24.8526V20.3266V16.3035L359.536 7V16.3035H360.391V19.3208V25.3555L360.96 25.8584V31.6416V35.9162V38.6821V39.6879L361.53 40.9451V39.185V37.4249L362.099 37.1734V31.8931L362.669 31.6416V28.6243V27.1156L362.954 22.5896V20.3266L363.238 18.5665L363.808 17.5607V20.578V25.8584L364.093 26.6127V36.4191L364.662 37.4249V38.4306H364.947V36.6705V33.4017H365.801V33.9046H366.086V35.1618L366.656 35.6647V37.4249H366.94V39.185V40.4422L367.795 40.9451V39.9393L368.364 39.6879V19.8237H368.649V13.0347L369.219 12.0289L369.503 8.00578V20.578L370.073 20.8295V25.3555V30.1329H370.642V37.4249V39.6879L371.497 40.4422V41.448H372.351V39.9393V39.6879L372.921 39.185V38.4306H373.49L373.775 37.4249V36.4191L374.344 37.4249V46.2254V47.2312V48.237H375.199V47.7341V45.974V44.2139L375.768 43.2081V40.9451L376.053 40.4422V37.9277V33.9046V28.6243V26.6127V25.8584L376.907 25.3555V22.3382V20.8295L377.477 20.578V30.1329V33.9046H378.046V37.1734V43.2081L378.331 44.4653L378.616 43.2081V41.448V35.9162H379.185V30.1329V27.3671V25.3555L379.755 24.0983V26.1098L380.325 27.6185V30.8873V32.396L380.894 34.659V37.9277C380.989 38.4306 381.122 39.4867 380.894 39.6879C380.666 39.889 380.799 41.2803 380.894 41.9509C380.989 42.4538 381.236 43.6104 381.464 44.2139C381.691 44.8173 381.938 44.9682 382.033 44.9682V42.4538V40.9451L382.603 39.9393V42.2023L383.172 44.2139V45.974V47.7341L383.742 48.237V47.2312V46.2254H384.311V44.9682L384.881 44.2139V43.2081L385.166 39.6879L384.881 32.8988L385.166 26.1098L385.45 25.8584V22.3382L385.735 21.5838V18.5665L386.02 18.0636L386.305 16.3035V14.0405L386.589 12.2803V18.8179H387.159V24.6012V38.6821H387.728V37.9277L388.298 38.6821V40.9451L388.868 41.448V44.9682H389.437V41.9509H390.007V39.9393L390.576 39.6879V40.9451L391.146 41.448V45.4711V47.2312L392 49.7457Z" fill="#00BCD4" stroke="#00BCD4" stroke-width="0.5" stroke-linejoin="round"/>
<path d="M392 51.2543V50.2486L306 50.5V51.5058L306.854 53.7688L307.709 56.0318L308.278 59.0491V63.0723L309.132 64.3295V67.5983V77.4046L310.272 82.4335V75.6445L310.841 53.7688L312.55 53.2659L313.689 51.5058H319.669L321.093 52.0087V51.5058H321.662V52.763L322.517 53.7688V65.8382L322.801 69.8613L323.086 75.6445L323.94 78.4104V73.3815L324.51 51.5058H325.364L326.219 52.0087L326.788 51.5058L327.358 52.763L328.212 52.0087L328.781 52.763H329.636H330.775L332.199 52.0087H332.768V52.763L333.623 53.2659V58.2948L334.192 59.0491V60.5578V63.8266H334.762V62.3179L335.331 59.552L335.616 54.2717L336.185 54.7746V56.7861L336.755 58.5462V61.0607V64.3295L337.894 56.7861H338.464V58.7977H339.318V56.7861H340.172L341.026 56.0318L341.881 55.026V56.7861V60.0549V62.8208L342.166 65.8382H342.735V68.604V70.8671L343.305 71.6214V67.5983L343.874 65.8382V65.0838V63.0723L344.728 61.815V60.5578L346.152 58.5462L346.722 56.7861V55.5289V53.2659L347.291 52.763L347.861 52.0087L348.43 53.2659V54.2717V56.5347V58.5462L349 59.552V61.3121V63.8266H349.57V64.5809C349.854 64.5809 350.424 64.6815 350.424 65.0838C350.424 65.4861 350.993 65.7543 351.278 65.8382V69.3584L351.848 70.8671L352.702 71.8728L352.987 72.8786V75.6445L353.556 77.4046L353.841 75.1416V72.1243L354.695 74.3873V78.6618L355.265 80.1705L355.834 73.8844V67.5983V62.5694L356.119 62.3179V61.0607H356.974V59.3006L357.258 58.0434L357.543 58.2948L357.828 58.5462V60.0549V61.815L358.113 63.0723V65.0838H358.682V75.896L358.967 76.1474V80.6734V84.6965L359.536 94V84.6965H360.391V81.6792V75.6445L360.96 75.1416V69.3584V65.0838V62.3179V61.3121L361.53 60.0549V61.815V63.5751L362.099 63.8266V69.1069L362.669 69.3584V72.3757V73.8844L362.954 78.4104V80.6734L363.238 82.4335L363.808 83.4393V80.422V75.1416L364.093 74.3873V64.5809L364.662 63.5751V62.5694H364.947V64.3295V67.5983H365.801V67.0954H366.086V65.8382L366.656 65.3353V63.5751H366.94V61.815V60.5578L367.795 60.0549V61.0607L368.364 61.3121V81.1763H368.649V87.9653L369.219 88.9711L369.503 92.9942V80.422L370.073 80.1705V75.6445V70.8671H370.642V63.5751V61.3121L371.497 60.5578V59.552H372.351V61.0607V61.3121L372.921 61.815V62.5694H373.49L373.775 63.5751V64.5809L374.344 63.5751V54.7746V53.7688V52.763H375.199V53.2659V55.026V56.7861L375.768 57.7919V60.0549L376.053 60.5578V63.0723V67.0954V72.3757V74.3873V75.1416L376.907 75.6445V78.6618V80.1705L377.477 80.422V70.8671V67.0954H378.046V63.8266V57.7919L378.331 56.5347L378.616 57.7919V59.552V65.0838H379.185V70.8671V73.6329V75.6445L379.755 76.9017V74.8902L380.325 73.3815V70.1127V68.604L380.894 66.341V63.0723C380.989 62.5694 381.122 61.5133 380.894 61.3121C380.666 61.111 380.799 59.7197 380.894 59.0491C380.989 58.5462 381.236 57.3896 381.464 56.7861C381.691 56.1827 381.938 56.0318 382.033 56.0318V58.5462V60.0549L382.603 61.0607V58.7977L383.172 56.7861V55.026V53.2659L383.742 52.763V53.7688V54.7746H384.311V56.0318L384.881 56.7861V57.7919L385.166 61.3121L384.881 68.1012L385.166 74.8902L385.45 75.1416V78.6618L385.735 79.4162V82.4335L386.02 82.9364L386.305 84.6965V86.9595L386.589 88.7197V82.1821H387.159V76.3988V62.3179H387.728V63.0723L388.298 62.3179V60.0549L388.868 59.552V56.0318H389.437V59.0491H390.007V61.0607L390.576 61.3121V60.0549L391.146 59.552V55.5289V53.7688L392 51.2543Z" fill="#00BCD4" stroke="#00BCD4" stroke-width="0.5" stroke-linejoin="round"/>
<path d="M28.91 41.2861L26.6433 43.7052L26.4167 45.8555L25.5667 47.4682L25 51.5H42V50.4249L41.15 47.737L39.45 50.1561H37.1833L36.05 48.8121V38.8671V31.8786L35.2 21.6647L34.0667 33.7601V38.8671C34.0667 39.7272 32.9333 40.4798 32.3667 40.7486V37.7919L31.2333 33.7601V18.7081L30.1 14.6763V5L29.5333 8.22543L28.9667 12.526V18.7081L28.91 41.2861Z" fill="#00BCD4" stroke="#00BCD4" stroke-width="0.5" stroke-linejoin="round"/>
<path d="M28.91 61.7139L26.6433 59.2948L26.4167 57.1445L25.5667 55.5318L25 51.5H42V52.5751L41.15 55.263L39.45 52.8439H37.1833L36.05 54.1879L36.05 64.1329V71.1214L35.2 81.3353L34.0667 69.2399V64.1329C34.0667 63.2728 32.9333 62.5202 32.3667 62.2514V65.2081L31.2333 69.2399L31.2333 84.2919L30.1 88.3237V98L29.5333 94.7746L28.9667 90.474L28.9667 84.2919L28.91 61.7139Z" fill="#00BCD4" stroke="#00BCD4" stroke-width="0.5" stroke-linejoin="round"/>
<path d="M91.91 41.2861L89.6433 43.7052L89.4167 45.8555L88.5667 47.4682L88 51.5H105V50.4249L104.15 47.737L102.45 50.1561H100.183L99.05 48.8121V38.8671V31.8786L98.2 21.6647L97.0667 33.7601V38.8671C97.0667 39.7272 95.9333 40.4798 95.3667 40.7486V37.7919L94.2333 33.7601V18.7081L93.1 14.6763V5L92.5333 8.22543L91.9667 12.526V18.7081L91.91 41.2861Z" fill="#00BCD4" stroke="#00BCD4" stroke-width="0.5" stroke-linejoin="round"/>
<path d="M91.91 61.7139L89.6433 59.2948L89.4167 57.1445L88.5667 55.5318L88 51.5H105V52.5751L104.15 55.263L102.45 52.8439H100.183L99.05 54.1879L99.05 64.1329V71.1214L98.2 81.3353L97.0667 69.2399V64.1329C97.0667 63.2728 95.9333 62.5202 95.3667 62.2514L95.3667 65.2081L94.2333 69.2399V84.2919L93.1 88.3237V98L92.5333 94.7746L91.9667 90.474V84.2919L91.91 61.7139Z" fill="#00BCD4" stroke="#00BCD4" stroke-width="0.5" stroke-linejoin="round"/>
<path d="M229.91 41.9942L227.643 44.1272L227.417 46.0231L226.567 47.4451L226 51H243V50.052L242.15 47.6821L240.45 49.815H238.183L237.05 48.6301V39.8613V33.6994L236.2 24.6936L235.067 35.3584V39.8613C235.067 40.6197 233.933 41.2832 233.367 41.5202V38.9133L232.233 35.3584V22.0867L231.1 18.5318V10L230.533 12.8439L229.967 16.6358V22.0867L229.91 41.9942Z" fill="#00BCD4" stroke="#00BCD4" stroke-width="0.5" stroke-linejoin="round"/>
<path d="M229.91 60.0058L227.643 57.8728L227.417 55.9769L226.567 54.5549L226 51H243V51.948L242.15 54.3179L240.45 52.185H238.183L237.05 53.3699V62.1387V68.3006L236.2 77.3064L235.067 66.6416V62.1387C235.067 61.3803 233.933 60.7168 233.367 60.4798V63.0867L232.233 66.6416V79.9133L231.1 83.4682V92L230.533 89.1561L229.967 85.3642V79.9133L229.91 60.0058Z" fill="#00BCD4" stroke="#00BCD4" stroke-width="0.5" stroke-linejoin="round"/>
<path d="M418.91 141.312L416.643 143.133L416.417 144.751L415.567 145.965L415 149H432V148.191L431.15 146.168L429.45 147.988H427.183L426.05 146.977V139.491V134.231L425.2 126.543L424.067 135.647V139.491C424.067 140.139 422.933 140.705 422.367 140.908V138.682L421.233 135.647V124.318L420.1 121.283V114L419.533 116.428L418.967 119.665V124.318L418.91 141.312Z" fill="#00BCD4" stroke="#00BCD4" stroke-width="0.5" stroke-linejoin="round"/>
<path d="M418.91 156.688L416.643 154.867L416.417 153.249L415.567 152.035L415 149H432V149.809L431.15 151.832L429.45 150.012H427.183L426.05 151.023V158.509V163.769L425.2 171.457L424.067 162.353V158.509C424.067 157.861 422.933 157.295 422.367 157.092V159.318L421.233 162.353V173.682L420.1 176.717V184L419.533 181.572L418.967 178.335V173.682L418.91 156.688Z" fill="#00BCD4" stroke="#00BCD4" stroke-width="0.5" stroke-linejoin="round"/>
<path d="M443.09 141.312L445.357 143.133L445.583 144.751L446.433 145.965L447 149H430V148.191L430.85 146.168L432.55 147.988H434.817L435.95 146.977V139.491V134.231L436.8 126.543L437.933 135.647V139.491C437.933 140.139 439.067 140.705 439.633 140.908V138.682L440.767 135.647V124.318L441.9 121.283V114L442.467 116.428L443.033 119.665V124.318L443.09 141.312Z" fill="#00BCD4" stroke="#00BCD4" stroke-width="0.5" stroke-linejoin="round"/>
<path d="M443.09 156.688L445.357 154.867L445.583 153.249L446.433 152.035L447 149H430V149.809L430.85 151.832L432.55 150.012H434.817L435.95 151.023V158.509V163.769L436.8 171.457L437.933 162.353V158.509C437.933 157.861 439.067 157.295 439.633 157.092V159.318L440.767 162.353V173.682L441.9 176.717V184L442.467 181.572L443.033 178.335V173.682L443.09 156.688Z" fill="#00BCD4" stroke="#00BCD4" stroke-width="0.5" stroke-linejoin="round"/>
<path d="M61.5014 20.5L62 20L62.5014 20.5L62 203H61L61.5014 20.5Z" fill="#E6E6E6"/>
<path d="M222.501 20.5L223 20L223.501 20.5L223 203H222L222.501 20.5Z" fill="#E6E6E6"/>
<path d="M305.501 20.5L306 20L306.501 20.5L306 203H305L305.501 20.5Z" fill="#E6E6E6"/>
<path d="M551.501 20.5L552 20L552.501 20.5L552 203H551L551.501 20.5Z" fill="#E6E6E6"/>
<path d="M445.501 182.5L445.003 183L444.5 182.5L445.003 0H446.003L445.501 182.5Z" fill="#E6E6E6"/>
<path d="M419.5 182.5L419.001 183L418.499 182.5L419.001 0H420.001L419.5 182.5Z" fill="#E6E6E6"/>
<path d="M123.5 182.5L123.001 183L122.499 182.5L123.001 0H124.001L123.5 182.5Z" fill="#E6E6E6"/>
</svg>
