<svg width="611" height="204" viewBox="0 0 611 204" fill="none" xmlns="http://www.w3.org/2000/svg">
<rect x="611" y="154" width="611" height="2" transform="rotate(-180 611 154)" fill="#C7F0F6"/>
<rect x="611" y="56" width="611" height="2" transform="rotate(-180 611 56)" fill="#C7F0F6"/>
<path d="M553.5 203.5H544.5V190.993L549 184.846L553.5 190.993V203.5Z" fill="#F2C725" stroke="#D5B849"/>
<path d="M392.5 203.5H383.5V190.993L388 184.846L392.5 190.993V203.5Z" fill="#F2C725" stroke="#D5B849"/>
<path d="M309.5 203.5H300.5V190.993L305 184.846L309.5 190.993V203.5Z" fill="#F2C725" stroke="#D5B849"/>
<path d="M63.5 203.5H54.5V190.993L59 184.846L63.5 190.993V203.5Z" fill="#F2C725" stroke="#D5B849"/>
<path d="M483.5 1.5L492.5 1.5V14.0073L488 20.1536L483.5 14.0073V1.5Z" fill="#C8E4FA" stroke="#BBCFE0"/>
<path d="M187.5 1.5L196.5 1.5V14.0073L192 20.1536L187.5 14.0073V1.5Z" fill="#C8E4FA" stroke="#BBCFE0"/>
<path d="M161.5 1.5L170.5 1.5V14.0073L166 20.1536L161.5 14.0073V1.5Z" fill="#C8E4FA" stroke="#BBCFE0"/>
<path d="M483 56.9538V55.6821L332 56V57.2717L333.5 60.1329L335 62.9942L336 66.8092V71.896L337.5 73.4855V77.6185V90.0173L339.5 96.3757V87.7919L340.5 60.1329L343.5 59.4971L345.5 57.2717H356L358.5 57.9075V57.2717H359.5V58.8613L361 60.1329V75.3931L361.5 80.4798L362 87.7919L363.5 91.289V84.9306L364.5 57.2717H366L367.5 57.9075L368.5 57.2717L369.5 58.8613L371 57.9075L372 58.8613H373.5H375.5L378 57.9075H379V58.8613L380.5 59.4971V65.8555L381.5 66.8092V68.7168V72.8497H382.5V70.9422L383.5 67.4451L384 60.7688L385 61.4046V63.948L386 66.1734V69.3526V73.4855L388 63.948H389V66.4913H390.5V63.948H392L393.5 62.9942L395 61.7225V63.948V68.0809V71.578L395.5 75.3931H396.5V78.8902V81.7514L397.5 82.7052V77.6185L398.5 75.3931V74.4393V71.896L400 70.3064V68.7168L402.5 66.1734L403.5 63.948V62.3584V59.4971L404.5 58.8613L405.5 57.9075L406.5 59.4971V60.7688V63.6301V66.1734L407.5 67.4451V69.6705V72.8497H408.5V73.8035C409 73.8035 410 73.9306 410 74.4393C410 74.948 411 75.2871 411.5 75.3931V79.8439L412.5 81.7514L414 83.0231L414.5 84.2948V87.7919L415.5 90.0173L416 87.1561V83.341L417.5 86.2023V91.6069L418.5 93.5145L419.5 85.5665V77.6185V71.2601L420 70.9422V69.3526H421.5V67.1272L422 65.5376L422.5 65.8555L423 66.1734V68.0809V70.3064L423.5 71.896V74.4393H424.5V88.1098L425 88.4277V94.1503V99.237L426 111V99.237H427.5V95.422V87.7919L428.5 87.1561V79.8439V74.4393V70.9422V69.6705L429.5 68.0809V70.3064V72.5318L430.5 72.8497V79.526L431.5 79.8439V83.659V85.5665L432 91.289V94.1503L432.5 96.3757L433.5 97.6474V93.8324V87.1561L434 86.2023V73.8035L435 72.5318V71.2601H435.5V73.4855V77.6185H437V76.9827H437.5V75.3931L438.5 74.7572V72.5318H439V70.3064V68.7168L440.5 68.0809V69.3526L441.5 69.6705V94.7861H442V103.37L443 104.642L443.5 109.728V93.8324L444.5 93.5145V87.7919V81.7514H445.5V72.5318V69.6705L447 68.7168V67.4451H448.5V69.3526V69.6705L449.5 70.3064V71.2601H450.5L451 72.5318V73.8035L452 72.5318V61.4046V60.1329V58.8613H453.5V59.4971V61.7225V63.948L454.5 65.2197V68.0809L455 68.7168V71.896V76.9827V83.659V86.2023V87.1561L456.5 87.7919V91.6069V93.5145L457.5 93.8324V81.7514V76.9827H458.5V72.8497V65.2197L459 63.6301L459.5 65.2197V67.4451V74.4393H460.5V81.7514V85.2486V87.7919L461.5 89.3815V86.8382L462.5 84.9306V80.7977V78.8902L463.5 76.0289V71.896C463.667 71.2601 463.9 69.9249 463.5 69.6705C463.1 69.4162 463.333 67.657 463.5 66.8092C463.667 66.1734 464.1 64.711 464.5 63.948C464.9 63.185 465.333 62.9942 465.5 62.9942V66.1734V68.0809L466.5 69.3526V66.4913L467.5 63.948V61.7225V59.4971L468.5 58.8613V60.1329V61.4046H469.5V62.9942L470.5 63.948V65.2197L471 69.6705L470.5 78.2543L471 86.8382L471.5 87.1561V91.6069L472 92.5607V96.3757L472.5 97.0116L473 99.237V102.098L473.5 104.324V96.0578H474.5V88.7457V70.9422H475.5V71.896L476.5 70.9422V68.0809L477.5 67.4451V62.9942H478.5V66.8092H479.5V69.3526L480.5 69.6705V68.0809L481.5 67.4451V62.3584V60.1329L483 56.9538Z" fill="#00BCD4" stroke="#00BCD4" stroke-width="0.5" stroke-linejoin="round"/>
<path d="M483 55.0462V56.3179L332 56V54.7283L333.5 51.8671L335 49.0058L336 45.1908V40.104L337.5 38.5145V34.3815V21.9827L339.5 15.6243V24.2081L340.5 51.8671L343.5 52.5029L345.5 54.7283L356 54.7283L358.5 54.0925V54.7283H359.5V53.1387L361 51.8671V36.6069L361.5 31.5202L362 24.2081L363.5 20.711V27.0694L364.5 54.7283H366L367.5 54.0925L368.5 54.7283L369.5 53.1387L371 54.0925L372 53.1387H373.5H375.5L378 54.0925H379V53.1387L380.5 52.5029V46.1445L381.5 45.1908V43.2832V39.1503H382.5V41.0578L383.5 44.5549L384 51.2312L385 50.5954V48.052L386 45.8266V42.6474V38.5145L388 48.052H389V45.5087H390.5V48.052H392L393.5 49.0058L395 50.2775V48.052V43.9191V40.422L395.5 36.6069H396.5V33.1098V30.2486L397.5 29.2948V34.3815L398.5 36.6069V37.5607V40.104L400 41.6936V43.2832L402.5 45.8266L403.5 48.052V49.6416V52.5029L404.5 53.1387L405.5 54.0925L406.5 52.5029V51.2312V48.3699V45.8266L407.5 44.5549V42.3295V39.1503H408.5V38.1965C409 38.1965 410 38.0694 410 37.5607C410 37.052 411 36.7129 411.5 36.6069V32.1561L412.5 30.2486L414 28.9769L414.5 27.7052V24.2081L415.5 21.9827L416 24.8439V28.659L417.5 25.7977V20.3931L418.5 18.4855L419.5 26.4335V34.3815V40.7399L420 41.0578V42.6474H421.5V44.8728L422 46.4624L422.5 46.1445L423 45.8266V43.9191V41.6936L423.5 40.104V37.5607H424.5V23.8902L425 23.5723V17.8497V12.763L426 1V12.763H427.5V16.578V24.2081L428.5 24.8439V32.1561V37.5607V41.0578V42.3295L429.5 43.9191V41.6936V39.4682L430.5 39.1503V32.474L431.5 32.1561V28.341V26.4335L432 20.711V17.8497L432.5 15.6243L433.5 14.3526V18.1676V24.8439L434 25.7977V38.1965L435 39.4682V40.7399H435.5V38.5145V34.3815H437V35.0173L437.5 35.0173V36.6069L438.5 37.2428V39.4682H439V41.6936V43.2832L440.5 43.9191V42.6474L441.5 42.3295V17.2139H442V8.63006L443 7.35838L443.5 2.27168V18.1676L444.5 18.4855V24.2081V30.2486H445.5V39.4682V42.3295L447 43.2832V44.5549H448.5V42.6474V42.3295L449.5 41.6936V40.7399H450.5L451 39.4682V38.1965L452 39.4682V50.5954V51.8671V53.1387H453.5V52.5029V50.2775V48.052L454.5 46.7803V43.9191L455 43.2832V40.104V35.0173V28.341V25.7977V24.8439L456.5 24.2081V20.3931V18.4855L457.5 18.1676V30.2486V35.0173H458.5V39.1503V46.7803L459 48.3699L459.5 46.7803V44.5549V37.5607H460.5V30.2486V26.7514V24.2081L461.5 22.6185V25.1618L462.5 27.0694V31.2023V33.1098L463.5 35.9711V40.104C463.667 40.7399 463.9 42.0751 463.5 42.3295C463.1 42.5838 463.333 44.343 463.5 45.1908C463.667 45.8266 464.1 47.289 464.5 48.052C464.9 48.815 465.333 49.0058 465.5 49.0058V45.8266V43.9191L466.5 42.6474V45.5087L467.5 48.052V50.2775V52.5029L468.5 53.1387V51.8671V50.5954H469.5V49.0058L470.5 48.052V46.7803L471 42.3295L470.5 33.7457L471 25.1618L471.5 24.8439V20.3931L472 19.4393V15.6243L472.5 14.9884L473 12.763V9.90173L473.5 7.6763V15.9422H474.5V23.2543V41.0578H475.5V40.104L476.5 41.0578V43.9191L477.5 44.5549V49.0058H478.5V45.1908H479.5V42.6474L480.5 42.3295V43.9191L481.5 44.5549V49.6416V51.8671L483 55.0462Z" fill="#00BCD4" stroke="#00BCD4" stroke-width="0.5" stroke-linejoin="round"/>
<path d="M166 153.254V152.249L15 152.5V153.506L16.5 155.769L18 158.032L19 161.049V165.072L20.5 166.329V169.598V179.405L22.5 184.434V177.645L23.5 155.769L26.5 155.266L28.5 153.506H39L41.5 154.009V153.506H42.5V154.763L44 155.769V167.838L44.5 171.861L45 177.645L46.5 180.41V175.382L47.5 153.506H49L50.5 154.009L51.5 153.506L52.5 154.763L54 154.009L55 154.763H56.5H58.5L61 154.009H62V154.763L63.5 155.266V160.295L64.5 161.049V162.558V165.827H65.5V164.318L66.5 161.552L67 156.272L68 156.775V158.786L69 160.546V163.061V166.329L71 158.786H72V160.798H73.5V158.786H75L76.5 158.032L78 157.026V158.786V162.055V164.821L78.5 167.838H79.5V170.604V172.867L80.5 173.621V169.598L81.5 167.838V167.084V165.072L83 163.815V162.558L85.5 160.546L86.5 158.786V157.529V155.266L87.5 154.763L88.5 154.009L89.5 155.266V156.272V158.535V160.546L90.5 161.552V163.312V165.827H91.5V166.581C92 166.581 93 166.682 93 167.084C93 167.486 94 167.754 94.5 167.838V171.358L95.5 172.867L97 173.873L97.5 174.879V177.645L98.5 179.405L99 177.142V174.124L100.5 176.387V180.662L101.5 182.171L102.5 175.884V169.598V164.569L103 164.318V163.061H104.5V161.301L105 160.043L105.5 160.295L106 160.546V162.055V163.815L106.5 165.072V167.084H107.5V177.896L108 178.147V182.673V186.697L109 196V186.697H110.5V183.679V177.645L111.5 177.142V171.358V167.084V164.318V163.312L112.5 162.055V163.815V165.575L113.5 165.827V171.107L114.5 171.358V174.376V175.884L115 180.41V182.673L115.5 184.434L116.5 185.439V182.422V177.142L117 176.387V166.581L118 165.575V164.569H118.5V166.329V169.598H120V169.095H120.5V167.838L121.5 167.335V165.575H122V163.815V162.558L123.5 162.055V163.061L124.5 163.312V183.176H125V189.965L126 190.971L126.5 194.994V182.422L127.5 182.171V177.645V172.867H128.5V165.575V163.312L130 162.558V161.552H131.5V163.061V163.312L132.5 163.815V164.569H133.5L134 165.575V166.581L135 165.575V156.775V155.769V154.763H136.5V155.266V157.026V158.786L137.5 159.792V162.055L138 162.558V165.072V169.095V174.376V176.387V177.142L139.5 177.645V180.662V182.171L140.5 182.422V172.867V169.095H141.5V165.827V159.792L142 158.535L142.5 159.792V161.552V167.084H143.5V172.867V175.633V177.645L144.5 178.902V176.89L145.5 175.382V172.113V170.604L146.5 168.341V165.072C146.667 164.569 146.9 163.513 146.5 163.312C146.1 163.111 146.333 161.72 146.5 161.049C146.667 160.546 147.1 159.39 147.5 158.786C147.9 158.183 148.333 158.032 148.5 158.032V160.546V162.055L149.5 163.061V160.798L150.5 158.786V157.026V155.266L151.5 154.763V155.769V156.775H152.5V158.032L153.5 158.786V159.792L154 163.312L153.5 170.101L154 176.89L154.5 177.142V180.662L155 181.416V184.434L155.5 184.936L156 186.697V188.96L156.5 190.72V184.182H157.5V178.399V164.318H158.5V165.072L159.5 164.318V162.055L160.5 161.552V158.032H161.5V161.049H162.5V163.061L163.5 163.312V162.055L164.5 161.552V157.529V155.769L166 153.254Z" fill="#00BCD4" stroke="#00BCD4" stroke-width="0.5" stroke-linejoin="round"/>
<path d="M166 151.746V152.751L15 152.5V151.494L16.5 149.231L18 146.968L19 143.951V139.928L20.5 138.67V135.402V125.595L22.5 120.566V127.355L23.5 149.231L26.5 149.734L28.5 151.494H39L41.5 150.991V151.494H42.5V150.237L44 149.231L44 137.162L44.5 133.139L45 127.355L46.5 124.589V129.618L47.5 151.494H49L50.5 150.991L51.5 151.494L52.5 150.237L54 150.991L55 150.237H56.5H58.5L61 150.991H62V150.237L63.5 149.734V144.705L64.5 143.951V142.442V139.173H65.5V140.682L66.5 143.448L67 148.728L68 148.225V146.214L69 144.454V141.939V138.67L71 146.214H72V144.202H73.5V146.214H75L76.5 146.968L78 147.974V146.214V142.945V140.179L78.5 137.162H79.5V134.396V132.133L80.5 131.378V135.402L81.5 137.162V137.916L81.5 139.928L83 141.185V142.442L85.5 144.454L86.5 146.214V147.471V149.734L87.5 150.237L88.5 150.991L89.5 149.734V148.728V146.465V144.454L90.5 143.448V141.688V139.173H91.5V138.419C92 138.419 93 138.318 93 137.916C93 137.514 94 137.246 94.5 137.162V133.641L95.5 132.133L97 131.127L97.5 130.121V127.355L98.5 125.595L99 127.858V130.876L100.5 128.613V124.338L101.5 122.829L102.5 129.115V135.402V140.431L103 140.682V141.939H104.5V143.699L105 144.957L105.5 144.705L106 144.454V142.945V141.185L106.5 139.928V137.916H107.5V127.104L108 126.852V122.326V118.303L109 109V118.303H110.5V121.321V127.355L111.5 127.858V133.641V137.916V140.682V141.688L112.5 142.945V141.185V139.425L113.5 139.173V133.893L114.5 133.641V130.624V129.115L115 124.589V122.326L115.5 120.566L116.5 119.561V122.578V127.858L117 128.613V138.419L118 139.425V140.431H118.5V138.67V135.402H120V135.905H120.5V137.162L121.5 137.665V139.425H122V141.185V142.442L123.5 142.945V141.939L124.5 141.688V121.824H125V115.035L126 114.029L126.5 110.006V122.578L127.5 122.829V127.355V132.133H128.5V139.425V141.688L130 142.442V143.448H131.5V141.939V141.688L132.5 141.185V140.431H133.5L134 139.425V138.419L135 139.425V148.225V149.231V150.237H136.5V149.734V147.974V146.214L137.5 145.208V142.945L138 142.442V139.928V135.905V130.624V128.613V127.858L139.5 127.355V124.338V122.829L140.5 122.578V132.133V135.905H141.5V139.173V145.208L142 146.465L142.5 145.208V143.448V137.916H143.5V132.133V129.367V127.355L144.5 126.098V128.11L145.5 129.618V132.887V134.396L146.5 136.659V139.928C146.667 140.431 146.9 141.487 146.5 141.688C146.1 141.889 146.333 143.28 146.5 143.951C146.667 144.454 147.1 145.61 147.5 146.214C147.9 146.817 148.333 146.968 148.5 146.968V144.454V142.945L149.5 141.939V144.202L150.5 146.214V147.974V149.734L151.5 150.237V149.231V148.225H152.5V146.968L153.5 146.214V145.208L154 141.688L153.5 134.899L154 128.11L154.5 127.858V124.338L155 123.584V120.566L155.5 120.063L156 118.303V116.04L156.5 114.28V120.818H157.5V126.601V140.682H158.5V139.928L159.5 140.682V142.945L160.5 143.448V146.968H161.5V143.951H162.5V141.939L163.5 141.688V142.945L164.5 143.448V147.471V149.231L166 151.746Z" fill="#00BCD4" stroke="#00BCD4" stroke-width="0.5" stroke-linejoin="round"/>
<path d="M219 154.254V153.249L305 153.5V154.506L304.145 156.769L303.291 159.032L302.722 162.049V166.072L301.867 167.329V170.598V180.405L300.728 185.434V178.645L300.159 156.769L298.45 156.266L297.311 154.506H291.331L289.907 155.009V154.506H289.338V155.763L288.483 156.769V168.838L288.198 172.861L287.914 178.645L287.059 181.41V176.382L286.49 154.506H285.636L284.781 155.009L284.212 154.506L283.642 155.763L282.788 155.009L282.218 155.763H281.364H280.225L278.801 155.009H278.232V155.763L277.377 156.266V161.295L276.808 162.049V163.558V166.827H276.238V165.318L275.669 162.552L275.384 157.272L274.814 157.775V159.786L274.245 161.546V164.061V167.329L273.106 159.786H272.536V161.798H271.682V159.786H270.828L269.973 159.032L269.119 158.026V159.786V163.055V165.821L268.834 168.838H268.265V171.604V173.867L267.695 174.621V170.598L267.126 168.838V168.084V166.072L266.271 164.815V163.558L264.847 161.546L264.278 159.786V158.529V156.266L263.708 155.763L263.139 155.009L262.569 156.266V157.272V159.535V161.546L262 162.552V164.312V166.827H261.43V167.581C261.145 167.581 260.576 167.682 260.576 168.084C260.576 168.486 260.006 168.754 259.722 168.838V172.358L259.152 173.867L258.298 174.873L258.013 175.879V178.645L257.443 180.405L257.159 178.142V175.124L256.304 177.387V181.662L255.735 183.171L255.165 176.884V170.598V165.569L254.881 165.318V164.061H254.026V162.301L253.741 161.043L253.457 161.295L253.172 161.546V163.055V164.815L252.887 166.072V168.084H252.318V178.896L252.033 179.147V183.673V187.697L251.463 197V187.697H250.609V184.679V178.645L250.039 178.142V172.358V168.084V165.318V164.312L249.47 163.055V164.815V166.575L248.9 166.827V172.107L248.331 172.358V175.376V176.884L248.046 181.41V183.673L247.761 185.434L247.192 186.439V183.422V178.142L246.907 177.387V167.581L246.338 166.575V165.569H246.053V167.329V170.598H245.198V170.095H244.914V168.838L244.344 168.335V166.575H244.059V164.815V163.558L243.205 163.055V164.061L242.636 164.312V184.176H242.351V190.965L241.781 191.971L241.496 195.994V183.422L240.927 183.171V178.645V173.867H240.357V166.575V164.312L239.503 163.558V162.552H238.649V164.061V164.312L238.079 164.815V165.569H237.51L237.225 166.575V167.581L236.655 166.575V157.775V156.769V155.763H235.801V156.266V158.026V159.786L235.232 160.792V163.055L234.947 163.558V166.072V170.095V175.376V177.387V178.142L234.092 178.645V181.662V183.171L233.523 183.422V173.867V170.095H232.953V166.827V160.792L232.669 159.535L232.384 160.792V162.552V168.084H231.814V173.867V176.633V178.645L231.245 179.902V177.89L230.675 176.382V173.113V171.604L230.106 169.341V166.072C230.011 165.569 229.878 164.513 230.106 164.312C230.334 164.111 230.201 162.72 230.106 162.049C230.011 161.546 229.764 160.39 229.536 159.786C229.308 159.183 229.062 159.032 228.967 159.032V161.546V163.055L228.397 164.061V161.798L227.828 159.786V158.026V156.266L227.258 155.763V156.769V157.775H226.688V159.032L226.119 159.786V160.792L225.834 164.312L226.119 171.101L225.834 177.89L225.549 178.142V181.662L225.265 182.416V185.434L224.98 185.936L224.695 187.697V189.96L224.41 191.72V185.182H223.841V179.399V165.318H223.271V166.072L222.702 165.318V163.055L222.132 162.552V159.032H221.563V162.049H220.993V164.061L220.424 164.312V163.055L219.854 162.552V158.529V156.769L219 154.254Z" fill="#00BCD4" stroke="#00BCD4" stroke-width="0.5" stroke-linejoin="round"/>
<path d="M219 152.746V153.751L305 153.5V152.494L304.145 150.231L303.291 147.968L302.722 144.951V140.928L301.867 139.671V136.402V126.595L300.728 121.566V128.355L300.159 150.231L298.45 150.734L297.311 152.494H291.331L289.907 151.991V152.494H289.338V151.237L288.483 150.231V138.162L288.198 134.139L287.914 128.355L287.059 125.59V130.618L286.49 152.494H285.636L284.781 151.991L284.212 152.494L283.642 151.237L282.788 151.991L282.218 151.237H281.364H280.225L278.801 151.991H278.232V151.237L277.377 150.734V145.705L276.808 144.951V143.442V140.173H276.238V141.682L275.669 144.448L275.384 149.728L274.814 149.225V147.214L274.245 145.454V142.939V139.671L273.106 147.214H272.536V145.202H271.682V147.214H270.828L269.973 147.968L269.119 148.974V147.214V143.945V141.179L268.834 138.162H268.265V135.396V133.133L267.695 132.379V136.402L267.126 138.162V138.916V140.928L266.271 142.185V143.442L264.847 145.454L264.278 147.214V148.471V150.734L263.708 151.237L263.139 151.991L262.569 150.734V149.728V147.465V145.454L262 144.448V142.688V140.173H261.43V139.419C261.145 139.419 260.576 139.318 260.576 138.916C260.576 138.514 260.006 138.246 259.722 138.162V134.642L259.152 133.133L258.298 132.127L258.013 131.121V128.355L257.443 126.595L257.159 128.858V131.876L256.304 129.613V125.338L255.735 123.829L255.165 130.116V136.402V141.431L254.881 141.682V142.939H254.026V144.699L253.741 145.957L253.457 145.705L253.172 145.454V143.945V142.185L252.887 140.928V138.916H252.318V128.104L252.033 127.853V123.327V119.303L251.463 110V119.303H250.609V122.321V128.355L250.039 128.858V134.642V138.916V141.682V142.688L249.47 143.945V142.185V140.425L248.9 140.173V134.893L248.331 134.642V131.624V130.116L248.046 125.59V123.327L247.761 121.566L247.192 120.561V123.578V128.858L246.907 129.613V139.419L246.338 140.425V141.431H246.053V139.671V136.402H245.198V136.905H244.914V138.162L244.344 138.665V140.425H244.059V142.185V143.442L243.205 143.945V142.939L242.636 142.688V122.824H242.351V116.035L241.781 115.029L241.496 111.006V123.578L240.927 123.829V128.355V133.133H240.357V140.425V142.688L239.503 143.442V144.448H238.649V142.939V142.688L238.079 142.185V141.431H237.51L237.225 140.425V139.419L236.655 140.425V149.225V150.231V151.237H235.801V150.734V148.974V147.214L235.232 146.208V143.945L234.947 143.442V140.928V136.905V131.624V129.613V128.858L234.092 128.355V125.338V123.829L233.523 123.578V133.133V136.905H232.953V140.173V146.208L232.669 147.465L232.384 146.208V144.448V138.916H231.814V133.133V130.367V128.355L231.245 127.098V129.11L230.675 130.618V133.887V135.396L230.106 137.659V140.928C230.011 141.431 229.878 142.487 230.106 142.688C230.334 142.889 230.201 144.28 230.106 144.951C230.011 145.454 229.764 146.61 229.536 147.214C229.308 147.817 229.062 147.968 228.967 147.968V145.454V143.945L228.397 142.939V145.202L227.828 147.214V148.974V150.734L227.258 151.237V150.231V149.225H226.688V147.968L226.119 147.214V146.208L225.834 142.688L226.119 135.899L225.834 129.11L225.549 128.858V125.338L225.265 124.584V121.566L224.98 121.064L224.695 119.303V117.04L224.41 115.28V121.818H223.841V127.601V141.682H223.271V140.928L222.702 141.682V143.945L222.132 144.448V147.968H221.563V144.951H220.993V142.939L220.424 142.688V143.945L219.854 144.448V148.471V150.231L219 152.746Z" fill="#00BCD4" stroke="#00BCD4" stroke-width="0.5" stroke-linejoin="round"/>
<path d="M582.09 163.714L584.357 161.295L584.583 159.145L585.433 157.532L586 153.5H569V154.575L569.85 157.263L571.55 154.844H573.817L574.95 156.188V166.133V173.122L575.8 183.336L576.933 171.24V166.133C576.933 165.273 578.067 164.52 578.633 164.252V167.208L579.767 171.24V186.292L580.9 190.324V200L581.467 196.775L582.033 192.474V186.292L582.09 163.714Z" fill="#00BCD4" stroke="#00BCD4" stroke-width="0.5" stroke-linejoin="round"/>
<path d="M582.09 143.286L584.357 145.705L584.583 147.855L585.433 149.468L586 153.5H569V152.425L569.85 149.737L571.55 152.156H573.817L574.95 150.812V140.867V133.878L575.8 123.665L576.933 135.76V140.867C576.933 141.727 578.067 142.48 578.633 142.748V139.792L579.767 135.76V120.708L580.9 116.676V107L581.467 110.225L582.033 114.526V120.708L582.09 143.286Z" fill="#00BCD4" stroke="#00BCD4" stroke-width="0.5" stroke-linejoin="round"/>
<path d="M519.09 163.714L521.357 161.295L521.584 159.145L522.434 157.532L523 153.5H506V154.575L506.85 157.263L508.55 154.844H510.817L511.95 156.188V166.133V173.122L512.8 183.336L513.934 171.24V166.133C513.934 165.273 515.067 164.52 515.634 164.252V167.208L516.767 171.24V186.292L517.9 190.324V200L518.467 196.775L519.034 192.474V186.292L519.09 163.714Z" fill="#00BCD4" stroke="#00BCD4" stroke-width="0.5" stroke-linejoin="round"/>
<path d="M519.09 143.286L521.357 145.705L521.584 147.855L522.434 149.468L523 153.5H506V152.425L506.85 149.737L508.55 152.156H510.817L511.95 150.812V140.867V133.878L512.8 123.665L513.934 135.76V140.867C513.934 141.727 515.067 142.48 515.634 142.748V139.792L516.767 135.76V120.708L517.9 116.676V107L518.467 110.225L519.034 114.526V120.708L519.09 143.286Z" fill="#00BCD4" stroke="#00BCD4" stroke-width="0.5" stroke-linejoin="round"/>
<path d="M381.09 163.006L383.357 160.873L383.583 158.977L384.433 157.555L385 154H368V154.948L368.85 157.318L370.55 155.185H372.817L373.95 156.37V165.138V171.3L374.8 180.306L375.933 169.641V165.138C375.933 164.38 377.067 163.717 377.633 163.48V166.086L378.767 169.641V182.913L379.9 186.468V195L380.467 192.156L381.033 188.364V182.913L381.09 163.006Z" fill="#00BCD4" stroke="#00BCD4" stroke-width="0.5" stroke-linejoin="round"/>
<path d="M381.09 144.994L383.357 147.127L383.583 149.023L384.433 150.445L385 154H368V153.052L368.85 150.682L370.55 152.815H372.817L373.95 151.63V142.861V136.699L374.8 127.694L375.933 138.358V142.861C375.933 143.62 377.067 144.283 377.633 144.52V141.913L378.767 138.358V125.087L379.9 121.532V113L380.467 115.844L381.033 119.636V125.087L381.09 144.994Z" fill="#00BCD4" stroke="#00BCD4" stroke-width="0.5" stroke-linejoin="round"/>
<path d="M192.09 64.6879L194.357 62.8671L194.583 61.2486L195.433 60.0347L196 57H179V57.8092L179.85 59.8324L181.55 58.0116H183.817L184.95 59.0231V66.5087V71.7688L185.8 79.4566L186.933 70.3526V66.5087C186.933 65.8613 188.067 65.2948 188.633 65.0925V67.3179L189.767 70.3526V81.6821L190.9 84.7168V92L191.467 89.5723L192.033 86.3353V81.6821L192.09 64.6879Z" fill="#00BCD4" stroke="#00BCD4" stroke-width="0.5" stroke-linejoin="round"/>
<path d="M192.09 49.3121L194.357 51.1329L194.583 52.7514L195.433 53.9653L196 57H179V56.1908L179.85 54.1676L181.55 55.9884H183.817L184.95 54.9769V47.4913V42.2312L185.8 34.5434L186.933 43.6474V47.4913C186.933 48.1387 188.067 48.7052 188.633 48.9075V46.6821L189.767 43.6474V32.3179L190.9 29.2832V22L191.467 24.4277L192.033 27.6647V32.3179L192.09 49.3121Z" fill="#00BCD4" stroke="#00BCD4" stroke-width="0.5" stroke-linejoin="round"/>
<path d="M167.91 64.6879L165.644 62.8671L165.417 61.2486L164.567 60.0347L164 57H181V57.8092L180.15 59.8324L178.45 58.0116H176.184L175.05 59.0231V66.5087V71.7688L174.2 79.4566L173.067 70.3526V66.5087C173.067 65.8613 171.934 65.2948 171.367 65.0925V67.3179L170.234 70.3526V81.6821L169.1 84.7168V92L168.534 89.5723L167.967 86.3353V81.6821L167.91 64.6879Z" fill="#00BCD4" stroke="#00BCD4" stroke-width="0.5" stroke-linejoin="round"/>
<path d="M167.91 49.3121L165.644 51.1329L165.417 52.7514L164.567 53.9653L164 57H181V56.1908L180.15 54.1676L178.45 55.9884H176.184L175.05 54.9769V47.4913V42.2312L174.2 34.5434L173.067 43.6474V47.4913C173.067 48.1387 171.934 48.7052 171.367 48.9075V46.6821L170.234 43.6474V32.3179L169.1 29.2832V22L168.534 24.4277L167.967 27.6647V32.3179L167.91 49.3121Z" fill="#00BCD4" stroke="#00BCD4" stroke-width="0.5" stroke-linejoin="round"/>
<path d="M549.499 183.5L549 184L548.499 183.5L549 1H550L549.499 183.5Z" fill="#E6E6E6"/>
<path d="M388.499 183.5L388 184L387.499 183.5L388 1H389L388.499 183.5Z" fill="#E6E6E6"/>
<path d="M305.499 183.5L305 184L304.499 183.5L305 1H306L305.499 183.5Z" fill="#E6E6E6"/>
<path d="M59.4986 183.5L59 184L58.4986 183.5L59 1H60L59.4986 183.5Z" fill="#E6E6E6"/>
<path d="M165.499 21.5L165.997 21L166.5 21.5L165.997 204H164.997L165.499 21.5Z" fill="#E6E6E6"/>
<path d="M191.5 21.5L191.999 21L192.501 21.5L191.999 204H190.999L191.5 21.5Z" fill="#E6E6E6"/>
<path d="M487.5 21.5L487.999 21L488.501 21.5L487.999 204H486.999L487.5 21.5Z" fill="#E6E6E6"/>
</svg>
